<svg width="480" height="334" viewBox="0 0 480 334" fill="none" xmlns="http://www.w3.org/2000/svg">
<path d="M442.004 202.634H26.5481V204.803H442.004V202.634Z" fill="#263238"/>
<path d="M310.401 167.709V83.6962" stroke="#263238" stroke-width="0.64" stroke-linecap="round" stroke-linejoin="round"/>
<path d="M310.401 203.914V171.792" stroke="#263238" stroke-width="0.64" stroke-linecap="round" stroke-linejoin="round"/>
<path d="M202.881 107.376V84.445" stroke="#263238" stroke-width="0.64" stroke-linecap="round" stroke-linejoin="round"/>
<path d="M202.881 203.914V111.459" stroke="#263238" stroke-width="0.64" stroke-linecap="round" stroke-linejoin="round"/>
<path d="M418.138 101.936V83.6962" stroke="#263238" stroke-width="0.64" stroke-linecap="round" stroke-linejoin="round"/>
<path d="M418.138 203.914V106.013" stroke="#263238" stroke-width="0.64" stroke-linecap="round" stroke-linejoin="round"/>
<path d="M95.1431 203.914V84.445" stroke="#263238" stroke-width="0.64" stroke-linecap="round" stroke-linejoin="round"/>
<path d="M411.996 144.899H431.727" stroke="#263238" stroke-width="0.64" stroke-linecap="round" stroke-linejoin="round"/>
<path d="M146.158 144.899H408.82" stroke="#263238" stroke-width="0.64" stroke-linecap="round" stroke-linejoin="round"/>
<path d="M85.7606 144.899H142.983" stroke="#263238" stroke-width="0.64" stroke-linecap="round" stroke-linejoin="round"/>
<path d="M270.504 123.171L269.026 124.074" stroke="#263238" stroke-width="0.32" stroke-linecap="round" stroke-linejoin="round"/>
<path d="M295.348 107.856L272.481 121.949" stroke="#263238" stroke-width="0.32" stroke-linecap="round" stroke-linejoin="round"/>
<path d="M298.363 108.81L280.046 120.099" stroke="#263238" stroke-width="0.32" stroke-linecap="round" stroke-linejoin="round"/>
<path d="M306.363 103.882L300.833 107.287" stroke="#263238" stroke-width="0.32" stroke-linecap="round" stroke-linejoin="round"/>
<path d="M124.61 123.171L123.138 124.074" stroke="#263238" stroke-width="0.32" stroke-linecap="round" stroke-linejoin="round"/>
<path d="M149.453 107.856L126.586 121.949" stroke="#263238" stroke-width="0.32" stroke-linecap="round" stroke-linejoin="round"/>
<path d="M152.467 108.81L134.151 120.1" stroke="#263238" stroke-width="0.32" stroke-linecap="round" stroke-linejoin="round"/>
<path d="M160.468 103.882L154.938 107.287" stroke="#263238" stroke-width="0.32" stroke-linecap="round" stroke-linejoin="round"/>
<path d="M357.588 123.171L356.116 124.074" stroke="#263238" stroke-width="0.32" stroke-linecap="round" stroke-linejoin="round"/>
<path d="M382.433 107.856L359.566 121.949" stroke="#263238" stroke-width="0.32" stroke-linecap="round" stroke-linejoin="round"/>
<path d="M385.447 108.81L367.131 120.099" stroke="#263238" stroke-width="0.32" stroke-linecap="round" stroke-linejoin="round"/>
<path d="M393.448 103.882L387.918 107.287" stroke="#263238" stroke-width="0.32" stroke-linecap="round" stroke-linejoin="round"/>
<path d="M176.257 173.872L133.108 200.464" stroke="#263238" stroke-width="0.32" stroke-linecap="round" stroke-linejoin="round"/>
<path d="M181.947 175.671L147.381 196.976" stroke="#263238" stroke-width="0.32" stroke-linecap="round" stroke-linejoin="round"/>
<path d="M197.044 166.365L186.606 172.797" stroke="#263238" stroke-width="0.32" stroke-linecap="round" stroke-linejoin="round"/>
<path d="M285.3 200.496L282.516 202.211" stroke="#263238" stroke-width="0.32" stroke-linecap="round" stroke-linejoin="round"/>
<path d="M332.187 171.607L289.038 198.199" stroke="#263238" stroke-width="0.32" stroke-linecap="round" stroke-linejoin="round"/>
<path d="M337.877 173.399L303.311 194.704" stroke="#263238" stroke-width="0.32" stroke-linecap="round" stroke-linejoin="round"/>
<path d="M352.974 164.099L342.536 170.531" stroke="#263238" stroke-width="0.32" stroke-linecap="round" stroke-linejoin="round"/>
<path d="M155.098 80.9061V72.8805H144.858V80.9253C142.066 82.1177 139.692 84.1142 138.038 86.6603C136.384 89.2065 135.526 92.1871 135.571 95.2229C135.571 95.3381 135.571 95.4597 135.571 95.5749H164.371C164.371 95.4597 164.371 95.3381 164.371 95.2229C164.423 92.1852 163.568 89.201 161.917 86.651C160.265 84.1011 157.891 82.101 155.098 80.9061Z" fill="#263238" stroke="#263238" stroke-width="0.64" stroke-linecap="round" stroke-linejoin="round"/>
<path d="M149.977 72.8611V53.6611" stroke="#263238" stroke-width="0.64" stroke-linecap="round" stroke-linejoin="round"/>
<path d="M357.338 80.9061V72.8805H347.098V80.9253C344.306 82.1177 341.932 84.1142 340.278 86.6603C338.624 89.2065 337.766 92.1871 337.811 95.2229C337.811 95.3381 337.811 95.4597 337.811 95.5749H366.611C366.611 95.4597 366.611 95.3381 366.611 95.2229C366.663 92.1852 365.808 89.201 364.157 86.651C362.505 84.1011 360.131 82.101 357.338 80.9061Z" fill="#263238" stroke="#263238" stroke-width="0.64" stroke-linecap="round" stroke-linejoin="round"/>
<path d="M352.217 72.8611V53.6611" stroke="#263238" stroke-width="0.64" stroke-linecap="round" stroke-linejoin="round"/>
<path d="M16.6394 290.46H450.559" stroke="#263238" stroke-width="0.64" stroke-linecap="round" stroke-linejoin="round"/>
<path d="M425.709 197.495L433.043 267.76" stroke="#263238" stroke-width="1.28" stroke-miterlimit="10"/>
<path d="M431.86 254.314L428.539 250.8" stroke="#263238" stroke-width="1.28" stroke-miterlimit="10"/>
<path d="M429.55 251.856C429.544 251.318 429.422 250.788 429.194 250.301C428.965 249.814 428.635 249.382 428.225 249.034C427.374 248.272 422.881 246.384 422.465 247.965C421.992 249.687 426.587 253.066 429.55 251.856Z" fill="#36CD01" stroke="#263238" stroke-width="0.64" stroke-miterlimit="10"/>
<path d="M429.549 251.856L425.274 249.188" stroke="#263238" stroke-width="0.32" stroke-miterlimit="10"/>
<path d="M432.697 262.301L429.369 258.794" stroke="#263238" stroke-width="1.28" stroke-miterlimit="10"/>
<path d="M430.38 259.843C430.374 259.306 430.252 258.777 430.024 258.291C429.795 257.805 429.465 257.374 429.055 257.027C428.204 256.266 423.711 254.371 423.295 255.958C422.822 257.674 427.423 261.04 430.38 259.843Z" fill="#36CD01" stroke="#263238" stroke-width="0.64" stroke-miterlimit="10"/>
<path d="M430.382 259.843L426.106 257.181" stroke="#263238" stroke-width="0.32" stroke-miterlimit="10"/>
<path d="M429.823 234.813L426.501 231.3" stroke="#263238" stroke-width="1.28" stroke-miterlimit="10"/>
<path d="M427.521 232.356C427.515 231.818 427.393 231.288 427.165 230.801C426.936 230.314 426.606 229.882 426.196 229.533C425.345 228.772 420.852 226.884 420.436 228.464C419.956 230.186 424.551 233.565 427.521 232.356Z" fill="#36CD01" stroke="#263238" stroke-width="0.64" stroke-miterlimit="10"/>
<path d="M427.514 232.356L423.239 229.693" stroke="#263238" stroke-width="0.32" stroke-miterlimit="10"/>
<path d="M430.662 242.807L427.334 239.293" stroke="#263238" stroke-width="1.28" stroke-miterlimit="10"/>
<path d="M428.345 240.343C428.339 239.806 428.217 239.277 427.989 238.791C427.76 238.305 427.43 237.874 427.02 237.527C426.169 236.765 421.676 234.877 421.26 236.458C420.787 238.173 425.388 241.552 428.345 240.343Z" fill="#36CD01" stroke="#263238" stroke-width="0.64" stroke-miterlimit="10"/>
<path d="M428.347 240.343L424.071 237.68" stroke="#263238" stroke-width="0.32" stroke-miterlimit="10"/>
<path d="M428.474 221.834L425.146 218.32" stroke="#263238" stroke-width="1.28" stroke-miterlimit="10"/>
<path d="M426.158 219.376C426.151 218.838 426.03 218.308 425.801 217.821C425.573 217.334 425.242 216.902 424.833 216.554C423.982 215.792 419.489 213.904 419.073 215.485C418.599 217.207 423.201 220.579 426.158 219.376Z" fill="#36CD01" stroke="#263238" stroke-width="0.64" stroke-miterlimit="10"/>
<path d="M426.157 219.376L421.881 216.708" stroke="#263238" stroke-width="0.32" stroke-miterlimit="10"/>
<path d="M427.11 208.797L423.789 205.283" stroke="#263238" stroke-width="1.28" stroke-miterlimit="10"/>
<path d="M424.8 206.333C424.792 205.797 424.669 205.268 424.441 204.782C424.212 204.297 423.883 203.866 423.475 203.517C422.618 202.755 418.131 200.867 417.715 202.448C417.242 204.163 421.837 207.543 424.8 206.333Z" fill="#36CD01" stroke="#263238" stroke-width="0.64" stroke-miterlimit="10"/>
<path d="M424.799 206.333L420.524 203.671" stroke="#263238" stroke-width="0.32" stroke-miterlimit="10"/>
<path d="M431.301 249.584L433.829 245.463" stroke="#263238" stroke-width="1.28" stroke-miterlimit="10"/>
<path d="M433.062 246.698C432.956 246.172 432.965 245.629 433.088 245.107C433.21 244.585 433.444 244.095 433.772 243.67C434.451 242.749 438.451 239.971 439.199 241.43C440.006 243.018 436.204 247.274 433.062 246.698Z" fill="#36CD01" stroke="#263238" stroke-width="0.64" stroke-miterlimit="10"/>
<path d="M433.061 246.698L436.908 243.024" stroke="#263238" stroke-width="0.32" stroke-miterlimit="10"/>
<path d="M429.106 228.554L431.634 224.432" stroke="#263238" stroke-width="1.28" stroke-miterlimit="10"/>
<path d="M430.867 225.674C430.761 225.147 430.77 224.603 430.893 224.08C431.015 223.557 431.249 223.066 431.577 222.64C432.256 221.719 436.256 218.941 437.005 220.4C437.811 222 434.009 226.244 430.867 225.674Z" fill="#36CD01" stroke="#263238" stroke-width="0.64" stroke-miterlimit="10"/>
<path d="M430.866 225.674L434.713 221.994" stroke="#263238" stroke-width="0.32" stroke-miterlimit="10"/>
<path d="M428.146 219.312L430.668 215.191" stroke="#263238" stroke-width="1.28" stroke-miterlimit="10"/>
<path d="M429.902 216.432C429.796 215.905 429.805 215.362 429.928 214.838C430.05 214.315 430.284 213.824 430.612 213.399C431.291 212.477 435.297 209.699 436.04 211.159C436.846 212.746 433.051 217.002 429.902 216.432Z" fill="#36CD01" stroke="#263238" stroke-width="0.64" stroke-miterlimit="10"/>
<path d="M429.901 216.432L433.754 212.752" stroke="#263238" stroke-width="0.32" stroke-miterlimit="10"/>
<path d="M426.734 205.77L429.262 201.648" stroke="#263238" stroke-width="1.28" stroke-miterlimit="10"/>
<path d="M428.487 202.883C428.381 202.356 428.39 201.813 428.513 201.29C428.636 200.766 428.869 200.275 429.197 199.85C429.875 198.928 433.882 196.151 434.624 197.61C435.43 199.203 431.635 203.44 428.487 202.883Z" fill="#36CD01" stroke="#263238" stroke-width="0.64" stroke-miterlimit="10"/>
<path d="M428.487 202.883L432.339 199.203" stroke="#263238" stroke-width="0.32" stroke-miterlimit="10"/>
<path d="M425.652 197.104C425.546 196.577 425.555 196.033 425.678 195.51C425.801 194.987 426.034 194.496 426.362 194.07C427.04 193.149 431.04 190.378 431.789 191.837C432.596 193.424 428.8 197.68 425.652 197.104Z" fill="#36CD01" stroke="#263238" stroke-width="0.64" stroke-miterlimit="10"/>
<path d="M425.651 197.104L429.498 193.424" stroke="#263238" stroke-width="0.32" stroke-miterlimit="10"/>
<path d="M425.875 197.264C425.34 197.313 424.8 197.247 424.292 197.071C423.784 196.894 423.32 196.611 422.931 196.24C422.086 195.466 419.731 191.197 421.273 190.608C422.937 190 426.771 194.192 425.875 197.264Z" fill="#36CD01" stroke="#263238" stroke-width="0.64" stroke-miterlimit="10"/>
<path d="M425.876 197.264L422.619 193.046" stroke="#263238" stroke-width="0.32" stroke-miterlimit="10"/>
<path d="M445.049 207.171L437.759 277.443" stroke="#263238" stroke-width="1.28" stroke-miterlimit="10"/>
<path d="M439.372 264.035L436.844 259.92" stroke="#263238" stroke-width="1.28" stroke-miterlimit="10"/>
<path d="M437.614 261.155C437.719 260.628 437.71 260.085 437.587 259.561C437.465 259.038 437.231 258.547 436.903 258.122C436.225 257.2 432.218 254.429 431.476 255.888C430.67 257.475 434.471 261.731 437.614 261.155Z" fill="#36CD01" stroke="#263238" stroke-width="0.64" stroke-miterlimit="10"/>
<path d="M437.614 261.156L433.979 257.668" stroke="#263238" stroke-width="0.32" stroke-miterlimit="10"/>
<path d="M441.394 244.535L438.866 240.42" stroke="#263238" stroke-width="1.28" stroke-miterlimit="10"/>
<path d="M439.636 241.655C439.742 241.128 439.733 240.584 439.61 240.061C439.487 239.538 439.254 239.047 438.926 238.621C438.248 237.699 434.241 234.928 433.499 236.387C432.692 238 436.481 242.231 439.636 241.655Z" fill="#36CD01" stroke="#263238" stroke-width="0.64" stroke-miterlimit="10"/>
<path d="M439.634 241.654L435.999 238.166" stroke="#263238" stroke-width="0.32" stroke-miterlimit="10"/>
<path d="M440.571 252.528L438.036 248.406" stroke="#263238" stroke-width="1.28" stroke-miterlimit="10"/>
<path d="M438.81 249.648C438.913 249.121 438.903 248.577 438.779 248.054C438.656 247.531 438.422 247.04 438.093 246.615C437.415 245.693 433.408 242.922 432.666 244.381C431.86 245.968 435.661 250.218 438.81 249.648Z" fill="#36CD01" stroke="#263238" stroke-width="0.64" stroke-miterlimit="10"/>
<path d="M438.809 249.648L435.174 246.16" stroke="#263238" stroke-width="0.32" stroke-miterlimit="10"/>
<path d="M442.746 231.555L440.211 227.434" stroke="#263238" stroke-width="1.28" stroke-miterlimit="10"/>
<path d="M440.961 228.675C441.064 228.148 441.054 227.604 440.93 227.081C440.807 226.558 440.573 226.067 440.244 225.642C439.566 224.72 435.56 221.949 434.817 223.408C434.036 224.995 437.838 229.245 440.961 228.675Z" fill="#36CD01" stroke="#263238" stroke-width="0.64" stroke-miterlimit="10"/>
<path d="M440.987 228.676L437.351 225.188" stroke="#263238" stroke-width="0.32" stroke-miterlimit="10"/>
<path d="M444.097 218.519L441.569 214.397" stroke="#263238" stroke-width="1.28" stroke-miterlimit="10"/>
<path d="M442.336 215.632C442.442 215.106 442.433 214.563 442.31 214.041C442.187 213.519 441.954 213.029 441.626 212.605C440.947 211.683 436.941 208.906 436.199 210.365C435.392 211.958 439.194 216.24 442.336 215.632Z" fill="#36CD01" stroke="#263238" stroke-width="0.64" stroke-miterlimit="10"/>
<path d="M442.337 215.632L438.701 212.144" stroke="#263238" stroke-width="0.32" stroke-miterlimit="10"/>
<path d="M439.801 259.299L443.123 255.786" stroke="#263238" stroke-width="1.28" stroke-miterlimit="10"/>
<path d="M442.111 256.836C442.117 256.298 442.238 255.769 442.465 255.282C442.693 254.795 443.022 254.362 443.43 254.013C444.287 253.252 448.774 251.364 449.19 252.944C449.67 254.64 445.075 258.045 442.111 256.836Z" fill="#36CD01" stroke="#263238" stroke-width="0.64" stroke-miterlimit="10"/>
<path d="M442.111 256.835L446.636 254.026" stroke="#263238" stroke-width="0.32" stroke-miterlimit="10"/>
<path d="M441.984 238.269L445.305 234.755" stroke="#263238" stroke-width="1.28" stroke-miterlimit="10"/>
<path d="M444.294 235.805C444.3 235.268 444.421 234.738 444.649 234.251C444.876 233.765 445.204 233.332 445.612 232.983C446.47 232.221 450.956 230.333 451.372 231.914C451.84 233.635 447.257 237.015 444.294 235.805Z" fill="#36CD01" stroke="#263238" stroke-width="0.64" stroke-miterlimit="10"/>
<path d="M444.294 235.805L448.819 232.995" stroke="#263238" stroke-width="0.32" stroke-miterlimit="10"/>
<path d="M442.939 229.028L446.261 225.514" stroke="#263238" stroke-width="1.28" stroke-miterlimit="10"/>
<path d="M445.254 226.564C445.26 226.026 445.381 225.497 445.608 225.01C445.835 224.523 446.164 224.091 446.572 223.741C447.43 222.98 451.916 221.092 452.332 222.672C452.806 224.394 448.211 227.76 445.254 226.564Z" fill="#36CD01" stroke="#263238" stroke-width="0.64" stroke-miterlimit="10"/>
<path d="M445.254 226.564L449.779 223.754" stroke="#263238" stroke-width="0.32" stroke-miterlimit="10"/>
<path d="M444.346 215.479L447.668 211.965" stroke="#263238" stroke-width="1.28" stroke-miterlimit="10"/>
<path d="M446.656 213.041C446.663 212.503 446.785 211.973 447.013 211.486C447.242 210.999 447.572 210.567 447.981 210.218C448.832 209.457 453.325 207.569 453.741 209.149C454.215 210.845 449.62 214.225 446.656 213.041Z" fill="#36CD01" stroke="#263238" stroke-width="0.64" stroke-miterlimit="10"/>
<path d="M446.656 213.015L451.181 210.205" stroke="#263238" stroke-width="0.32" stroke-miterlimit="10"/>
<path d="M445.069 206.775C445.075 206.238 445.197 205.709 445.425 205.223C445.654 204.737 445.984 204.306 446.394 203.959C447.245 203.197 451.738 201.303 452.154 202.884C452.627 204.605 448.032 207.985 445.069 206.775Z" fill="#36CD01" stroke="#263238" stroke-width="0.64" stroke-miterlimit="10"/>
<path d="M445.069 206.775L449.594 203.971" stroke="#263238" stroke-width="0.32" stroke-miterlimit="10"/>
<path d="M445.255 206.979C444.722 206.915 444.209 206.738 443.749 206.46C443.29 206.182 442.896 205.809 442.592 205.366C441.952 204.438 440.512 199.779 442.131 199.517C443.885 199.235 446.771 204.163 445.255 206.979Z" fill="#36CD01" stroke="#263238" stroke-width="0.64" stroke-miterlimit="10"/>
<path d="M445.256 206.979L442.939 202.186" stroke="#263238" stroke-width="0.32" stroke-miterlimit="10"/>
<path d="M436.699 178.557V267.415" stroke="#263238" stroke-width="1.28" stroke-miterlimit="10"/>
<path d="M436.768 254.058L433.824 250.218" stroke="#263238" stroke-width="1.28" stroke-miterlimit="10"/>
<path d="M434.721 251.37C434.77 250.835 434.704 250.295 434.528 249.787C434.351 249.279 434.068 248.815 433.697 248.426C432.929 247.581 428.66 245.226 428.071 246.768C427.431 248.426 431.649 252.266 434.721 251.37Z" fill="#36CD01" stroke="#263238" stroke-width="0.64" stroke-miterlimit="10"/>
<path d="M434.721 251.37L430.746 248.278" stroke="#263238" stroke-width="0.32" stroke-miterlimit="10"/>
<path d="M436.768 237.36L433.824 233.52" stroke="#263238" stroke-width="1.28" stroke-miterlimit="10"/>
<path d="M434.721 234.672C434.77 234.137 434.704 233.597 434.528 233.089C434.351 232.582 434.068 232.117 433.697 231.728C432.929 230.883 428.66 228.528 428.071 230.064C427.431 231.728 431.649 235.568 434.721 234.672Z" fill="#36CD01" stroke="#263238" stroke-width="0.64" stroke-miterlimit="10"/>
<path d="M434.721 234.672L430.746 231.581" stroke="#263238" stroke-width="0.32" stroke-miterlimit="10"/>
<path d="M436.768 217.751L433.824 213.917" stroke="#263238" stroke-width="1.28" stroke-miterlimit="10"/>
<path d="M434.721 215.069C434.77 214.534 434.704 213.994 434.528 213.486C434.351 212.978 434.068 212.514 433.697 212.125C432.929 211.28 428.66 208.925 428.071 210.461C427.431 212.125 431.649 215.959 434.721 215.069Z" fill="#36CD01" stroke="#263238" stroke-width="0.64" stroke-miterlimit="10"/>
<path d="M434.721 215.069L430.746 211.971" stroke="#263238" stroke-width="0.32" stroke-miterlimit="10"/>
<path d="M436.768 204.701L433.824 200.861" stroke="#263238" stroke-width="1.28" stroke-miterlimit="10"/>
<path d="M434.721 202.013C434.771 201.478 434.705 200.94 434.528 200.433C434.351 199.926 434.068 199.463 433.697 199.075C432.929 198.224 428.66 195.875 428.071 197.411C427.431 199.075 431.649 202.909 434.721 202.013Z" fill="#36CD01" stroke="#263238" stroke-width="0.64" stroke-miterlimit="10"/>
<path d="M434.721 202.013L430.746 198.922" stroke="#263238" stroke-width="0.32" stroke-miterlimit="10"/>
<path d="M436.768 191.594L433.824 187.754" stroke="#263238" stroke-width="1.28" stroke-miterlimit="10"/>
<path d="M434.721 188.906C434.77 188.37 434.704 187.831 434.528 187.323C434.351 186.815 434.068 186.351 433.697 185.962C432.929 185.117 428.66 182.762 428.071 184.304C427.431 185.962 431.649 189.802 434.721 188.906Z" fill="#36CD01" stroke="#263238" stroke-width="0.64" stroke-miterlimit="10"/>
<path d="M434.721 188.906L430.746 185.815" stroke="#263238" stroke-width="0.32" stroke-miterlimit="10"/>
<path d="M436.704 259.158L439.642 255.318" stroke="#263238" stroke-width="1.28" stroke-miterlimit="10"/>
<path d="M438.745 256.471C438.696 255.936 438.762 255.396 438.938 254.888C439.115 254.38 439.398 253.916 439.769 253.527C440.543 252.682 444.812 250.327 445.401 251.863C446.041 253.527 441.817 257.367 438.745 256.471Z" fill="#36CD01" stroke="#263238" stroke-width="0.64" stroke-miterlimit="10"/>
<path d="M438.746 256.471L442.958 253.213" stroke="#263238" stroke-width="0.32" stroke-miterlimit="10"/>
<path d="M436.704 232.598L439.642 228.758" stroke="#263238" stroke-width="1.28" stroke-miterlimit="10"/>
<path d="M438.745 229.911C438.696 229.375 438.762 228.835 438.938 228.328C439.115 227.82 439.398 227.356 439.769 226.967C440.543 226.122 444.812 223.767 445.401 225.309C446.041 226.967 441.817 230.807 438.745 229.911Z" fill="#36CD01" stroke="#263238" stroke-width="0.64" stroke-miterlimit="10"/>
<path d="M438.746 229.911L442.958 226.653" stroke="#263238" stroke-width="0.32" stroke-miterlimit="10"/>
<path d="M436.704 219.491L439.642 215.651" stroke="#263238" stroke-width="1.28" stroke-miterlimit="10"/>
<path d="M438.745 216.803C438.696 216.268 438.762 215.728 438.938 215.221C439.115 214.713 439.398 214.249 439.769 213.859C440.543 213.015 444.812 210.659 445.401 212.195C446.041 213.859 441.817 217.699 438.745 216.803Z" fill="#36CD01" stroke="#263238" stroke-width="0.64" stroke-miterlimit="10"/>
<path d="M438.746 216.803L442.958 213.546" stroke="#263238" stroke-width="0.32" stroke-miterlimit="10"/>
<path d="M436.704 202.16L439.642 198.326" stroke="#263238" stroke-width="1.28" stroke-miterlimit="10"/>
<path d="M438.745 199.478C438.696 198.943 438.762 198.403 438.938 197.896C439.115 197.388 439.398 196.924 439.769 196.534C440.543 195.69 444.812 193.334 445.401 194.87C446.041 196.534 441.817 200.374 438.745 199.478Z" fill="#36CD01" stroke="#263238" stroke-width="0.64" stroke-miterlimit="10"/>
<path d="M438.746 199.479L442.958 196.215" stroke="#263238" stroke-width="0.32" stroke-miterlimit="10"/>
<path d="M436.704 188.541L439.642 184.708" stroke="#263238" stroke-width="1.28" stroke-miterlimit="10"/>
<path d="M438.745 185.853C438.696 185.318 438.762 184.78 438.938 184.273C439.115 183.766 439.398 183.303 439.769 182.915C440.543 182.064 444.812 179.715 445.401 181.251C446.041 182.915 441.817 186.749 438.745 185.853Z" fill="#36CD01" stroke="#263238" stroke-width="0.64" stroke-miterlimit="10"/>
<path d="M438.746 185.853L442.958 182.595" stroke="#263238" stroke-width="0.32" stroke-miterlimit="10"/>
<path d="M436.525 179.811C436.476 179.277 436.542 178.738 436.718 178.232C436.895 177.725 437.178 177.262 437.549 176.874C438.317 176.029 442.585 173.674 443.174 175.21C443.814 176.874 439.597 180.707 436.525 179.811Z" fill="#36CD01" stroke="#263238" stroke-width="0.64" stroke-miterlimit="10"/>
<path d="M436.524 179.812L440.735 176.554" stroke="#263238" stroke-width="0.32" stroke-miterlimit="10"/>
<path d="M436.729 179.997C436.193 179.989 435.664 179.867 435.178 179.638C434.693 179.41 434.261 179.08 433.913 178.672C433.152 177.815 431.264 173.322 432.851 172.912C434.56 172.439 437.945 177.034 436.729 179.997Z" fill="#36CD01" stroke="#263238" stroke-width="0.64" stroke-miterlimit="10"/>
<path d="M436.731 179.997L433.934 175.466" stroke="#263238" stroke-width="0.32" stroke-miterlimit="10"/>
<path d="M440.352 290.467H430.944L429.767 266.698H441.53L440.352 290.467Z" fill="#263238" stroke="#263238" stroke-width="0.64" stroke-miterlimit="10"/>
<path d="M83.84 140.06H32V290.46H83.84V140.06Z" fill="white" stroke="#263238" stroke-width="0.64" stroke-linecap="round" stroke-linejoin="round"/>
<path d="M78.72 152.86H36.48V178.46H78.72V152.86Z" fill="white" stroke="#263238" stroke-width="0.64" stroke-linecap="round" stroke-linejoin="round"/>
<path d="M62.72 161.18H52.48V170.14H62.72V161.18Z" fill="#263238" stroke="#263238" stroke-width="0.64" stroke-linecap="round" stroke-linejoin="round"/>
<path d="M60.8956 162.787H54.31V168.547H60.8956V162.787Z" fill="white" stroke="#263238" stroke-width="0.64" stroke-linecap="round" stroke-linejoin="round"/>
<path d="M78.72 182.902H36.48V208.502H78.72V182.902Z" fill="white" stroke="#263238" stroke-width="0.64" stroke-linecap="round" stroke-linejoin="round"/>
<path d="M62.72 191.222H52.48V200.182H62.72V191.222Z" fill="#263238" stroke="#263238" stroke-width="0.64" stroke-linecap="round" stroke-linejoin="round"/>
<path d="M60.8956 192.822H54.31V198.582H60.8956V192.822Z" fill="white" stroke="#263238" stroke-width="0.64" stroke-linecap="round" stroke-linejoin="round"/>
<path d="M78.72 212.943H36.48V238.543H78.72V212.943Z" fill="white" stroke="#263238" stroke-width="0.64" stroke-linecap="round" stroke-linejoin="round"/>
<path d="M62.72 221.263H52.48V230.223H62.72V221.263Z" fill="#263238" stroke="#263238" stroke-width="0.64" stroke-linecap="round" stroke-linejoin="round"/>
<path d="M60.8956 222.863H54.31V228.623H60.8956V222.863Z" fill="white" stroke="#263238" stroke-width="0.64" stroke-linecap="round" stroke-linejoin="round"/>
<path d="M78.72 242.979H36.48V268.579H78.72V242.979Z" fill="white" stroke="#263238" stroke-width="0.64" stroke-linecap="round" stroke-linejoin="round"/>
<path d="M62.72 251.299H52.48V260.259H62.72V251.299Z" fill="#263238" stroke="#263238" stroke-width="0.64" stroke-linecap="round" stroke-linejoin="round"/>
<path d="M60.8956 252.899H54.31V258.659H60.8956V252.899Z" fill="white" stroke="#263238" stroke-width="0.64" stroke-linecap="round" stroke-linejoin="round"/>
<path d="M58.9832 120.208H35.54V139.837H58.9832V120.208Z" stroke="#263238" stroke-width="0.64" stroke-linecap="round" stroke-linejoin="round"/>
<path d="M58.9896 131.926H47.8088L42.9 120.477L42.8616 120.208H35.54V139.83H58.9896V131.926Z" fill="#263238" stroke="#263238" stroke-width="0.64" stroke-linecap="round" stroke-linejoin="round"/>
<path d="M78.3417 130.019H70.1625V140.105H78.3417V130.019Z" fill="#263238" stroke="#263238" stroke-width="0.64" stroke-linecap="round" stroke-linejoin="round"/>
<path d="M74.048 124.208C74.048 124.208 77.5232 122.384 78.3424 119.088C79.1616 115.792 75.072 109.545 75.072 109.545C75.072 109.545 70.9824 114.179 70.9824 117.456C70.9824 120.732 74.048 124.208 74.048 124.208Z" fill="#36CD01" stroke="#263238" stroke-width="0.64" stroke-linecap="round" stroke-linejoin="round"/>
<path d="M71.9434 128.214C71.9434 128.214 72.5834 123.734 70.1642 122.115C67.745 120.495 61.985 121.295 61.985 121.295C61.985 121.295 63.073 127.836 66.0746 128.38C68.0238 128.696 70.0152 128.64 71.9434 128.214Z" fill="#36CD01" stroke="#263238" stroke-width="0.64" stroke-linecap="round" stroke-linejoin="round"/>
<path d="M78.0801 126.749C78.0423 125.696 78.216 124.647 78.5909 123.664C78.9657 122.68 79.5341 121.781 80.2625 121.021C82.7137 118.569 87.8977 119.933 87.8977 119.933C87.8977 119.933 86.8033 124.566 83.8081 126.205C82.942 126.684 81.9863 126.98 81.0008 127.074C80.0152 127.167 79.0209 127.057 78.0801 126.749Z" fill="#36CD01" stroke="#263238" stroke-width="0.64" stroke-linecap="round" stroke-linejoin="round"/>
<path d="M73.4344 130.294L69.62 125.654" stroke="#263238" stroke-width="0.64" stroke-linecap="round" stroke-linejoin="round"/>
<path d="M74.2525 115.843V131.382L81.0685 123.478" stroke="#263238" stroke-width="0.64" stroke-linecap="round" stroke-linejoin="round"/>
<path d="M384.807 168.413C384.807 168.413 388.602 168.758 390.676 171.171C392.749 173.584 393.434 179.971 393.088 182.73C392.967 183.534 393.076 184.356 393.402 185.101C393.728 185.846 394.259 186.484 394.932 186.941C396.852 188.342 398.695 190.237 399.092 192.765C399.456 195.114 398.759 199.338 396.532 200.669C393.972 202.224 390.496 205.328 392.218 206.538C393.161 207.244 394.317 207.61 395.495 207.574C395.495 207.574 395.668 211.197 390.496 211.197C385.325 211.197 384.096 207.402 385.319 202.915C386.541 198.429 389.46 193.251 386.701 190.838C383.943 188.426 382.72 183.939 384.461 181.04C386.202 178.141 386.88 171.894 385.325 170.339C383.77 168.784 384.807 168.413 384.807 168.413Z" fill="#263238" stroke="#263238" stroke-width="0.64" stroke-linecap="round" stroke-linejoin="round"/>
<path d="M332.16 237.527L336.986 279.389L342.176 279.031L343.456 247.031L346.656 246.672L366.874 247.952C367.93 247.714 368.998 247.535 370.074 247.415C370.791 247.415 371.68 245.45 367.392 243.658C363.104 241.866 333.396 236.08 332.685 236.08C331.975 236.08 332.16 237.527 332.16 237.527Z" fill="#263238" stroke="#263238" stroke-width="0.64" stroke-linecap="round" stroke-linejoin="round"/>
<path d="M360.231 231.6C360.231 231.6 341.671 225.45 323.559 229.456C322.074 229.783 318.906 267.562 318.906 267.562L323.738 268.989L331.252 239.114C331.252 239.114 362.74 248.24 369.178 247.344C375.617 246.448 360.231 231.6 360.231 231.6Z" fill="#263238" stroke="#263238" stroke-width="0.64" stroke-linecap="round" stroke-linejoin="round"/>
<path d="M365.441 168.471C365.441 168.471 364.007 172.227 364.007 174.013C364.001 175.029 364.061 176.045 364.186 177.053C364.186 177.053 361.684 179.741 362.58 180.637L363.476 181.527C363.476 181.527 364.756 188.503 365.799 188.861C366.842 189.219 371.341 188.33 371.341 188.33L371.412 198.192L380.269 190.64L379.553 184.912C379.553 184.912 381.703 181.872 384.205 178.295C386.708 174.717 385.281 169.008 383.847 166.32C382.413 163.632 371.501 158.09 364.167 167.216L365.441 168.471Z" fill="white" stroke="#263238" stroke-width="0.64" stroke-linecap="round" stroke-linejoin="round"/>
<path d="M371.329 188.324L373.818 187.677L371.508 192.298L371.329 188.324Z" fill="#263238" stroke="#263238" stroke-width="0.64" stroke-linecap="round" stroke-linejoin="round"/>
<path d="M383.846 166.32C382.419 163.639 371.5 158.09 364.166 167.216L365.446 168.496L374.406 178.333C374.406 178.333 375.321 175.415 377.267 177.053C378.547 178.128 377.984 180.458 377.446 180.637C376.908 180.816 375.654 182.602 375.654 182.602L379.59 184.925C379.59 184.925 381.74 181.885 384.243 178.307C386.745 174.73 385.28 169.008 383.846 166.32Z" fill="#263238" stroke="#263238" stroke-width="0.64" stroke-linecap="round" stroke-linejoin="round"/>
<path d="M365.701 178.237C365.966 178.237 366.181 177.744 366.181 177.136C366.181 176.528 365.966 176.035 365.701 176.035C365.436 176.035 365.221 176.528 365.221 177.136C365.221 177.744 365.436 178.237 365.701 178.237Z" fill="#263238"/>
<path d="M365.081 174.384C365.443 174.274 365.828 174.268 366.193 174.365C366.558 174.462 366.889 174.659 367.148 174.935" stroke="#263238" stroke-width="0.64" stroke-linecap="round" stroke-linejoin="round"/>
<path d="M364.799 182.646C365.709 182.791 366.641 182.595 367.416 182.096" stroke="#263238" stroke-width="0.64" stroke-linecap="round" stroke-linejoin="round"/>
<path d="M365.83 214L346.579 215.555L340.39 214.979C340.39 214.979 331.865 217.879 333.529 218.435C334.709 218.752 335.953 218.738 337.126 218.397C338.728 219.032 340.433 219.371 342.156 219.395C343.556 219.381 344.949 219.194 346.303 218.839L367.782 222.071L365.83 214Z" fill="#263238" stroke="#263238" stroke-width="0.64" stroke-linecap="round" stroke-linejoin="round"/>
<path d="M379.909 189.578C379.909 189.578 368.818 200.311 367.032 203.018C365.247 205.725 364.523 208.023 364.523 210.352C364.523 212.682 366.136 217.866 366.136 217.866L363.986 225.546L357.759 231.261L367.595 247.005C367.595 247.005 372.075 247.901 375.115 246.109C378.155 244.317 380.12 236.631 380.12 232.874C380.12 229.117 379.403 221.066 379.403 221.066C379.403 221.066 383.519 208.183 384.773 203.357C386.027 198.531 386.207 194.231 384.952 191.907C383.698 189.584 381.701 188.33 379.909 189.578Z" fill="#0056FD" stroke="#263238" stroke-width="0.64" stroke-linecap="round" stroke-linejoin="round"/>
<path d="M336.972 279.389L330.879 286.186C330.879 286.186 326.226 287.619 325.51 288.33C324.793 289.04 326.226 289.405 328.018 290.122C329.81 290.838 336.428 289.763 338.572 289.584C340.716 289.405 342.687 289.584 343.404 287.798C344.121 286.013 343.404 284.042 343.225 283.318L342.15 279.024L336.972 279.389Z" fill="white" stroke="#263238" stroke-width="0.64" stroke-linecap="round" stroke-linejoin="round"/>
<path d="M330.591 286.282C329.554 286.608 326.111 287.728 325.522 288.33C324.812 289.047 326.239 289.405 328.031 290.122C329.823 290.839 336.441 289.763 338.585 289.584C340.729 289.405 342.7 289.584 343.417 287.799C344.134 286.013 343.417 284.042 343.237 283.319C343.237 283.235 343.186 283.114 343.148 282.967C340.025 284.925 334.713 287.075 333.548 287.075C332.528 286.963 331.53 286.696 330.591 286.282Z" fill="#0056FD" stroke="#263238" stroke-width="0.64" stroke-linecap="round" stroke-linejoin="round"/>
<path d="M318.905 267.581C318.905 267.581 311.929 275.261 311.033 276.349C310.137 277.437 307.455 277.776 307.635 279.031C307.814 280.285 310.675 279.927 311.929 279.747C313.183 279.568 321.055 277.597 322.124 277.239C323.193 276.88 324.633 276.349 324.812 274.736C324.991 273.123 323.737 269.008 323.737 269.008L318.905 267.581Z" fill="white" stroke="#263238" stroke-width="0.64" stroke-linecap="round" stroke-linejoin="round"/>
<path d="M324.812 274.736C324.921 273.731 324.473 271.754 324.127 270.403C322.367 271.261 320.671 273.603 319.801 274.019C318.726 274.557 310.495 277.219 310.495 277.219L310.124 277.008C308.998 277.648 307.5 278.064 307.635 279.011C307.814 280.259 310.675 279.907 311.929 279.728C313.183 279.549 321.055 277.578 322.124 277.219C323.193 276.861 324.633 276.349 324.812 274.736Z" fill="#0056FD" stroke="#263238" stroke-width="0.64" stroke-linecap="round" stroke-linejoin="round"/>
<path d="M376.697 198.96L371.699 215.696L346.579 215.568L346.304 218.851C346.304 218.851 371.526 223.971 373.248 223.971C374.969 223.971 376.87 223.459 377.561 222.25C378.252 221.04 385.497 203.101 385.843 199.133C386.188 195.165 385.324 192.234 383.769 191.37C382.214 190.506 379.116 192.061 378.08 193.782" fill="#0056FD"/>
<path d="M376.697 198.96L371.699 215.696L346.579 215.568L346.304 218.851C346.304 218.851 371.526 223.971 373.248 223.971C374.969 223.971 376.87 223.459 377.561 222.25C378.252 221.04 385.497 203.101 385.843 199.133C386.188 195.165 385.324 192.234 383.769 191.37C382.214 190.506 379.116 192.061 378.08 193.782" stroke="#0056FD" stroke-width="0.64" stroke-linecap="round" stroke-linejoin="round"/>
<path d="M346.578 215.556C346.578 215.556 339.468 213.988 338.431 214.013C337.394 214.039 332.127 217.431 332.134 217.949C332.14 218.468 333.529 218.436 333.529 218.436L335.935 218.212L338.495 217.636C339.567 217.959 340.669 218.174 341.785 218.276C342.648 218.217 343.505 218.082 344.345 217.872L346.265 218.864L346.578 215.556Z" fill="white" stroke="#263238" stroke-width="0.64" stroke-linecap="round" stroke-linejoin="round"/>
<path d="M391.52 193.968L388.64 193.808C388.64 193.808 381.28 215.088 380.32 223.088C379.36 231.088 379.68 237.808 380.16 240.048C380.64 242.288 383.2 246.608 383.2 246.608L386.4 247.408C386.4 247.408 383.04 238.768 382.88 236.368C382.72 233.968 383.136 224.445 383.36 223.248C385.12 213.968 391.52 193.968 391.52 193.968Z" fill="white" stroke="#263238" stroke-width="0.64" stroke-linecap="round" stroke-linejoin="round"/>
<path d="M365.761 275.568C365.761 275.568 349.921 283.568 349.601 285.36C349.421 286.688 349.421 288.033 349.601 289.36L350.157 288.797L351.681 285.2L365.921 278.48L365.761 275.568Z" fill="white" stroke="#263238" stroke-width="0.64" stroke-linecap="round" stroke-linejoin="round"/>
<path d="M350.719 290.448C351.691 290.448 352.479 289.66 352.479 288.688C352.479 287.716 351.691 286.928 350.719 286.928C349.747 286.928 348.959 287.716 348.959 288.688C348.959 289.66 349.747 290.448 350.719 290.448Z" fill="#263238" stroke="#263238" stroke-width="0.64" stroke-linecap="round" stroke-linejoin="round"/>
<path d="M370.399 275.568C370.399 275.568 386.239 283.568 386.559 285.36C386.738 286.688 386.738 288.033 386.559 289.36L385.995 288.797L384.479 285.2L370.239 278.448L370.399 275.568Z" fill="white" stroke="#263238" stroke-width="0.64" stroke-linecap="round" stroke-linejoin="round"/>
<path d="M385.439 290.448C386.411 290.448 387.199 289.66 387.199 288.688C387.199 287.716 386.411 286.928 385.439 286.928C384.467 286.928 383.679 287.716 383.679 288.688C383.679 289.66 384.467 290.448 385.439 290.448Z" fill="#263238" stroke="#263238" stroke-width="0.64" stroke-linecap="round" stroke-linejoin="round"/>
<path d="M369.119 249.488H366.559V277.328H369.119V249.488Z" fill="white" stroke="#263238" stroke-width="0.64" stroke-linecap="round" stroke-linejoin="round"/>
<path d="M371.679 252.208H364.159V257.328H371.679V252.208Z" fill="#263238" stroke="#263238" stroke-width="0.64" stroke-linecap="round" stroke-linejoin="round"/>
<path d="M385.785 247.056C380.249 246.474 362.393 244.925 346.393 247.056C346.252 247.071 346.117 247.128 346.007 247.218C345.897 247.309 345.816 247.43 345.774 247.566C345.732 247.702 345.73 247.847 345.77 247.984C345.809 248.121 345.888 248.244 345.997 248.336C347.699 249.943 352.397 252.861 364.64 253.661C377.267 254.487 383.718 250.615 386.227 248.541C386.366 248.442 386.47 248.302 386.525 248.141C386.581 247.979 386.584 247.805 386.536 247.641C386.487 247.478 386.389 247.334 386.254 247.229C386.12 247.124 385.956 247.064 385.785 247.056Z" fill="white" stroke="#263238" stroke-width="0.64" stroke-linecap="round" stroke-linejoin="round"/>
<path d="M345.984 248.311C346.114 248.436 346.289 248.506 346.47 248.503H386.15C386.274 248.398 386.365 248.26 386.411 248.104C386.456 247.948 386.455 247.783 386.407 247.628C386.36 247.473 386.267 247.336 386.142 247.233C386.017 247.13 385.864 247.066 385.702 247.05C380.154 246.474 362.31 244.925 346.31 247.05C346.178 247.079 346.057 247.143 345.96 247.237C345.863 247.331 345.793 247.449 345.759 247.58C345.726 247.711 345.729 247.848 345.768 247.977C345.808 248.106 345.883 248.222 345.984 248.311Z" fill="#0056FD" stroke="#263238" stroke-width="0.64" stroke-linecap="round" stroke-linejoin="round"/>
<path d="M370.879 273.008H364.959V279.248H370.879V273.008Z" fill="#263238" stroke="#263238" stroke-width="0.64" stroke-linecap="round" stroke-linejoin="round"/>
<path d="M368.167 276.125H367.284V290.449H368.167V276.125Z" fill="white" stroke="#263238" stroke-width="0.64" stroke-linecap="round" stroke-linejoin="round"/>
<path d="M368.485 286.71H366.936V290.461H368.485V286.71Z" fill="#263238" stroke="#263238" stroke-width="0.64" stroke-linecap="round" stroke-linejoin="round"/>
<path d="M373.919 248.528H370.399L368.159 227.088H370.559L373.919 248.528Z" fill="white" stroke="#263238" stroke-width="0.64" stroke-linecap="round" stroke-linejoin="round"/>
<path d="M379.999 228.528H355.839C355.839 228.528 357.599 225.328 358.719 225.008C359.839 224.688 378.079 225.008 378.079 225.008C378.079 225.008 379.999 225.648 379.999 228.528Z" fill="#263238" stroke="#263238" stroke-width="0.64" stroke-linecap="round" stroke-linejoin="round"/>
<path d="M355.839 228.528H379.999C379.997 228.261 379.978 227.994 379.941 227.728H356.312C356.024 228.189 355.839 228.528 355.839 228.528Z" fill="white" stroke="#263238" stroke-width="0.64" stroke-linecap="round" stroke-linejoin="round"/>
<path d="M266.312 192.848H233.672C233.15 192.849 232.633 192.954 232.151 193.158C231.67 193.361 231.234 193.659 230.87 194.033C230.506 194.408 230.22 194.852 230.03 195.338C229.839 195.825 229.748 196.345 229.762 196.867L230.933 238.019L229.653 247.107H270.415L268.495 238.019L270.242 196.925C270.264 196.396 270.179 195.868 269.992 195.373C269.804 194.878 269.518 194.426 269.15 194.045C268.783 193.663 268.342 193.361 267.854 193.155C267.366 192.949 266.842 192.845 266.312 192.848Z" fill="white" stroke="#263238" stroke-width="0.64" stroke-linecap="round" stroke-linejoin="round"/>
<path d="M264.822 195.325H235.145C234.657 195.336 234.177 195.445 233.732 195.646C233.287 195.847 232.887 196.134 232.556 196.493C232.225 196.851 231.969 197.272 231.803 197.731C231.638 198.19 231.566 198.678 231.593 199.165L232.649 238.205L231.491 246.832H268.527L266.787 238.205L268.374 199.197C268.404 198.707 268.335 198.217 268.172 197.754C268.008 197.292 267.753 196.867 267.421 196.506C267.089 196.144 266.688 195.853 266.242 195.65C265.795 195.448 265.312 195.337 264.822 195.325Z" fill="#DC00C6" stroke="#263238" stroke-width="0.64" stroke-linecap="round" stroke-linejoin="round"/>
<path d="M229.441 227.523L227.361 246.403H229.121L231.201 227.523H229.441Z" fill="white" stroke="#263238" stroke-width="0.64" stroke-linecap="round" stroke-linejoin="round"/>
<path d="M270.401 227.523L272.481 246.403H270.721L268.641 227.523H270.401Z" fill="white" stroke="#263238" stroke-width="0.64" stroke-linecap="round" stroke-linejoin="round"/>
<path d="M232.431 223.971H228.38C227.977 223.971 227.651 224.298 227.651 224.701V227.101C227.651 227.504 227.977 227.83 228.38 227.83H232.431C232.834 227.83 233.161 227.504 233.161 227.101V224.701C233.161 224.298 232.834 223.971 232.431 223.971Z" fill="white" stroke="#263238" stroke-width="0.64" stroke-linecap="round" stroke-linejoin="round"/>
<path d="M232.431 223.971H228.374C228.278 223.971 228.184 223.99 228.096 224.027C228.007 224.064 227.927 224.117 227.86 224.185C227.793 224.253 227.74 224.333 227.704 224.422C227.668 224.51 227.65 224.605 227.651 224.701V226.89H233.155V224.701C233.155 224.605 233.137 224.51 233.101 224.422C233.065 224.333 233.012 224.253 232.945 224.185C232.878 224.117 232.798 224.064 232.71 224.027C232.621 223.99 232.527 223.971 232.431 223.971Z" fill="#DC00C6" stroke="#263238" stroke-width="0.64" stroke-linecap="round" stroke-linejoin="round"/>
<path d="M271.579 223.971H267.528C267.125 223.971 266.798 224.298 266.798 224.701V227.101C266.798 227.504 267.125 227.83 267.528 227.83H271.579C271.982 227.83 272.309 227.504 272.309 227.101V224.701C272.309 224.298 271.982 223.971 271.579 223.971Z" fill="white" stroke="#263238" stroke-width="0.64" stroke-linecap="round" stroke-linejoin="round"/>
<path d="M271.58 223.971H267.523C267.329 223.971 267.144 224.048 267.007 224.185C266.87 224.322 266.793 224.507 266.793 224.701V226.89H272.304V224.701C272.304 224.508 272.228 224.324 272.092 224.187C271.957 224.05 271.773 223.973 271.58 223.971Z" fill="#DC00C6" stroke="#263238" stroke-width="0.64" stroke-linecap="round" stroke-linejoin="round"/>
<path d="M249.313 274.723C249.313 274.723 233.473 282.723 233.153 284.483C232.973 285.81 232.973 287.156 233.153 288.483L233.709 287.926L235.233 284.323L249.473 277.603L249.313 274.723Z" fill="white" stroke="#263238" stroke-width="0.64" stroke-linecap="round" stroke-linejoin="round"/>
<path d="M234.273 289.603C235.245 289.603 236.033 288.815 236.033 287.843C236.033 286.871 235.245 286.083 234.273 286.083C233.301 286.083 232.513 286.871 232.513 287.843C232.513 288.815 233.301 289.603 234.273 289.603Z" fill="#263238" stroke="#263238" stroke-width="0.64" stroke-linecap="round" stroke-linejoin="round"/>
<path d="M253.953 274.723C253.953 274.723 269.793 282.723 270.113 284.483C270.293 285.81 270.293 287.156 270.113 288.483L269.55 287.926L268.033 284.323L253.793 277.603L253.953 274.723Z" fill="white" stroke="#263238" stroke-width="0.64" stroke-linecap="round" stroke-linejoin="round"/>
<path d="M268.993 289.603C269.965 289.603 270.753 288.815 270.753 287.843C270.753 286.871 269.965 286.083 268.993 286.083C268.021 286.083 267.233 286.871 267.233 287.843C267.233 288.815 268.021 289.603 268.993 289.603Z" fill="#263238" stroke="#263238" stroke-width="0.64" stroke-linecap="round" stroke-linejoin="round"/>
<path d="M252.673 248.643H250.113V276.483H252.673V248.643Z" fill="white" stroke="#263238" stroke-width="0.64" stroke-linecap="round" stroke-linejoin="round"/>
<path d="M255.233 251.363H247.713V256.483H255.233V251.363Z" fill="#263238" stroke="#263238" stroke-width="0.64" stroke-linecap="round" stroke-linejoin="round"/>
<path d="M272.354 246.223C266.134 245.647 245.577 244.079 227.119 246.223C226.96 246.243 226.811 246.31 226.691 246.415C226.57 246.52 226.483 246.658 226.441 246.813C226.399 246.967 226.404 247.13 226.456 247.282C226.507 247.433 226.602 247.566 226.729 247.663C228.854 249.295 234.37 252.047 247.945 252.815C262.454 253.641 269.865 249.769 272.751 247.695C272.894 247.604 273.004 247.469 273.065 247.31C273.126 247.152 273.135 246.978 273.091 246.814C273.047 246.651 272.951 246.505 272.819 246.399C272.687 246.292 272.524 246.231 272.354 246.223Z" fill="white" stroke="#263238" stroke-width="0.64" stroke-linecap="round" stroke-linejoin="round"/>
<path d="M226.716 247.638L226.78 247.683H272.726H272.758C272.889 247.586 272.987 247.453 273.039 247.299C273.092 247.146 273.097 246.98 273.053 246.824C273.009 246.668 272.919 246.528 272.794 246.425C272.67 246.321 272.516 246.258 272.355 246.243C266.128 245.667 245.577 244.099 227.12 246.243C226.969 246.266 226.828 246.332 226.713 246.433C226.598 246.533 226.514 246.665 226.472 246.812C226.43 246.958 226.43 247.114 226.473 247.261C226.517 247.407 226.601 247.538 226.716 247.638Z" fill="#DC00C6" stroke="#263238" stroke-width="0.64" stroke-linecap="round" stroke-linejoin="round"/>
<path d="M254.433 272.163H248.513V278.403H254.433V272.163Z" fill="#263238" stroke="#263238" stroke-width="0.64" stroke-linecap="round" stroke-linejoin="round"/>
<path d="M251.714 275.286H250.831V289.609H251.714V275.286Z" fill="white" stroke="#263238" stroke-width="0.64" stroke-linecap="round" stroke-linejoin="round"/>
<path d="M252.039 285.872H250.491V289.622H252.039V285.872Z" fill="#263238" stroke="#263238" stroke-width="0.64" stroke-linecap="round" stroke-linejoin="round"/>
<path d="M238.081 219.005L234.471 233.398C234.471 233.398 228.506 239.51 227.975 242.998C227.444 246.486 241.825 278.544 241.825 278.544L247.949 277.744L244.513 245.68L255.431 245.411L255.322 277.731L261.447 278.531L271.597 246.902C271.597 246.902 272.737 243.114 271.847 240.963C270.151 236.835 265.127 233.424 265.127 233.424L260.167 219.018L238.081 219.005Z" fill="#263238" stroke="#263238" stroke-width="0.64" stroke-linecap="round" stroke-linejoin="round"/>
<path d="M241.85 278.518C241.805 280.432 241.574 282.338 241.159 284.208C240.519 286.812 238.714 288.771 239.527 289.75C240.34 290.729 244.903 290.563 246.535 290.076C248.167 289.59 249.146 288.118 249.146 285.673C249.146 283.228 247.975 277.718 247.975 277.718L241.85 278.518Z" fill="white" stroke="#263238" stroke-width="0.64" stroke-linecap="round" stroke-linejoin="round"/>
<path d="M239.528 289.75C240.341 290.73 244.904 290.563 246.536 290.077C248.168 289.59 249.147 288.118 249.147 285.674C249.128 284.816 249.053 283.961 248.923 283.114C248.727 283.793 248.333 284.4 247.792 284.856C247.251 285.311 246.586 285.596 245.883 285.674C242.811 286.147 241.281 285.846 240.673 285.674C239.905 287.536 238.869 288.963 239.528 289.75Z" fill="#DC00C6" stroke="#263238" stroke-width="0.64" stroke-linecap="round" stroke-linejoin="round"/>
<path d="M261.449 278.518C261.491 280.433 261.722 282.339 262.14 284.208C262.78 286.812 264.585 288.771 263.772 289.75C262.959 290.729 258.39 290.563 256.764 290.076C255.139 289.59 254.153 288.118 254.153 285.673C254.153 283.228 255.324 277.718 255.324 277.718L261.449 278.518Z" fill="white" stroke="#263238" stroke-width="0.64" stroke-linecap="round" stroke-linejoin="round"/>
<path d="M263.772 289.75C262.953 290.73 258.39 290.563 256.764 290.077C255.139 289.59 254.153 288.118 254.153 285.674C254.173 284.817 254.246 283.962 254.371 283.114C254.568 283.793 254.961 284.399 255.503 284.855C256.044 285.31 256.708 285.595 257.411 285.674C260.489 286.147 262.012 285.846 262.62 285.674C263.388 287.536 264.425 288.963 263.772 289.75Z" fill="#DC00C6" stroke="#263238" stroke-width="0.64" stroke-linecap="round" stroke-linejoin="round"/>
<path d="M242.414 185.36C242.414 185.36 232.328 188.451 231.387 189.66C230.446 190.87 217.665 208.899 215.777 210.915C213.889 212.931 213.493 215.216 213.627 216.163C213.761 217.11 215.105 219.363 215.105 219.363H220.622L224.526 213.443L234.158 203.286L238.081 219.004H260.142L263.432 202.742C263.432 202.742 270.395 214.544 270.529 214.96C270.664 215.376 272.68 218.864 276.443 218.595C280.206 218.326 279.675 213.347 277.928 209.18C276.181 205.014 269.32 190.889 267.297 189.001C265.275 187.113 254.389 184.7 254.389 184.7L242.414 185.36Z" fill="#DC00C6" stroke="#263238" stroke-width="0.64" stroke-linecap="round" stroke-linejoin="round"/>
<path d="M269.533 214.32C269.533 214.32 267.773 214.096 270.717 212.284C273.661 210.473 277.757 210.524 279.037 210.812C280.317 211.1 280.566 211.939 281.302 213.808C282.038 215.676 281.699 217.379 280.905 218.172C280.112 218.966 280.227 219.305 277.565 218.627C275.233 217.948 273.004 216.956 270.941 215.676C270.344 215.378 269.853 214.905 269.533 214.32Z" fill="#DC00C6" stroke="#263238" stroke-width="0.64" stroke-linecap="round" stroke-linejoin="round"/>
<path d="M269.807 214.71C269.807 214.71 274.627 213.097 276.438 212.649C278.249 212.201 280.175 213.552 280.63 215.702C281.084 217.853 280.399 219.894 278.07 220.406C276.036 220.816 273.923 220.472 272.124 219.44C270.844 218.653 268.611 217.462 268.611 217.462L269.807 214.71Z" fill="white" stroke="#263238" stroke-width="0.64" stroke-linecap="round" stroke-linejoin="round"/>
<path d="M264.826 214.461C264.826 214.461 263.412 215.024 263.13 215.197C262.849 215.37 261.485 216.835 260.641 217.174C259.796 217.514 258.541 217.52 259.508 218.454C260.474 219.389 261.658 218.678 262.221 218.282C262.719 217.91 263.275 217.625 263.866 217.437C264.38 217.484 264.89 217.558 265.396 217.661C265.62 217.718 269.133 218.627 270.036 218.851C270.938 219.075 271.45 219.248 272.077 218.115C272.705 216.982 271.738 215.395 271.002 214.915C270.266 214.435 264.826 214.461 264.826 214.461Z" fill="white" stroke="#263238" stroke-width="0.64" stroke-linecap="round" stroke-linejoin="round"/>
<path d="M266.491 213.603C266.491 213.603 264.61 213.065 264.61 213.737C264.61 214.409 264.072 218.857 265.282 218.448C266.491 218.038 266.491 213.603 266.491 213.603Z" fill="white" stroke="#263238" stroke-width="0.64" stroke-linecap="round" stroke-linejoin="round"/>
<path d="M266.492 213.603C266.492 213.603 265.417 218.313 266.223 218.447C267.029 218.582 267.97 215.215 268.105 214.14C268.239 213.065 266.882 213.039 266.492 213.603Z" fill="white" stroke="#263238" stroke-width="0.64" stroke-linecap="round" stroke-linejoin="round"/>
<path d="M268.195 214.173C268.195 214.173 267.113 218.877 267.926 219.011C268.739 219.145 269.673 215.811 269.807 214.71C269.942 213.609 268.598 213.635 268.195 214.173Z" fill="white" stroke="#263238" stroke-width="0.64" stroke-linecap="round" stroke-linejoin="round"/>
<path d="M270.018 215.28C270.018 215.28 268.917 218.941 269.743 219.043C270.568 219.146 271.535 216.534 271.663 215.696C271.791 214.858 270.427 214.864 270.018 215.28Z" fill="white" stroke="#263238" stroke-width="0.64" stroke-linecap="round" stroke-linejoin="round"/>
<path d="M214.031 213.552C214.212 212.376 214.552 211.231 215.042 210.147C215.682 209.04 217.531 208.669 218.632 208.227C219.733 207.786 222.965 209.053 224.072 210.25C224.568 210.785 224.92 211.437 225.097 212.146C225.274 212.854 225.269 213.595 225.083 214.301C224.712 215.498 222.779 216.605 222.523 216.605C222.267 216.605 220.495 213.75 218.837 213.565C217.237 213.46 215.631 213.456 214.031 213.552Z" fill="#DC00C6" stroke="#263238" stroke-width="0.64" stroke-linecap="round" stroke-linejoin="round"/>
<path d="M214.03 213.552C214.375 212.573 215.028 211.732 215.891 211.155C216.754 210.579 217.781 210.297 218.817 210.352C222.689 210.352 223.329 214.134 223.329 214.96C223.329 215.785 222.228 219.107 221.409 219.382C220.59 219.657 215.924 219.907 215.118 219.414C214.312 218.921 213.198 215.305 214.03 213.552Z" fill="white" stroke="#263238" stroke-width="0.64" stroke-linecap="round" stroke-linejoin="round"/>
<path d="M223.056 217.603C223.871 218.196 224.821 218.577 225.82 218.71C227.74 219.081 228.95 219.542 227.664 219.99C226.627 220.308 225.529 220.369 224.464 220.169C223.927 220.067 223.402 219.912 222.896 219.709L223.056 217.603Z" fill="white" stroke="#263238" stroke-width="0.64" stroke-linecap="round" stroke-linejoin="round"/>
<path d="M220.2 215.209C220.2 215.209 222.319 216.227 223.055 217.603C223.501 218.459 223.752 219.403 223.791 220.368H219.951L220.2 215.209Z" fill="white" stroke="#263238" stroke-width="0.64" stroke-linecap="round" stroke-linejoin="round"/>
<path d="M219.464 214.32C219.464 214.32 218.267 213.955 217.896 214.595C217.525 215.235 212.738 217.36 212.648 218.281C212.559 219.203 212.559 220.489 213.48 220.675C214.402 220.861 220.661 220.771 220.936 220.585C221.211 220.4 220.2 215.613 220.2 215.241C220.2 214.87 220.015 214.32 219.464 214.32Z" fill="white" stroke="#263238" stroke-width="0.64" stroke-linecap="round" stroke-linejoin="round"/>
<path d="M217.896 215.024L218.728 220.368" stroke="#263238" stroke-width="0.64" stroke-linecap="round" stroke-linejoin="round"/>
<path d="M215.503 216.227L216.521 220.553" stroke="#263238" stroke-width="0.64" stroke-linecap="round" stroke-linejoin="round"/>
<path d="M213.846 217.142L214.678 220.182" stroke="#263238" stroke-width="0.64" stroke-linecap="round" stroke-linejoin="round"/>
<path d="M238.415 166.109C238.415 166.109 235.452 176.56 235.65 179.76C235.849 182.96 244.732 186.864 250.255 187.651C255.778 188.438 263.477 181.929 264.073 179.76C264.668 177.59 264.463 171.273 262.492 166.96C260.521 162.646 256.572 155.12 251.836 154.921C247.1 154.723 240.386 157.033 238.415 166.109Z" fill="#263238" stroke="#263238" stroke-width="0.64" stroke-linecap="round" stroke-linejoin="round"/>
<path d="M247.394 182.672C247.394 182.672 243.356 183.209 243.356 183.747C243.356 184.285 241.743 185.494 241.743 185.494L243.087 195.849L251.023 191.28L257.884 196.118L258.153 186.032L254.121 182.672H247.394Z" fill="white" stroke="#263238" stroke-width="0.64" stroke-linecap="round" stroke-linejoin="round"/>
<path d="M244.969 179.977L244.566 186.973L250.351 195.446L255.465 186.973L254.927 180.246L244.969 179.977Z" fill="white" stroke="#263238" stroke-width="0.64" stroke-linecap="round" stroke-linejoin="round"/>
<path d="M242.561 172.31C242.561 172.31 246.868 168.816 249.287 167.472C251.706 166.128 252.916 162.352 252.916 162.352C252.916 162.352 253.319 166.115 254.669 167.6C255.595 168.698 256.364 169.919 256.954 171.229L257.492 172.438C257.492 172.438 257.626 179.299 257.357 179.702C257.089 180.105 253.722 184.144 252.237 184.413C250.753 184.681 249.037 184.547 248.205 183.875C247.373 183.203 243.764 180.374 243.495 179.433C243.226 178.493 242.561 172.31 242.561 172.31Z" fill="white" stroke="#263238" stroke-width="0.64" stroke-linecap="round" stroke-linejoin="round"/>
<path d="M247.387 173.603C247.387 174.096 247.157 174.493 246.869 174.493C246.581 174.493 246.351 174.096 246.351 173.603C246.351 173.11 246.587 172.714 246.869 172.714C247.151 172.714 247.387 173.11 247.387 173.603Z" fill="#263238"/>
<path d="M253.306 174.493C253.593 174.493 253.825 174.095 253.825 173.603C253.825 173.112 253.593 172.714 253.306 172.714C253.02 172.714 252.788 173.112 252.788 173.603C252.788 174.095 253.02 174.493 253.306 174.493Z" fill="#263238"/>
<path d="M249.018 178.339C249.018 178.339 250.791 179.229 251.975 178.339" stroke="#263238" stroke-width="0.64" stroke-linecap="round" stroke-linejoin="round"/>
<path d="M248.423 180.118C248.423 180.118 250.938 181.001 252.57 179.971" stroke="#263238" stroke-width="0.64" stroke-linecap="round" stroke-linejoin="round"/>
<path d="M245.018 172.125C245.304 171.701 245.712 171.375 246.187 171.19C246.663 171.005 247.184 170.969 247.68 171.088" stroke="#263238" stroke-width="0.64" stroke-linecap="round" stroke-linejoin="round"/>
<path d="M252.571 171.235C252.571 171.235 253.607 170.492 254.939 171.977" stroke="#263238" stroke-width="0.64" stroke-linecap="round" stroke-linejoin="round"/>
<path d="M166.879 243.146L171.839 280.586L165.119 281.226L159.359 260.266L166.879 243.146Z" fill="#263238" stroke="#263238" stroke-width="0.64" stroke-linecap="round" stroke-linejoin="round"/>
<path d="M136.639 229.546C136.639 229.546 164.799 233.226 168.479 235.466C172.159 237.706 169.119 241.546 169.119 242.186C169.119 242.826 158.879 281.386 158.879 281.386L151.359 279.786L154.719 244.746L147.359 245.386C147.359 245.386 120.319 245.226 116.319 243.946C112.319 242.666 111.839 235.786 112.639 233.226C113.439 230.666 113.279 230.026 113.279 230.026L136.639 229.546Z" fill="#263238" stroke="#263238" stroke-width="0.64" stroke-linecap="round" stroke-linejoin="round"/>
<path d="M132.652 212.33L154.533 214.993L161.381 212.964C161.381 212.964 168.018 215.825 167.045 216.714C166.072 217.604 162.668 215.588 162.668 215.588C162.668 215.588 158.828 219.524 157.311 218.788C156.319 218.338 155.255 218.069 154.168 217.994L134.751 219.274L132.652 212.33Z" fill="#263238" stroke="#263238" stroke-width="0.64" stroke-linecap="round" stroke-linejoin="round"/>
<path d="M118.24 182.96C118.24 182.96 112.48 188.56 111.36 193.36C110.24 198.16 110.4 202.96 110.56 203.6C110.72 204.24 112.8 228.56 113.28 230C113.76 231.44 120.48 232.24 124.48 232.24C128.48 232.24 135.36 230.96 136.64 229.52C137.92 228.08 137.28 222.64 136.16 220.08C135.04 217.52 130.4 194.16 130.08 191.44C129.76 188.72 129.6 188.24 127.68 186.16C125.76 184.08 121.6 182.026 118.24 182.96Z" fill="#E94702" stroke="#263238" stroke-width="0.64" stroke-linecap="round" stroke-linejoin="round"/>
<path d="M133.598 158.986C133.598 158.986 136.478 162.026 136.478 163.626C136.478 165.226 135.838 167.146 135.998 167.626C136.158 168.106 138.398 170.506 138.398 171.306C138.398 172.106 136.958 173.226 136.958 173.226C136.958 173.226 136.158 177.866 135.518 178.986C134.878 180.106 129.758 180.426 129.758 180.426L126.878 185.866L119.198 181.706L120.158 175.306C120.158 175.306 115.518 167.146 114.718 162.986C113.918 158.826 118.718 154.986 119.838 154.986C120.557 154.971 121.266 154.808 121.918 154.506C121.918 154.506 121.118 153.386 122.078 153.226C123.038 153.066 125.918 153.866 125.918 153.866C125.918 153.866 123.358 151.306 128.158 151.946C132.958 152.586 137.918 157.361 133.598 158.986Z" fill="white" stroke="#263238" stroke-width="0.64" stroke-linecap="round" stroke-linejoin="round"/>
<path d="M132.754 180.125C132.063 179.928 131.353 179.803 130.635 179.754C129.466 179.543 128.332 179.166 127.269 178.634L128.767 181.745L129.759 180.426L132.754 180.125Z" fill="#263238" stroke="#263238" stroke-width="0.64" stroke-linecap="round" stroke-linejoin="round"/>
<path d="M133.598 158.986C137.918 157.386 132.958 152.586 128.158 151.946C123.358 151.306 125.918 153.866 125.918 153.866C125.918 153.866 123.038 153.066 122.078 153.226C121.118 153.386 121.918 154.506 121.918 154.506C121.266 154.808 120.557 154.971 119.838 154.986C118.718 154.986 113.918 158.826 114.718 162.986C115.467 166.884 119.589 174.295 120.107 175.21C121.054 174.711 121.912 173.796 121.598 172.746C121.118 171.146 122.718 168.106 122.718 168.106C123.103 168.765 123.589 169.359 124.158 169.866C124.958 170.506 125.438 169.866 125.438 169.866L125.118 167.306C125.936 166.023 126.964 164.887 128.158 163.946C129.918 162.666 125.918 162.506 125.598 161.386C125.278 160.266 133.598 158.986 133.598 158.986Z" fill="#263238" stroke="#263238" stroke-width="0.64" stroke-linecap="round" stroke-linejoin="round"/>
<path d="M124.799 170.16C124.799 170.16 123.199 167.44 121.919 168.08C120.639 168.72 121.119 173.2 122.719 173.36C123.533 173.494 124.369 173.383 125.119 173.04" fill="white"/>
<path d="M124.799 170.16C124.799 170.16 123.199 167.44 121.919 168.08C120.639 168.72 121.119 173.2 122.719 173.36C123.533 173.494 124.369 173.383 125.119 173.04" stroke="#263238" stroke-width="0.64" stroke-linecap="round" stroke-linejoin="round"/>
<path d="M134.002 168.586C134.313 168.586 134.565 168.119 134.565 167.543C134.565 166.967 134.313 166.5 134.002 166.5C133.691 166.5 133.439 166.967 133.439 167.543C133.439 168.119 133.691 168.586 134.002 168.586Z" fill="#263238"/>
<path d="M132.479 166.026C132.479 166.026 133.599 164.586 135.039 165.386" stroke="#263238" stroke-width="0.64" stroke-linecap="round" stroke-linejoin="round"/>
<path d="M133.119 173.546C133.776 174.146 134.629 174.487 135.519 174.506" stroke="#263238" stroke-width="0.64" stroke-linecap="round" stroke-linejoin="round"/>
<path d="M118.239 179.626L116.639 182.826L128.479 188.266L129.279 184.106L118.239 179.626Z" fill="#E94702" stroke="#263238" stroke-width="0.64" stroke-linecap="round" stroke-linejoin="round"/>
<path d="M158.88 281.386L161.44 286.666C161.44 286.666 167.52 288.906 167.36 289.866C167.2 290.826 159.84 290.346 159.84 290.346C159.84 290.346 149.44 288.426 149.28 286.986C149.12 285.546 151.36 279.786 151.36 279.786L158.88 281.386Z" fill="#E94702" stroke="#263238" stroke-width="0.64" stroke-linecap="round" stroke-linejoin="round"/>
<path d="M171.839 280.586C171.839 280.586 176.959 282.986 177.439 283.306C177.919 283.626 183.519 285.066 183.999 285.226C184.479 285.386 184.639 286.506 184.639 286.506C184.639 286.506 175.519 288.426 174.879 288.426C174.239 288.426 169.759 287.946 168.639 287.946H164.639L165.119 281.226L171.839 280.586Z" fill="#E94702" stroke="#263238" stroke-width="0.64" stroke-linecap="round" stroke-linejoin="round"/>
<path d="M116.319 197.681C116.319 197.681 121.119 223.601 122.719 224.401C124.319 225.201 154.879 219.441 154.879 219.441L154.623 215.767L129.631 214.653C129.631 214.653 127.551 191.293 125.151 188.413C122.751 185.533 117.791 185.853 116.831 187.933" fill="#E94702"/>
<path d="M116.319 197.681C116.319 197.681 121.119 223.601 122.719 224.401C124.319 225.201 154.879 219.441 154.879 219.441L154.623 215.767L129.631 214.653C129.631 214.653 127.551 191.293 125.151 188.413C122.751 185.533 117.791 185.853 116.831 187.933" stroke="#E94702" stroke-width="0.64" stroke-linecap="round" stroke-linejoin="round"/>
<path d="M154.592 215.78C154.592 215.78 162.092 213.911 163.123 213.956C164.153 214 169.356 217.508 169.337 218.026C169.318 218.544 167.936 218.48 167.936 218.48L165.529 218.205L162.969 217.565C162.969 217.565 160.928 219.3 159.891 219.255C159.026 219.175 158.169 219.021 157.331 218.794L154.88 219.44L154.592 215.78Z" fill="white" stroke="#263238" stroke-width="0.64" stroke-linecap="round" stroke-linejoin="round"/>
<path d="M100.959 192.106L103.839 191.946C103.839 191.946 111.199 213.226 112.159 221.226C113.119 229.226 112.799 235.946 112.319 238.186C111.839 240.426 109.279 244.746 109.279 244.746L106.239 245.68C106.239 245.68 109.439 236.88 109.599 234.48C109.759 232.08 109.343 222.557 109.119 221.36C107.359 212.106 100.959 192.106 100.959 192.106Z" fill="white" stroke="#263238" stroke-width="0.64" stroke-linecap="round" stroke-linejoin="round"/>
<path d="M126.719 273.706C126.719 273.706 142.559 281.706 142.879 283.466C143.059 284.793 143.059 286.139 142.879 287.466L142.322 286.903L140.799 283.306L126.559 276.586L126.719 273.706Z" fill="white" stroke="#263238" stroke-width="0.64" stroke-linecap="round" stroke-linejoin="round"/>
<path d="M141.759 288.586C142.731 288.586 143.519 287.798 143.519 286.826C143.519 285.854 142.731 285.066 141.759 285.066C140.787 285.066 139.999 285.854 139.999 286.826C139.999 287.798 140.787 288.586 141.759 288.586Z" fill="#263238" stroke="#263238" stroke-width="0.64" stroke-linecap="round" stroke-linejoin="round"/>
<path d="M122.079 273.706C122.079 273.706 106.239 281.706 105.919 283.44C105.739 284.768 105.739 286.113 105.919 287.44L106.482 286.877L107.999 283.28L122.239 276.586L122.079 273.706Z" fill="white" stroke="#263238" stroke-width="0.64" stroke-linecap="round" stroke-linejoin="round"/>
<path d="M107.039 288.586C108.011 288.586 108.799 287.798 108.799 286.826C108.799 285.854 108.011 285.066 107.039 285.066C106.067 285.066 105.279 285.854 105.279 286.826C105.279 287.798 106.067 288.586 107.039 288.586Z" fill="#263238" stroke="#263238" stroke-width="0.64" stroke-linecap="round" stroke-linejoin="round"/>
<path d="M123.359 275.46H125.919V247.62H123.359V275.46Z" fill="white" stroke="#263238" stroke-width="0.64" stroke-linecap="round" stroke-linejoin="round"/>
<path d="M120.799 255.46H128.319V250.34H120.799V255.46Z" fill="#263238" stroke="#263238" stroke-width="0.64" stroke-linecap="round" stroke-linejoin="round"/>
<path d="M106.591 245.201C112.031 244.625 130.099 243.037 146.239 245.201C146.362 245.213 146.479 245.26 146.575 245.337C146.672 245.414 146.744 245.517 146.783 245.634C146.823 245.751 146.827 245.877 146.796 245.996C146.766 246.116 146.701 246.224 146.611 246.308C145.023 247.882 140.383 250.935 127.839 251.761C115.084 252.593 108.639 248.631 106.175 246.557C106.064 246.458 105.983 246.329 105.943 246.185C105.903 246.041 105.905 245.888 105.948 245.746C105.992 245.603 106.076 245.475 106.19 245.379C106.304 245.282 106.443 245.22 106.591 245.201Z" fill="white" stroke="#263238" stroke-width="0.64" stroke-linecap="round" stroke-linejoin="round"/>
<path d="M146.278 246.641H106.278L106.169 246.551C106.054 246.451 105.971 246.319 105.929 246.172C105.887 246.025 105.889 245.869 105.935 245.723C105.98 245.577 106.067 245.448 106.185 245.351C106.303 245.253 106.446 245.192 106.598 245.175C111.993 244.606 129.798 243.038 145.824 245.143C145.991 245.159 146.15 245.224 146.28 245.33C146.41 245.436 146.506 245.578 146.555 245.739C146.603 245.9 146.603 246.072 146.554 246.232C146.505 246.393 146.409 246.535 146.278 246.641Z" fill="#E94702" stroke="#263238" stroke-width="0.64" stroke-linecap="round" stroke-linejoin="round"/>
<path d="M121.599 277.38H127.519V271.14H121.599V277.38Z" fill="#263238" stroke="#263238" stroke-width="0.64" stroke-linecap="round" stroke-linejoin="round"/>
<path d="M124.318 288.586H125.202V274.263H124.318V288.586Z" fill="white" stroke="#263238" stroke-width="0.64" stroke-linecap="round" stroke-linejoin="round"/>
<path d="M123.985 288.599H125.534V284.849H123.985V288.599Z" fill="#263238" stroke="#263238" stroke-width="0.64" stroke-linecap="round" stroke-linejoin="round"/>
<path d="M118.559 246.666H122.079L124.319 225.226H121.919L118.559 246.666Z" fill="white" stroke="#263238" stroke-width="0.64" stroke-linecap="round" stroke-linejoin="round"/>
<path d="M112.479 226.666H136.639C136.639 226.666 134.879 223.466 133.759 223.146C132.639 222.826 114.399 223.146 114.399 223.146C114.399 223.146 112.479 223.786 112.479 226.666Z" fill="#263238" stroke="#263238" stroke-width="0.64" stroke-linecap="round" stroke-linejoin="round"/>
<path d="M136.639 226.666H112.479C112.48 226.398 112.5 226.131 112.537 225.866H136.165C136.453 226.327 136.639 226.666 136.639 226.666Z" fill="white" stroke="#263238" stroke-width="0.64" stroke-linecap="round" stroke-linejoin="round"/>
<path d="M233.817 220.764H269.811V219.503H233.817V220.764Z" fill="white" stroke="#263238" stroke-width="0.64" stroke-linecap="round" stroke-linejoin="round"/>
<path d="M269.394 179.363H231.391C230.065 179.363 228.991 180.437 228.991 181.763V213.993C228.991 215.319 230.065 216.393 231.391 216.393H269.394C270.719 216.393 271.794 215.319 271.794 213.993V181.763C271.794 180.437 270.719 179.363 269.394 179.363Z" fill="white" stroke="#263238" stroke-width="0.64" stroke-linecap="round" stroke-linejoin="round"/>
<path d="M253.844 199.586H246.938V220.738H253.844V199.586Z" fill="#263238" stroke="#263238" stroke-width="0.64" stroke-linecap="round" stroke-linejoin="round"/>
<path d="M349.05 219.529H328.928V220.726H349.05V219.529Z" fill="white" stroke="#263238" stroke-width="0.64" stroke-linecap="round" stroke-linejoin="round"/>
<path d="M316.801 220.463H308.026C307.282 220.462 306.566 220.177 306.026 219.665C305.485 219.153 305.161 218.454 305.121 217.711C305.107 217.385 305.146 217.059 305.236 216.745L310.733 200.93C310.789 200.77 310.907 200.638 311.06 200.564C311.213 200.491 311.389 200.481 311.549 200.537C311.71 200.593 311.841 200.71 311.915 200.863C311.989 201.016 311.999 201.192 311.943 201.353L306.452 217.135C306.411 217.3 306.393 217.47 306.401 217.641C306.423 218.057 306.605 218.448 306.907 218.735C307.209 219.022 307.609 219.182 308.026 219.183H316.801C316.97 219.183 317.133 219.25 317.253 219.37C317.373 219.49 317.441 219.653 317.441 219.823C317.441 219.993 317.373 220.156 317.253 220.276C317.133 220.396 316.97 220.463 316.801 220.463Z" fill="#263238" stroke="#263238" stroke-width="0.64" stroke-linecap="round" stroke-linejoin="round"/>
<path d="M314.533 179.292L324.229 216.412L323.199 217.193C323.199 217.193 311.001 207.65 311.001 199.695C311.001 191.74 313.125 179.542 313.125 179.542L314.533 179.292Z" fill="white" stroke="#263238" stroke-width="0.64" stroke-linecap="round" stroke-linejoin="round"/>
<path d="M314.534 179.292L313.088 179.542L323.168 217.193L324.23 216.399L314.534 179.292Z" fill="#263238" stroke="#263238" stroke-width="0.64" stroke-linecap="round" stroke-linejoin="round"/>
<path d="M156.634 220.732H176.756V219.535H156.634V220.732Z" fill="white" stroke="#263238" stroke-width="0.64" stroke-linecap="round" stroke-linejoin="round"/>
<path d="M188.883 220.463H197.657C198.402 220.464 199.119 220.179 199.66 219.667C200.2 219.155 200.524 218.455 200.563 217.711C200.576 217.385 200.537 217.059 200.448 216.745L194.95 200.93C194.894 200.77 194.777 200.638 194.624 200.564C194.471 200.491 194.295 200.481 194.134 200.537C193.974 200.593 193.842 200.71 193.768 200.863C193.695 201.016 193.685 201.192 193.741 201.353L199.232 217.135C199.273 217.3 199.29 217.47 199.283 217.641C199.26 218.057 199.079 218.448 198.777 218.735C198.475 219.022 198.074 219.182 197.657 219.183H188.883C188.713 219.183 188.551 219.25 188.431 219.37C188.311 219.49 188.243 219.653 188.243 219.823C188.243 219.993 188.311 220.156 188.431 220.276C188.551 220.396 188.713 220.463 188.883 220.463Z" fill="#263238" stroke="#263238" stroke-width="0.64" stroke-linecap="round" stroke-linejoin="round"/>
<path d="M191.148 179.292L181.458 216.412L182.514 217.206C182.514 217.206 194.712 207.663 194.712 199.708C194.712 191.753 192.594 179.554 192.594 179.554L191.148 179.292Z" fill="white" stroke="#263238" stroke-width="0.64" stroke-linecap="round" stroke-linejoin="round"/>
<path d="M191.148 179.292L192.594 179.542L182.514 217.193L181.458 216.399L191.148 179.292Z" fill="#263238" stroke="#263238" stroke-width="0.64" stroke-linecap="round" stroke-linejoin="round"/>
<path d="M154.239 224.208L156.966 231.248C157.938 233.239 158.316 236.624 158.054 238.826L151.654 289.52C151.637 289.658 151.649 289.797 151.689 289.93C151.73 290.062 151.798 290.184 151.889 290.288C151.981 290.392 152.093 290.476 152.219 290.533C152.345 290.59 152.482 290.62 152.62 290.621C152.849 290.621 153.071 290.541 153.247 290.395C153.423 290.249 153.543 290.046 153.586 289.821L165.759 224.887H161.279L160.492 228.618C160.459 228.751 160.384 228.87 160.278 228.957C160.172 229.044 160.041 229.095 159.905 229.102C159.768 229.109 159.632 229.072 159.518 228.997C159.404 228.921 159.317 228.811 159.27 228.682L157.791 223.92L154.239 224.208Z" fill="white" stroke="#263238" stroke-width="0.64" stroke-linecap="round" stroke-linejoin="round"/>
<path d="M349.752 224.208L347.026 231.248C346.059 233.239 345.682 236.624 345.938 238.826L352.338 289.52C352.354 289.658 352.341 289.798 352.299 289.93C352.258 290.062 352.189 290.184 352.097 290.288C352.006 290.392 351.893 290.475 351.767 290.533C351.64 290.59 351.503 290.62 351.365 290.621C351.137 290.619 350.917 290.539 350.742 290.393C350.567 290.247 350.448 290.045 350.405 289.821L338.194 224.887H342.674L343.461 228.618C343.496 228.749 343.571 228.865 343.676 228.95C343.781 229.035 343.91 229.085 344.046 229.092C344.181 229.099 344.314 229.063 344.428 228.99C344.541 228.916 344.628 228.808 344.677 228.682L346.194 223.927L349.752 224.208Z" fill="white" stroke="#263238" stroke-width="0.64" stroke-linecap="round" stroke-linejoin="round"/>
<path d="M250.988 290.66C250.571 290.66 250.17 290.496 249.872 290.204C249.574 289.912 249.402 289.515 249.394 289.098L248.146 222.986H253.829L252.549 289.098C252.543 289.51 252.376 289.904 252.085 290.195C251.793 290.486 251.4 290.653 250.988 290.66Z" fill="white" stroke="#263238" stroke-width="0.64" stroke-linecap="round" stroke-linejoin="round"/>
<path d="M354.879 220.701H149.439V224.861H354.879V220.701Z" fill="white" stroke="#263238" stroke-width="0.64" stroke-linecap="round" stroke-linejoin="round"/>
<path d="M246.559 46.7812C259.338 46.7812 269.698 36.4032 269.698 23.6014C269.698 10.7996 259.338 0.421616 246.559 0.421616C233.779 0.421616 223.42 10.7996 223.42 23.6014C223.42 36.4032 233.779 46.7812 246.559 46.7812Z" fill="#FFC727"/>
<path d="M246.513 47.2022C241.329 47.2022 236.318 45.4972 232.152 42.2709C227.158 38.4045 223.973 32.8201 223.186 26.5456C221.565 13.6366 230.731 1.81292 243.618 0.187696C249.841 -0.595229 256.002 1.0875 260.966 4.92977C265.96 8.79616 269.146 14.3805 269.933 20.6551C271.553 33.5641 262.388 45.3877 249.501 47.0129C248.502 47.141 247.504 47.2022 246.513 47.2022ZM246.604 0.837042C245.648 0.837042 244.687 0.898274 243.724 1.01887C231.294 2.58472 222.454 13.9909 224.017 26.4435C224.777 32.4954 227.849 37.8813 232.666 41.6122C237.451 45.3172 243.392 46.9406 249.393 46.1855C261.822 44.6196 270.662 33.2134 269.099 20.7608C268.34 14.7089 265.268 9.32306 260.451 5.59211C256.434 2.48081 251.602 0.837042 246.604 0.837042Z" fill="black"/>
<path d="M246.563 44.5466C258.11 44.5466 267.471 35.1687 267.471 23.6005C267.471 12.0324 258.11 2.65451 246.563 2.65451C235.015 2.65451 225.654 12.0324 225.654 23.6005C225.654 35.1687 235.015 44.5466 246.563 44.5466Z" fill="white"/>
<path d="M246.559 42.1276C256.774 42.1276 265.054 33.8329 265.054 23.6009C265.054 13.3688 256.774 5.07413 246.559 5.07413C236.345 5.07413 228.064 13.3688 228.064 23.6009C228.064 33.8329 236.345 42.1276 246.559 42.1276Z" fill="#FFC727"/>
<path d="M246.523 43.1385C242.233 43.1385 238.085 41.7267 234.637 39.0569C230.503 35.8566 227.868 31.2332 227.215 26.0403C225.874 15.3558 233.46 5.56737 244.129 4.22415C250.567 3.41154 256.965 5.85123 261.245 10.7473C261.397 10.9217 261.379 11.1851 261.204 11.3373C261.029 11.4894 260.765 11.4708 260.612 11.2964C256.517 6.61188 250.394 4.2761 244.233 5.05346C234.023 6.34102 226.763 15.7083 228.047 25.9364C228.672 30.9067 231.195 35.3315 235.151 38.3964C239.083 41.4391 243.963 42.773 248.892 42.1534C259.101 40.8658 266.362 31.4985 265.078 21.2704C265.048 21.0422 265.212 20.8326 265.442 20.8047C265.669 20.7788 265.882 20.9383 265.911 21.1684C267.253 31.8529 259.667 41.6413 248.998 42.9845C248.17 43.0866 247.344 43.1385 246.523 43.1385Z" fill="white"/>
<path d="M246.444 36.5735L246.07 33.5995C243.965 33.7702 241.863 33.4622 240.59 32.9223L241.068 29.1431C242.471 29.6978 244.397 30.1227 246.427 29.8667C248.208 29.6422 249.339 28.7999 249.183 27.5476C249.034 26.3583 247.94 25.7331 245.528 25.2415C242.043 24.5365 239.567 23.2582 239.185 20.223C238.839 17.4697 240.505 15.0653 243.766 13.9874L243.392 11.0134L246.453 10.6275L246.799 13.3807C248.904 13.21 250.364 13.4716 251.458 13.8427L250.997 17.4938C250.141 17.2527 248.613 16.7128 246.364 16.9966C244.334 17.2527 243.787 18.2118 243.896 19.0875C244.027 20.1209 245.203 20.6404 247.984 21.3064C251.868 22.1524 253.583 23.6849 253.937 26.5012C254.286 29.286 252.617 31.913 249.103 32.9909L249.503 36.1839L246.444 36.5735Z" fill="white"/>
<path d="M250.574 119.187C256.843 116.289 259.486 108.693 256.477 102.222C253.467 95.7518 245.945 92.8564 239.676 95.7553C233.407 98.6542 230.764 106.25 233.773 112.72C236.783 119.191 244.304 122.086 250.574 119.187Z" fill="#FFC727"/>
<path d="M245.502 121.125C244.905 121.125 244.302 121.084 243.697 121.003C236.353 120.005 231.017 113.123 231.802 105.662C231.826 105.431 232.029 105.261 232.264 105.29C232.494 105.315 232.662 105.521 232.638 105.751C231.899 112.767 236.912 119.238 243.811 120.175C247.11 120.626 250.357 119.752 252.954 117.719C255.611 115.639 257.273 112.604 257.636 109.174C258.374 102.157 253.362 95.6875 246.462 94.7488C242.308 94.1829 238.218 95.7488 235.52 98.9361C235.371 99.1124 235.107 99.1346 234.928 98.9862C234.751 98.8378 234.729 98.5744 234.878 98.3963C237.762 94.99 242.133 93.3165 246.574 93.9195C253.918 94.9176 259.254 101.799 258.469 109.261C258.084 112.919 256.309 116.157 253.471 118.378C251.17 120.175 248.394 121.125 245.502 121.125Z" fill="black"/>
<path d="M244.882 115.173L244.696 113.407C243.465 113.518 242.242 113.344 241.503 113.03L241.823 110.782C242.637 111.105 243.757 111.348 244.944 111.186C245.986 111.045 246.656 110.539 246.577 109.795C246.503 109.088 245.87 108.722 244.469 108.442C242.443 108.04 241.01 107.292 240.821 105.489C240.649 103.854 241.647 102.416 243.563 101.761L243.377 99.9952L245.169 99.7521L245.34 101.387C246.572 101.275 247.42 101.424 248.057 101.639L247.748 103.811C247.251 103.672 246.365 103.359 245.048 103.537C243.859 103.698 243.53 104.272 243.585 104.791C243.651 105.405 244.332 105.708 245.949 106.092C248.207 106.576 249.192 107.479 249.368 109.151C249.543 110.804 248.539 112.374 246.475 113.03L246.674 114.926L244.882 115.173Z" fill="white"/>
<path d="M269.066 88.007C278.008 88.007 285.257 80.7456 285.257 71.7882C285.257 62.8308 278.008 55.5694 269.066 55.5694C260.124 55.5694 252.874 62.8308 252.874 71.7882C252.874 80.7456 260.124 88.007 269.066 88.007Z" fill="#FFC727"/>
<path d="M269.059 88.4262C264.713 88.4262 260.614 86.7601 257.49 83.7212C254.308 80.6247 252.52 76.4708 252.457 72.0293C252.325 62.8568 259.669 55.2854 268.827 55.1537C273.274 55.0832 277.46 56.7604 280.642 59.8568C283.824 62.9533 285.612 67.1072 285.675 71.5488C285.807 80.7212 278.463 88.2926 269.305 88.4243C269.223 88.4243 269.141 88.4262 269.059 88.4262ZM269.07 55.9867C268.992 55.9867 268.916 55.9867 268.838 55.9886C260.141 56.1147 253.169 63.3039 253.294 72.0163C253.355 76.237 255.052 80.1813 258.074 83.1219C261.096 86.0625 265.083 87.6618 269.29 87.5876C277.987 87.4614 284.959 80.2722 284.834 71.5599C284.773 67.3391 283.076 63.3948 280.054 60.4542C277.09 57.5674 273.196 55.9867 269.07 55.9867Z" fill="black"/>
<path d="M269.017 85.5531C276.522 85.5531 282.605 79.4587 282.605 71.9409C282.605 64.4232 276.522 58.3288 269.017 58.3288C261.512 58.3288 255.429 64.4232 255.429 71.9409C255.429 79.4587 261.512 85.5531 269.017 85.5531Z" fill="#FFC727"/>
<path d="M280.595 79.4137C280.518 79.4137 280.442 79.3933 280.373 79.3506C280.176 79.2281 280.116 78.9703 280.239 78.7755C280.907 77.705 281.417 76.5491 281.754 75.3376C281.815 75.115 282.046 74.9851 282.269 75.0464C282.493 75.1076 282.623 75.3395 282.561 75.5603C282.202 76.8497 281.661 78.0797 280.95 79.217C280.87 79.3432 280.734 79.4137 280.595 79.4137Z" fill="white"/>
<path d="M281.21 66.0929C281.055 66.0929 280.908 66.0076 280.834 65.8629C278.545 61.3082 273.964 58.529 268.875 58.5958C264.696 58.657 260.754 60.7312 258.327 64.1486C258.193 64.3378 257.933 64.3824 257.743 64.2488C257.553 64.1152 257.509 63.8536 257.643 63.6662C260.223 60.0336 264.417 57.8258 268.862 57.7609C268.928 57.7609 268.995 57.759 269.06 57.759C274.314 57.759 279.213 60.7757 281.582 65.4881C281.686 65.694 281.602 65.9464 281.394 66.0503C281.336 66.0781 281.273 66.0929 281.21 66.0929Z" fill="white"/>
<path d="M269.06 85.8184C265.395 85.8184 261.938 84.4139 259.305 81.8499C256.622 79.2396 255.115 75.7368 255.061 71.991C255.035 70.2211 255.336 68.4901 255.952 66.8482C256.034 66.6311 256.276 66.5235 256.492 66.6033C256.709 66.6849 256.819 66.9261 256.737 67.1413C256.157 68.6868 255.874 70.3138 255.898 71.978C255.948 75.503 257.366 78.7962 259.889 81.2525C262.412 83.7071 265.741 85.0336 269.254 84.9816C269.481 84.9835 269.676 85.1635 269.68 85.3935C269.684 85.6254 269.498 85.8146 269.267 85.8184C269.198 85.8165 269.129 85.8184 269.06 85.8184Z" fill="white"/>
<path d="M267.878 81.2641L267.846 79.0971C266.32 79.0507 264.834 78.6611 263.961 78.1713L264.605 75.4923C265.569 76.0025 266.919 76.4626 268.399 76.4422C269.697 76.4236 270.578 75.9097 270.565 74.9969C270.551 74.1305 269.815 73.5925 268.121 73.047C265.673 72.2604 263.995 71.1454 263.963 68.932C263.935 66.9246 265.323 65.331 267.753 64.8171L267.721 62.6501L269.952 62.6186L269.982 64.626C271.508 64.6723 272.539 64.9766 273.294 65.331L272.671 67.9172C272.075 67.6742 271.02 67.1658 269.381 67.1881C267.902 67.2085 267.431 67.8541 267.44 68.4942C267.452 69.2474 268.255 69.715 270.202 70.4163C272.926 71.3346 274.036 72.574 274.066 74.6277C274.096 76.6574 272.686 78.4125 270.073 78.906L270.107 81.2325L267.878 81.2641Z" fill="white"/>
</svg>
