<svg width="44" height="44" viewBox="0 0 44 44" fill="none" xmlns="http://www.w3.org/2000/svg">
<rect width="44" height="44" rx="22" fill="#1D2C3C"/>
<path d="M21.0003 22.0001H17.3336M17.2772 22.1944L15.7206 26.8442C15.5983 27.2095 15.5371 27.3922 15.581 27.5047C15.6191 27.6023 15.701 27.6764 15.8019 27.7046C15.9182 27.737 16.0939 27.658 16.4452 27.4999L27.5862 22.4865C27.929 22.3322 28.1005 22.255 28.1535 22.1478C28.1995 22.0547 28.1995 21.9455 28.1535 21.8524C28.1005 21.7452 27.929 21.668 27.5862 21.5137L16.4413 16.4986C16.0911 16.341 15.9159 16.2622 15.7998 16.2945C15.6989 16.3226 15.617 16.3964 15.5788 16.4939C15.5348 16.6062 15.5953 16.7884 15.7162 17.153L17.2776 21.8571C17.2984 21.9197 17.3088 21.951 17.3129 21.983C17.3165 22.0115 17.3165 22.0402 17.3128 22.0686C17.3086 22.1006 17.2981 22.1319 17.2772 22.1944Z" stroke="white" stroke-linecap="round" stroke-linejoin="round"/>
</svg>
