<svg width="144" height="48" viewBox="0 0 144 48" fill="none" xmlns="http://www.w3.org/2000/svg">
<path d="M8.5 11.968H135.5V36.0319H8.5V11.968Z" fill="black"/>
<path d="M30.2664 25.2569H26.0283V27.1964C25.9564 27.6274 26.0283 27.9865 26.1719 28.4175C26.1719 28.5612 26.2438 28.7767 26.3874 28.8485C26.6029 28.9204 26.8903 28.9922 27.1058 28.9204H27.3931V29.2077H23.7296V28.9204H23.9451C24.2325 28.9204 24.5198 28.9204 24.5916 28.8485C24.6635 28.7767 24.879 28.633 24.879 28.4894C24.9508 28.0584 25.0226 27.6274 24.9508 27.1964V23.3174C24.9508 22.8864 24.9508 22.5273 24.879 22.0963C24.879 21.9526 24.8071 21.7371 24.6635 21.7371C24.3761 21.6653 24.0888 21.5934 23.8015 21.6653H23.586V21.3779H27.2494V21.6653H27.1058C26.7466 21.6653 26.4593 21.6653 26.3874 21.7371C26.3156 21.8089 26.1001 21.9526 26.1001 22.0963C26.1001 22.2399 25.9564 22.6709 25.9564 23.3174V24.8977H30.1946V23.3174C30.1946 22.6709 30.1227 22.3118 30.1227 22.0963C30.1227 21.8808 30.0509 21.7371 29.8354 21.7371C29.6199 21.7371 29.4762 21.6653 29.1171 21.6653H28.9016V21.3779H32.4932V21.6653H32.3495C32.0622 21.6653 31.7749 21.6653 31.4876 21.7371C31.4157 21.7371 31.2721 21.9526 31.2721 22.0963C31.2002 22.4554 31.1284 22.8864 31.2002 23.3174V27.1964C31.1284 27.6274 31.2002 27.9865 31.2721 28.4175C31.2721 28.5612 31.3439 28.7767 31.4876 28.8485C31.7031 28.9204 31.9904 28.9922 32.2059 28.9204H32.4214V29.2077H28.8297V28.9204H29.1171C29.4044 28.9204 29.6917 28.9204 29.7636 28.8485C29.9791 28.7049 30.0509 28.633 30.0509 28.4894C30.0509 28.3457 30.1227 27.8429 30.1227 27.1964V25.2569H30.2664Z" fill="white"/>
<path d="M39.0303 29.0646H39.1021C39.9641 29.0646 40.7542 28.7055 41.2571 28.059C41.9036 27.2688 42.1909 26.2632 42.1191 25.2575C42.1909 24.2519 41.9036 23.2462 41.2571 22.456C40.7542 21.8095 39.8922 21.3785 39.0303 21.4504V21.1631C40.1796 21.0912 41.3289 21.5222 42.1909 22.2405C43.0529 22.9589 43.4839 24.1082 43.4839 25.2575C43.4839 26.4068 43.0529 27.4843 42.1909 28.2745C41.3289 29.0646 40.1796 29.4238 39.0303 29.352V29.0646ZM36.0851 25.2575C35.9415 26.2632 36.2288 27.2688 36.8034 28.059C37.3781 28.7055 38.1683 29.0646 39.0303 29.0646V29.352C37.8809 29.4238 36.7316 28.9928 35.8696 28.2745C35.0795 27.4843 34.6485 26.335 34.6485 25.1857C34.6485 24.1082 35.0795 23.0307 35.8696 22.3124C36.7316 21.594 37.8809 21.163 39.0303 21.2349V21.5222C38.1683 21.5222 37.3781 21.8814 36.8034 22.5279C36.2288 23.2462 36.0133 24.2519 36.0851 25.2575Z" fill="white"/>
<path d="M49.2275 25.1852C49.2993 25.1852 49.443 25.0415 49.5148 25.0415C49.8022 24.9697 50.0895 24.7542 50.2332 24.4668C50.4487 24.1077 50.5205 23.7485 50.5205 23.3894C50.5205 22.8865 50.3768 22.3837 50.0177 21.9527C49.8022 21.7372 49.5148 21.5935 49.1557 21.5935V21.2344C49.5148 21.2344 49.874 21.3062 50.1613 21.4499C50.5923 21.5217 50.9515 21.7372 51.2388 22.0964C51.5262 22.4555 51.6698 22.8865 51.7417 23.3894C51.7417 23.8203 51.6698 24.1795 51.4543 24.6105C51.167 24.8978 50.8797 25.1852 50.5205 25.3288C50.0895 25.4725 49.5867 25.5443 49.1557 25.5443L49.2275 25.1852ZM47.8627 25.1852H49.2275V25.4725C49.0839 25.5443 48.9402 25.5443 48.7247 25.5443H47.7909V27.1965C47.719 27.6275 47.7909 27.9866 47.9345 28.4176C47.9345 28.5613 48.0064 28.7768 48.15 28.8486C48.3655 28.9205 48.6529 28.9923 48.8684 28.9205H49.1557V29.2078H45.4922V28.9205H45.7795C46.0669 28.9205 46.3542 28.9205 46.426 28.8486C46.4979 28.7768 46.7134 28.6331 46.7134 28.4895C46.7134 28.3458 46.7852 27.843 46.7852 27.1965V23.3175C46.7852 22.671 46.7134 22.3119 46.7134 22.0964C46.7134 21.8809 46.5697 21.7372 46.426 21.7372C46.2824 21.7372 46.0669 21.6654 45.7077 21.6654H45.4922V21.378L46.4979 21.3062H49.2993V21.6654C49.0838 21.5935 48.7965 21.5935 48.581 21.5935H47.9345L47.8627 25.1852Z" fill="white"/>
<path d="M57.3477 25.1852C57.4914 25.1852 57.5632 25.0415 57.7069 25.0415C57.9942 24.9697 58.2097 24.7542 58.3534 24.4668C58.4971 24.1077 58.6407 23.7485 58.6407 23.3894C58.6407 22.7429 58.5689 22.1682 58.1379 21.9527C57.9224 21.7372 57.6351 21.5935 57.2759 21.5935V21.2344C57.6351 21.2344 57.9942 21.3062 58.2816 21.4499C58.7126 21.5217 59.0717 21.7372 59.3591 22.0964C59.6464 22.4555 59.79 22.8865 59.8619 23.3894C59.8619 23.8203 59.79 24.1795 59.5746 24.6105C59.3591 24.8978 59.0717 25.1852 58.7126 25.3288C58.2097 25.4725 57.7069 25.5443 57.2041 25.5443L57.3477 25.1852ZM55.9829 25.1852H57.3477V25.4725C57.2041 25.5443 57.0604 25.5443 56.8449 25.5443H55.9111V27.1965C55.8393 27.6275 55.9111 27.9866 56.0548 28.4176C56.0548 28.5613 56.1266 28.7768 56.1984 28.8486C56.4139 28.9205 56.7012 28.9923 56.9167 28.9205H57.2759V29.2078H53.6124V28.9205H53.8998C54.1153 28.9205 54.3308 28.9205 54.5463 28.8486C54.7618 28.705 54.8336 28.6331 54.8336 28.4895C54.9054 28.0585 54.9773 27.6275 54.9054 27.1965V23.3175C54.9054 22.8865 54.9054 22.5274 54.7618 22.0964C54.7618 21.9527 54.6899 21.7372 54.5463 21.7372C54.2589 21.6654 53.9716 21.6654 53.6843 21.6654H53.4688V21.378L54.4744 21.3062H57.2759V21.6654C57.0604 21.5935 56.7731 21.5935 56.5576 21.5935H55.9111L55.9829 25.1852Z" fill="white"/>
<path d="M68.2634 26.6931H68.5507L68.3352 29.1354H61.7266V28.8481H61.9421C62.2294 28.8481 62.5168 28.8481 62.8041 28.7762C62.9477 28.6326 63.0196 28.4889 63.0196 28.2734V22.024C63.0196 21.8803 62.9477 21.7367 62.7323 21.6648C62.6604 21.593 62.3731 21.593 62.0139 21.593V21.3057H67.7605L67.9042 23.1733H67.6169C67.545 22.7423 67.4014 22.3113 67.114 21.9522C66.9704 21.7367 66.7549 21.593 66.4675 21.593C66.0366 21.5212 65.6774 21.4493 65.2464 21.5212H64.0971V24.7536H64.9591C65.2464 24.7536 65.5337 24.7536 65.8211 24.61C66.0366 24.5381 66.1084 24.4663 66.1084 24.3226C66.1802 24.0353 66.1802 23.8198 66.1802 23.5325H66.4675V26.2621H66.1802C66.1802 25.9748 66.1802 25.6156 66.1084 25.3283C66.0366 25.1846 65.8929 25.041 65.7492 25.041C65.6774 24.9691 65.3901 24.9691 65.1027 24.9691H64.1689V26.9086C64.0971 27.4833 64.1689 27.9861 64.3844 28.5608C64.4562 28.7763 64.8154 28.7762 65.3901 28.7762H65.9647C66.3239 28.7762 66.6112 28.7762 66.9704 28.7044C67.2577 28.5608 67.545 28.3453 67.8324 28.0579C67.976 27.6988 68.1197 27.1959 68.2634 26.6931Z" fill="white"/>
<path d="M74.3681 25.1133C74.5118 25.0415 74.5836 25.0415 74.7273 25.0415C74.9428 24.9697 75.0865 24.8978 75.302 24.7542C75.4456 24.6105 75.5893 24.395 75.6611 24.2513C75.733 23.964 75.733 23.6767 75.733 23.3894C75.733 22.8865 75.6611 22.4555 75.3738 22.0245C75.0865 21.809 74.7273 21.5935 74.3681 21.5217V21.2344C74.7273 21.2344 75.0865 21.3062 75.4456 21.4499C75.8766 21.5217 76.2358 21.7372 76.5231 22.0964C76.8823 22.3837 77.0259 22.8147 77.0259 23.3175C77.0259 23.8203 76.8104 24.2513 76.4513 24.6105C76.0203 25.0415 75.4456 25.257 74.7991 25.3288C75.3738 25.8317 75.9485 26.4063 76.3794 27.0528C76.8104 27.6275 77.3133 28.1303 77.8879 28.6331C78.2471 28.9205 78.6781 28.9923 79.1091 28.9923V29.2796H76.9541C76.4513 29.0641 75.9485 28.3458 75.2301 27.2683C74.9428 26.9092 74.7273 26.6218 74.3681 26.2627V25.1133ZM73.0033 25.1852C73.3625 25.1852 73.6498 25.0415 73.9371 25.0415H74.44V26.119L73.8653 25.5443C73.7935 25.4725 73.578 25.4725 73.4343 25.4725H73.0752V27.1965C73.0033 27.6275 73.0752 27.9866 73.147 28.4176C73.147 28.5613 73.2188 28.7768 73.3625 28.9205C73.578 28.9923 73.8653 28.9923 74.0808 28.9923H74.44V29.2796H70.6328V28.9923H70.9202C71.2075 28.9923 71.4948 28.9923 71.5667 28.9205C71.7822 28.7768 71.854 28.705 71.854 28.5613C71.9258 28.1303 71.9977 27.6993 71.9258 27.2683V23.3175C71.9258 22.8865 71.9258 22.5274 71.854 22.0964C71.854 21.9527 71.7822 21.7372 71.6385 21.7372C71.3512 21.6654 71.0638 21.5935 70.7765 21.6654H70.7047V21.378L71.7822 21.3062C72.5005 21.3062 73.147 21.2344 73.6498 21.2344C73.9371 21.2344 74.2245 21.3062 74.3681 21.3062V21.5935H73.0033V25.1852Z" fill="white"/>
<path d="M80.5462 29.2078V26.6937H80.8335C81.1209 28.3458 81.911 29.136 83.204 29.136C83.7068 29.136 84.1378 28.9923 84.497 28.6331C84.7843 28.3458 84.928 27.9866 84.928 27.5556C84.928 27.1965 84.7125 26.8373 84.497 26.55C84.066 26.1908 83.5632 25.9035 82.9885 25.7598C82.4857 25.5443 82.0547 25.3288 81.6237 25.0415C81.2645 24.8978 80.9772 24.6105 80.8335 24.2513C80.618 23.964 80.5462 23.6049 80.5462 23.2457C80.4744 22.671 80.7617 22.1682 81.1927 21.809C81.6237 21.4499 82.1265 21.2344 82.7012 21.2344C82.9885 21.2344 83.3477 21.3062 83.635 21.4499C83.9942 21.5217 84.3533 21.7372 84.5688 22.0964C84.7125 21.8809 84.8561 21.6654 84.928 21.4499H85.1435V23.4612H84.928C84.7843 22.9584 84.497 22.4555 84.1378 22.0964C83.7787 21.7372 83.3477 21.5217 82.8448 21.5217C82.4138 21.4499 82.0547 21.5935 81.7673 21.8809C81.6237 22.0964 81.48 22.3837 81.48 22.671C81.48 23.0302 81.5518 23.3894 81.8392 23.6767C82.2702 23.964 82.773 24.2513 83.2758 24.4668C83.9942 24.7542 84.497 25.0415 84.8561 25.1852C85.1435 25.4007 85.4308 25.688 85.5745 25.9753C85.79 26.3345 85.8618 26.6937 85.8618 27.0528C85.8618 27.6275 85.6463 28.274 85.2153 28.705C84.7125 29.136 84.066 29.3515 83.3477 29.3515C82.4857 29.3515 81.6955 28.9923 81.1209 28.3458C80.9772 28.5613 80.9054 28.8486 80.8335 29.136L80.5462 29.2078Z" fill="white"/>
<path d="M102.815 23.1737H102.527V21.3779H110.429V23.1737H110.142C110.07 22.8146 109.926 22.3836 109.782 22.0963C109.567 21.9526 109.495 21.7371 109.351 21.6653H107.125V28.3457C107.125 28.5612 107.196 28.7049 107.412 28.7767C107.484 28.8485 107.771 28.8485 108.13 28.8485H108.489V29.1358H104.539V28.8485H104.898C105.257 28.9922 105.76 28.8485 105.904 28.4175V21.5934H103.677C103.461 21.6653 103.318 21.8808 103.246 22.0244C102.958 22.4554 102.887 22.8146 102.815 23.1737Z" fill="white"/>
<path d="M116.39 29.0646H116.533C117.395 29.1365 118.185 28.7055 118.688 28.059C119.335 27.2688 119.622 26.2632 119.478 25.2575C119.55 24.2519 119.263 23.2462 118.688 22.456C118.185 21.8095 117.323 21.3785 116.461 21.4504V21.1631C117.611 21.0912 118.76 21.5222 119.622 22.2405C120.484 22.9589 120.987 24.1082 120.915 25.2575C120.915 26.4068 120.484 27.4843 119.622 28.2745C118.76 29.0646 117.611 29.4238 116.461 29.352L116.39 29.0646ZM113.444 25.2575C113.373 26.2632 113.66 27.2688 114.163 28.059C114.737 28.7055 115.528 29.0646 116.39 29.0646V29.352C115.24 29.4238 114.091 28.9928 113.229 28.2745C112.439 27.4843 112.008 26.335 112.008 25.1857C112.008 24.1082 112.439 23.0307 113.301 22.3124C114.163 21.594 115.24 21.163 116.318 21.2349V21.5222C115.456 21.5222 114.666 21.8814 114.091 22.5279C113.66 23.318 113.373 24.3237 113.444 25.2575Z" fill="white"/>
<path d="M126.806 25.1852C127.021 25.1852 127.093 25.0415 127.165 25.0415C127.452 24.9697 127.74 24.7542 127.883 24.4668C128.099 24.1077 128.171 23.7485 128.171 23.3894C128.171 22.8865 128.027 22.3837 127.74 21.9527C127.452 21.7372 127.165 21.5935 126.806 21.5935V21.2344C127.165 21.2344 127.524 21.3062 127.883 21.4499C128.314 21.5217 128.673 21.7372 128.961 22.0964C129.248 22.4555 129.32 22.8865 129.32 23.3894C129.32 23.8203 129.248 24.1795 129.033 24.6105C128.817 24.8978 128.53 25.1852 128.243 25.3288C127.74 25.4725 127.237 25.5443 126.734 25.5443L126.806 25.1852ZM125.513 25.1852H126.806V25.4725C126.662 25.5443 126.519 25.5443 126.375 25.5443H125.513V28.3458C125.585 28.5613 125.585 28.705 125.8 28.7768C126.016 28.8486 126.303 28.9205 126.519 28.8486H126.806V29.136H123.071V28.8486H123.286C123.502 28.8486 123.789 28.8486 124.004 28.7768C124.148 28.705 124.22 28.5613 124.292 28.4176V22.0964C124.22 21.9527 124.076 21.7372 124.004 21.7372C123.933 21.7372 123.645 21.6654 123.286 21.6654H123.071V21.378L124.076 21.3062H126.734V21.6654C126.519 21.5935 126.231 21.5935 126.016 21.5935H125.513V25.1852Z" fill="white"/>
<path d="M14.461 29.0644V25.6883H14.8201C15.1793 27.8433 16.3286 28.9207 17.9808 28.9207C18.6273 28.9926 19.2737 28.7771 19.7766 28.3461C20.2076 27.9869 20.4231 27.4841 20.4231 26.9094C20.4949 26.3348 20.2794 25.8319 19.9202 25.3291C19.2737 24.8981 18.6273 24.539 17.9089 24.2516C17.2624 23.9643 16.6159 23.677 15.9695 23.3178C15.4666 23.1023 15.1075 22.7431 14.8201 22.3121C14.6046 21.8811 14.461 21.4502 14.461 20.9473C14.461 20.229 14.7483 19.5825 15.2511 19.1515C15.754 18.6487 16.4723 18.3614 17.1906 18.4332C17.6216 18.3614 18.0526 18.4332 18.4836 18.6487C18.9864 18.8642 19.4174 19.1515 19.7766 19.5825C19.9921 19.2952 20.1357 19.0078 20.1357 18.6487H20.4231V21.3783H20.1357C19.9921 20.66 19.6329 20.0135 19.1301 19.4388C18.6273 19.0078 17.9808 18.7205 17.2624 18.7205C16.7596 18.7205 16.2568 18.8642 15.8976 19.2952C15.6103 19.5825 15.3948 20.0135 15.3948 20.5163C15.3948 21.0192 15.6103 21.522 15.9695 21.8811C16.6159 22.3121 17.2624 22.7431 18.0526 22.9586C18.9864 23.3896 19.6329 23.677 20.0639 23.9643C20.4949 24.2516 20.7822 24.539 21.0696 24.97C21.3569 25.4009 21.5006 25.8319 21.4287 26.3348C21.5006 27.1249 21.1414 27.9869 20.4949 28.4897C18.9146 29.8546 16.5441 29.6391 15.1793 28.0587V27.9869C14.9638 28.2742 14.8201 28.6334 14.8201 28.9926L14.461 29.0644Z" fill="white"/>
<path d="M93.836 29.064V25.6879H94.1951C94.5543 27.8429 95.7036 28.9204 97.3558 28.9204C98.0023 28.9922 98.6488 28.7767 99.0797 28.3457C99.5107 27.9865 99.7262 27.4837 99.6544 26.909C99.7262 26.3344 99.5826 25.8316 99.2952 25.3287C98.6488 24.8977 98.0023 24.5386 97.2839 24.2512C96.4938 23.8921 95.8473 23.6047 95.3445 23.3174C94.8416 23.1019 94.4825 22.7427 94.267 22.3118C93.9796 21.8808 93.9078 21.4498 93.9078 20.9469C93.9078 20.2286 94.1951 19.5821 94.7698 19.1511C95.3445 18.6483 96.0628 18.361 96.7811 18.4328C97.2121 18.4328 97.5713 18.4328 98.0023 18.6483C98.5051 18.8638 98.9361 19.1511 99.2952 19.5821C99.5107 19.2948 99.6544 19.0075 99.6544 18.6483H99.8699V21.3779H99.6544C99.5107 20.6596 99.1516 20.0131 98.6488 19.4384C98.1459 19.0075 97.5713 18.7201 96.9248 18.7201C96.3501 18.6483 95.8473 18.8638 95.4163 19.2948C95.0571 19.5821 94.9135 20.0131 94.9853 20.5159C94.9853 21.0188 95.2008 21.5216 95.56 21.8808C96.2064 22.3118 96.8529 22.6709 97.5713 22.9582C98.5051 23.3892 99.1516 23.6766 99.5826 23.9639C99.9417 24.2512 100.229 24.6104 100.516 24.9696C100.804 25.4006 100.876 25.8316 100.876 26.3344C100.947 27.1245 100.588 27.9865 99.9417 28.4894C99.3671 29.064 98.5051 29.4232 97.6431 29.4232C96.4938 29.4232 95.4163 28.9204 94.698 28.0584C94.4825 28.3457 94.4106 28.7049 94.3388 29.064H93.836Z" fill="white"/>
</svg>
