<svg width="139" height="104" viewBox="0 0 139 104" fill="none" xmlns="http://www.w3.org/2000/svg">
<path d="M4.3479 92.3726H246.989L290.883 88.2392V12.9043H7.32001L4.3479 60.8752V92.3726Z" fill="#BC8D06"/>
<path opacity="0.5" d="M4.35013 60.4922H290.988V64.26H4.35013V60.4922Z" fill="white"/>
<path d="M6.35794 12.9043H291.848V18.3367H6.35794V12.9043Z" fill="#BC8D06"/>
<path opacity="0.6" d="M6.35794 12.9043H291.848V18.3367H6.35794V12.9043Z" fill="white"/>
<path d="M67.327 0H253.727L262.406 12.9035H58.6472L67.327 0Z" fill="#BC8D06"/>
<path opacity="0.6" d="M67.327 0H253.727L262.406 12.9035H58.6472L67.327 0Z" fill="white"/>
<path opacity="0.1" d="M58.6472 12.9041L60.8752 9.58789L261.219 11.1406L262.406 12.9041H58.6472Z" fill="black"/>
<g opacity="0.2">
<path d="M134.248 8.96484H139.242V10.208H134.248V8.96484Z" fill="black"/>
<path d="M86.7051 8.96484H91.6992V10.208H86.7051V8.96484Z" fill="black"/>
</g>
<g opacity="0.2">
<path d="M74.9143 0H75.9337V12.9046H74.9143V0Z" fill="black"/>
</g>
<path opacity="0.2" d="M52.9 86.8076V92.3733H93.49V86.8076C93.49 86.6528 93.49 86.4979 93.49 86.3474C93.5292 83.6562 93.033 80.9841 92.0302 78.4864C91.0274 75.9887 89.5381 73.7153 87.6489 71.7984C85.7596 69.8814 83.5081 68.3592 81.0253 67.3202C78.5425 66.2812 75.8779 65.7461 73.1864 65.7461C70.4949 65.7461 67.8303 66.2812 65.3475 67.3202C62.8647 68.3592 60.6132 69.8814 58.7239 71.7984C56.8347 73.7153 55.3454 75.9887 54.3426 78.4864C53.3398 80.9841 52.8436 83.6562 52.8828 86.3474C52.8957 86.4979 52.8957 86.67 52.9 86.8076Z" fill="black"/>
<path d="M51.8758 92.3724H53.9189V87.8261H53.9533L53.9232 86.7723C53.9232 86.6304 53.9232 86.4884 53.9232 86.3422C53.885 83.7855 54.3556 81.2468 55.3076 78.8736C56.2596 76.5005 57.6739 74.3404 59.4684 72.5189C61.2629 70.6974 63.4017 69.2509 65.7604 68.2636C68.119 67.2762 70.6505 66.7678 73.2074 66.7678C75.7644 66.7678 78.2958 67.2762 80.6545 68.2636C83.0132 69.2509 85.152 70.6974 86.9464 72.5189C88.7409 74.3404 90.1553 76.5005 91.1073 78.8736C92.0593 81.2468 92.5299 83.7855 92.4917 86.3422C92.4917 86.4841 92.4917 86.6261 92.4917 86.7723L92.4573 87.8261H92.496V92.3724H94.5391V85.7831C94.4022 80.2198 92.096 74.9304 88.1129 71.0441C84.1298 67.1578 78.7853 64.9824 73.2203 64.9824C67.6554 64.9824 62.3109 67.1578 58.3278 71.0441C54.3447 74.9304 52.0385 80.2198 51.9016 85.7831V85.9121C51.9016 86.054 51.9016 86.2003 51.9016 86.3422V92.3638L51.8758 92.3724Z" fill="#DBDBDB"/>
<path d="M90.1417 89.3437C89.6538 92.6949 88.1831 95.8262 85.9156 98.3417C83.6481 100.857 80.6856 102.644 77.4027 103.475C74.1198 104.307 70.6641 104.147 67.4724 103.014C64.2807 101.882 61.4964 99.8288 59.4717 97.1141C57.447 94.3994 56.2727 91.1453 56.0974 87.7633C55.9221 84.3812 56.7536 81.0231 58.4868 78.1136C60.22 75.2042 62.777 72.874 65.8345 71.4178C68.892 69.9615 72.3127 69.4447 75.664 69.9325C77.8892 70.2564 80.0288 71.0155 81.9606 72.1663C83.8924 73.3171 85.5787 74.8371 86.9231 76.6396C88.2674 78.4421 89.2436 80.4918 89.7959 82.6715C90.3481 84.8513 90.4656 87.1185 90.1417 89.3437Z" fill="#263238"/>
<path d="M84.3552 88.5016C84.035 90.7084 83.0675 92.7707 81.5751 94.4276C80.0827 96.0845 78.1324 97.2615 75.971 97.8099C73.8095 98.3583 71.534 98.2533 69.4322 97.5083C67.3304 96.7632 65.4968 95.4116 64.1633 93.6243C62.8298 91.8371 62.0562 89.6945 61.9405 87.4675C61.8249 85.2406 62.3722 83.0294 63.5134 81.1136C64.6546 79.1978 66.3383 77.6635 68.3515 76.7047C70.3648 75.7459 72.6172 75.4057 74.8238 75.7271C76.2885 75.9399 77.697 76.4392 78.9687 77.1964C80.2404 77.9535 81.3505 78.9538 82.2356 80.1401C83.1207 81.3263 83.7634 82.6753 84.1271 84.11C84.4908 85.5447 84.5683 87.037 84.3552 88.5016Z" fill="#DBDBDB"/>
<path d="M83.4858 88.3891C83.1896 90.4229 82.2971 92.3231 80.921 93.8496C79.5449 95.3761 77.747 96.4602 75.7547 96.965C73.7625 97.4697 71.6653 97.3724 69.7284 96.6852C67.7915 95.9981 66.1018 94.7521 64.873 93.1047C63.6442 91.4573 62.9315 89.4825 62.825 87.4301C62.7185 85.3776 63.223 83.3397 64.2747 81.574C65.3264 79.8083 66.8781 78.394 68.7335 77.5102C70.5889 76.6263 72.6648 76.3124 74.6985 76.6082C77.4256 77.0061 79.8832 78.4705 81.5309 80.6796C83.1787 82.8888 83.8818 85.6618 83.4858 88.3891Z" fill="#A6A6A6"/>
<path d="M75.1897 84.5187L71.9592 84.0455C73.2798 82.6303 70.2816 76.5824 70.2816 76.5824L72.0625 76.2598C72.9228 78.3675 73.3917 79.017 74.3251 79.1504C75.2585 79.2837 75.8994 78.802 77.3361 77.0254L78.9492 77.8427C78.9492 77.8427 74.3294 82.7981 75.1897 84.5187Z" fill="#DBDBDB"/>
<path d="M71.6641 84.2221L70.2188 87.1471C69.2767 85.4566 62.6008 86.4417 62.6008 86.4417L62.8459 84.6436C65.1085 84.4888 65.857 84.2135 66.2872 83.3876C66.7173 82.5617 66.442 81.7788 65.1903 79.8862L66.4807 78.5957C66.4807 78.5957 69.7499 84.5189 71.6641 84.2221Z" fill="#DBDBDB"/>
<path d="M70.2658 87.4824L72.6016 89.7622C70.7046 90.1322 69.5905 96.7866 69.5905 96.7866L67.9602 95.9994C68.5108 93.797 68.5065 92.9884 67.8312 92.3302C67.1559 91.6721 66.3515 91.6893 64.162 92.2915L63.3361 90.6827C63.3361 90.6827 69.9518 89.388 70.2658 87.4824Z" fill="#DBDBDB"/>
<path d="M72.9446 89.8095L75.8352 88.291C75.5986 90.2138 81.582 93.341 81.582 93.341L80.3303 94.6315C78.4075 93.427 77.6332 93.1862 76.7987 93.6206C75.9642 94.0551 75.732 94.8336 75.6287 97.1005L73.8436 97.3887C73.8436 97.3887 74.6609 90.7042 72.9446 89.8095Z" fill="#DBDBDB"/>
<path d="M75.9877 87.9905L75.4371 84.773C77.1878 85.5903 82.0141 80.8672 82.0141 80.8672L82.8744 82.463C81.1538 83.9213 80.6677 84.5794 80.8269 85.5042C80.986 86.4291 81.6442 86.8979 83.7734 87.698L83.4938 89.4831C83.4938 89.4831 77.3685 86.6355 75.9877 87.9905Z" fill="#DBDBDB"/>
<path d="M76.1943 87.2413C76.1075 87.83 75.8483 88.3798 75.4492 88.8212C75.0502 89.2626 74.5294 89.576 73.9524 89.7216C73.3755 89.8672 72.7683 89.8386 72.2076 89.6394C71.6468 89.4402 71.1577 89.0794 70.8019 88.6024C70.4462 88.1254 70.2397 87.5537 70.2086 86.9595C70.1775 86.3652 70.3231 85.7751 70.6272 85.2636C70.9312 84.7521 71.38 84.3421 71.9168 84.0855C72.4537 83.8288 73.0545 83.737 73.6436 83.8216C74.0359 83.8779 74.4133 84.0112 74.754 84.2137C75.0947 84.4162 75.3921 84.684 75.6291 85.0018C75.8661 85.3195 76.038 85.6809 76.135 86.0652C76.232 86.4495 76.2522 86.8492 76.1943 87.2413Z" fill="#DBDBDB"/>
<path opacity="0.2" d="M17.1687 23.7734H287.914V25.3004H17.1687V23.7734Z" fill="black"/>
<g opacity="0.2">
<path d="M13.3471 92.3719H14.3665V29.1233H48.4963V92.3719H49.5156V28.0996H13.3471V92.3719Z" fill="black"/>
<path d="M30.922 28.6113H31.9414V92.3718H30.922V28.6113Z" fill="black"/>
</g>
<path d="M34.5766 32.0898H45.8672V76.8306H34.5766V32.0898Z" fill="#37474F"/>
<path d="M40.3984 76.8317L34.5742 71.0117V76.8317H40.3984Z" fill="#455A64"/>
<path d="M34.5757 32.0898V32.335L45.8672 43.6265V38.2668L39.6988 32.0898H34.5757Z" fill="#455A64"/>
<path d="M45.8672 70.2599L34.5757 58.9727V60.0781L45.8672 71.3696V70.2599Z" fill="#455A64"/>
<path d="M34.5757 32.0898H45.8672V34.0126H34.5757V32.0898Z" fill="#263238"/>
<g opacity="0.2">
<path d="M132.628 92.3717H133.652V29.123H167.777V92.3717H168.801V28.0994H132.628V92.3717Z" fill="black"/>
</g>
<path d="M16.9985 32.0898H28.2891V76.8306H16.9985V32.0898Z" fill="#37474F"/>
<path d="M16.9976 32.0898H28.2891V34.0126H16.9976V32.0898Z" fill="#263238"/>
<path d="M28.2891 64.7281L16.9985 53.4375V70.2507L23.5836 76.8315H28.2891V64.7281Z" fill="#455A64"/>
<path d="M28.2891 52.686L16.9976 41.3945V42.5043L28.2891 53.7958V52.686Z" fill="#455A64"/>
<path d="M53.8004 28.6113H90.5625V60.4916H53.8004V28.6113Z" fill="#37474F"/>
<path d="M57.207 28.6113L89.0915 60.4916H90.5625V45.1536L74.0159 28.6113H57.207Z" fill="#455A64"/>
<path d="M68.0938 60.4928L53.7998 46.2031V51.5628L62.734 60.4928H68.0938Z" fill="#455A64"/>
<path d="M81.8175 28.6113L90.5625 37.352V36.2508L82.923 28.6113H81.8175Z" fill="#455A64"/>
<path d="M53.8004 28.6113H90.5625V37.6266H53.8004V28.6113Z" fill="#263238"/>
<path opacity="0.2" d="M53.8004 28.6113H90.5625V30.5339H53.8004V28.6113Z" fill="black"/>
<path d="M53.8004 41.2402H90.5625V42.7671H53.8004V41.2402Z" fill="#BC8D06"/>
<path d="M93.3161 28.6113H130.078V60.4916H93.3161V28.6113Z" fill="#37474F"/>
<path d="M105.898 60.4917L93.3208 47.9141V60.4917H105.898Z" fill="#455A64"/>
<path d="M112.838 28.6113L130.078 45.8518V40.4878L118.202 28.6113H112.838Z" fill="#455A64"/>
<path d="M114.805 60.4917L93.3247 39.0117V40.1128L113.704 60.4917H114.805Z" fill="#455A64"/>
<path d="M93.3161 28.6113H130.078V30.5339H93.3161V28.6113Z" fill="#263238"/>
<path d="M93.3161 41.2402H130.078V42.7671H93.3161V41.2402Z" fill="#BC8D06"/>
<path d="M2.95132 82.4961H8.24219V92.3724H2.95132V82.4961Z" fill="#DBDBDB"/>
<path d="M5.19922 31.75H4.20126C3.54757 31.75 2.92065 32.0097 2.45842 32.4719C1.99618 32.9342 1.7365 33.5611 1.7365 34.2148V41.0241C1.7365 41.6778 1.99618 42.3047 2.45842 42.7669C2.92065 43.2292 3.54757 43.4888 4.20126 43.4888H5.19922V31.75Z" fill="#BC8D06"/>
<path d="M1.74219 35.2441H1.44969C1.06523 35.2441 0.696518 35.3969 0.424663 35.6687C0.152808 35.9406 7.72476e-05 36.3093 7.72476e-05 36.6938V38.552C7.72476e-05 38.9365 0.152808 39.3052 0.424663 39.577C0.696518 39.8489 1.06523 40.0016 1.44969 40.0016H1.72069V35.2441H1.74219Z" fill="#263238"/>
<path d="M0.36663 37.3029H1.39039V29.758L11 20.1484L10.2773 19.4258L0.36663 29.3365V37.3029Z" fill="#263238"/>
<path d="M10.5169 25.6687L10.9453 26.5938L1.10913 31.1491L0.680711 30.2241L10.5169 25.6687Z" fill="#263238"/>
<path d="M136.284 32.0898H147.574V76.8306H136.284V32.0898Z" fill="#37474F"/>
<path d="M147.57 57.977L136.279 46.6855V52.0495L147.57 63.341V57.977Z" fill="#455A64"/>
<path d="M137.939 32.0898L147.57 41.721V40.6155L139.049 32.0898H137.939Z" fill="#455A64"/>
<path d="M136.279 32.0898H147.57V34.0126H136.279V32.0898Z" fill="#263238"/>
<path d="M4.37063 60.4919H10.7148V28.6074H6.34487L4.37063 60.4919Z" fill="#37474F"/>
<path d="M4.54217 57.7913L7.24351 60.4927H10.7148V47.1494L5.51432 41.9531L4.54217 57.7913Z" fill="#455A64"/>
<path d="M6.15524 31.6668L10.7148 36.2221V35.1123L6.21975 30.6172L6.15524 31.6668Z" fill="#455A64"/>
<path d="M2.94523 73.9238H5.19922V81.2192H2.94523V73.9238Z" fill="#BC8D06"/>
<path opacity="0.5" d="M2.94523 73.9238H5.19922V81.2192H2.94523V73.9238Z" fill="white"/>
</svg>
