<svg width="142" height="26" viewBox="0 0 142 26" fill="none" xmlns="http://www.w3.org/2000/svg">
<path d="M-0.000976562 24.4614H7.34554L9.91127 20.5202H16.8045V24.4614H22.6715V0.94165H16.4838L-0.000976562 24.4614ZM12.3786 15.8799L16.8045 9.48927V15.8799H12.3786Z" fill="black"/>
<path d="M36.1125 17.7526C35.5352 18.8333 34.479 20.1046 32.2639 20.1046C29.7281 20.1046 28.0304 18.1976 28.0304 15.621C28.0304 14.3497 28.4495 13.2055 29.185 12.3791C29.9547 11.5528 31.0152 11.0739 32.2639 11.1417C34.479 11.1417 35.5352 12.413 36.1125 13.6208H41.5005C40.6025 9.29825 36.7881 6.21313 32.0715 6.21313C26.7476 6.21313 22.6724 10.4086 22.6724 15.5914C22.6724 20.8378 26.8117 25.0332 32.1997 25.0332C37.0105 25.0332 40.5726 21.7616 41.5304 17.7526H36.1125Z" fill="black"/>
<path d="M79.0864 24.4614H84.4103V0.94165H79.0864V24.4614Z" fill="black"/>
<path d="M103.945 6.81914H98.6211V8.69224C97.9155 7.61161 96.2777 6.21313 93.3613 6.21313C88.6148 6.21313 84.4155 9.83645 84.4155 15.621C84.4155 20.6725 87.7168 25.0586 93.3613 25.0586C95.4481 25.0586 97.6589 24.2619 98.6211 22.5498V24.4568H103.945V6.81914ZM89.7394 15.6888C89.7394 13.6844 91.0864 11.1417 94.1353 11.1417C96.3803 11.1417 97.5991 12.3791 98.1763 13.5911C98.527 14.3243 98.6895 15.1167 98.6253 15.9134C98.5612 16.7101 98.3346 17.4729 97.8898 18.1679C97.2142 19.2486 96.0596 20.1385 94.1695 20.1385C90.9624 20.1385 89.7437 17.3416 89.7437 15.7227V15.6888H89.7394Z" fill="black"/>
<path d="M123.315 0.94165H117.991V8.31541C117.414 7.74331 115.905 6.2177 112.766 6.2177C108.242 6.2177 103.948 9.61641 103.948 15.5959C103.948 20.9016 107.476 25.0377 112.864 25.0377C116.456 25.0377 117.739 23.2918 118.252 22.5586V24.4656H123.319V0.94165H123.315ZM109.268 15.562C109.268 13.5279 110.713 11.142 113.792 11.142C115.041 11.142 116.165 11.587 116.965 12.3794C117.769 13.1423 118.282 14.2229 118.282 15.4942C118.346 16.7995 117.863 17.9437 117.033 18.7658C116.204 19.5879 115.015 20.1007 113.732 20.1007C111.231 20.1007 109.276 18.2869 109.276 15.5875V15.562H109.268Z" fill="black"/>
<path d="M141.884 17.4694C142.303 14.2274 141.627 11.3966 139.382 9.01496C137.714 7.26899 135.371 6.21802 132.647 6.21802C127.225 6.21802 123.316 10.7609 123.316 15.6895C123.316 20.9359 127.644 25.0338 132.745 25.0338C134.576 25.0338 136.337 24.4914 137.813 23.4446C139.318 22.4276 140.571 20.902 141.439 18.9314H135.987C135.345 19.8552 134.447 20.5841 132.745 20.5841C130.659 20.5841 128.863 19.3467 128.64 17.4694H141.884ZM128.704 13.4646C128.833 12.6383 129.923 10.6677 132.681 10.6677C135.439 10.6677 136.53 12.6383 136.658 13.4646H128.704Z" fill="black"/>
<path d="M54.735 17.7526C54.1577 18.8333 53.1015 20.1046 50.8864 20.1046C48.3549 20.1046 46.653 18.1976 46.653 15.621C46.653 14.3497 47.0721 13.2055 47.8076 12.3791C48.5773 11.5528 49.6378 11.0739 50.8864 11.1417C53.1015 11.1417 54.1577 12.413 54.735 13.6208H60.123C59.225 9.29825 55.4107 6.21313 50.694 6.21313C45.3701 6.21313 41.2949 10.4086 41.2949 15.5914C41.2949 20.8378 45.4343 25.0332 50.8223 25.0332C55.633 25.0332 59.1951 21.7616 60.153 17.7526H54.735Z" fill="black"/>
<path d="M59.9097 15.6216C59.9097 19.9441 63.0227 24.9956 69.4969 24.9956C75.9711 24.9956 79.0842 19.9441 79.0842 15.6216C79.0842 11.299 75.9711 6.24756 69.4969 6.24756C63.0227 6.24756 59.9097 11.299 59.9097 15.5919V15.6216ZM65.2335 15.6216C65.2335 13.045 67.192 11.1719 69.5012 11.1719C71.8103 11.1719 73.7688 13.045 73.7688 15.6216C73.7688 18.1981 71.8103 20.0712 69.5012 20.0712C67.192 20.0712 65.2335 18.1981 65.2335 15.6555V15.6216Z" fill="black"/>
</svg>
