<svg width="144" height="48" viewBox="0 0 144 48" fill="none" xmlns="http://www.w3.org/2000/svg">
<path d="M0.9991 35.4614H8.34562L10.9113 31.5202H17.8046V35.4614H23.6715V11.9417H17.4839L0.9991 35.4614ZM13.3787 26.8799L17.8046 20.4893V26.8799H13.3787Z" fill="black"/>
<path d="M37.1127 28.7526C36.5354 29.8333 35.4792 31.1046 33.2641 31.1046C30.7283 31.1046 29.0306 29.1976 29.0306 26.621C29.0306 25.3497 29.4497 24.2055 30.1852 23.3791C30.9549 22.5528 32.0154 22.0739 33.2641 22.1417C35.4792 22.1417 36.5354 23.413 37.1127 24.6208H42.5007C41.6027 20.2982 37.7883 17.2131 33.0717 17.2131C27.7478 17.2131 23.6726 21.4086 23.6726 26.5914C23.6726 31.8378 27.8119 36.0332 33.1999 36.0332C38.0107 36.0332 41.5728 32.7616 42.5306 28.7526H37.1127Z" fill="black"/>
<path d="M80.0865 35.4614H85.4104V11.9417H80.0865V35.4614Z" fill="black"/>
<path d="M104.945 17.8191H99.6209V19.6922C98.9154 18.6116 97.2776 17.2131 94.3612 17.2131C89.6146 17.2131 85.4154 20.8364 85.4154 26.621C85.4154 31.6725 88.7166 36.0586 94.3612 36.0586C96.448 36.0586 98.6588 35.2619 99.6209 33.5498V35.4568H104.945V17.8191ZM90.7393 26.6888C90.7393 24.6844 92.0863 22.1417 95.1352 22.1417C97.3802 22.1417 98.5989 23.3791 99.1762 24.5911C99.5269 25.3243 99.6894 26.1167 99.6252 26.9134C99.5611 27.7101 99.3344 28.4729 98.8897 29.1679C98.2141 30.2486 97.0595 31.1385 95.1694 31.1385C91.9623 31.1385 90.7435 28.3416 90.7435 26.7227V26.6888H90.7393Z" fill="black"/>
<path d="M124.315 11.9417H118.991V19.3154C118.414 18.7433 116.904 17.2177 113.766 17.2177C109.241 17.2177 104.948 20.6164 104.948 26.5959C104.948 31.9016 108.476 36.0377 113.864 36.0377C117.456 36.0377 118.739 34.2918 119.252 33.5586V35.4656H124.319V11.9417H124.315ZM110.268 26.562C110.268 24.5279 111.713 22.142 114.792 22.142C116.041 22.142 117.165 22.587 117.965 23.3794C118.769 24.1423 119.282 25.2229 119.282 26.4942C119.346 27.7995 118.863 28.9437 118.033 29.7658C117.204 30.5879 116.015 31.1007 114.732 31.1007C112.231 31.1007 110.276 29.2869 110.276 26.5875V26.562H110.268Z" fill="black"/>
<path d="M142.884 28.4694C143.303 25.2274 142.627 22.3966 140.382 20.015C138.714 18.269 136.371 17.218 133.647 17.218C128.225 17.218 124.316 21.7609 124.316 26.6895C124.316 31.9359 128.644 36.0338 133.745 36.0338C135.576 36.0338 137.337 35.4914 138.813 34.4446C140.318 33.4276 141.571 31.902 142.439 29.9314H136.987C136.345 30.8552 135.447 31.5841 133.745 31.5841C131.659 31.5841 129.863 30.3467 129.64 28.4694H142.884ZM129.704 24.4646C129.833 23.6383 130.923 21.6677 133.681 21.6677C136.439 21.6677 137.53 23.6383 137.658 24.4646H129.704Z" fill="black"/>
<path d="M55.735 28.7526C55.1577 29.8333 54.1015 31.1046 51.8864 31.1046C49.3549 31.1046 47.653 29.1976 47.653 26.621C47.653 25.3497 48.072 24.2055 48.8075 23.3791C49.5772 22.5528 50.6377 22.0739 51.8864 22.1417C54.1015 22.1417 55.1577 23.413 55.735 24.6208H61.123C60.225 20.2982 56.4106 17.2131 51.694 17.2131C46.3701 17.2131 42.2949 21.4086 42.2949 26.5914C42.2949 31.8378 46.4342 36.0332 51.8223 36.0332C56.633 36.0332 60.1951 32.7616 61.1529 28.7526H55.735Z" fill="black"/>
<path d="M60.9095 26.6216C60.9095 30.9441 64.0226 35.9956 70.4968 35.9956C76.971 35.9956 80.084 30.9441 80.084 26.6216C80.084 22.299 76.971 17.2476 70.4968 17.2476C64.0226 17.2476 60.9095 22.299 60.9095 26.5919V26.6216ZM66.2334 26.6216C66.2334 24.045 68.1919 22.1719 70.5011 22.1719C72.8102 22.1719 74.7687 24.045 74.7687 26.6216C74.7687 29.1981 72.8102 31.0712 70.5011 31.0712C68.1919 31.0712 66.2334 29.1981 66.2334 26.6555V26.6216Z" fill="black"/>
</svg>
