<svg width="144" height="48" viewBox="0 0 144 48" fill="none" xmlns="http://www.w3.org/2000/svg">
<path d="M112.107 34.6434H105.274V27.9595H112.107V34.6434Z" fill="#0069AF"/>
<path d="M98.4417 34.6434H91.6089V27.9595H98.4417V34.6434Z" fill="#CBCBCC"/>
<path d="M84.7752 34.6434H77.9409V27.9595H84.7752V34.6434Z" fill="black"/>
<path d="M71.1092 34.6434H64.2764V27.9595H71.1092V34.6434Z" fill="#E42127"/>
<path d="M32.1865 20.2258C32.8133 20.5576 33.6888 20.8128 34.6932 20.8128C35.4626 20.8128 36.1936 20.66 36.1936 19.9449C36.1936 18.285 31.8867 19.3318 31.8867 16.089C31.8867 13.9439 34.027 13.3564 35.8549 13.3564C36.7289 13.3564 37.5908 13.484 38.2039 13.6892L38.0467 15.5272C37.4204 15.2464 36.7157 15.1183 36.0242 15.1183C35.4105 15.1183 34.393 15.1697 34.393 15.9485C34.393 17.391 38.7003 16.4208 38.7003 19.6384C38.7003 21.9496 36.7157 22.5751 34.6932 22.5751C33.8445 22.5751 32.7875 22.447 31.9782 22.1924L32.1865 20.2258Z" fill="black"/>
<path d="M50.5073 13.51H56.9287V15.1947H52.9342V17.0337H56.7063V18.7194H52.9342V20.7364H57.0722V22.4216H50.5073V13.51Z" fill="black"/>
<path d="M68.7568 13.51H74.8526V15.1947H71.1847V17.1484H74.6959V18.8341H71.1847V22.4216H68.7568V13.51Z" fill="black"/>
<path d="M89.6705 15.3483H89.6447L88.4694 18.8344H90.7537L89.6705 15.3483ZM88.1823 13.5098H91.1591L94.6693 22.4218H92.0079L91.328 20.5191H87.9083L87.19 22.4218H84.7236L88.1823 13.5098Z" fill="black"/>
<path d="M106.84 17.2124H107.479C108.263 17.2124 109.254 17.1867 109.254 16.1785C109.254 15.3482 108.406 15.1949 107.479 15.1949H106.84V17.2124ZM104.412 13.5103H108.745C110.364 13.5103 111.682 14.2248 111.682 15.7572C111.682 16.9444 111.108 17.7361 109.933 18.0046V18.0293C110.716 18.2335 110.768 18.911 111.226 19.9959L112.113 22.4218H109.581L109.059 20.8128C108.563 19.2809 108.249 18.8981 107.349 18.8981H106.84V22.4218H104.412V13.5103Z" fill="black"/>
</svg>
