<svg width="144" height="48" viewBox="0 0 144 48" fill="none" xmlns="http://www.w3.org/2000/svg">
<mask id="mask0_1_9290" style="mask-type:luminance" maskUnits="userSpaceOnUse" x="45" y="12" width="54" height="24">
<path d="M98.5 12H45.5V36H98.5V12Z" fill="white"/>
</mask>
<g mask="url(#mask0_1_9290)">
<path d="M46.8313 20.2761C47.1066 17.0545 45.5 16.0781 45.5 16.0781C45.5 16.0781 45.8791 17.4445 45.602 20.9494C45.4133 23.339 46.2721 25.1915 46.7711 26.3354C46.842 26.4977 47.0832 26.3715 47.0383 26.2031C46.586 24.5105 46.604 22.9397 46.8313 20.2761Z" fill="#FF4612"/>
</g>
<mask id="mask1_1_9290" style="mask-type:luminance" maskUnits="userSpaceOnUse" x="45" y="12" width="54" height="24">
<path d="M98.5 12H45.5V36H98.5V12Z" fill="white"/>
</mask>
<g mask="url(#mask1_1_9290)">
<path d="M54.5367 35.5059C56.6445 33.5985 59.643 27.917 59.6983 23.6095C59.2114 23.7521 58.2462 24.2677 57.8891 25.86C57.6839 26.7744 57.1063 28.9349 54.9791 28.7486C52.0296 28.4906 52.4572 22.958 57.0757 23.4593C59.2585 23.6964 59.6129 22.1384 59.6129 21.9299C59.1346 22.1473 58.4142 22.0564 57.7373 21.9762C53.576 21.4798 51.5782 23.8439 51.5782 26.5422C51.5782 28.1622 52.6396 29.5227 53.8361 30.2803C54.4725 30.6823 54.0148 31.0758 53.5419 30.7375C52.2834 29.8364 50.8138 28.6457 50.8138 26.1077C50.8138 21.8701 55.1709 20.0292 56.1945 19.2725C57.7131 18.149 58.4447 17.2217 58.0746 15.5688C57.4737 16.6664 55.9978 17.6254 54.8965 18.2061C51.9205 19.7756 49.5876 22.0609 49.5876 25.417C49.5876 28.0579 50.7563 29.5084 52.1603 30.6314C52.4788 30.8859 52.1415 31.2424 51.7336 30.9167C49.4992 29.1296 48.7617 27.151 48.7617 24.6086C48.7617 19.8046 54.8664 15.4609 52.1212 12.001C52.1594 15.5336 47.5557 18.6187 47.5557 24.4629C47.5557 27.0868 48.6175 29.6911 51.5778 31.7509C53.3218 32.9648 53.5688 34.3548 53.3137 35.6124C53.1996 36.2915 54.0287 35.9653 54.5367 35.5059Z" fill="#FF4612"/>
</g>
<mask id="mask2_1_9290" style="mask-type:luminance" maskUnits="userSpaceOnUse" x="45" y="12" width="54" height="24">
<path d="M98.5 12H45.5V36H98.5V12Z" fill="white"/>
</mask>
<g mask="url(#mask2_1_9290)">
<path d="M70.7579 21.928C70.3833 21.928 70.0518 22.2025 70.0011 22.5764C69.9341 23.071 70.3846 23.5011 70.8787 23.4213C71.3171 23.3505 71.6108 22.9008 71.4909 22.4743C71.4001 22.149 71.092 21.928 70.7579 21.928Z" fill="black"/>
</g>
<mask id="mask3_1_9290" style="mask-type:luminance" maskUnits="userSpaceOnUse" x="45" y="12" width="54" height="24">
<path d="M98.5 12H45.5V36H98.5V12Z" fill="white"/>
</mask>
<g mask="url(#mask3_1_9290)">
<path d="M95.8294 26.0708C95.8294 24.5944 95.1378 24.0369 93.6322 24.0369C92.5112 24.0369 91.4593 24.4477 91.4593 24.8595C91.4593 25.0012 91.5918 25.3702 91.8065 25.6153C92.3356 25.3141 92.7923 25.1046 93.3969 25.1046C94.3563 25.1046 94.3715 25.5409 94.3715 26.0815C92.8004 26.0815 91.1224 26.4095 91.1224 27.9607C91.1224 28.9977 91.7494 29.631 92.8377 29.631C93.5959 29.631 94.0167 29.3543 94.4834 29.0521C94.6828 29.6871 95.5829 29.5971 96.0558 29.3886C95.877 29.1047 95.8285 28.8008 95.8285 28.1216L95.8294 26.0708ZM94.3724 28.1501C94.0657 28.438 93.7405 28.594 93.3421 28.594C92.3957 28.594 92.3544 27.5512 92.9163 27.1764C93.2693 26.9416 93.9174 26.8698 94.3724 26.8698V28.1501Z" fill="black"/>
</g>
<mask id="mask4_1_9290" style="mask-type:luminance" maskUnits="userSpaceOnUse" x="45" y="12" width="54" height="24">
<path d="M98.5 12H45.5V36H98.5V12Z" fill="white"/>
</mask>
<g mask="url(#mask4_1_9290)">
<path d="M81.1896 26.0708C81.1896 24.5944 80.4984 24.0369 78.9929 24.0369C77.8718 24.0369 76.8195 24.4477 76.8195 24.8595C76.8195 25.0012 76.952 25.3702 77.1671 25.6153C77.6962 25.3141 78.153 25.1046 78.7575 25.1046C79.7169 25.1046 79.7322 25.5409 79.7322 26.0815C78.1611 26.0815 76.4831 26.4095 76.4831 27.9607C76.4831 28.9977 77.1096 29.631 78.1984 29.631C78.9565 29.631 79.3774 29.3543 79.8436 29.0521C80.0434 29.6871 80.9435 29.5971 81.4165 29.3886C81.2377 29.1047 81.1892 28.8008 81.1892 28.1216L81.1896 26.0708ZM79.7331 28.1501C79.4263 28.438 79.1011 28.594 78.7027 28.594C77.7564 28.594 77.7151 27.5512 78.277 27.1764C78.63 26.9416 79.2781 26.8698 79.7331 26.8698V28.1501Z" fill="black"/>
</g>
<mask id="mask5_1_9290" style="mask-type:luminance" maskUnits="userSpaceOnUse" x="45" y="12" width="54" height="24">
<path d="M98.5 12H45.5V36H98.5V12Z" fill="white"/>
</mask>
<g mask="url(#mask5_1_9290)">
<path d="M66.0226 21.928H64.0051V29.4981C64.0868 29.5253 64.4982 29.5502 64.5948 29.5418C65.2195 29.5257 65.5286 29.2739 65.5286 28.7115V26.7935H66.099C67.838 26.7935 69.1248 26.0292 69.1248 24.1936C69.1248 22.4485 67.6427 21.928 66.0226 21.928ZM65.5295 25.7155V23.0474C66.6011 22.9463 67.5564 23.1406 67.5564 24.2703C67.5564 25.691 66.5652 25.7155 65.5295 25.7155Z" fill="black"/>
</g>
<mask id="mask6_1_9290" style="mask-type:luminance" maskUnits="userSpaceOnUse" x="45" y="12" width="54" height="24">
<path d="M98.5 12H45.5V36H98.5V12Z" fill="white"/>
</mask>
<g mask="url(#mask6_1_9290)">
<path d="M71.5183 28.7107C71.5183 29.2739 71.2093 29.5248 70.5845 29.5413C70.488 29.5502 70.077 29.5244 69.9948 29.4972V24.9811C69.9948 24.4173 70.3038 24.1665 70.9286 24.15C71.0251 24.1411 71.4366 24.1673 71.5183 24.1936V28.7107Z" fill="black"/>
</g>
<mask id="mask7_1_9290" style="mask-type:luminance" maskUnits="userSpaceOnUse" x="45" y="12" width="54" height="24">
<path d="M98.5 12H45.5V36H98.5V12Z" fill="white"/>
</mask>
<g mask="url(#mask7_1_9290)">
<path d="M88.7536 26.6451C88.7536 25.9659 88.7397 25.7805 88.6849 25.6321C88.4473 24.9877 87.0779 25.182 87.0779 25.8434V28.7115C87.0779 29.2757 86.7689 29.5262 86.1446 29.5422C86.0476 29.5516 85.6362 29.5253 85.5549 29.4985V26.6464C85.5549 25.9668 85.5409 25.7814 85.4861 25.633C85.2485 24.9886 83.8787 25.1829 83.8787 25.8443V28.7124C83.8787 29.2766 83.5697 29.527 82.9458 29.5435C82.8483 29.5529 82.4374 29.5262 82.3561 29.4994V24.1932C82.9808 24.1058 83.6712 24.1138 83.8005 24.7208C84.4087 23.8652 86.4805 23.6718 86.8771 24.9521C87.245 24.2569 88.057 23.981 88.83 24.0474C90.1415 24.1589 90.274 25.2235 90.2789 26.5234L90.2794 28.7111C90.2794 29.2753 89.9704 29.5257 89.3461 29.5417C89.249 29.5511 88.8376 29.5248 88.7563 29.4981V26.6455L88.7536 26.6451Z" fill="black"/>
</g>
<mask id="mask8_1_9290" style="mask-type:luminance" maskUnits="userSpaceOnUse" x="45" y="12" width="54" height="24">
<path d="M98.5 12H45.5V36H98.5V12Z" fill="white"/>
</mask>
<g mask="url(#mask8_1_9290)">
<path d="M72.6919 29.4981C72.7736 29.5252 73.1851 29.5502 73.2816 29.5426C73.9073 29.5257 74.2154 29.2739 74.2154 28.7115V26.0279C74.2154 25.4445 75.097 25.0345 75.8619 25.6722C76.0492 25.3625 76.2316 24.8736 76.2316 24.5871C76.2316 23.9699 74.9165 23.6985 74.148 24.7159C74.0065 24.1321 73.291 24.0947 72.6919 24.194V29.4981Z" fill="black"/>
</g>
<mask id="mask9_1_9290" style="mask-type:luminance" maskUnits="userSpaceOnUse" x="45" y="12" width="54" height="24">
<path d="M98.5 12H45.5V36H98.5V12Z" fill="white"/>
</mask>
<g mask="url(#mask9_1_9290)">
<path d="M98.5 21.9716C98.4295 21.9479 98.1079 21.927 97.9853 21.927C97.3134 21.927 96.977 22.1752 96.977 22.7604V29.4976C97.0601 29.5247 97.4706 29.5497 97.5667 29.5421C98.1915 29.5252 98.5 29.2734 98.5 28.711V21.9716Z" fill="black"/>
</g>
</svg>
