<svg width="400" height="400" viewBox="0 0 400 400" fill="none" xmlns="http://www.w3.org/2000/svg">
<path d="M338.408 338.08V247.8" stroke="#263238" stroke-linecap="round" stroke-linejoin="round"/>
<path d="M331.088 338.08V293.312" stroke="#263238" stroke-linecap="round" stroke-linejoin="round"/>
<path d="M340.696 262.6C340.696 262.6 333.32 261.76 330.296 255.92C327.272 250.08 326.984 235.016 338.472 218.32C349.96 201.624 355.984 201.448 357.984 215.072C359.984 228.696 359.696 248.48 354.992 255.976C350.288 263.472 340.696 262.6 340.696 262.6Z" fill="#36CD01" stroke="#263238" stroke-linecap="round" stroke-linejoin="round"/>
<path d="M343.312 231.152C344.672 226.512 346.296 222.352 348.184 219.504" stroke="#263238" stroke-linecap="round" stroke-linejoin="round"/>
<path d="M337.6 261.6C338.612 252.418 340.215 243.311 342.4 234.336" stroke="#263238" stroke-linecap="round" stroke-linejoin="round"/>
<path d="M345.088 291.904C345.088 291.904 340.352 288.232 340.736 282.952C341.12 277.672 347.2 267.152 362.088 260.48C376.976 253.808 381.224 256.176 376.904 266.4C372.584 276.624 364.104 290.152 357.704 293.352C351.304 296.552 345.088 291.904 345.088 291.904Z" fill="#36CD01" stroke="#263238" stroke-linecap="round" stroke-linejoin="round"/>
<path d="M360.056 271.312C362.936 268.688 365.8 266.512 368.288 265.328" stroke="#263238" stroke-linecap="round" stroke-linejoin="round"/>
<path d="M358.144 273.12C352.875 278.396 347.953 284.008 343.408 289.92C343.408 289.92 339.592 295.056 338.464 305.256" stroke="#263238" stroke-linecap="round" stroke-linejoin="round"/>
<path d="M342.4 322.4C342.4 322.4 339.656 320.272 339.88 317.216C340.104 314.16 343.624 308.064 352.256 304.192C360.888 300.32 363.336 301.704 360.832 307.632C358.328 313.56 353.416 321.392 349.72 323.24C346.024 325.088 342.4 322.4 342.4 322.4Z" fill="#36CD01" stroke="#263238" stroke-linecap="round" stroke-linejoin="round"/>
<path d="M351.048 310.504C352.475 309.126 354.091 307.96 355.848 307.04" stroke="#263238" stroke-linecap="round" stroke-linejoin="round"/>
<path d="M349.944 311.552C346.892 314.605 344.041 317.852 341.408 321.272C341.408 321.272 339.192 324.248 338.536 330.16" stroke="#263238" stroke-linecap="round" stroke-linejoin="round"/>
<path d="M331.72 279.696C331.72 279.696 336.448 276.024 336.072 270.744C335.696 265.464 329.608 254.944 314.712 248.272C299.816 241.6 295.584 243.968 299.904 254.192C304.224 264.416 312.704 277.944 319.104 281.144C325.504 284.344 331.72 279.696 331.72 279.696Z" fill="#36CD01" stroke="#263238" stroke-linecap="round" stroke-linejoin="round"/>
<path d="M316.752 259.104C314.3 256.732 311.526 254.718 308.512 253.12" stroke="#263238" stroke-linecap="round" stroke-linejoin="round"/>
<path d="M318.664 260.912C323.93 266.189 328.849 271.801 333.392 277.712C333.392 277.712 337.208 282.848 338.344 293.048" stroke="#263238" stroke-linecap="round" stroke-linejoin="round"/>
<path d="M329.392 320.472C329.392 320.472 334.192 320.624 336.592 317.736C338.992 314.848 340.432 306.784 334.432 296.936C328.432 287.088 324.6 286.4 322.2 293.6C319.8 300.8 318.4 311.352 320.8 315.76C323.2 320.168 329.392 320.472 329.392 320.472Z" fill="#36CD01" stroke="#263238" stroke-linecap="round" stroke-linejoin="round"/>
<path d="M330.144 313.128C330.216 314.112 330.264 315.096 330.288 316.072" stroke="#263238" stroke-linecap="round" stroke-linejoin="round"/>
<path d="M326.464 293.128C328.096 298.926 329.257 304.847 329.936 310.832" stroke="#263238" stroke-linecap="round" stroke-linejoin="round"/>
<path d="M19.912 262.16H130.64V36.16" stroke="#263238" stroke-linecap="round" stroke-linejoin="round"/>
<path d="M248.144 262.16H137.416V36.16" stroke="#263238" stroke-linecap="round" stroke-linejoin="round"/>
<path d="M182.608 262.16H293.336V36.16" stroke="#263238" stroke-linecap="round" stroke-linejoin="round"/>
<path d="M270.744 89.224L232.04 131.992" stroke="#263238" stroke-linecap="round" stroke-linejoin="round"/>
<path d="M249.272 122.312L238.536 134.176" stroke="#263238" stroke-linecap="round" stroke-linejoin="round"/>
<path d="M163.968 77.992L143.064 101.088" stroke="#263238" stroke-linecap="round" stroke-linejoin="round"/>
<path d="M169.616 72.368L183.744 56.76" stroke="#263238" stroke-linecap="round" stroke-linejoin="round"/>
<path d="M126.12 215.336L112.56 230.32" stroke="#263238" stroke-linecap="round" stroke-linejoin="round"/>
<path d="M121.6 195.36L96.456 223.144" stroke="#263238" stroke-linecap="round" stroke-linejoin="round"/>
<path d="M376.643 107.908C384.86 87.3537 374.858 64.0303 354.304 55.8135C333.75 47.5966 310.427 57.5978 302.21 78.1518C293.993 98.7058 303.995 122.029 324.549 130.246C345.103 138.463 368.426 128.462 376.643 107.908Z" stroke="#263238" stroke-linecap="round" stroke-linejoin="round"/>
<path d="M339.44 128.024C358.761 128.024 374.424 112.361 374.424 93.04C374.424 73.7189 358.761 58.056 339.44 58.056C320.119 58.056 304.456 73.7189 304.456 93.04C304.456 112.361 320.119 128.024 339.44 128.024Z" stroke="#263238" stroke-linecap="round" stroke-linejoin="round"/>
<path d="M339.44 95.432C340.761 95.432 341.832 94.361 341.832 93.04C341.832 91.7189 340.761 90.648 339.44 90.648C338.119 90.648 337.048 91.7189 337.048 93.04C337.048 94.361 338.119 95.432 339.44 95.432Z" stroke="#263238" stroke-linecap="round" stroke-linejoin="round"/>
<path d="M339.44 95.432V107.184" stroke="#263238" stroke-linecap="round" stroke-linejoin="round"/>
<path d="M337.048 93.04H308.52" stroke="#263238" stroke-linecap="round" stroke-linejoin="round"/>
<path d="M157.416 189.776L144.232 169.312C152.266 156.325 154.989 140.743 151.837 125.801C148.684 110.859 139.898 97.7053 127.303 89.0706C114.708 80.4358 99.2709 76.9836 84.1974 79.4307C69.1239 81.8778 55.5719 90.0362 46.3551 102.212C37.1383 114.388 32.9649 129.646 34.7013 144.817C36.4377 159.989 43.9506 173.909 55.6801 183.688C67.4095 193.466 82.4544 198.352 97.691 197.33C112.928 196.308 127.185 189.457 137.504 178.2L157.416 189.776Z" fill="#263238" stroke="#263238" stroke-linecap="round" stroke-linejoin="round"/>
<path d="M158.672 184.8L145.48 164.336C153.499 151.355 156.211 135.784 153.052 120.856C149.893 105.928 141.107 92.7905 128.517 84.1703C115.927 75.5501 100.501 72.1097 85.4409 74.5636C70.3812 77.0174 56.845 85.1769 47.6427 97.348C38.4405 109.519 34.2791 124.767 36.0227 139.925C37.7662 155.083 45.2807 168.988 57.006 178.752C68.7312 188.516 83.7665 193.389 98.99 192.36C114.214 191.33 128.456 184.478 138.76 173.224L158.672 184.8Z" fill="white" stroke="#263238" stroke-linecap="round" stroke-linejoin="round"/>
<path d="M53.312 141.6V136.056L62.4 122.088C63.088 121.056 63.736 120.048 64.352 119.08C64.9446 118.142 65.4481 117.151 65.856 116.12C66.2478 115.116 66.446 114.046 66.44 112.968C66.5074 112.104 66.2758 111.242 65.784 110.528C65.5685 110.266 65.2953 110.058 64.9858 109.919C64.6763 109.78 64.3389 109.715 64 109.728C63.6403 109.707 63.2801 109.759 62.9408 109.88C62.6014 110.001 62.2896 110.189 62.024 110.432C61.5269 110.951 61.1931 111.605 61.064 112.312C60.8798 113.177 60.7913 114.06 60.8 114.944V116.8H53.216V114.784C53.188 112.738 53.5547 110.707 54.296 108.8C54.9722 107.08 56.173 105.616 57.728 104.616C59.587 103.521 61.7245 102.99 63.88 103.088C67.2987 103.088 69.8747 103.973 71.608 105.744C73.3414 107.515 74.2107 109.981 74.216 113.144C74.2305 114.603 73.984 116.052 73.488 117.424C72.9878 118.766 72.3412 120.048 71.56 121.248C70.76 122.488 69.912 123.776 69 125.128L62.048 135.528H73.184V141.6H53.312Z" fill="#263238" stroke="#263238" stroke-linecap="round" stroke-linejoin="round"/>
<path d="M87.656 141.6V133.08H75.952V127.304L85.872 103.576H94.984V127.256H98.504V133.08H94.984V141.6H87.656ZM81.92 127.2H87.656V111.424L81.92 127.2Z" fill="#263238" stroke="#263238" stroke-linecap="round" stroke-linejoin="round"/>
<path d="M101.424 141.6L113.072 103.544H117.208L105.512 141.6H101.424Z" fill="#263238" stroke="#263238" stroke-linecap="round" stroke-linejoin="round"/>
<path d="M122.28 141.6L130.552 109.512H120.152V103.544H138.192V108.944L129.944 141.6H122.28Z" fill="#263238" stroke="#263238" stroke-linecap="round" stroke-linejoin="round"/>
<path d="M60.7041 165.984C59.7712 166.019 58.8476 165.788 58.0401 165.32C57.3297 164.872 56.7718 164.219 56.4401 163.448C56.0607 162.554 55.8388 161.601 55.7841 160.632L57.3841 160.152C57.4541 160.899 57.6015 161.636 57.8241 162.352C57.9977 162.956 58.3455 163.496 58.8241 163.904C59.3577 164.316 60.0229 164.521 60.6961 164.48C61.438 164.523 62.1681 164.279 62.7361 163.8C63.001 163.509 63.2026 163.166 63.3279 162.793C63.4532 162.419 63.4996 162.024 63.4641 161.632C63.4793 160.836 63.2564 160.053 62.8241 159.384C62.3109 158.651 61.7179 157.978 61.0561 157.376L57.6001 154.048C57.0347 153.515 56.5711 152.883 56.2321 152.184C55.9388 151.522 55.7915 150.804 55.8001 150.08C55.7629 149.5 55.8524 148.92 56.0624 148.378C56.2724 147.836 56.5978 147.347 57.0161 146.944C57.9076 146.19 59.0497 145.799 60.2161 145.848C60.853 145.842 61.4871 145.933 62.0961 146.12C62.6394 146.286 63.1338 146.583 63.5361 146.984C63.9563 147.425 64.2757 147.952 64.4721 148.528C64.7184 149.275 64.8741 150.048 64.9361 150.832L63.3361 151.248C63.2904 150.525 63.1561 149.81 62.9361 149.12C62.7697 148.582 62.4362 148.111 61.9841 147.776C61.4535 147.436 60.8288 147.274 60.2001 147.312C59.4821 147.28 58.7762 147.504 58.2081 147.944C57.9326 148.189 57.7172 148.493 57.5784 148.835C57.4397 149.176 57.3814 149.545 57.4081 149.912C57.4017 150.414 57.5055 150.911 57.7121 151.368C58.0107 151.913 58.4066 152.398 58.8801 152.8L62.3521 156.08C63.125 156.792 63.805 157.598 64.3761 158.48C64.9428 159.383 65.2372 160.43 65.2241 161.496C65.2537 162.359 65.055 163.214 64.6481 163.976C64.2831 164.629 63.7238 165.152 63.0481 165.472C62.3155 165.818 61.5141 165.993 60.7041 165.984Z" fill="#263238" stroke="#263238" stroke-linecap="round" stroke-linejoin="round"/>
<path d="M67.6801 165.744V146.048H74.8001V147.48H69.5521V154.872H73.8321V156.232H69.5521V164.352H74.8561V165.744H67.6801Z" fill="#263238" stroke="#263238" stroke-linecap="round" stroke-linejoin="round"/>
<path d="M77.384 165.744V146.048H81.832C82.8343 145.999 83.8328 146.203 84.736 146.64C85.4273 147.023 85.9645 147.634 86.256 148.368C86.5855 149.225 86.7431 150.138 86.72 151.056C86.7253 151.752 86.6419 152.445 86.472 153.12C86.3396 153.727 86.0655 154.295 85.672 154.776C85.2392 155.256 84.6545 155.572 84.016 155.672L87.032 165.744H85.232L82.344 156.064H79.2V165.744H77.384ZM79.2 154.704H81.704C82.3699 154.742 83.0336 154.598 83.624 154.288C84.0815 154.011 84.4248 153.58 84.592 153.072C84.8082 152.423 84.9084 151.74 84.888 151.056C84.9562 150.104 84.7359 149.153 84.256 148.328C83.832 147.728 83 147.432 81.752 147.432H79.2V154.704Z" fill="#263238" stroke="#263238" stroke-linecap="round" stroke-linejoin="round"/>
<path d="M89.88 165.744V146.048H91.728V165.744H89.88Z" fill="#263238" stroke="#263238" stroke-linecap="round" stroke-linejoin="round"/>
<path d="M98.704 165.744L94.088 146.048H95.864L99.584 162.4L103.08 146.088H104.8L100.352 165.784L98.704 165.744Z" fill="#263238" stroke="#263238" stroke-linecap="round" stroke-linejoin="round"/>
<path d="M107.2 165.744V146.048H109.048V165.744H107.2Z" fill="#263238" stroke="#263238" stroke-linecap="round" stroke-linejoin="round"/>
<path d="M117.088 165.984C116.004 166.061 114.925 165.78 114.016 165.184C113.287 164.627 112.761 163.845 112.52 162.96C112.231 161.951 112.091 160.905 112.104 159.856V152C112.089 150.918 112.231 149.84 112.528 148.8C112.779 147.93 113.314 147.17 114.048 146.64C114.954 146.064 116.016 145.784 117.088 145.84C118.063 145.789 119.031 146.025 119.872 146.52C120.553 146.99 121.061 147.67 121.32 148.456C121.629 149.417 121.778 150.423 121.76 151.432V152.624H120V151.488C120.01 150.744 119.94 150.001 119.792 149.272C119.691 148.71 119.393 148.202 118.952 147.84C118.405 147.461 117.744 147.28 117.08 147.328C116.376 147.28 115.677 147.472 115.096 147.872C114.634 148.272 114.318 148.816 114.2 149.416C114.037 150.176 113.959 150.951 113.968 151.728V160.12C113.954 160.929 114.048 161.736 114.248 162.52C114.382 163.11 114.719 163.633 115.2 164C115.759 164.352 116.413 164.522 117.072 164.488C117.739 164.533 118.401 164.343 118.944 163.952C119.386 163.563 119.682 163.036 119.784 162.456C119.931 161.716 120.001 160.963 119.992 160.208V158.92H121.744V160.088C121.759 161.124 121.622 162.156 121.336 163.152C121.113 163.981 120.617 164.711 119.928 165.224C119.086 165.772 118.091 166.038 117.088 165.984Z" fill="#263238" stroke="#263238" stroke-linecap="round" stroke-linejoin="round"/>
<path d="M124.624 165.744V146.048H131.752V147.48H126.496V154.872H130.776V156.232H126.496V164.352H131.8V165.744H124.624Z" fill="#263238" stroke="#263238" stroke-linecap="round" stroke-linejoin="round"/>
<path d="M264.544 256.136H307.4C307.4 256.136 284.2 313.184 288.576 338.664H245.144C245.144 338.664 253.248 273.512 264.544 256.136Z" fill="#263238" stroke="black" stroke-linecap="round" stroke-linejoin="round"/>
<path d="M227.464 174.248C227.464 174.248 227.888 181.968 242.264 186.472C256.64 190.976 271.232 186.472 279.384 192.872C287.536 199.272 287.32 209.176 284.528 214.112C281.736 219.048 277.232 223.976 290.536 229.768C303.84 235.56 295.896 252.512 290.32 258.736C284.744 264.96 275.12 267.96 264.36 265.816C253.6 263.672 240.976 237.712 227.248 223.976C213.52 210.24 211.84 184.904 220.6 177.64C229.36 170.376 227.464 174.248 227.464 174.248Z" fill="#263238" stroke="black" stroke-linecap="round" stroke-linejoin="round"/>
<path d="M225.256 146.48C225.256 146.48 231.176 143.896 232.696 148.88C234.216 153.864 234.664 167.56 234.664 167.56L231.464 166.8C231.464 166.8 232.224 151.312 228.728 148.88C225.232 146.448 222.504 151.92 222.504 151.92L225.256 146.48Z" fill="#A6A6A6" stroke="black" stroke-linecap="round" stroke-linejoin="round"/>
<path d="M158.8 313.104L179.024 302.288C179.024 302.288 177.624 281.064 177.824 280.264C178.024 279.464 183.088 237.936 183.088 237.936L169.216 279.064L158.8 313.104Z" fill="#1E3267" stroke="#1E3267" stroke-linecap="round" stroke-linejoin="round"/>
<path d="M248.208 216.608C248.208 216.608 268.208 227.504 270.896 228.608C273.584 229.712 272 243.608 272 252.688C272 261.768 258.4 338.448 258.4 338.448H157.68C157.68 338.448 174.696 312.36 175.152 305.552C175.608 298.744 172.656 293.296 172.2 286.72C171.744 280.144 181.504 239.976 183.088 237.92C184.672 235.864 191.488 230.664 191.488 230.664L215.536 209.6L226.656 207.104L248.208 216.608Z" fill="#1E3267" stroke="#1E3267" stroke-linecap="round" stroke-linejoin="round"/>
<path d="M181.456 312.928L178.096 319.84" stroke="#1E3267" stroke-linecap="round" stroke-linejoin="round"/>
<path d="M184.68 293.072C184.68 293.072 179.688 296.472 182.184 298.288C184.68 300.104 185.816 303.96 185.816 303.96L182.616 310.192" stroke="#1E3267" stroke-linecap="round" stroke-linejoin="round"/>
<path d="M208.192 309.6C209.544 309.704 210.968 309.784 212.456 309.824" stroke="#1E3267" stroke-linecap="round" stroke-linejoin="round"/>
<path d="M186.712 304C186.712 304 192.144 307.632 203.976 309.184" stroke="#1E3267" stroke-linecap="round" stroke-linejoin="round"/>
<path d="M173.176 158.928C172.219 159.395 171.422 160.133 170.883 161.051C170.343 161.969 170.086 163.025 170.144 164.088C170.144 168.04 173.344 175.776 173.344 175.776L175.168 175.176C175.168 175.176 171.832 167.128 172.288 164.24C172.436 163.398 172.813 162.613 173.377 161.971C173.941 161.329 174.672 160.854 175.488 160.6L174.88 158.624L173.176 158.928Z" fill="#A6A6A6" stroke="black" stroke-linecap="round" stroke-linejoin="round"/>
<path d="M180.992 179.256C181.792 183.256 180.424 186.864 177.992 187.336C175.56 187.808 172.968 184.936 172.2 180.936C171.432 176.936 172.768 173.32 175.2 172.856C177.632 172.392 180.224 175.264 180.992 179.256Z" fill="white" stroke="black" stroke-linecap="round" stroke-linejoin="round"/>
<path d="M188.376 177.968C189.888 183.072 188.12 188.104 184.424 189.168C180.728 190.232 176.504 187.016 174.984 181.912C173.464 176.808 175.24 171.776 178.936 170.712C182.632 169.648 186.864 172.864 188.376 177.968Z" fill="#263238" stroke="black" stroke-linecap="round" stroke-linejoin="round"/>
<path d="M202.08 205.792L205.672 217.472L193.864 232.352L191.896 243.848C191.896 243.848 189.936 276.648 191.056 281.704C192.176 286.76 192.176 288.152 192.176 288.152C192.176 288.152 216.576 259.832 228.632 242.448C240.688 225.064 243.488 214.4 243.488 214.4L231.712 208L226.112 181.92L202.08 205.792Z" fill="white" stroke="black" stroke-linecap="round" stroke-linejoin="round"/>
<path d="M220.704 194.488L205.672 217.472L201.48 203.944L220.704 194.488Z" fill="#263238" stroke="black" stroke-linecap="round" stroke-linejoin="round"/>
<path d="M192 243.2L191.888 243.848C191.888 243.848 189.928 276.648 191.048 281.704C192.168 286.76 192.168 288.152 192.168 288.152C192.168 288.152 216.568 259.832 228.624 242.448C229.568 241.088 230.448 239.768 231.288 238.488C216.192 243.656 200.8 243.744 192 243.2Z" fill="white" stroke="#1E3267" stroke-linecap="round" stroke-linejoin="round"/>
<path d="M186.088 134.184C186.088 134.184 174.848 141.016 173.632 151.336C172.416 161.656 176.672 172.744 178.344 177.144C180.016 181.544 185.784 198.704 188.816 202.048C191.848 205.392 201.72 210.392 203.392 211.304C205.064 212.216 208.096 211.912 210.68 210.088C213.264 208.264 223.888 195.368 225.56 192.328C227.232 189.288 227.528 182.608 227.528 182.608C227.528 182.608 227.224 169.248 226.624 160.6C226.024 151.952 226.472 143.592 219.336 136.304C212.2 129.016 193.072 128.864 186.088 134.184Z" fill="white" stroke="black" stroke-linecap="round" stroke-linejoin="round"/>
<path d="M226.624 160.6C226.016 151.944 226.472 143.592 219.336 136.304C212.2 129.016 193.072 128.864 186.088 134.184C186.088 134.184 174.848 141.016 173.632 151.336C172.928 157.336 174.072 163.576 175.472 168.632C178.056 167.032 186.776 161.688 196.56 154.832C208.248 146.632 212.048 133.88 212.048 133.88C212.048 133.88 213.408 133.12 213.112 134.792C212.816 136.464 208.248 146.328 206.584 147.848L204.912 149.36C204.912 149.36 206.28 149.056 212.504 156.496C218.728 163.936 222.216 166.976 224.04 167.888C225.009 168.238 226.026 168.435 227.056 168.472C226.936 165.744 226.792 162.992 226.624 160.6Z" fill="#263238" stroke="black" stroke-linecap="round" stroke-linejoin="round"/>
<path d="M207.928 176.696C208.12 177.808 207.712 178.816 207.008 178.936C206.304 179.056 205.584 178.256 205.408 177.144C205.232 176.032 205.624 175.024 206.328 174.896C207.032 174.768 207.728 175.584 207.928 176.696Z" fill="#263238" stroke="black" stroke-linecap="round" stroke-linejoin="round"/>
<path d="M190.92 179.12C191.12 180.24 190.712 181.24 190.008 181.368C189.304 181.496 188.576 180.688 188.408 179.568C188.24 178.448 188.616 177.456 189.32 177.328C190.024 177.2 190.728 178.008 190.92 179.12Z" fill="#263238" stroke="black" stroke-linecap="round" stroke-linejoin="round"/>
<path d="M200.96 169.856C200.96 169.856 205.976 165.912 210.56 169.096" stroke="black" stroke-linecap="round" stroke-linejoin="round"/>
<path d="M190.792 172C190.792 172 184.872 169.112 180.768 174.28" stroke="black" stroke-linecap="round" stroke-linejoin="round"/>
<path d="M191.856 172.136C191.856 172.136 195.952 174.112 196.256 177.904" stroke="black" stroke-linecap="round" stroke-linejoin="round"/>
<path d="M196.408 188.384C196.408 188.384 198.08 189.592 200.96 188.688" stroke="black" stroke-linecap="round" stroke-linejoin="round"/>
<path d="M195.2 194.76C198.603 194.613 201.949 193.84 205.072 192.48C210.384 190.2 212.512 187.016 212.512 187.016" stroke="black" stroke-linecap="round" stroke-linejoin="round"/>
<path d="M197.776 194.608C198.99 195.682 200.555 196.274 202.176 196.272C204.912 196.272 207.336 191.416 207.336 191.416C207.336 191.416 200.352 194.456 197.776 194.608Z" stroke="black" stroke-linecap="round" stroke-linejoin="round"/>
<path d="M229.352 183.368C233.209 183.368 236.336 179.052 236.336 173.728C236.336 168.404 233.209 164.088 229.352 164.088C225.495 164.088 222.368 168.404 222.368 173.728C222.368 179.052 225.495 183.368 229.352 183.368Z" fill="#263238" stroke="black" stroke-linecap="round" stroke-linejoin="round"/>
<path d="M232.312 179.424C234.786 179.424 236.792 176.129 236.792 172.064C236.792 167.999 234.786 164.704 232.312 164.704C229.838 164.704 227.832 167.999 227.832 172.064C227.832 176.129 229.838 179.424 232.312 179.424Z" fill="white" stroke="black" stroke-linecap="round" stroke-linejoin="round"/>
<path d="M177.992 184C177.992 184 178.04 199.776 182.136 201.144C186.232 202.512 197.472 199.776 197.472 199.776" stroke="black" stroke-width="2" stroke-linecap="round" stroke-linejoin="round"/>
<path d="M203.24 199.712C203.24 200.928 201.744 201.912 199.896 201.912C198.048 201.912 196.56 200.928 196.56 199.712C196.56 198.496 198.056 197.512 199.896 197.512C201.736 197.512 203.24 198.496 203.24 199.712Z" fill="#263238" stroke="black" stroke-linecap="round" stroke-linejoin="round"/>
<path d="M204.192 218.2C204.192 218.2 199.392 226.592 196.024 251.552C192.656 276.512 194.888 281.496 194.888 281.496L190.088 284.448C190.088 284.448 180.112 283.312 183.512 259.72C186.912 236.128 188.8 232.264 188.8 232.264L204.192 218.2Z" fill="#1E3267" stroke="#1E3267" stroke-linecap="round" stroke-linejoin="round"/>
<path d="M234.592 209.6C234.592 209.6 223.704 235.464 212.36 251.576C201.016 267.688 185.6 290.8 185.6 290.8C185.6 290.8 193.768 286.944 211.016 274C228.264 261.056 245.728 231.344 247.544 228.4C249.36 225.456 252.08 218.648 252.08 218.648L234.592 209.6Z" fill="#1E3267" stroke="#1E3267" stroke-linecap="round" stroke-linejoin="round"/>
<path d="M140.344 324.512C137.683 326.132 134.892 327.529 132 328.688C126.896 330.776 126.4 330.408 128.056 332.168C129.712 333.928 138.264 330.776 140.584 329.848C142.904 328.92 147.312 327.528 147.312 327.528C147.312 327.528 152.648 330.544 155.896 331.472C159.144 332.4 163.096 331.008 163.096 331.008C163.096 331.008 163.328 327.296 160.544 325.208C157.76 323.12 151.744 318.248 149.64 318.48C147.536 318.712 140.344 324.512 140.344 324.512Z" fill="white" stroke="black" stroke-linecap="round" stroke-linejoin="round"/>
<path d="M138.952 318.944C138.952 318.944 136.168 318.248 134.312 319.64C132.456 321.032 130.368 325.44 130.136 326.6C129.904 327.76 130.368 328.456 132.224 326.832C134.08 325.208 137.328 322.888 137.328 322.888L140.112 321.96L138.952 318.944Z" fill="white" stroke="black" stroke-linecap="round" stroke-linejoin="round"/>
<path d="M146.144 316.856C146.144 316.856 140.544 315 139.416 316.624C138.288 318.248 134.312 327.528 135.472 328.224C136.632 328.92 138.256 327.528 140.344 324.512C142.432 321.496 143.592 319.872 143.592 319.872L146.376 319.408L146.144 316.856Z" fill="white" stroke="black" stroke-linecap="round" stroke-linejoin="round"/>
<path d="M156.088 318.936C156.088 318.936 148.832 313.264 147.016 314.624C145.2 315.984 139.304 324.832 138.624 326.624C137.944 328.416 141.12 327.536 143.608 325.264C146.096 322.992 149.056 320.464 149.056 320.464L154.728 323.416L156.088 318.936Z" fill="white" stroke="black" stroke-linecap="round" stroke-linejoin="round"/>
<path d="M182.184 323.248C182.184 323.248 172.656 322.792 168.8 321.432C164.944 320.072 157.224 317.12 154.96 317.344C152.696 317.568 144.064 325.968 142.248 327.784C140.432 329.6 140.648 330.088 142.432 330.312C144.216 330.536 148.6 327.56 150.648 325.968C151.915 324.993 153.283 324.156 154.728 323.472C156.356 325.815 158.179 328.018 160.176 330.056C162.44 332.096 167.888 333.68 169.928 333.456C171.226 333.308 172.514 333.081 173.784 332.776L181.504 332.552L182.184 323.248Z" fill="white" stroke="black" stroke-linecap="round" stroke-linejoin="round"/>
<path d="M248.432 257.672C248.432 257.672 240.04 267.424 240.496 270.832C240.952 274.24 241.176 277.632 241.176 277.632L235.048 314.616C235.048 314.616 229.832 312.12 229.832 314.16V316.208L180.8 321.2L180.344 338.44L258.392 338.664C258.392 338.664 262.248 334.36 262.704 332.768C263.16 331.176 271.776 303.728 274.048 274.912C276.32 246.096 275.184 233.168 274.048 230.912C272.912 228.656 259.528 224.336 259.528 224.336" fill="#1E3267"/>
<path d="M248.432 257.672C248.432 257.672 240.04 267.424 240.496 270.832C240.952 274.24 241.176 277.632 241.176 277.632L235.048 314.616C235.048 314.616 229.832 312.12 229.832 314.16V316.208L180.8 321.2L180.344 338.44L258.392 338.664C258.392 338.664 262.248 334.36 262.704 332.768C263.16 331.176 271.776 303.728 274.048 274.912C276.32 246.096 275.184 233.168 274.048 230.912C272.912 228.656 259.528 224.336 259.528 224.336" stroke="#1E3267" stroke-linecap="round" stroke-linejoin="round"/>
<path d="M236.864 314.4C236.864 314.4 244.12 319.16 248.432 320.296L236.864 314.4Z" fill="white"/>
<path d="M236.864 314.4C236.864 314.4 244.12 319.16 248.432 320.296" stroke="#1E3267" stroke-linecap="round" stroke-linejoin="round"/>
<path d="M168.8 268.376L174.4 250.4C176.671 248.175 178.659 245.679 180.32 242.968C182.72 238.912 182.72 231.304 182.344 229.952C181.968 228.6 187.248 222.52 188.744 220.352C190.24 218.184 191.104 214.264 189.08 211.392C187.056 208.52 186.04 213.256 184.688 215.448C183.336 217.64 178.6 219.84 178.6 219.84L173.6 223.904C173.6 223.904 165.32 231.168 164.8 232.184C164.28 233.2 163.28 236.408 163.28 236.408L163.96 246.208L159.568 263.272L168.8 268.376Z" fill="white" stroke="black" stroke-linecap="round" stroke-linejoin="round"/>
<path d="M170.184 217.992C170.184 217.992 174.24 211.592 175.424 209.544C176.608 207.496 178.464 199.408 179.648 199.944C180.832 200.48 182.048 203.144 181.68 206.704C181.312 210.264 177.112 218.36 177.112 218.36L170.184 217.992Z" stroke="black" stroke-linecap="round" stroke-linejoin="round"/>
<path d="M160.384 258.208L163.936 246.208L162.4 226.944L167.128 217.824L180.136 216.136C180.136 216.136 188.08 220.36 188.76 220.36C189.44 220.36 188.76 222.216 187.24 222.552C185.72 222.888 182.84 222.048 182.84 222.048L187.744 225.248C187.744 225.248 187.408 226.768 186.224 227.104C185.055 227.34 183.865 227.455 182.672 227.448C182.672 227.448 186.896 230.152 185.872 230.648C184.869 231.108 183.776 231.338 182.672 231.32H179.472L176.936 230.984L173.048 232.504C173.048 232.504 175.752 239.432 175.584 242.816C175.416 246.2 171.192 248.416 171.192 248.416" fill="white"/>
<path d="M160.384 258.208L163.936 246.208L162.4 226.944L167.128 217.824L180.136 216.136C180.136 216.136 188.08 220.36 188.76 220.36C189.44 220.36 188.76 222.216 187.24 222.552C185.72 222.888 182.84 222.048 182.84 222.048L187.744 225.248C187.744 225.248 187.408 226.768 186.224 227.104C185.055 227.34 183.865 227.455 182.672 227.448C182.672 227.448 186.896 230.152 185.872 230.648C184.869 231.108 183.776 231.338 182.672 231.32H179.472L176.936 230.984L173.048 232.504C173.048 232.504 175.752 239.432 175.584 242.816C175.416 246.2 171.192 248.416 171.192 248.416" stroke="black" stroke-linecap="round" stroke-linejoin="round"/>
<path d="M182.856 222.048C182.856 222.048 180.152 219.848 178.632 219.848C177.112 219.848 167.824 221.536 167.824 221.536" stroke="black" stroke-linecap="round" stroke-linejoin="round"/>
<path d="M182.688 227.456C182.688 227.456 178.296 225.056 176.944 225.056C175.592 225.056 164.944 227.76 164.944 227.76" stroke="black" stroke-linecap="round" stroke-linejoin="round"/>
<path d="M160.6 254.44L174.32 263.68C174.32 263.68 168.208 296.48 167.608 299.288C167.008 302.096 162.608 309.496 160.408 311.704C158.208 313.912 155.608 313.504 149.6 311.904C143.592 310.304 138.4 305.504 138.584 299.288C138.768 293.072 160.6 254.44 160.6 254.44Z" fill="#1E3267" stroke="#1E3267" stroke-linecap="round" stroke-linejoin="round"/>
<path d="M89.688 333.936H85.704V335.16H89.688V333.936Z" fill="white" stroke="#263238" stroke-linecap="round" stroke-linejoin="round"/>
<path d="M95.208 333.936H91.224V335.16H95.208V333.936Z" fill="white" stroke="#263238" stroke-linecap="round" stroke-linejoin="round"/>
<path d="M100.728 333.936H96.744V335.16H100.728V333.936Z" fill="white" stroke="#263238" stroke-linecap="round" stroke-linejoin="round"/>
<path d="M106.256 333.936H102.272V335.16H106.256V333.936Z" fill="white" stroke="#263238" stroke-linecap="round" stroke-linejoin="round"/>
<path d="M111.776 333.936H107.792V335.16H111.776V333.936Z" fill="white" stroke="#263238" stroke-linecap="round" stroke-linejoin="round"/>
<path d="M117.296 333.936H113.312V335.16H117.296V333.936Z" fill="white" stroke="#263238" stroke-linecap="round" stroke-linejoin="round"/>
<path d="M122.816 333.936H118.832V335.16H122.816V333.936Z" fill="white" stroke="#263238" stroke-linecap="round" stroke-linejoin="round"/>
<path d="M128.336 333.936H124.352V335.16H128.336V333.936Z" fill="white" stroke="#263238" stroke-linecap="round" stroke-linejoin="round"/>
<path d="M133.856 333.936H129.872V335.16H133.856V333.936Z" fill="white" stroke="#263238" stroke-linecap="round" stroke-linejoin="round"/>
<path d="M139.376 333.936H135.392V335.16H139.376V333.936Z" fill="white" stroke="#263238" stroke-linecap="round" stroke-linejoin="round"/>
<path d="M144.904 333.936H140.92V335.16H144.904V333.936Z" fill="white" stroke="#263238" stroke-linecap="round" stroke-linejoin="round"/>
<path d="M150.424 333.936H146.44V335.16H150.424V333.936Z" fill="white" stroke="#263238" stroke-linecap="round" stroke-linejoin="round"/>
<path d="M155.944 333.936H151.96V335.16H155.944V333.936Z" fill="white" stroke="#263238" stroke-linecap="round" stroke-linejoin="round"/>
<path d="M161.464 333.936H157.48V335.16H161.464V333.936Z" fill="white" stroke="#263238" stroke-linecap="round" stroke-linejoin="round"/>
<path d="M166.984 333.936H163V335.16H166.984V333.936Z" fill="white" stroke="#263238" stroke-linecap="round" stroke-linejoin="round"/>
<path d="M172.504 333.936H168.52V335.16H172.504V333.936Z" fill="white" stroke="#263238" stroke-linecap="round" stroke-linejoin="round"/>
<path d="M182.128 334.904H83.416V338.376H182.128V334.904Z" fill="white" stroke="#263238" stroke-linecap="round" stroke-linejoin="round"/>
<path d="M182.12 334.904H144.28V338.376H182.12V334.904Z" fill="white" stroke="#263238" stroke-linecap="round" stroke-linejoin="round"/>
<path d="M111.856 302.408H36.568L21.776 224.056H97.056L111.856 302.408Z" fill="#263238" stroke="white" stroke-linecap="round" stroke-linejoin="round"/>
<path d="M106.424 334.032H59.8V338.664H106.424V334.032Z" fill="#263238" stroke="white" stroke-linecap="round" stroke-linejoin="round"/>
<path d="M79.784 338.664H67.04L51.4 320.896H64.144L79.784 338.664Z" fill="#263238" stroke="#263238" stroke-linecap="round" stroke-linejoin="round"/>
<path d="M64.144 279.016H51.4V320.712H64.144V279.016Z" fill="#263238" stroke="#263238" stroke-linecap="round" stroke-linejoin="round"/>
<path d="M11.248 338.664H376.216" stroke="#263238" stroke-linecap="round" stroke-linejoin="round"/>
</svg>
