<svg width="128" height="26" viewBox="0 0 128 26" fill="none" xmlns="http://www.w3.org/2000/svg">
<path d="M0.5 0.968018H127.5V25.0319H0.5V0.968018Z" fill="black"/>
<path d="M22.2664 14.2569H18.0282V16.1964C17.9564 16.6274 18.0282 16.9865 18.1719 17.4175C18.1719 17.5612 18.2437 17.7767 18.3874 17.8485C18.6029 17.9204 18.8902 17.9922 19.1057 17.9204H19.3931V18.2077H15.7296V17.9204H15.9451C16.2324 17.9204 16.5198 17.9204 16.5916 17.8485C16.6634 17.7767 16.8789 17.633 16.8789 17.4894C16.9508 17.0584 17.0226 16.6274 16.9508 16.1964V12.3174C16.9508 11.8864 16.9508 11.5273 16.8789 11.0963C16.8789 10.9526 16.8071 10.7371 16.6634 10.7371C16.3761 10.6653 16.0888 10.5934 15.8014 10.6653H15.5859V10.3779H19.2494V10.6653H19.1057C18.7466 10.6653 18.4592 10.6653 18.3874 10.7371C18.3156 10.8089 18.1001 10.9526 18.1001 11.0963C18.1001 11.2399 17.9564 11.6709 17.9564 12.3174V13.8977H22.1945V12.3174C22.1945 11.6709 22.1227 11.3118 22.1227 11.0963C22.1227 10.8808 22.0509 10.7371 21.8354 10.7371C21.6199 10.7371 21.4762 10.6653 21.117 10.6653H20.9015V10.3779H24.4932V10.6653H24.3495C24.0622 10.6653 23.7749 10.6653 23.4875 10.7371C23.4157 10.7371 23.272 10.9526 23.272 11.0963C23.2002 11.4554 23.1284 11.8864 23.2002 12.3174V16.1964C23.1284 16.6274 23.2002 16.9865 23.272 17.4175C23.272 17.5612 23.3439 17.7767 23.4875 17.8485C23.703 17.9204 23.9903 17.9922 24.2058 17.9204H24.4213V18.2077H20.8297V17.9204H21.117C21.4044 17.9204 21.6917 17.9204 21.7635 17.8485C21.979 17.7049 22.0509 17.633 22.0509 17.4894C22.0509 17.3457 22.1227 16.8429 22.1227 16.1964V14.2569H22.2664Z" fill="white"/>
<path d="M31.0302 18.0646H31.1021C31.964 18.0646 32.7542 17.7055 33.257 17.059C33.9035 16.2688 34.1909 15.2632 34.119 14.2575C34.1909 13.2519 33.9035 12.2462 33.257 11.456C32.7542 10.8095 31.8922 10.3785 31.0302 10.4504V10.1631C32.1795 10.0912 33.3289 10.5222 34.1909 11.2405C35.0528 11.9589 35.4838 13.1082 35.4838 14.2575C35.4838 15.4068 35.0528 16.4843 34.1909 17.2745C33.3289 18.0646 32.1795 18.4238 31.0302 18.352V18.0646ZM28.0851 14.2575C27.9414 15.2632 28.2288 16.2688 28.8034 17.059C29.3781 17.7055 30.1682 18.0646 31.0302 18.0646V18.352C29.8809 18.4238 28.7316 17.9928 27.8696 17.2745C27.0794 16.4843 26.6484 15.335 26.6484 14.1857C26.6484 13.1082 27.0794 12.0307 27.8696 11.3124C28.7316 10.594 29.8809 10.163 31.0302 10.2349V10.5222C30.1682 10.5222 29.3781 10.8814 28.8034 11.5279C28.2288 12.2462 28.0133 13.2519 28.0851 14.2575Z" fill="white"/>
<path d="M41.2275 14.1852C41.2993 14.1852 41.443 14.0415 41.5148 14.0415C41.8021 13.9697 42.0895 13.7542 42.2331 13.4668C42.4486 13.1077 42.5205 12.7485 42.5205 12.3894C42.5205 11.8865 42.3768 11.3837 42.0176 10.9527C41.8021 10.7372 41.5148 10.5935 41.1556 10.5935V10.2344C41.5148 10.2344 41.874 10.3062 42.1613 10.4499C42.5923 10.5217 42.9515 10.7372 43.2388 11.0964C43.5261 11.4555 43.6698 11.8865 43.7416 12.3894C43.7416 12.8203 43.6698 13.1795 43.4543 13.6105C43.167 13.8978 42.8796 14.1852 42.5205 14.3288C42.0895 14.4725 41.5866 14.5443 41.1556 14.5443L41.2275 14.1852ZM39.8627 14.1852H41.2275V14.4725C41.0838 14.5443 40.9402 14.5443 40.7247 14.5443H39.7908V16.1965C39.719 16.6275 39.7908 16.9866 39.9345 17.4176C39.9345 17.5613 40.0063 17.7768 40.15 17.8486C40.3655 17.9205 40.6528 17.9923 40.8683 17.9205H41.1556V18.2078H37.4922V17.9205H37.7795C38.0668 17.9205 38.3542 17.9205 38.426 17.8486C38.4978 17.7768 38.7133 17.6331 38.7133 17.4895C38.7133 17.3458 38.7852 16.843 38.7852 16.1965V12.3175C38.7852 11.671 38.7133 11.3119 38.7133 11.0964C38.7133 10.8809 38.5697 10.7372 38.426 10.7372C38.2823 10.7372 38.0669 10.6654 37.7077 10.6654H37.4922V10.378L38.4978 10.3062H41.2993V10.6654C41.0838 10.5935 40.7965 10.5935 40.581 10.5935H39.9345L39.8627 14.1852Z" fill="white"/>
<path d="M49.3477 14.1852C49.4914 14.1852 49.5632 14.0415 49.7069 14.0415C49.9942 13.9697 50.2097 13.7542 50.3534 13.4668C50.497 13.1077 50.6407 12.7485 50.6407 12.3894C50.6407 11.7429 50.5689 11.1682 50.1379 10.9527C49.9224 10.7372 49.635 10.5935 49.2759 10.5935V10.2344C49.635 10.2344 49.9942 10.3062 50.2815 10.4499C50.7125 10.5217 51.0717 10.7372 51.359 11.0964C51.6464 11.4555 51.79 11.8865 51.8619 12.3894C51.8619 12.8203 51.79 13.1795 51.5745 13.6105C51.359 13.8978 51.0717 14.1852 50.7125 14.3288C50.2097 14.4725 49.7069 14.5443 49.204 14.5443L49.3477 14.1852ZM47.9829 14.1852H49.3477V14.4725C49.204 14.5443 49.0604 14.5443 48.8449 14.5443H47.9111V16.1965C47.8392 16.6275 47.9111 16.9866 48.0547 17.4176C48.0547 17.5613 48.1266 17.7768 48.1984 17.8486C48.4139 17.9205 48.7012 17.9923 48.9167 17.9205H49.2759V18.2078H45.6124V17.9205H45.8997C46.1152 17.9205 46.3307 17.9205 46.5462 17.8486C46.7617 17.705 46.8336 17.6331 46.8336 17.4895C46.9054 17.0585 46.9772 16.6275 46.9054 16.1965V12.3175C46.9054 11.8865 46.9054 11.5274 46.7617 11.0964C46.7617 10.9527 46.6899 10.7372 46.5462 10.7372C46.2589 10.6654 45.9716 10.6654 45.6842 10.6654H45.4688V10.378L46.4744 10.3062H49.2759V10.6654C49.0604 10.5935 48.7731 10.5935 48.5576 10.5935H47.9111L47.9829 14.1852Z" fill="white"/>
<path d="M60.2633 15.6931H60.5507L60.3352 18.1354H53.7266V17.8481H53.9421C54.2294 17.8481 54.5167 17.8481 54.8041 17.7762C54.9477 17.6326 55.0196 17.4889 55.0196 17.2734V11.024C55.0196 10.8803 54.9477 10.7367 54.7322 10.6648C54.6604 10.593 54.3731 10.593 54.0139 10.593V10.3057H59.7605L59.9042 12.1733H59.6168C59.545 11.7423 59.4013 11.3113 59.114 10.9522C58.9703 10.7367 58.7548 10.593 58.4675 10.593C58.0365 10.5212 57.6774 10.4493 57.2464 10.5212H56.097V13.7536H56.959C57.2464 13.7536 57.5337 13.7536 57.821 13.61C58.0365 13.5381 58.1084 13.4663 58.1084 13.3226C58.1802 13.0353 58.1802 12.8198 58.1802 12.5325H58.4675V15.2621H58.1802C58.1802 14.9748 58.1802 14.6156 58.1084 14.3283C58.0365 14.1846 57.8929 14.041 57.7492 14.041C57.6774 13.9691 57.39 13.9691 57.1027 13.9691H56.1689V15.9086C56.097 16.4833 56.1689 16.9861 56.3844 17.5608C56.4562 17.7763 56.8154 17.7762 57.39 17.7762H57.9647C58.3238 17.7762 58.6112 17.7762 58.9703 17.7044C59.2577 17.5608 59.545 17.3453 59.8323 17.0579C59.976 16.6988 60.1197 16.1959 60.2633 15.6931Z" fill="white"/>
<path d="M66.3681 14.1133C66.5118 14.0415 66.5836 14.0415 66.7273 14.0415C66.9428 13.9697 67.0864 13.8978 67.3019 13.7542C67.4456 13.6105 67.5893 13.395 67.6611 13.2513C67.7329 12.964 67.7329 12.6767 67.7329 12.3894C67.7329 11.8865 67.6611 11.4555 67.3738 11.0245C67.0864 10.809 66.7273 10.5935 66.3681 10.5217V10.2344C66.7273 10.2344 67.0864 10.3062 67.4456 10.4499C67.8766 10.5217 68.2358 10.7372 68.5231 11.0964C68.8823 11.3837 69.0259 11.8147 69.0259 12.3175C69.0259 12.8203 68.8104 13.2513 68.4513 13.6105C68.0203 14.0415 67.4456 14.257 66.7991 14.3288C67.3738 14.8317 67.9484 15.4063 68.3794 16.0528C68.8104 16.6275 69.3132 17.1303 69.8879 17.6331C70.2471 17.9205 70.6781 17.9923 71.1091 17.9923V18.2796H68.9541C68.4513 18.0641 67.9484 17.3458 67.2301 16.2683C66.9428 15.9092 66.7273 15.6218 66.3681 15.2627V14.1133ZM65.0033 14.1852C65.3625 14.1852 65.6498 14.0415 65.9371 14.0415H66.4399V15.119L65.8653 14.5443C65.7934 14.4725 65.5779 14.4725 65.4343 14.4725H65.0751V16.1965C65.0033 16.6275 65.0751 16.9866 65.147 17.4176C65.147 17.5613 65.2188 17.7768 65.3625 17.9205C65.578 17.9923 65.8653 17.9923 66.0808 17.9923H66.4399V18.2796H62.6328V17.9923H62.9201C63.2075 17.9923 63.4948 17.9923 63.5666 17.9205C63.7821 17.7768 63.854 17.705 63.854 17.5613C63.9258 17.1303 63.9976 16.6993 63.9258 16.2683V12.3175C63.9258 11.8865 63.9258 11.5274 63.854 11.0964C63.854 10.9527 63.7821 10.7372 63.6385 10.7372C63.3511 10.6654 63.0638 10.5935 62.7765 10.6654H62.7046V10.378L63.7821 10.3062C64.5005 10.3062 65.147 10.2344 65.6498 10.2344C65.9371 10.2344 66.2244 10.3062 66.3681 10.3062V10.5935H65.0033V14.1852Z" fill="white"/>
<path d="M72.5462 18.2078V15.6937H72.8335C73.1208 17.3458 73.911 18.136 75.204 18.136C75.7068 18.136 76.1378 17.9923 76.4969 17.6331C76.7843 17.3458 76.9279 16.9866 76.9279 16.5556C76.9279 16.1965 76.7124 15.8373 76.4969 15.55C76.066 15.1908 75.5631 14.9035 74.9885 14.7598C74.4856 14.5443 74.0546 14.3288 73.6236 14.0415C73.2645 13.8978 72.9772 13.6105 72.8335 13.2513C72.618 12.964 72.5462 12.6049 72.5462 12.2457C72.4743 11.671 72.7617 11.1682 73.1927 10.809C73.6237 10.4499 74.1265 10.2344 74.7011 10.2344C74.9885 10.2344 75.3476 10.3062 75.635 10.4499C75.9941 10.5217 76.3533 10.7372 76.5688 11.0964C76.7125 10.8809 76.8561 10.6654 76.9279 10.4499H77.1434V12.4612H76.9279C76.7843 11.9584 76.4969 11.4555 76.1378 11.0964C75.7786 10.7372 75.3476 10.5217 74.8448 10.5217C74.4138 10.4499 74.0546 10.5935 73.7673 10.8809C73.6237 11.0964 73.48 11.3837 73.48 11.671C73.48 12.0302 73.5518 12.3894 73.8391 12.6767C74.2701 12.964 74.773 13.2513 75.2758 13.4668C75.9941 13.7542 76.4969 14.0415 76.8561 14.1852C77.1434 14.4007 77.4308 14.688 77.5744 14.9753C77.7899 15.3345 77.8618 15.6937 77.8618 16.0528C77.8618 16.6275 77.6463 17.274 77.2153 17.705C76.7124 18.136 76.066 18.3515 75.3476 18.3515C74.4856 18.3515 73.6955 17.9923 73.1208 17.3458C72.9772 17.5613 72.9053 17.8486 72.8335 18.136L72.5462 18.2078Z" fill="white"/>
<path d="M94.8147 12.1737H94.5273V10.3779H102.429V12.1737H102.142C102.07 11.8146 101.926 11.3836 101.782 11.0963C101.567 10.9526 101.495 10.7371 101.351 10.6653H99.1246V17.3457C99.1246 17.5612 99.1965 17.7049 99.412 17.7767C99.4838 17.8485 99.7711 17.8485 100.13 17.8485H100.489V18.1358H96.5387V17.8485H96.8978C97.257 17.9922 97.7598 17.8485 97.9035 17.4175V10.5934H95.6767C95.4612 10.6653 95.3175 10.8808 95.2457 11.0244C94.9583 11.4554 94.8865 11.8146 94.8147 12.1737Z" fill="white"/>
<path d="M108.39 18.0646H108.533C109.395 18.1365 110.185 17.7055 110.688 17.059C111.335 16.2688 111.622 15.2632 111.478 14.2575C111.55 13.2519 111.263 12.2462 110.688 11.456C110.185 10.8095 109.323 10.3785 108.461 10.4504V10.1631C109.611 10.0912 110.76 10.5222 111.622 11.2405C112.484 11.9589 112.987 13.1082 112.915 14.2575C112.915 15.4068 112.484 16.4843 111.622 17.2745C110.76 18.0646 109.611 18.4238 108.461 18.352L108.39 18.0646ZM105.444 14.2575C105.373 15.2632 105.66 16.2688 106.163 17.059C106.737 17.7055 107.528 18.0646 108.39 18.0646V18.352C107.24 18.4238 106.091 17.9928 105.229 17.2745C104.439 16.4843 104.008 15.335 104.008 14.1857C104.008 13.1082 104.439 12.0307 105.301 11.3124C106.163 10.594 107.24 10.163 108.318 10.2349V10.5222C107.456 10.5222 106.666 10.8814 106.091 11.5279C105.66 12.318 105.373 13.3237 105.444 14.2575Z" fill="white"/>
<path d="M118.806 14.1852C119.021 14.1852 119.093 14.0415 119.165 14.0415C119.452 13.9697 119.739 13.7542 119.883 13.4668C120.099 13.1077 120.17 12.7485 120.17 12.3894C120.17 11.8865 120.027 11.3837 119.739 10.9527C119.452 10.7372 119.165 10.5935 118.806 10.5935V10.2344C119.165 10.2344 119.524 10.3062 119.883 10.4499C120.314 10.5217 120.673 10.7372 120.961 11.0964C121.248 11.4555 121.32 11.8865 121.32 12.3894C121.32 12.8203 121.248 13.1795 121.032 13.6105C120.817 13.8978 120.53 14.1852 120.242 14.3288C119.739 14.4725 119.237 14.5443 118.734 14.5443L118.806 14.1852ZM117.513 14.1852H118.806V14.4725C118.662 14.5443 118.518 14.5443 118.375 14.5443H117.513V17.3458C117.584 17.5613 117.584 17.705 117.8 17.7768C118.015 17.8486 118.303 17.9205 118.518 17.8486H118.806V18.136H115.07V17.8486H115.286C115.501 17.8486 115.789 17.8486 116.004 17.7768C116.148 17.705 116.22 17.5613 116.291 17.4176V11.0964C116.22 10.9527 116.076 10.7372 116.004 10.7372C115.932 10.7372 115.645 10.6654 115.286 10.6654H115.07V10.378L116.076 10.3062H118.734V10.6654C118.518 10.5935 118.231 10.5935 118.015 10.5935H117.513V14.1852Z" fill="white"/>
<path d="M6.46094 18.0644V14.6883H6.8201C7.17926 16.8433 8.32858 17.9207 9.98073 17.9207C10.6272 17.9926 11.2737 17.7771 11.7765 17.3461C12.2075 16.9869 12.423 16.4841 12.423 15.9094C12.4949 15.3348 12.2794 14.8319 11.9202 14.3291C11.2737 13.8981 10.6272 13.539 9.9089 13.2516C9.26241 12.9643 8.61591 12.677 7.96942 12.3178C7.46659 12.1023 7.10743 11.7431 6.8201 11.3121C6.6046 10.8811 6.46094 10.4502 6.46094 9.94733C6.46094 9.229 6.74827 8.58251 7.25109 8.15151C7.75392 7.64869 8.47225 7.36136 9.19057 7.43319C9.62157 7.36136 10.0526 7.43318 10.4836 7.64868C10.9864 7.86418 11.4174 8.15151 11.7765 8.58251C11.992 8.29518 12.1357 8.00785 12.1357 7.64868H12.423V10.3783H12.1357C11.992 9.66 11.6329 9.0135 11.1301 8.43884C10.6272 8.00784 9.98073 7.72051 9.26241 7.72051C8.75958 7.72051 8.25675 7.86418 7.89759 8.29518C7.61026 8.58251 7.39476 9.0135 7.39476 9.51633C7.39476 10.0192 7.61026 10.522 7.96942 10.8811C8.61591 11.3121 9.26241 11.7431 10.0526 11.9586C10.9864 12.3896 11.6329 12.677 12.0639 12.9643C12.4949 13.2516 12.7822 13.539 13.0695 13.97C13.3569 14.4009 13.5005 14.8319 13.4287 15.3348C13.5005 16.1249 13.1414 16.9869 12.4949 17.4897C10.9146 18.8546 8.54408 18.6391 7.17926 17.0587V16.9869C6.96377 17.2742 6.8201 17.6334 6.8201 17.9926L6.46094 18.0644Z" fill="white"/>
<path d="M85.8359 18.064V14.6879H86.1951C86.5543 16.8429 87.7036 17.9204 89.3557 17.9204C90.0022 17.9922 90.6487 17.7767 91.0797 17.3457C91.5107 16.9865 91.7262 16.4837 91.6544 15.909C91.7262 15.3344 91.5825 14.8316 91.2952 14.3287C90.6487 13.8977 90.0022 13.5386 89.2839 13.2512C88.4937 12.8921 87.8473 12.6047 87.3444 12.3174C86.8416 12.1019 86.4824 11.7427 86.2669 11.3118C85.9796 10.8808 85.9078 10.4498 85.9078 9.94694C85.9078 9.22861 86.1951 8.58212 86.7698 8.15112C87.3444 7.6483 88.0628 7.36097 88.7811 7.4328C89.2121 7.4328 89.5712 7.43279 90.0022 7.64829C90.5051 7.86379 90.9361 8.15112 91.2952 8.58212C91.5107 8.29479 91.6544 8.00746 91.6544 7.64829H91.8699V10.3779H91.6544C91.5107 9.65961 91.1516 9.01311 90.6487 8.43845C90.1459 8.00745 89.5712 7.72012 88.9247 7.72012C88.3501 7.64829 87.8473 7.86379 87.4163 8.29479C87.0571 8.58212 86.9134 9.01311 86.9853 9.51594C86.9853 10.0188 87.2008 10.5216 87.5599 10.8808C88.2064 11.3118 88.8529 11.6709 89.5712 11.9582C90.5051 12.3892 91.1515 12.6766 91.5825 12.9639C91.9417 13.2512 92.229 13.6104 92.5164 13.9696C92.8037 14.4006 92.8755 14.8316 92.8755 15.3344C92.9474 16.1245 92.5882 16.9865 91.9417 17.4894C91.367 18.064 90.5051 18.4232 89.6431 18.4232C88.4937 18.4232 87.4163 17.9204 86.6979 17.0584C86.4824 17.3457 86.4106 17.7049 86.3388 18.064H85.8359Z" fill="white"/>
</svg>
