<svg width="294" height="104" viewBox="0 0 294 104" fill="none" xmlns="http://www.w3.org/2000/svg">
<g opacity="0.15">
<path d="M4.71509 92.3726H247.357L291.25 88.2392V12.9043H7.68719L4.71509 60.8752V92.3726Z" fill="#BC8D06"/>
<path opacity="0.5" d="M4.71732 60.4922H291.355V64.26H4.71732V60.4922Z" fill="white"/>
<path d="M6.72513 12.9043H292.215V18.3367H6.72513V12.9043Z" fill="#BC8D06"/>
<path opacity="0.6" d="M6.72513 12.9043H292.215V18.3367H6.72513V12.9043Z" fill="white"/>
<path d="M67.6942 0H254.094L262.773 12.9035H59.0144L67.6942 0Z" fill="#BC8D06"/>
<path opacity="0.6" d="M67.6942 0H254.094L262.773 12.9035H59.0144L67.6942 0Z" fill="white"/>
<path opacity="0.1" d="M59.0144 12.9041L61.2424 9.58789L261.586 11.1406L262.773 12.9041H59.0144Z" fill="black"/>
<g opacity="0.2">
<path d="M229.701 8.96484H234.695V10.208H229.701V8.96484Z" fill="black"/>
<path d="M182.158 8.96484H187.152V10.208H182.158V8.96484Z" fill="black"/>
<path d="M134.615 8.96484H139.609V10.208H134.615V8.96484Z" fill="black"/>
<path d="M87.0723 8.96484H92.0664V10.208H87.0723V8.96484Z" fill="black"/>
</g>
<g opacity="0.2">
<path d="M245.473 0H246.492V12.9046H245.473V0Z" fill="black"/>
<path d="M75.2816 0H76.301V12.9046H75.2816V0Z" fill="black"/>
</g>
<path opacity="0.2" d="M192.651 86.807V92.3727H233.258V86.807C233.258 86.6522 233.258 86.4973 233.258 86.3468C233.258 83.6802 232.733 81.0397 231.712 78.5761C230.692 76.1125 229.196 73.874 227.31 71.9884C225.425 70.1029 223.186 68.6072 220.723 67.5867C218.259 66.5662 215.619 66.041 212.952 66.041C210.285 66.041 207.645 66.5662 205.181 67.5867C202.718 68.6072 200.479 70.1029 198.594 71.9884C196.708 73.874 195.212 76.1125 194.192 78.5761C193.171 81.0397 192.646 83.6802 192.646 86.3468C192.646 86.4973 192.646 86.6694 192.651 86.807Z" fill="black"/>
<path d="M191.628 92.3724H193.645V87.8261H193.679L193.654 86.7723C193.654 86.6304 193.654 86.4884 193.654 86.3422C193.615 83.7855 194.086 81.2468 195.038 78.8736C195.99 76.5005 197.404 74.3404 199.199 72.5189C200.993 70.6974 203.132 69.2509 205.491 68.2636C207.85 67.2762 210.381 66.7678 212.938 66.7678C215.495 66.7678 218.026 67.2762 220.385 68.2636C222.744 69.2509 224.882 70.6974 226.677 72.5189C228.471 74.3404 229.886 76.5005 230.838 78.8736C231.79 81.2468 232.26 83.7855 232.222 86.3422C232.222 86.4841 232.222 86.6261 232.222 86.7723L232.188 87.8261H232.226V92.3724H234.27V85.7831C234.133 80.2198 231.826 74.9304 227.843 71.0441C223.86 67.1578 218.516 64.9824 212.951 64.9824C207.386 64.9824 202.041 67.1578 198.058 71.0441C194.075 74.9304 191.769 80.2198 191.632 85.7831V85.9121C191.632 86.054 191.632 86.2003 191.632 86.3422V92.3638L191.628 92.3724Z" fill="#DBDBDB"/>
<path d="M229.896 89.3437C229.408 92.6949 227.937 95.8262 225.67 98.3417C223.402 100.857 220.439 102.644 217.157 103.475C213.874 104.307 210.418 104.147 207.226 103.014C204.035 101.882 201.25 99.8288 199.226 97.1141C197.201 94.3994 196.027 91.1453 195.851 87.7633C195.676 84.3812 196.508 81.0231 198.241 78.1136C199.974 75.2042 202.531 72.874 205.588 71.4178C208.646 69.9615 212.067 69.4447 215.418 69.9325C217.643 70.2564 219.783 71.0155 221.714 72.1663C223.646 73.3171 225.333 74.8371 226.677 76.6396C228.021 78.4421 228.998 80.4918 229.55 82.6715C230.102 84.8513 230.22 87.1185 229.896 89.3437Z" fill="#263238"/>
<path d="M224.109 88.5009C223.788 90.7064 222.821 92.7672 221.329 94.4228C219.836 96.0784 217.887 97.2543 215.727 97.802C213.566 98.3496 211.292 98.2444 209.191 97.4995C207.091 96.7547 205.258 95.4037 203.926 93.6175C202.593 91.8312 201.82 89.6898 201.704 87.4641C201.588 85.2384 202.135 83.0283 203.275 81.1134C204.415 79.1984 206.097 77.6645 208.109 76.7056C210.121 75.7468 212.372 75.406 214.578 75.7265C216.042 75.9393 217.451 76.4385 218.723 77.1957C219.994 77.9529 221.104 78.9532 221.99 80.1394C222.875 81.3257 223.517 82.6746 223.881 84.1093C224.245 85.544 224.322 87.0363 224.109 88.5009Z" fill="#DBDBDB"/>
<path d="M223.235 88.3891C222.939 90.4229 222.047 92.3231 220.67 93.8496C219.294 95.3761 217.496 96.4602 215.504 96.965C213.512 97.4697 211.415 97.3724 209.478 96.6852C207.541 95.9981 205.851 94.7521 204.622 93.1047C203.394 91.4573 202.681 89.4825 202.574 87.4301C202.468 85.3776 202.972 83.3397 204.024 81.574C205.076 79.8083 206.628 78.394 208.483 77.5102C210.338 76.6263 212.414 76.3124 214.448 76.6082C215.799 76.8047 217.097 77.2653 218.27 77.9637C219.442 78.6621 220.466 79.5846 221.282 80.6786C222.098 81.7726 222.69 83.0166 223.025 84.3396C223.361 85.6625 223.432 87.0386 223.235 88.3891Z" fill="#A6A6A6"/>
<path d="M214.944 84.5187L211.713 84.0455C213.034 82.6303 210.036 76.5824 210.036 76.5824L211.816 76.2598C212.677 78.3675 213.146 79.017 214.079 79.1504C215.012 79.2837 215.653 78.802 217.09 77.0254L218.703 77.8427C218.703 77.8427 214.083 82.7981 214.944 84.5187Z" fill="#DBDBDB"/>
<path d="M211.414 84.2221L209.969 87.1471C209.027 85.4566 202.351 86.4417 202.351 86.4417L202.596 84.6436C204.859 84.4888 205.629 84.2135 206.037 83.3876C206.446 82.5617 206.192 81.7788 204.94 79.8862L206.231 78.5957C206.231 78.5957 209.5 84.5189 211.414 84.2221Z" fill="#DBDBDB"/>
<path d="M210.024 87.4805L212.359 89.7603C210.462 90.1302 209.348 96.7846 209.348 96.7846L207.718 95.9975C208.269 93.7951 208.264 92.9864 207.589 92.3283C206.914 91.6701 206.109 91.6874 203.92 92.2896L203.094 90.6808C203.094 90.6808 209.701 89.386 210.024 87.4805Z" fill="#DBDBDB"/>
<path d="M212.695 89.8095L215.581 88.291C215.345 90.2138 221.328 93.341 221.328 93.341L220.076 94.6315C218.154 93.427 217.379 93.1862 216.549 93.6206C215.719 94.0551 215.478 94.8336 215.375 97.1005L213.59 97.3887C213.59 97.3887 214.411 90.7042 212.695 89.8095Z" fill="#DBDBDB"/>
<path d="M215.738 87.9905L215.187 84.773C216.942 85.5903 221.764 80.8672 221.764 80.8672L222.624 82.463C220.904 83.9213 220.418 84.5794 220.577 85.5042C220.736 86.4291 221.398 86.8979 223.523 87.698L223.244 89.4831C223.244 89.4831 217.118 86.6355 215.738 87.9905Z" fill="#DBDBDB"/>
<path d="M215.948 87.2413C215.861 87.83 215.602 88.3798 215.203 88.8212C214.804 89.2626 214.283 89.576 213.706 89.7216C213.129 89.8672 212.522 89.8386 211.961 89.6394C211.401 89.4402 210.912 89.0794 210.556 88.6024C210.2 88.1254 209.994 87.5537 209.962 86.9595C209.931 86.3652 210.077 85.7751 210.381 85.2636C210.685 84.7521 211.134 84.3421 211.671 84.0855C212.208 83.8288 212.808 83.737 213.397 83.8216C213.79 83.8779 214.167 84.0112 214.508 84.2137C214.849 84.4162 215.146 84.684 215.383 85.0018C215.62 85.3195 215.792 85.6809 215.889 86.0652C215.986 86.4495 216.006 86.8492 215.948 87.2413Z" fill="#DBDBDB"/>
<path opacity="0.2" d="M53.2672 86.8076V92.3733H93.8572V86.8076C93.8572 86.6528 93.8572 86.4979 93.8572 86.3474C93.8964 83.6562 93.4002 80.9841 92.3974 78.4864C91.3946 75.9887 89.9053 73.7153 88.0161 71.7984C86.1268 69.8814 83.8753 68.3592 81.3925 67.3202C78.9097 66.2812 76.245 65.7461 73.5536 65.7461C70.8621 65.7461 68.1975 66.2812 65.7147 67.3202C63.2319 68.3592 60.9804 69.8814 59.0911 71.7984C57.2019 73.7153 55.7126 75.9887 54.7098 78.4864C53.707 80.9841 53.2108 83.6562 53.25 86.3474C53.2629 86.4979 53.2628 86.67 53.2672 86.8076Z" fill="black"/>
<path d="M52.243 92.3724H54.2861V87.8261H54.3205L54.2904 86.7723C54.2904 86.6304 54.2904 86.4884 54.2904 86.3422C54.2522 83.7855 54.7228 81.2468 55.6748 78.8736C56.6267 76.5005 58.0411 74.3404 59.8356 72.5189C61.6301 70.6974 63.7689 69.2509 66.1276 68.2636C68.4862 67.2762 71.0177 66.7678 73.5746 66.7678C76.1316 66.7678 78.663 67.2762 81.0217 68.2636C83.3803 69.2509 85.5191 70.6974 87.3136 72.5189C89.1081 74.3404 90.5225 76.5005 91.4745 78.8736C92.4265 81.2468 92.8971 83.7855 92.8589 86.3422C92.8589 86.4841 92.8589 86.6261 92.8589 86.7723L92.8245 87.8261H92.8632V92.3724H94.9062V85.7831C94.7694 80.2198 92.4632 74.9304 88.4801 71.0441C84.497 67.1578 79.1525 64.9824 73.5875 64.9824C68.0226 64.9824 62.6781 67.1578 58.695 71.0441C54.7118 74.9304 52.4057 80.2198 52.2688 85.7831V85.9121C52.2688 86.054 52.2688 86.2003 52.2688 86.3422V92.3638L52.243 92.3724Z" fill="#DBDBDB"/>
<path d="M90.5089 89.3437C90.021 92.6949 88.5503 95.8262 86.2828 98.3417C84.0153 100.857 81.0528 102.644 77.7699 103.475C74.487 104.307 71.0313 104.147 67.8396 103.014C64.6479 101.882 61.8636 99.8288 59.8389 97.1141C57.8142 94.3994 56.6399 91.1453 56.4646 87.7633C56.2893 84.3812 57.1208 81.0231 58.854 78.1136C60.5872 75.2042 63.1442 72.874 66.2017 71.4178C69.2592 69.9615 72.6799 69.4447 76.0312 69.9325C78.2563 70.2564 80.3959 71.0155 82.3278 72.1663C84.2596 73.3171 85.9459 74.8371 87.2902 76.6396C88.6346 78.4421 89.6108 80.4918 90.1631 82.6715C90.7153 84.8513 90.8328 87.1185 90.5089 89.3437Z" fill="#263238"/>
<path d="M84.7224 88.5016C84.4022 90.7084 83.4347 92.7707 81.9423 94.4276C80.4499 96.0845 78.4996 97.2615 76.3382 97.8099C74.1767 98.3583 71.9012 98.2533 69.7994 97.5083C67.6976 96.7632 65.864 95.4116 64.5305 93.6243C63.197 91.8371 62.4234 89.6945 62.3077 87.4675C62.1921 85.2406 62.7394 83.0294 63.8806 81.1136C65.0217 79.1978 66.7055 77.6635 68.7187 76.7047C70.732 75.7459 72.9844 75.4057 75.191 75.7271C76.6557 75.9399 78.0642 76.4392 79.3359 77.1964C80.6076 77.9535 81.7177 78.9538 82.6028 80.1401C83.4879 81.3263 84.1306 82.6753 84.4943 84.11C84.858 85.5447 84.9355 87.037 84.7224 88.5016Z" fill="#DBDBDB"/>
<path d="M83.853 88.3891C83.5568 90.4229 82.6643 92.3231 81.2882 93.8496C79.912 95.3761 78.1142 96.4602 76.1219 96.965C74.1297 97.4697 72.0325 97.3724 70.0956 96.6852C68.1587 95.9981 66.469 94.7521 65.2402 93.1047C64.0114 91.4573 63.2987 89.4825 63.1922 87.4301C63.0857 85.3776 63.5902 83.3397 64.6419 81.574C65.6936 79.8083 67.2453 78.394 69.1007 77.5102C70.9561 76.6263 73.0319 76.3124 75.0657 76.6082C77.7928 77.0061 80.2503 78.4705 81.8981 80.6796C83.5459 82.8888 84.249 85.6618 83.853 88.3891Z" fill="#A6A6A6"/>
<path d="M75.5569 84.5187L72.3264 84.0455C73.647 82.6303 70.6488 76.5824 70.6488 76.5824L72.4297 76.2598C73.29 78.3675 73.7588 79.017 74.6923 79.1504C75.6257 79.2837 76.2666 78.802 77.7033 77.0254L79.3164 77.8427C79.3164 77.8427 74.6966 82.7981 75.5569 84.5187Z" fill="#DBDBDB"/>
<path d="M72.0312 84.2221L70.5859 87.1471C69.6439 85.4566 62.9679 86.4417 62.9679 86.4417L63.2131 84.6436C65.4757 84.4888 66.2242 84.2135 66.6544 83.3876C67.0845 82.5617 66.8092 81.7788 65.5575 79.8862L66.8479 78.5957C66.8479 78.5957 70.1171 84.5189 72.0312 84.2221Z" fill="#DBDBDB"/>
<path d="M70.633 87.4824L72.9688 89.7622C71.0718 90.1322 69.9577 96.7866 69.9577 96.7866L68.3274 95.9994C68.878 93.797 68.8737 92.9884 68.1984 92.3302C67.523 91.6721 66.7186 91.6893 64.5292 92.2915L63.7033 90.6827C63.7033 90.6827 70.319 89.388 70.633 87.4824Z" fill="#DBDBDB"/>
<path d="M73.3118 89.8095L76.2024 88.291C75.9658 90.2138 81.9492 93.341 81.9492 93.341L80.6975 94.6315C78.7747 93.427 78.0004 93.1862 77.1659 93.6206C76.3314 94.0551 76.0991 94.8336 75.9959 97.1005L74.2108 97.3887C74.2108 97.3887 75.0281 90.7042 73.3118 89.8095Z" fill="#DBDBDB"/>
<path d="M76.3549 87.9905L75.8043 84.773C77.555 85.5903 82.3813 80.8672 82.3813 80.8672L83.2416 82.463C81.521 83.9213 81.0349 84.5794 81.1941 85.5042C81.3532 86.4291 82.0114 86.8979 84.1406 87.698L83.861 89.4831C83.861 89.4831 77.7356 86.6355 76.3549 87.9905Z" fill="#DBDBDB"/>
<path d="M76.5615 87.2413C76.4747 87.83 76.2155 88.3798 75.8164 88.8212C75.4174 89.2626 74.8966 89.576 74.3196 89.7216C73.7426 89.8672 73.1355 89.8386 72.5748 89.6394C72.014 89.4402 71.5249 89.0794 71.1691 88.6024C70.8133 88.1254 70.6069 87.5537 70.5757 86.9595C70.5446 86.3652 70.6903 85.7751 70.9943 85.2636C71.2984 84.7521 71.7472 84.3421 72.284 84.0855C72.8209 83.8288 73.4217 83.737 74.0107 83.8216C74.4031 83.8779 74.7804 84.0112 75.1212 84.2137C75.4619 84.4162 75.7593 84.684 75.9963 85.0018C76.2333 85.3195 76.4052 85.6809 76.5022 86.0652C76.5992 86.4495 76.6194 86.8492 76.5615 87.2413Z" fill="#DBDBDB"/>
<path opacity="0.2" d="M17.5359 23.7734H288.281V25.3004H17.5359V23.7734Z" fill="black"/>
<g opacity="0.2">
<path d="M13.7143 92.3719H14.7337V29.1233H48.8634V92.3719H49.8828V28.0996H13.7143V92.3719Z" fill="black"/>
<path d="M31.2892 28.6113H32.3086V92.3718H31.2892V28.6113Z" fill="black"/>
</g>
<path d="M34.9438 32.0898H46.2344V76.8306H34.9438V32.0898Z" fill="#37474F"/>
<path d="M40.7656 76.8317L34.9414 71.0117V76.8317H40.7656Z" fill="#455A64"/>
<path d="M34.9429 32.0898V32.335L46.2344 43.6265V38.2668L40.066 32.0898H34.9429Z" fill="#455A64"/>
<path d="M46.2344 70.2599L34.9429 58.9727V60.0781L46.2344 71.3696V70.2599Z" fill="#455A64"/>
<path d="M34.9429 32.0898H46.2344V34.0126H34.9429V32.0898Z" fill="#263238"/>
<g opacity="0.2">
<path d="M132.995 92.3717H134.019V29.123H168.144V92.3717H169.168V28.0994H132.995V92.3717Z" fill="black"/>
<path d="M150.574 28.6111H151.594V92.3715H150.574V28.6111Z" fill="black"/>
</g>
<path d="M17.3657 32.0898H28.6562V76.8306H17.3657V32.0898Z" fill="#37474F"/>
<path d="M17.3648 32.0898H28.6562V34.0126H17.3648V32.0898Z" fill="#263238"/>
<path d="M28.6562 64.7281L17.3657 53.4375V70.2507L23.9508 76.8315H28.6562V64.7281Z" fill="#455A64"/>
<path d="M28.6562 52.686L17.3648 41.3945V42.5043L28.6562 53.7958V52.686Z" fill="#455A64"/>
<path d="M54.1676 28.6113H90.9297V60.4916H54.1676V28.6113Z" fill="#37474F"/>
<path d="M57.5742 28.6113L89.4587 60.4916H90.9297V45.1536L74.3831 28.6113H57.5742Z" fill="#455A64"/>
<path d="M68.4609 60.4928L54.167 46.2031V51.5628L63.1012 60.4928H68.4609Z" fill="#455A64"/>
<path d="M82.1847 28.6113L90.9297 37.352V36.2508L83.2902 28.6113H82.1847Z" fill="#455A64"/>
<path d="M54.1676 28.6113H90.9297V37.6266H54.1676V28.6113Z" fill="#263238"/>
<path opacity="0.2" d="M54.1676 28.6113H90.9297V30.5339H54.1676V28.6113Z" fill="black"/>
<path d="M54.1676 41.2402H90.9297V42.7671H54.1676V41.2402Z" fill="#BC8D06"/>
<path d="M93.6833 28.6113H130.445V60.4916H93.6833V28.6113Z" fill="#37474F"/>
<path d="M106.266 60.4917L93.688 47.9141V60.4917H106.266Z" fill="#455A64"/>
<path d="M113.205 28.6113L130.445 45.8518V40.4878L118.569 28.6113H113.205Z" fill="#455A64"/>
<path d="M115.172 60.4917L93.6919 39.0117V40.1128L114.071 60.4917H115.172Z" fill="#455A64"/>
<path d="M93.6833 28.6113H130.445V30.5339H93.6833V28.6113Z" fill="#263238"/>
<path d="M93.6833 41.2402H130.445V42.7671H93.6833V41.2402Z" fill="#BC8D06"/>
<path d="M171.879 28.6113H208.641V60.4916H171.879V28.6113Z" fill="#37474F"/>
<path d="M171.879 28.6113V37.1878L195.182 60.4916H208.641V57.1366L180.115 28.6113H171.879Z" fill="#455A64"/>
<path d="M199.866 28.6113L208.641 37.3864V36.2809L200.971 28.6113H199.866Z" fill="#455A64"/>
<path d="M171.879 28.6113H208.641V30.5339H171.879V28.6113Z" fill="#263238"/>
<path d="M171.879 41.2402H208.641V42.7671H171.879V41.2402Z" fill="#BC8D06"/>
<path d="M211.398 28.6113H248.16V60.4916H211.398V28.6113Z" fill="#37474F"/>
<path d="M241.992 28.6113L248.16 34.7797V28.6113H241.992Z" fill="#455A64"/>
<path d="M221.054 28.6113L248.16 55.7173V50.358L226.418 28.6113H221.054Z" fill="#455A64"/>
<path d="M232.859 60.4913L211.401 39.0371V40.1425L231.75 60.4913H232.859Z" fill="#455A64"/>
<path d="M211.398 28.6113H248.16V30.5339H211.398V28.6113Z" fill="#263238"/>
<path d="M211.398 41.2402H248.16V42.7671H211.398V41.2402Z" fill="#BC8D06"/>
<path d="M250.925 28.6113H287.688V60.4916H250.925V28.6113Z" fill="#37474F"/>
<path d="M250.926 28.6113V37.5405L273.877 60.4916H287.684V57.4893L258.806 28.6113H250.926Z" fill="#455A64"/>
<path d="M258.297 60.4939L250.924 53.1211V58.4851L252.937 60.4939H258.297Z" fill="#455A64"/>
<path d="M263.064 28.6113L287.684 53.2312V52.1301L264.165 28.6113H263.064Z" fill="#455A64"/>
<path d="M250.925 28.6113H287.688V30.5339H250.925V28.6113Z" fill="#263238"/>
<path d="M250.925 41.2402H287.688V42.7671H250.925V41.2402Z" fill="#BC8D06"/>
<path d="M288.709 78.6055H294V88.4818H288.709V78.6055Z" fill="#DBDBDB"/>
<path d="M3.31851 82.4961H8.60938V92.3724H3.31851V82.4961Z" fill="#DBDBDB"/>
<g opacity="0.1">
<path d="M250.128 89.0388L286.469 85.6409V71.2578H250.128V89.0388ZM285.445 84.7075L251.148 87.9205V72.2815H285.445V84.7075Z" fill="black"/>
<path d="M283.07 73.6191V83.4309L284.094 83.3363V73.6191H283.07Z" fill="black"/>
<path d="M281.031 73.6191V83.6245L282.051 83.5255V73.6191H281.031Z" fill="black"/>
<path d="M278.992 73.6191V83.8137L280.016 83.7148V73.6191H278.992Z" fill="black"/>
<path d="M276.953 73.6191V84.003L277.977 83.9084V73.6191H276.953Z" fill="black"/>
<path d="M274.922 73.6191V84.1966L275.941 84.0976V73.6191H274.922Z" fill="black"/>
<path d="M272.882 73.6191V84.3858L273.906 84.2869V73.6191H272.882Z" fill="black"/>
<path d="M270.84 73.6191V84.5751L271.863 84.4805V73.6191H270.84Z" fill="black"/>
<path d="M268.809 73.6191V84.7687L269.828 84.6697V73.6191H268.809Z" fill="black"/>
<path d="M266.77 73.6191V84.9579L267.789 84.859V73.6191H266.77Z" fill="black"/>
<path d="M264.734 73.6191V85.1472L265.758 85.0526V73.6191H264.734Z" fill="black"/>
<path d="M262.695 73.6191V85.3408L263.715 85.2418V73.6191H262.695Z" fill="black"/>
<path d="M260.656 73.6191V85.53L261.68 85.4311V73.6191H260.656Z" fill="black"/>
<path d="M258.617 73.6191V85.7193L259.641 85.6247V73.6191H258.617Z" fill="black"/>
<path d="M256.582 73.6191V85.9129L257.602 85.814V73.6191H256.582Z" fill="black"/>
<path d="M254.547 73.6191V86.1021L255.567 86.0032V73.6191H254.547Z" fill="black"/>
<path d="M252.5 73.6191V86.2914L253.523 86.1968V73.6191H252.5Z" fill="black"/>
</g>
<path d="M5.56641 31.75H4.56845C3.91475 31.75 3.28784 32.0097 2.82561 32.4719C2.36337 32.9342 2.10369 33.5611 2.10369 34.2148V41.0241C2.10369 41.6778 2.36337 42.3047 2.82561 42.7669C3.28784 43.2292 3.91475 43.4888 4.56845 43.4888H5.56641V31.75Z" fill="#BC8D06"/>
<path d="M2.10938 35.2441H1.81687C1.43241 35.2441 1.06371 35.3969 0.791851 35.6687C0.519996 35.9406 0.367265 36.3093 0.367265 36.6938V38.552C0.367265 38.9365 0.519996 39.3052 0.791851 39.577C1.06371 39.8489 1.43241 40.0016 1.81687 40.0016H2.08787V35.2441H2.10938Z" fill="#263238"/>
<path d="M0.733817 37.3029H1.75758V29.758L11.3672 20.1484L10.6445 19.4258L0.733817 29.3365V37.3029Z" fill="#263238"/>
<path d="M10.8841 25.6687L11.3125 26.5938L1.47632 31.1491L1.0479 30.2241L10.8841 25.6687Z" fill="#263238"/>
<path d="M154.225 32.0898H165.516V76.8306H154.225V32.0898Z" fill="#37474F"/>
<path d="M154.224 32.0898H165.516V34.0126H154.224V32.0898Z" fill="#263238"/>
<path d="M165.516 75.5513L154.224 64.2598V69.6238L161.433 76.8331H165.516V75.5513Z" fill="#455A64"/>
<path d="M165.516 58.1919L154.224 46.9004V48.0102L165.516 59.3017V58.1919Z" fill="#455A64"/>
<path d="M136.651 32.0898H147.941V76.8306H136.651V32.0898Z" fill="#37474F"/>
<path d="M147.938 57.977L136.646 46.6855V52.0495L147.938 63.341V57.977Z" fill="#455A64"/>
<path d="M138.306 32.0898L147.938 41.721V40.6155L139.416 32.0898H138.306Z" fill="#455A64"/>
<path d="M136.646 32.0898H147.938V34.0126H136.646V32.0898Z" fill="#263238"/>
<path d="M211.996 60.4924L211.398 59.8945V60.4924H211.996Z" fill="#455A64"/>
<path d="M4.73781 60.4919H11.082V28.6074H6.71206L4.73781 60.4919Z" fill="#37474F"/>
<path d="M4.90936 57.7913L7.6107 60.4927H11.082V47.1494L5.88151 41.9531L4.90936 57.7913Z" fill="#455A64"/>
<path d="M6.52243 31.6668L11.082 36.2221V35.1123L6.58694 30.6172L6.52243 31.6668Z" fill="#455A64"/>
<path d="M3.31241 73.9238H5.56641V81.2192H3.31241V73.9238Z" fill="#BC8D06"/>
<path opacity="0.5" d="M3.31241 73.9238H5.56641V81.2192H3.31241V73.9238Z" fill="white"/>
<path d="M291.25 73.6191H292.824V77.8002H291.25V73.6191Z" fill="#BC8D06"/>
<path opacity="0.5" d="M291.25 73.6191H292.824V77.8002H291.25V73.6191Z" fill="white"/>
<path d="M291.25 68.0957H292.824V72.2768H291.25V68.0957Z" fill="#BC8D06"/>
<path opacity="0.5" d="M291.25 68.0957H292.824V72.2768H291.25V68.0957Z" fill="white"/>
</g>
</svg>
