<svg width="187" height="80" viewBox="0 0 187 80" fill="none" xmlns="http://www.w3.org/2000/svg">
<g opacity="0.15">
<path d="M173.656 54.6764H133.074C133.074 54.6764 137.507 35.7188 153.362 35.7188C169.216 35.7188 172.974 50.4443 173.656 54.6764Z" fill="#949494"/>
<path opacity="0.2" d="M173.656 54.6764H133.074C133.074 54.6764 137.507 35.7188 153.362 35.7188C169.216 35.7188 172.974 50.4443 173.656 54.6764Z" fill="#949494"/>
<path d="M55.8984 56.7233H15.3163C15.3163 56.7233 19.7497 37.7656 35.604 37.7656C51.4583 37.7656 55.1993 52.4911 55.8984 56.7233Z" fill="#949494"/>
<path opacity="0.2" d="M55.8984 56.7233H15.3163C15.3163 56.7233 19.7497 37.7656 35.604 37.7656C51.4583 37.7656 55.1993 52.4911 55.8984 56.7233Z" fill="#949494"/>
<path d="M182.94 20.1C183.81 21.4641 185.327 36.7046 185.426 37.2366C185.525 37.7686 186.79 40.1012 186.79 40.5445C186.79 40.9879 187.131 47.8493 186.944 48.2926C186.533 49.102 186.066 49.8815 185.545 50.6253C185.324 50.8913 179.574 55.8395 178.93 55.9077C178.285 55.976 172.338 56.0169 172.225 55.9077C172.112 55.7986 171.427 37.4923 153.38 37.4923C135.333 37.4923 135.531 56.9308 135.196 57.0059C134.862 57.0809 54.0765 58.9156 54.0765 58.9156C54.0765 55.9384 53.8446 38.2255 36.1419 38.2255C24.6084 38.2255 18.7803 47.7299 18.5791 54.7414C18.4973 57.6606 18.9849 60.8799 18.8246 60.8799C18.2926 60.8799 16.4715 61.0129 16.1612 60.8799C15.8509 60.7469 12.0689 58.2574 11.7654 58.1688C11.4619 58.0801 9.27933 58.0358 8.74731 57.9028C8.21532 57.7698 4.48448 54.4925 4.41629 54.3731C4.34808 54.2538 4.23894 52.9545 4.21849 52.8419C4.19803 52.7294 0.419464 48.1119 0.242126 47.6038C0.0647888 47.0956 -1.52588e-05 42.8737 -1.52588e-05 42.4509C-1.52588e-05 42.028 6.85805 30.9071 8.45746 29.7101C10.0569 28.5131 21.4437 24.5163 24.7755 23.9127C28.1074 23.3091 46.4205 20.5809 47.0855 20.1171C47.7505 19.6533 79.0226 1.7187 84.4619 0.385292C88.8577 -0.678709 139.739 0.784292 142.402 0.917292C145.066 1.05029 152.439 2.3837 153.148 2.3837C153.857 2.3837 162.015 2.33937 162.516 2.56104C163.017 2.78271 162.516 4.73679 161.895 5.09145C161.275 5.44612 181.429 17.7026 182.94 20.1Z" fill="#949494"/>
<path d="M181.776 18.9444C181.585 19.1217 178.403 19.2002 178.069 19.0672C177.735 18.9342 157.696 5.60347 157.683 5.2147C157.683 5.02031 161.434 5.07146 161.898 5.09193C162.362 5.11239 182.144 18.6102 181.776 18.9444Z" fill="#455A64"/>
<path d="M159.455 18.7328C158.585 21.2973 53.3342 26.0921 52.7578 24.8508C52.3316 23.93 61.7473 16.3694 66.1431 13.9038C70.5389 11.4382 83.1262 4.31417 89.3329 3.58097C95.5396 2.84776 108.089 2.89891 119.036 3.11717C129.895 3.31497 142.68 3.58097 147.208 5.50435C151.168 7.20948 160.144 16.6934 159.455 18.7328Z" fill="#263238"/>
<path d="M156.521 17.2354C156.258 18.2005 133.014 20.7002 105.773 21.9654C78.5317 23.2306 65.0816 23.4284 64.7474 23.2954C64.4132 23.1624 65.6818 15.9054 66.1456 15.3052C66.6094 14.705 86.1263 4.71631 89.1887 4.4469C92.2512 4.17749 108.805 4.1468 117.153 4.2798C125.501 4.4128 142.924 5.412 145.891 6.60901C148.507 7.66619 156.79 16.2703 156.521 17.2354Z" fill="#455A64"/>
<g opacity="0.1">
<path d="M120.455 4.3654L136.057 19.9673C138.839 19.7218 141.414 19.4763 143.726 19.241L129.27 4.78828C126.187 4.59048 123.115 4.44725 120.455 4.3654Z" fill="white"/>
<path d="M64.8012 21.7585L66.3734 23.3306C67.9648 23.3306 70.7101 23.2783 74.6091 23.1737L66.4927 15.0607C66.3717 15.1305 66.2575 15.2116 66.1517 15.3028C65.8141 15.7325 65.0706 19.5589 64.8012 21.7585Z" fill="white"/>
<path d="M108.825 4.21501L125.416 20.8162C126.746 20.7241 128.052 20.6286 129.324 20.5297L113.043 4.2457C111.707 4.22524 110.284 4.21501 108.825 4.21501Z" fill="white"/>
<path d="M73.2104 11.4853L84.5802 22.8619L88.6248 22.7119L76.0068 10.0939C75.0485 10.5611 74.1073 11.0283 73.2104 11.4853Z" fill="white"/>
<path d="M132.048 4.94548L146.081 18.9855L147.152 18.8662L133.32 5.03415L132.048 4.94548Z" fill="white"/>
<path d="M70.7921 12.7243L81.0229 22.9756L82.1755 22.9347L71.5628 12.3185L70.7921 12.7243Z" fill="white"/>
<path d="M85.5166 5.68249L101.971 22.137L103.117 22.0893L86.3521 5.33806L85.5166 5.68249Z" fill="white"/>
<path d="M143.2 6.01572L154.945 17.747C155.337 17.6686 155.661 17.5936 155.91 17.5185L144.656 6.26466C144.23 6.18282 143.745 6.09756 143.2 6.01572Z" fill="white"/>
</g>
<path d="M141.936 5.83818C141.827 5.83818 141.776 5.98141 141.871 6.23718C142.417 7.74792 146.676 16.3043 147.74 18.3027C147.807 18.4101 147.895 18.503 147.999 18.5757C148.103 18.6483 148.22 18.6993 148.344 18.7255L140.841 19.527C140.973 19.4741 141.082 19.3771 141.15 19.2527C141.217 19.1282 141.24 18.9841 141.213 18.8449C141.138 18.3709 138.352 8.31402 137.462 5.84158C137.362 5.61267 137.184 5.42656 136.96 5.31641C136.81 5.31641 138.239 5.33687 139.596 5.47669C140.804 5.60628 141.936 5.83818 141.936 5.83818Z" fill="#263238"/>
<path d="M132.051 4.94513C132.051 4.94513 131.914 5.02016 131.908 5.28616C131.86 7.65288 131.594 19.5035 131.822 20.1515C131.837 20.2159 131.876 20.2721 131.931 20.3084L130.513 20.4209C130.586 20.3211 130.631 20.2032 130.642 20.0799C130.803 18.078 130.946 7.21295 130.919 5.20431C130.91 5.0797 130.864 4.96068 130.786 4.86328L132.051 4.94513Z" fill="#263238"/>
<path d="M108.713 4.70347C108.546 5.22865 108.269 20.701 108.269 21.1989C108.269 21.6968 108.839 21.8162 108.839 21.8162L100.044 22.2254C100.044 22.2254 100.613 22.0651 100.726 21.7991C100.838 21.5331 103.59 4.85011 103.573 4.63185C103.556 4.4136 103.123 4.20898 103.123 4.20898H109.262C109.141 4.24975 109.031 4.31463 108.936 4.39965C108.842 4.48467 108.766 4.58805 108.713 4.70347Z" fill="#263238"/>
<path d="M181.383 22.2763C182.464 22.4127 184.893 24.9397 185.07 25.4717C185.247 26.0037 185.912 29.6015 185.558 30.1335C185.203 30.6655 183.914 31.9989 182.806 32.0433C181.697 32.0876 176.278 29.5129 175.791 29.0695C175.303 28.6262 174.948 25.9218 175.525 25.0522C176.101 24.1826 180.009 22.0989 181.383 22.2763Z" fill="white"/>
<path d="M175.793 29.0696C176.28 29.5129 181.699 32.0877 182.808 32.0433C183.653 32.0092 184.605 31.2249 185.164 30.6178C184.534 31.0739 183.773 31.3132 182.995 31.2999C182.398 31.2453 177.324 29.0628 176.673 28.466C176.021 27.8692 175.99 25.6218 176.079 25.216C176.168 24.8102 179.442 22.6992 179.442 22.6992C177.822 23.3233 175.915 24.4623 175.527 25.0489C174.95 25.9322 175.305 28.6228 175.793 29.0696Z" fill="#EBEBEB"/>
<path d="M185.868 42.3643C186.169 42.6644 186.271 44.9186 185.957 45.1164C185.643 45.3142 183.826 45.2938 183.471 45.1164C183.116 44.9391 182.206 43.251 182.274 42.6747C182.342 42.0983 185.514 42.0097 185.868 42.3643Z" fill="white"/>
<path d="M23.7886 29.8878C22.8303 31.4395 15.795 34.1847 13.1657 34.6178C11.5083 34.8906 5.77221 35.2521 5.43801 34.9588C5.1038 34.6656 7.86953 30.829 9.30184 29.8946C10.7341 28.9602 17.8923 26.5662 20.0578 26.6651C22.2233 26.764 24.7537 28.3191 23.7886 29.8878Z" fill="white"/>
<path d="M5.44023 34.9506C5.78125 35.2507 11.5105 34.8892 13.1679 34.6095C15.7972 34.1764 22.8326 31.4312 23.7908 29.8795C24.7491 28.3278 22.2255 26.7523 20.06 26.65C19.8919 26.6401 19.7234 26.6401 19.5553 26.65C21.5708 27.3934 21.9834 28.9689 20.7557 29.8693C19.528 30.7696 15.5926 32.8737 14.0205 33.3136C12.5063 33.7399 6.85891 34.6198 6.36783 34.2344C6.27426 34.1234 6.20645 33.993 6.1693 33.8527C6.13215 33.7123 6.12658 33.5655 6.15298 33.4227C5.63462 34.2173 5.31405 34.838 5.44023 34.9506Z" fill="#EBEBEB"/>
<g opacity="0.5">
<path d="M158.912 29.5256C158.906 30.4731 159.273 31.385 159.936 32.0628C160.608 32.7542 161.527 33.1505 162.491 33.1646C163.456 33.1786 164.386 32.8094 165.078 32.1378C165.428 31.7989 165.706 31.3932 165.896 30.9447C166.086 30.4963 166.184 30.0143 166.184 29.5273C166.184 29.0403 166.086 28.5582 165.896 28.1098C165.706 27.6613 165.428 27.2556 165.078 26.9167C164.736 26.5834 164.331 26.3209 163.887 26.1442C163.443 25.9675 162.969 25.8801 162.491 25.8871C162.014 25.8941 161.542 25.9952 161.103 26.1848C160.665 26.3743 160.268 26.6485 159.936 26.9917C159.274 27.6683 158.906 28.5791 158.912 29.5256ZM158.912 29.5256C158.92 28.5836 159.302 27.6832 159.973 27.0224C160.305 26.7023 160.697 26.4509 161.127 26.2823C161.556 26.1138 162.015 26.0316 162.476 26.0403C163.393 26.0587 164.266 26.4387 164.904 27.0975C165.536 27.7485 165.89 28.62 165.89 29.5273C165.89 30.4345 165.536 31.3061 164.904 31.9571C164.266 32.6158 163.393 32.9958 162.476 33.0142C162.015 33.023 161.556 32.9407 161.127 32.7722C160.697 32.6037 160.305 32.3522 159.973 32.0321C159.302 31.3696 158.921 30.4684 158.912 29.5256Z" fill="#949494"/>
<path d="M173.651 40.3448C174.013 39.54 174.333 38.7284 174.674 37.9099C175.015 37.0915 175.302 36.273 175.616 35.4511C175.929 34.6292 176.212 33.8006 176.492 32.9684C176.772 32.1363 177.051 31.3008 177.297 30.4551C176.932 31.2599 176.615 32.0715 176.274 32.8866C175.933 33.7016 175.646 34.5269 175.329 35.3488C175.012 36.1707 174.732 36.9994 174.453 37.8315C174.173 38.6636 173.904 39.4991 173.651 40.3448Z" fill="#949494"/>
<path d="M186.148 40.3467C184.399 40.3126 182.653 40.316 180.903 40.3228L175.662 40.3774L170.42 40.5036C168.674 40.5581 166.928 40.6161 165.182 40.7082C166.928 40.7423 168.678 40.7389 170.424 40.7354L175.669 40.6775L180.91 40.5513C182.656 40.4967 184.402 40.4388 186.148 40.3467Z" fill="#949494"/>
<path d="M103.625 23.3379L103.025 27.5973L102.766 29.7321C102.725 30.0902 102.687 30.4449 102.66 30.8064C102.633 31.1678 102.66 31.5225 102.66 31.884L102.718 40.4847L102.786 44.7884L102.824 46.9369L102.841 48.0145L102.922 49.0854L103.264 53.3755L103.625 57.6451L103.407 53.3516L103.161 49.0615L103.1 47.9873V46.913L103.079 44.7646L103.035 40.471L102.888 31.8772C102.888 31.5191 102.858 31.1576 102.888 30.8064C102.919 30.4551 102.94 30.0936 102.974 29.739L103.188 27.6007L103.625 23.3379Z" fill="#949494"/>
<path d="M56.3974 25.2932L55.6574 29.573L55.3163 31.7283L55.2277 32.2637C55.1891 32.442 55.1674 32.6236 55.1629 32.806C55.1629 33.1674 55.1629 33.5289 55.1629 33.8938C55.1867 36.7891 55.2584 39.6913 55.347 42.5764C55.3698 43.2993 55.4004 44.0223 55.4391 44.7453C55.4796 45.4748 55.6196 46.1953 55.8551 46.8869C56.2507 48.2817 56.7043 49.6561 57.2022 51.0202C57.6878 52.3882 58.2666 53.7213 58.9346 55.0102L59.204 55.4876C59.2961 55.6445 59.4018 55.7945 59.5007 55.948C59.6043 56.1021 59.7183 56.2491 59.8417 56.3879L60.0191 56.6028C60.1153 56.6602 60.2243 56.693 60.3362 56.6982C61.0694 56.7733 61.789 56.7835 62.5154 56.8074C68.3128 56.9267 74.0932 56.8756 79.8839 56.8347C85.6745 56.7937 91.4617 56.7085 97.2523 56.6028C103.043 56.497 108.827 56.3368 114.614 56.1253C117.506 56.006 120.411 55.9105 123.29 55.6513C123.66 55.624 124.027 55.5658 124.388 55.4774C124.592 55.3989 124.712 55.3034 124.886 55.2284C125.06 55.1534 125.206 55.0716 125.37 54.9965C126.028 54.6998 126.703 54.4372 127.358 54.1099C128.022 53.7951 128.636 53.3862 129.183 52.8958C129.658 52.34 130.098 51.7545 130.499 51.1429C132.129 48.7557 133.688 46.3072 135.243 43.8688C136.798 41.4305 138.339 38.9751 139.87 36.5197C141.402 34.0643 142.912 31.5919 144.406 29.1126L144.958 28.1782L145.091 27.9327L145.156 27.8099C145.167 27.7652 145.173 27.7195 145.173 27.6735L145.228 27.1347C145.289 26.4117 145.344 25.6887 145.371 24.9658C145.371 24.785 145.371 24.6043 145.371 24.4201C145.348 24.2398 145.309 24.0619 145.255 23.8881C145.156 23.5471 145.037 23.2061 144.914 22.865C144.672 22.183 144.413 21.5009 144.143 20.8359C144.407 21.518 144.658 22.2 144.897 22.8821C145.013 23.2231 145.129 23.5641 145.238 23.9052C145.29 24.0779 145.328 24.2547 145.351 24.4338C145.351 24.6145 145.351 24.7953 145.351 24.976C145.32 25.6956 145.255 26.4185 145.19 27.1381L145.132 27.6769C145.129 27.7217 145.122 27.7662 145.112 27.8099L145.047 27.9259C145.003 28.0009 144.965 28.0759 144.918 28.1544L144.358 29.0854C142.848 31.551 141.289 34.003 139.761 36.4515C136.692 41.3452 133.599 46.2526 130.349 51.0406C129.955 51.6352 129.524 52.2047 129.06 52.7458C128.525 53.2204 127.926 53.6165 127.28 53.9223C126.635 54.2394 125.963 54.4986 125.298 54.7987C125.131 54.8738 124.957 54.9488 124.804 55.0306C124.65 55.1125 124.463 55.2216 124.33 55.2693C123.986 55.3477 123.638 55.4001 123.286 55.4262C120.411 55.6786 117.513 55.7672 114.621 55.873C108.823 56.0708 103.05 56.1969 97.2625 56.3027C91.4753 56.4084 85.6881 56.5209 79.8975 56.5857C74.1069 56.6505 68.3026 56.7119 62.5359 56.6096C61.8163 56.5891 61.0865 56.5789 60.3772 56.5073C60.2953 56.5073 60.1896 56.4732 60.1759 56.4697L60.0054 56.2651C59.8881 56.1312 59.781 55.9888 59.6849 55.8389C59.5894 55.6888 59.4837 55.5422 59.3916 55.3887L59.1256 54.9215C58.4462 53.6386 57.8571 52.3099 57.3625 50.9451C56.86 49.581 56.4053 48.209 55.9984 46.8289C55.7665 46.1493 55.6266 45.4416 55.5823 44.7248L55.4834 42.5559C55.3675 39.664 55.272 36.7584 55.2243 33.8768C55.2243 33.5153 55.2243 33.1538 55.2243 32.7957C55.2295 32.6147 55.2501 32.4345 55.2856 32.2569L55.3709 31.7215L55.7119 29.5799L56.3974 25.2932Z" fill="#949494"/>
<path d="M19.1443 32.6523C19.8962 33.2849 20.6941 33.8606 21.5315 34.3745C22.3602 34.9099 23.206 35.4147 24.0449 35.9296C24.8838 36.4446 25.75 36.922 26.606 37.3994C27.462 37.8769 28.3316 38.3441 29.2148 38.784C28.393 38.2384 27.5575 37.7166 26.7219 37.1982L24.1983 35.6704L21.6543 34.1801L20.3788 33.4367C19.952 33.2003 19.5397 32.9383 19.1443 32.6523Z" fill="#949494"/>
<path d="M141.004 41.1191L129.73 41.4158L118.452 41.7569L95.8998 42.4457L73.3512 43.2335L62.0768 43.6291L50.8059 44.0724L62.0837 43.7757L73.358 43.4347L95.91 42.7458L118.459 41.9581L129.733 41.5591L141.004 41.1191Z" fill="#949494"/>
<path d="M141.666 24.9599L142.11 24.9837H142.219C142.243 24.9837 142.246 25.0042 142.26 25.0383C142.279 25.1077 142.292 25.1783 142.301 25.2497C142.328 25.5387 142.334 25.8295 142.318 26.1193C142.314 26.2632 142.301 26.4067 142.28 26.549C142.272 26.6132 142.256 26.6761 142.232 26.7366H142.198H142.117C141.83 26.7639 141.533 26.7707 141.243 26.7809C140.07 26.8184 138.894 26.856 137.721 26.8764L135.961 26.9276H135.081H134.706C134.687 26.8927 134.671 26.8562 134.658 26.8185C134.641 26.7522 134.627 26.6851 134.617 26.6173C134.579 26.3325 134.567 26.0449 134.58 25.7579C134.584 25.6151 134.596 25.4728 134.617 25.3316C134.626 25.2752 134.642 25.2202 134.665 25.1679C134.716 25.1427 134.772 25.1265 134.829 25.1201C135.398 25.0212 135.992 24.9871 136.575 24.9292C135.984 24.9128 135.394 24.9287 134.805 24.9769C134.717 24.9782 134.63 25.0042 134.556 25.0519C134.502 25.1238 134.466 25.2083 134.454 25.2975C134.422 25.4459 134.4 25.5963 134.389 25.7476C134.363 26.0472 134.363 26.3484 134.389 26.6479C134.397 26.7259 134.409 26.8034 134.426 26.8798C134.442 26.9872 134.5 27.084 134.587 27.1493C134.611 27.1672 134.641 27.1768 134.672 27.1765H134.74H134.859H135.964L137.731 27.1527C138.904 27.1083 140.081 27.0742 141.254 26.989C141.55 26.9617 141.84 26.9446 142.14 26.9003C142.185 26.8978 142.228 26.8886 142.27 26.873C142.296 26.8685 142.322 26.8593 142.345 26.8457C142.37 26.8252 142.389 26.798 142.4 26.7673C142.43 26.6909 142.448 26.6104 142.454 26.5286C142.47 26.3791 142.476 26.2287 142.471 26.0784C142.467 25.7811 142.438 25.4845 142.386 25.1918C142.372 25.1174 142.351 25.0443 142.325 24.9735C142.318 24.9541 142.309 24.9357 142.297 24.9189C142.289 24.9079 142.278 24.899 142.266 24.8931C142.253 24.8871 142.239 24.8843 142.226 24.8848H142.117L141.666 24.9599Z" fill="#949494"/>
<path d="M98.5138 26.0268L98.9538 26.0507H99.0629C99.0868 26.0507 99.0936 26.0712 99.1072 26.1053C99.1266 26.1744 99.1392 26.2452 99.1447 26.3167C99.1737 26.6056 99.1806 26.8964 99.1652 27.1863C99.1652 27.333 99.1481 27.4762 99.1277 27.616C99.1181 27.6803 99.1009 27.7433 99.0765 27.8036H99.0458H98.9606C98.6741 27.8309 98.3774 27.8377 98.0875 27.8479C96.9144 27.8854 95.7413 27.9229 94.5682 27.9434L92.8051 27.9946H91.9286H91.5671C91.5467 27.9946 91.533 27.9946 91.5671 27.9946C91.5471 27.9618 91.5321 27.9261 91.5228 27.8888C91.5041 27.8227 91.4893 27.7555 91.4785 27.6876C91.442 27.4027 91.4295 27.1153 91.441 26.8283C91.446 26.6855 91.4596 26.5431 91.4819 26.402C91.4903 26.3459 91.5052 26.291 91.5262 26.2383C91.5776 26.2131 91.633 26.1969 91.6899 26.1905C92.2628 26.0916 92.8528 26.0575 93.4359 25.9996C92.8467 25.9837 92.2571 25.9985 91.6694 26.0439C91.5807 26.0459 91.4943 26.0731 91.4205 26.1223C91.3653 26.1941 91.329 26.2785 91.3148 26.3679C91.2841 26.5179 91.267 26.668 91.25 26.818C91.2244 27.1176 91.2244 27.4188 91.25 27.7183C91.2577 27.7963 91.2703 27.8738 91.2875 27.9502C91.3216 28.0287 91.308 28.1139 91.4478 28.2196C91.4736 28.2381 91.5047 28.2477 91.5364 28.2469H91.6012H91.7206H92.8289L94.592 28.2231C95.7686 28.1787 96.9417 28.1446 98.1182 28.056C98.4115 28.0321 98.7014 28.0116 99.0015 27.9707C99.0469 27.9679 99.0917 27.9587 99.1345 27.9434C99.1592 27.9368 99.1832 27.9276 99.2061 27.9161C99.2304 27.894 99.25 27.8674 99.2641 27.8377C99.2927 27.7611 99.31 27.6806 99.3152 27.599C99.3305 27.4494 99.3373 27.2991 99.3357 27.1488C99.3283 26.8515 99.2987 26.5551 99.247 26.2622C99.2341 26.1878 99.2147 26.1148 99.1891 26.0439C99.1809 26.0246 99.1706 26.0063 99.1584 25.9893C99.1503 25.978 99.1395 25.969 99.127 25.963C99.1144 25.9571 99.1006 25.9544 99.0868 25.9552H98.9776L98.5138 26.0268Z" fill="#949494"/>
</g>
<path d="M141.857 67.4349C135.304 60.8812 135.304 50.2555 141.857 43.7018C148.411 37.148 159.037 37.148 165.59 43.7018C172.144 50.2555 172.144 60.8812 165.59 67.4349C159.037 73.9887 148.411 73.9887 141.857 67.4349Z" fill="#263238"/>
<path d="M145.062 64.2326C140.277 59.4475 140.277 51.6893 145.062 46.9041C149.847 42.119 157.605 42.119 162.39 46.9041C167.176 51.6893 167.176 59.4475 162.39 64.2326C157.605 69.0177 149.847 69.0177 145.062 64.2326Z" fill="#DBDBDB"/>
<path d="M153.725 66.8679C147.485 66.8679 142.427 61.8095 142.427 55.5697C142.427 49.3299 147.485 44.2715 153.725 44.2715C159.965 44.2715 165.023 49.3299 165.023 55.5697C165.023 61.8095 159.965 66.8679 153.725 66.8679Z" fill="#A6A6A6"/>
<path d="M151.953 52.7369H155.503C154.306 51.0045 158.477 44.9683 158.477 44.9683L156.604 44.3477C155.363 46.4791 154.742 47.1031 153.719 47.1031C152.696 47.1031 152.079 46.4791 150.834 44.3477L148.969 44.9717C148.969 44.9717 153.15 51.0045 151.953 52.7369Z" fill="#DBDBDB"/>
<path d="M155.797 52.952L156.892 56.3282C158.167 54.6538 165.199 56.7579 165.199 56.7579V54.7902C162.788 54.2684 162.004 53.8694 161.687 52.8975C161.369 51.9256 161.775 51.1446 163.416 49.2996L162.246 47.7207C162.246 47.7207 157.813 53.5557 155.797 52.952Z" fill="#DBDBDB"/>
<path d="M156.781 56.6758L153.91 58.7629C155.898 59.4449 156.069 66.794 156.069 66.794L157.944 66.2041C157.699 63.7487 157.832 62.879 158.66 62.2788C159.489 61.6786 160.366 61.8185 162.616 62.8108L163.766 61.2114C163.766 61.2114 156.829 58.7799 156.781 56.6758Z" fill="#DBDBDB"/>
<path d="M153.531 58.7629L150.66 56.6758C150.612 58.7799 143.686 61.2114 143.686 61.2114L144.828 62.8143C147.086 61.8185 147.955 61.6786 148.781 62.2788C149.606 62.879 149.742 63.7487 149.497 66.2041L151.373 66.794C151.373 66.794 151.553 59.4586 153.531 58.7629Z" fill="#DBDBDB"/>
<path d="M150.558 56.3282L151.656 52.952C149.641 53.5557 145.177 47.7207 145.177 47.7207L144.004 49.3031C145.647 51.1412 146.05 51.9256 145.736 52.8975C145.422 53.8694 144.631 54.2616 142.22 54.7936L142.241 56.7579C142.241 56.7579 149.283 54.6538 150.558 56.3282Z" fill="#DBDBDB"/>
<path d="M153.727 58.7684C151.915 58.7684 150.446 57.2996 150.446 55.4877C150.446 53.6758 151.915 52.207 153.727 52.207C155.539 52.207 157.008 53.6758 157.008 55.4877C157.008 57.2996 155.539 58.7684 153.727 58.7684Z" fill="#DBDBDB"/>
<path d="M30.4305 70.3226C21.7182 67.1714 17.2101 57.5541 20.3614 48.8418C23.5126 40.1295 33.1299 35.6214 41.8422 38.7727C50.5545 41.9239 55.0626 51.5412 51.9113 60.2535C48.7601 68.9658 39.1428 73.4739 30.4305 70.3226Z" fill="#263238"/>
<path d="M24.4435 58.7037C22.716 52.1607 26.6197 45.4562 33.1627 43.7286C39.7056 42.0011 46.4102 45.9048 48.1377 52.4478C49.8652 58.9908 45.9615 65.6953 39.4185 67.4228C32.8756 69.1504 26.171 65.2466 24.4435 58.7037Z" fill="#DBDBDB"/>
<path d="M36.2955 66.8679C30.0557 66.8679 24.9974 61.8095 24.9974 55.5697C24.9974 49.3299 30.0557 44.2715 36.2955 44.2715C42.5354 44.2715 47.5938 49.3299 47.5938 55.5697C47.5938 61.8095 42.5354 66.8679 36.2955 66.8679Z" fill="#A6A6A6"/>
<path d="M34.5162 52.7364H38.0731C36.8727 51.004 41.0469 44.9678 41.0469 44.9678L39.1815 44.3438C37.9401 46.4752 37.3194 47.0992 36.2964 47.0992C35.2733 47.0992 34.656 46.4752 33.4079 44.3438L31.5459 44.9678C31.5459 44.9678 35.72 51.004 34.5162 52.7364Z" fill="#DBDBDB"/>
<path d="M38.3699 52.952L39.4646 56.3282C40.7401 54.6538 47.772 56.7579 47.772 56.7579L47.7891 54.7902C45.378 54.2684 44.5936 53.8694 44.2765 52.8975C43.9593 51.9256 44.3652 51.1446 46.0055 49.2996L44.8358 47.7207C44.8358 47.7207 40.3854 53.5557 38.3699 52.952Z" fill="#DBDBDB"/>
<path d="M39.3502 56.6758L36.4788 58.7629C38.4636 59.4449 38.6375 66.794 38.6375 66.794L40.5131 66.2041C40.2642 63.7487 40.4006 62.879 41.2259 62.2788C42.0512 61.6786 42.931 61.8185 45.1818 62.8108L46.3242 61.2114C46.3242 61.2114 39.398 58.7799 39.3502 56.6758Z" fill="#DBDBDB"/>
<path d="M36.1094 58.7629L33.2379 56.6758C33.1902 58.7799 26.2674 61.2114 26.2674 61.2114L27.4098 62.8143C29.6674 61.8185 30.537 61.6786 31.3623 62.2788C32.1876 62.879 32.324 63.7487 32.0784 66.2041L33.9541 66.794C33.9541 66.794 34.1246 59.4586 36.1094 58.7629Z" fill="#DBDBDB"/>
<path d="M33.1284 56.3282L34.2266 52.952C32.2111 53.5557 27.7471 47.7207 27.7471 47.7207L26.5773 49.3031C28.2211 51.1412 28.6235 51.9256 28.3063 52.8975C27.9892 53.8694 27.2048 54.2616 24.7938 54.7936L24.8142 56.7579C24.8142 56.7579 31.853 54.6538 33.1284 56.3282Z" fill="#DBDBDB"/>
<path d="M36.2935 58.7684C34.4817 58.7684 33.0129 57.2996 33.0129 55.4877C33.0129 53.6758 34.4817 52.207 36.2935 52.207C38.1054 52.207 39.5742 53.6758 39.5742 55.4877C39.5742 57.2996 38.1054 58.7684 36.2935 58.7684Z" fill="#DBDBDB"/>
<path d="M68.603 17.0351C69.2134 17.649 69.1588 23.119 68.7155 23.5624C68.2722 24.0057 62.1882 24.4081 61.7006 21.0115C61.2129 17.6149 67.6481 16.0803 68.603 17.0351Z" fill="#949494"/>
<path d="M46.401 20.3044H51.3493C64.2265 11.8095 81.8984 3.40319 81.8984 3.40319L78.9656 2.69727C68.2676 7.87404 47.639 19.7179 47.0967 20.0896C46.8742 20.1886 46.6406 20.2607 46.401 20.3044Z" fill="#455A64"/>
<g opacity="0.5">
<path d="M173.656 44.6071C172.624 42.9026 171.362 41.3487 169.905 39.9896C168.448 38.6171 166.823 37.4346 165.069 36.4702C161.532 34.5487 157.56 33.5704 153.536 33.6295L152.035 33.6977L151.285 33.7352C151.036 33.7625 150.787 33.8034 150.538 33.8375L149.051 34.0489C148.56 34.1512 148.076 34.2808 147.588 34.39C145.637 34.8722 143.778 35.6693 142.084 36.7499C140.401 37.8374 138.898 39.1813 137.63 40.733C136.395 42.2996 135.34 43.9994 134.483 45.8007C135.403 44.0409 136.508 42.3843 137.78 40.8592C139.061 39.3517 140.568 38.0528 142.248 37.0091C145.61 34.9117 149.604 34.0592 153.536 34.0217C155.511 33.9906 157.482 34.2025 159.405 34.6526C161.327 35.1099 163.183 35.8089 164.929 36.7328C166.682 37.6564 168.311 38.7964 169.779 40.126C171.262 41.4429 172.566 42.9496 173.656 44.6071Z" fill="white"/>
<path d="M56.0781 44.6072C55.0463 42.9027 53.7839 41.3488 52.3268 39.9897C50.8657 38.6163 49.2362 37.4337 47.4774 36.4703C43.9386 34.5477 39.9641 33.5693 35.9371 33.6296L34.4366 33.6978L33.6864 33.7353C33.4374 33.7626 33.1885 33.8035 32.9429 33.8376L31.4526 34.049C30.965 34.1513 30.4773 34.2809 29.9896 34.3901C28.0388 34.8723 26.1797 35.6694 24.4855 36.75C22.8024 37.8375 21.2996 39.1814 20.0317 40.7331C18.7967 42.2997 17.7409 43.9995 16.884 45.8008C17.8593 44.0684 18.8654 42.3462 20.1817 40.8593C21.4636 39.3534 22.9705 38.0547 24.6492 37.0091C28.0117 34.9118 32.0051 34.0593 35.9405 34.0218C37.9142 33.9909 39.8842 34.2028 41.8062 34.6527C45.6695 35.5757 49.2375 37.4583 52.1802 40.1261C53.672 41.4408 54.9828 42.9476 56.0781 44.6072Z" fill="white"/>
<path d="M171.234 16.7547C168.619 14.7086 165.966 12.7067 163.295 10.7322C160.625 8.75767 157.924 6.81723 155.145 4.9791C154.804 4.75743 154.442 4.53236 154.077 4.32433C153.897 4.2152 153.712 4.1129 153.518 4.01741C153.322 3.92193 153.118 3.84542 152.908 3.78892C152.103 3.55361 151.298 3.349 150.493 3.14779C148.877 2.74879 147.26 2.36684 145.627 2.04969C143.987 1.73504 142.324 1.56388 140.655 1.53815C138.99 1.50404 137.33 1.50745 135.669 1.58589C137.33 1.58589 138.99 1.63363 140.644 1.73594C142.298 1.79767 143.944 2.00306 145.562 2.34979C147.178 2.71469 148.798 3.08641 150.401 3.49905C151.206 3.70707 152.011 3.9151 152.788 4.15382C152.979 4.20502 153.164 4.27587 153.341 4.36525C153.518 4.45733 153.699 4.55623 153.873 4.66195C154.214 4.86997 154.575 5.09164 154.923 5.31672C157.702 7.11733 160.38 9.068 163.108 10.9812L171.234 16.7547Z" fill="white"/>
</g>
<path opacity="0.1" d="M41.0429 38.7325C53.8996 41.6722 54.0872 56.234 54.0872 58.9042C54.0872 58.9042 134.876 57.0627 135.207 56.9945C135.476 56.9365 135.395 44.189 144.93 39.3293C140.646 41.4471 135.159 46.5761 133.082 54.0651C132.857 54.8631 121.092 56.1112 100.982 56.7558C80.8714 57.4003 63.3904 56.9945 60.0585 56.5273C56.7267 56.0601 52.8629 38.6814 41.0429 38.7325Z" fill="#949494"/>
<path opacity="0.1" d="M0.258389 47.5832C0.435722 48.0947 4.2143 52.6986 4.23135 52.8213C4.2484 52.9441 4.36436 54.2195 4.43257 54.356C4.50077 54.4924 8.23158 57.7662 8.76358 57.8822C9.29558 57.9981 11.4713 58.0595 11.7783 58.1482C12.0852 58.2368 15.8706 60.7229 16.1775 60.8559C16.4844 60.9889 18.3089 60.8559 18.8409 60.8559C19.0012 60.8559 18.4999 57.6469 18.5954 54.7174C18.742 49.6293 21.8488 43.2249 27.9531 40.0977C24.6418 40.8036 19.1171 45.3256 16.8868 49.9874C14.6565 54.6492 15.2294 54.9937 14.7077 55.5564C14.1859 56.1191 12.4569 54.9834 11.6589 54.7822C10.8609 54.581 8.24864 54.5162 7.25966 54.3184C6.27069 54.1206 6.10016 52.32 5.4147 51.9313C4.72924 51.5425 1.24736 48.7597 0.258389 47.5832Z" fill="#949494"/>
</g>
</svg>
