<svg width="54" height="24" viewBox="0 0 54 24" fill="none" xmlns="http://www.w3.org/2000/svg">
<mask id="mask0_1_9174" style="mask-type:luminance" maskUnits="userSpaceOnUse" x="0" y="0" width="54" height="24">
<path d="M53.5 0H0.5V24H53.5V0Z" fill="white"/>
</mask>
<g mask="url(#mask0_1_9174)">
<path d="M1.83125 8.27606C2.10658 5.05452 0.5 4.07812 0.5 4.07812C0.5 4.07812 0.879075 5.44446 0.601955 8.94943C0.413316 11.339 1.27207 13.1915 1.77107 14.3354C1.84203 14.4977 2.08322 14.3715 2.03831 14.2031C1.58602 12.5105 1.60399 10.9397 1.83125 8.27606Z" fill="#FF4612"/>
</g>
<mask id="mask1_1_9174" style="mask-type:luminance" maskUnits="userSpaceOnUse" x="0" y="0" width="54" height="24">
<path d="M53.5 0H0.5V24H53.5V0Z" fill="white"/>
</mask>
<g mask="url(#mask1_1_9174)">
<path d="M9.53673 23.5059C11.6445 21.5985 14.643 15.917 14.6983 11.6095C14.2114 11.7521 13.2462 12.2677 12.8891 13.86C12.6839 14.7744 12.1063 16.9349 9.97913 16.7486C7.02962 16.4906 7.4572 10.958 12.0757 11.4593C14.2585 11.6964 14.6129 10.1384 14.6129 9.92986C14.1346 10.1473 13.4142 10.0564 12.7373 9.97621C8.57601 9.47976 6.57823 11.8439 6.57823 14.5422C6.57823 16.1622 7.63955 17.5227 8.83606 18.2803C9.4725 18.6823 9.01482 19.0758 8.54188 18.7375C7.28338 17.8364 5.81379 16.6457 5.81379 14.1077C5.81379 9.87014 10.1709 8.0292 11.1945 7.2725C12.7131 6.14904 13.4447 5.22166 13.0746 3.56878C12.4737 4.66639 10.9978 5.62541 9.89649 6.20608C6.92048 7.77563 4.58764 10.0609 4.58764 13.417C4.58764 16.0579 5.7563 17.5084 7.16032 18.6314C7.47876 18.8859 7.14146 19.2424 6.73364 18.9167C4.49916 17.1296 3.76167 15.151 3.76167 12.6086C3.76167 7.8046 9.86639 3.46093 7.12124 0.000976562C7.15942 3.53357 2.55573 6.61875 2.55573 12.4629C2.55573 15.0868 3.61749 17.6911 6.57778 19.7509C8.3218 20.9648 8.56883 22.3548 8.31371 23.6124C8.19963 24.2915 9.02875 23.9653 9.53673 23.5059Z" fill="#FF4612"/>
</g>
<mask id="mask2_1_9174" style="mask-type:luminance" maskUnits="userSpaceOnUse" x="0" y="0" width="54" height="24">
<path d="M53.5 0H0.5V24H53.5V0Z" fill="white"/>
</mask>
<g mask="url(#mask2_1_9174)">
<path d="M25.7579 9.92798C25.3833 9.92798 25.0518 10.2025 25.0011 10.5764C24.9341 11.071 25.3846 11.5011 25.8787 11.4213C26.3171 11.3505 26.6108 10.9008 26.4909 10.4743C26.4001 10.149 26.092 9.92798 25.7579 9.92798Z" fill="black"/>
</g>
<mask id="mask3_1_9174" style="mask-type:luminance" maskUnits="userSpaceOnUse" x="0" y="0" width="54" height="24">
<path d="M53.5 0H0.5V24H53.5V0Z" fill="white"/>
</mask>
<g mask="url(#mask3_1_9174)">
<path d="M50.8294 14.0708C50.8294 12.5944 50.1378 12.0369 48.6322 12.0369C47.5112 12.0369 46.4593 12.4477 46.4593 12.8595C46.4593 13.0012 46.5918 13.3702 46.8065 13.6153C47.3356 13.3141 47.7923 13.1046 48.3969 13.1046C49.3563 13.1046 49.3715 13.5409 49.3715 14.0815C47.8004 14.0815 46.1224 14.4095 46.1224 15.9607C46.1224 16.9977 46.7494 17.631 47.8377 17.631C48.5959 17.631 49.0167 17.3543 49.4834 17.0521C49.6828 17.6871 50.5829 17.5971 51.0558 17.3886C50.877 17.1047 50.8285 16.8008 50.8285 16.1216L50.8294 14.0708ZM49.3724 16.1501C49.0657 16.438 48.7405 16.594 48.3421 16.594C47.3957 16.594 47.3544 15.5512 47.9163 15.1764C48.2693 14.9416 48.9174 14.8698 49.3724 14.8698V16.1501Z" fill="black"/>
</g>
<mask id="mask4_1_9174" style="mask-type:luminance" maskUnits="userSpaceOnUse" x="0" y="0" width="54" height="24">
<path d="M53.5 0H0.5V24H53.5V0Z" fill="white"/>
</mask>
<g mask="url(#mask4_1_9174)">
<path d="M36.1896 14.0708C36.1896 12.5944 35.4984 12.0369 33.9929 12.0369C32.8718 12.0369 31.8195 12.4477 31.8195 12.8595C31.8195 13.0012 31.952 13.3702 32.1671 13.6153C32.6962 13.3141 33.153 13.1046 33.7575 13.1046C34.7169 13.1046 34.7322 13.5409 34.7322 14.0815C33.1611 14.0815 31.4831 14.4095 31.4831 15.9607C31.4831 16.9977 32.1096 17.631 33.1984 17.631C33.9565 17.631 34.3774 17.3543 34.8436 17.0521C35.0434 17.6871 35.9435 17.5971 36.4165 17.3886C36.2377 17.1047 36.1892 16.8008 36.1892 16.1216L36.1896 14.0708ZM34.7331 16.1501C34.4263 16.438 34.1011 16.594 33.7027 16.594C32.7564 16.594 32.7151 15.5512 33.277 15.1764C33.63 14.9416 34.2781 14.8698 34.7331 14.8698V16.1501Z" fill="black"/>
</g>
<mask id="mask5_1_9174" style="mask-type:luminance" maskUnits="userSpaceOnUse" x="0" y="0" width="54" height="24">
<path d="M53.5 0H0.5V24H53.5V0Z" fill="white"/>
</mask>
<g mask="url(#mask5_1_9174)">
<path d="M21.0226 9.92798H19.0051V17.4981C19.0868 17.5253 19.4982 17.5502 19.5948 17.5418C20.2195 17.5257 20.5286 17.2739 20.5286 16.7115V14.7935H21.099C22.838 14.7935 24.1248 14.0292 24.1248 12.1936C24.1248 10.4485 22.6427 9.92798 21.0226 9.92798ZM20.5295 13.7155V11.0474C21.6011 10.9463 22.5564 11.1406 22.5564 12.2703C22.5564 13.691 21.5652 13.7155 20.5295 13.7155Z" fill="black"/>
</g>
<mask id="mask6_1_9174" style="mask-type:luminance" maskUnits="userSpaceOnUse" x="0" y="0" width="54" height="24">
<path d="M53.5 0H0.5V24H53.5V0Z" fill="white"/>
</mask>
<g mask="url(#mask6_1_9174)">
<path d="M26.5183 16.7107C26.5183 17.2739 26.2093 17.5248 25.5845 17.5413C25.488 17.5502 25.077 17.5244 24.9948 17.4972V12.9811C24.9948 12.4173 25.3038 12.1665 25.9286 12.15C26.0251 12.1411 26.4366 12.1673 26.5183 12.1936V16.7107Z" fill="black"/>
</g>
<mask id="mask7_1_9174" style="mask-type:luminance" maskUnits="userSpaceOnUse" x="0" y="0" width="54" height="24">
<path d="M53.5 0H0.5V24H53.5V0Z" fill="white"/>
</mask>
<g mask="url(#mask7_1_9174)">
<path d="M43.7536 14.6451C43.7536 13.9659 43.7397 13.7805 43.6849 13.6321C43.4473 12.9877 42.0779 13.182 42.0779 13.8434V16.7115C42.0779 17.2757 41.7689 17.5262 41.1446 17.5422C41.0476 17.5516 40.6362 17.5253 40.5549 17.4985V14.6464C40.5549 13.9668 40.5409 13.7814 40.4861 13.633C40.2485 12.9886 38.8787 13.1829 38.8787 13.8443V16.7124C38.8787 17.2766 38.5697 17.527 37.9458 17.5435C37.8483 17.5529 37.4374 17.5262 37.3561 17.4994V12.1932C37.9808 12.1058 38.6712 12.1138 38.8005 12.7208C39.4087 11.8652 41.4805 11.6718 41.8771 12.9521C42.245 12.2569 43.057 11.981 43.83 12.0474C45.1415 12.1589 45.274 13.2235 45.2789 14.5234L45.2794 16.7111C45.2794 17.2753 44.9704 17.5257 44.3461 17.5417C44.249 17.5511 43.8376 17.5248 43.7563 17.4981V14.6455L43.7536 14.6451Z" fill="black"/>
</g>
<mask id="mask8_1_9174" style="mask-type:luminance" maskUnits="userSpaceOnUse" x="0" y="0" width="54" height="24">
<path d="M53.5 0H0.5V24H53.5V0Z" fill="white"/>
</mask>
<g mask="url(#mask8_1_9174)">
<path d="M27.6919 17.4981C27.7736 17.5252 28.1851 17.5502 28.2816 17.5426C28.9073 17.5257 29.2154 17.2739 29.2154 16.7115V14.0279C29.2154 13.4445 30.097 13.0345 30.8619 13.6722C31.0492 13.3625 31.2316 12.8736 31.2316 12.5871C31.2316 11.9699 29.9165 11.6985 29.148 12.7159C29.0065 12.1321 28.291 12.0947 27.6919 12.194V17.4981Z" fill="black"/>
</g>
<mask id="mask9_1_9174" style="mask-type:luminance" maskUnits="userSpaceOnUse" x="0" y="0" width="54" height="24">
<path d="M53.5 0H0.5V24H53.5V0Z" fill="white"/>
</mask>
<g mask="url(#mask9_1_9174)">
<path d="M53.5 9.97157C53.4295 9.94795 53.1079 9.927 52.9853 9.927C52.3134 9.927 51.977 10.1752 51.977 10.7604V17.4976C52.0601 17.5247 52.4706 17.5497 52.5667 17.5421C53.1915 17.5252 53.5 17.2734 53.5 16.711V9.97157Z" fill="black"/>
</g>
</svg>
