<svg width="208" height="97" viewBox="0 0 208 97" fill="none" xmlns="http://www.w3.org/2000/svg">
<g opacity="0.3">
<path d="M86.9251 16.9114C86.9251 16.9114 93.4037 -3.36895 116.18 11.0437C139.56 25.8109 155.006 91.5467 155.006 91.5467H94.9196C94.9196 71.7038 73.8021 18.6234 67.1953 16.7606L86.9251 16.9114Z" fill="#E0E0E0"/>
<path d="M103.81 5.88506L59.4933 5.13086C59.4933 5.13086 40.1104 5.39482 40.1104 30.4341C40.1104 62.8646 51.4762 73.9362 21.3008 92.4442L69.9993 96.4565C69.9993 96.4565 93.04 95.0009 93.0173 67.9856C93.0173 55.6545 91.9916 32.0557 90.9584 21.512C90.2117 13.8418 96.4037 6.39037 103.81 5.88506Z" fill="white"/>
<path d="M103.816 5.88402L103.303 5.95945C102.782 6.02639 102.265 6.12716 101.757 6.26112C99.8019 6.78097 97.9843 7.72321 96.4326 9.02148C95.3117 9.96976 94.3247 11.0658 93.4987 12.2796C92.518 13.7408 91.8054 15.3651 91.3945 17.0763C91.2663 17.5288 91.2211 18.0115 91.1306 18.4942C91.0401 18.9769 91.0551 19.4746 91.0099 20.0026C90.9646 20.5305 91.0476 21.0207 91.0702 21.5487C91.0928 22.0766 91.1607 22.6046 91.2135 23.1476C91.4096 25.3121 91.5831 27.6124 91.7415 30.0334C92.3674 39.7248 92.9331 51.4149 93.1593 64.651C93.3044 68.0635 93.1327 71.4821 92.6465 74.8628C92.349 76.6157 91.9075 78.3411 91.3266 80.0215C90.7358 81.7521 89.9542 83.4115 88.9962 84.9691C87.0234 88.2052 84.3057 90.9229 81.0696 92.8957C79.4081 93.9177 77.6373 94.75 75.7902 95.377C73.9214 96.0443 71.9793 96.4849 70.0055 96.6893L25.1836 93.0164L21.307 92.6921L20.7188 92.6468L21.2165 92.33C23.4263 90.9423 25.6135 89.5546 27.6724 88.016C29.7422 86.5264 31.7008 84.8879 33.5326 83.1138C35.3411 81.3768 36.9385 79.4327 38.2915 77.3215C39.6012 75.2372 40.5736 72.9591 41.1726 70.5715C42.3642 65.8125 42.0927 60.9328 41.7231 56.2417C41.3536 51.5506 40.7728 46.95 40.441 42.4475C40.1092 37.9449 39.9206 33.5555 39.9885 29.2792C39.9885 28.2082 40.1016 27.1448 40.177 26.0965C40.2524 25.0482 40.4259 24.0074 40.6446 22.9892C41.0239 20.9762 41.6233 19.0111 42.4321 17.1291C43.9729 13.5269 46.531 10.4524 49.793 8.28236C51.3307 7.28605 52.9946 6.49975 54.7406 5.94435C56.4074 5.38569 58.1493 5.08311 59.9068 5.04688L103.816 5.88402L59.8917 5.3033C58.1643 5.3454 56.4531 5.64797 54.816 6.2008C53.0936 6.752 51.4526 7.53065 49.9363 8.51616C46.7386 10.6476 44.2307 13.664 42.7187 17.197C41.9166 19.0554 41.3271 20.9984 40.9614 22.9892C40.7427 23.9998 40.6371 25.0331 40.5013 26.0663C40.3656 27.0996 40.3203 28.163 40.3203 29.2264C40.2524 33.4801 40.4335 37.8695 40.7879 42.357C41.1424 46.8444 41.6703 51.4073 42.0776 56.1512C42.4849 60.8951 42.7337 65.7597 41.527 70.5941C40.9213 73.0224 39.9336 75.339 38.6008 77.4573C37.236 79.5976 35.6206 81.5675 33.789 83.3249C31.9439 85.1114 29.9701 86.76 27.8836 88.2574C25.8171 89.811 23.6224 91.2063 21.4051 92.594L21.3221 92.232L25.2062 92.5563L70.0206 96.2519C71.9623 96.0445 73.8732 95.6117 75.7148 94.9622C77.5319 94.3421 79.2747 93.5226 80.9112 92.5186C84.101 90.5745 86.782 87.8987 88.7322 84.7127C89.6654 83.1779 90.4243 81.5437 90.9948 79.8405C91.5773 78.1786 92.0188 76.4706 92.3147 74.7346C92.8042 71.377 92.9784 67.9808 92.835 64.5907C92.6389 51.3621 92.0808 39.7022 91.5077 29.9806C91.3568 27.5596 91.1909 25.2593 91.0023 23.0948L90.8666 21.4959C90.8666 20.968 90.8063 20.4476 90.8138 19.9347C90.8213 19.4219 90.859 18.9165 90.9345 18.4263C91.0099 17.9361 91.0853 17.4459 91.2135 16.9858C91.6376 15.2583 92.3682 13.6209 93.3705 12.1514C94.2213 10.9272 95.2364 9.8258 96.3873 8.87818C97.9582 7.57823 99.8011 6.64777 101.78 6.15552C102.274 6.02377 102.779 5.93793 103.288 5.8991L103.816 5.88402Z" fill="#263238"/>
<path d="M0.0171749 80.5508C0.0171749 80.5508 -1.22725 95.5744 17.4693 96.4719C36.1658 97.3694 70.0217 96.4719 70.0217 96.4719C70.0217 96.4719 58.2562 94.345 58.2562 81.5539L0.0171749 80.5508Z" fill="#E0E0E0"/>
<path d="M0.0195312 80.5489H1.12066H4.34862L16.4686 80.6997L58.2511 81.3182H58.4321V81.5067C58.2981 84.9416 59.3943 88.3116 61.5234 91.0104C63.6526 93.7092 66.6749 95.5596 70.0467 96.2286L71.5551 96.5756L70.0467 96.6208H69.9336C59.0279 96.8848 48.6351 97.013 39.185 96.9979C34.4562 96.9979 29.9687 96.9527 25.7678 96.8546C23.6636 96.7943 21.6348 96.7566 19.6814 96.6585C17.8064 96.6218 15.9351 96.4733 14.0778 96.2135C10.8535 95.779 7.80001 94.5046 5.22349 92.518C3.3147 90.9672 1.8563 88.9332 0.999989 86.6277C0.459144 85.1745 0.133902 83.65 0.0346127 82.1025C0.0346127 81.5821 0.0346127 81.1749 0.0346127 80.9034C0.0346127 80.6319 0.0346127 80.4961 0.0346127 80.4961C0.0346127 80.4961 0.0346127 80.6394 0.0346127 80.9034C0.0346127 81.1673 0.034614 81.5746 0.0949498 82.1025C0.218306 83.6278 0.563859 85.1269 1.12066 86.5523C1.99036 88.8148 3.44526 90.8059 5.33662 92.3219C7.89588 94.2605 10.9166 95.4979 14.1004 95.9119C15.948 96.165 17.8092 96.306 19.6739 96.3342C21.6197 96.4172 23.6485 96.4549 25.7527 96.5077C29.9461 96.5907 34.4411 96.6133 39.1623 96.6133C48.6124 96.6133 58.9977 96.47 69.9034 96.206H70.009V96.5906C68.2443 96.1903 66.5591 95.4969 65.0238 94.5392C63.5051 93.6214 62.1722 92.4267 61.0944 91.0171C59.0714 88.2559 58.0114 84.9065 58.0776 81.4841L58.2661 81.6726L16.6119 80.8807L4.45421 80.6243L1.18854 80.5413H0.336293L0.0195312 80.5489Z" fill="#263238"/>
<path d="M81.4702 23.9857C81.4702 24.1968 77.2392 24.3778 72.0201 24.3778C66.8011 24.3778 62.5625 24.1968 62.5625 23.9857C62.5625 23.7745 66.7936 23.5859 72.0201 23.5859C77.2467 23.5859 81.4702 23.7594 81.4702 23.9857Z" fill="#263238"/>
<path d="M48.7773 24.0384C48.7773 23.8197 49.9614 23.6387 51.417 23.6387C52.8726 23.6387 54.0567 23.8197 54.0567 24.0384C54.0567 24.2571 52.8726 24.4306 51.417 24.4306C49.9614 24.4306 48.7773 24.2496 48.7773 24.0384Z" fill="#263238"/>
<path d="M82.6421 17.0777C82.6421 17.2889 78.411 17.4699 73.192 17.4699C67.973 17.4699 63.7344 17.2889 63.7344 17.0777C63.7344 16.8665 67.9654 16.6855 73.192 16.6855C78.4186 16.6855 82.6421 16.859 82.6421 17.0777Z" fill="#263238"/>
<path d="M49.9492 17.1383C49.9492 16.9196 51.1333 16.7461 52.5889 16.7461C54.0445 16.7461 55.2286 16.9196 55.2286 17.1383C55.2286 17.357 54.0445 17.5305 52.5889 17.5305C51.1333 17.5305 49.9492 17.3495 49.9492 17.1383Z" fill="#263238"/>
<path d="M86.4507 10.8395C86.4507 11.0582 82.2196 11.2316 76.9931 11.2316C71.7665 11.2316 67.543 11.0582 67.543 10.8395C67.543 10.6207 71.774 10.4473 76.9931 10.4473C82.2121 10.4473 86.4507 10.6207 86.4507 10.8395Z" fill="#263238"/>
<path d="M53.7617 10.9C53.7617 10.6813 54.9383 10.5078 56.4014 10.5078C57.8645 10.5078 59.0336 10.6813 59.0336 10.9C59.0336 11.1187 57.857 11.2922 56.4014 11.2922C54.9458 11.2922 53.7617 11.1187 53.7617 10.9Z" fill="#263238"/>
<path d="M81.4702 31.5289C81.4702 31.7476 77.2392 31.9211 72.0201 31.9211C66.8011 31.9211 62.5625 31.7476 62.5625 31.5289C62.5625 31.3102 66.7936 31.1367 72.0201 31.1367C77.2467 31.1367 81.4702 31.2951 81.4702 31.5289Z" fill="#263238"/>
<path d="M48.7773 31.5719C48.7773 31.3531 49.9614 31.1797 51.417 31.1797C52.8726 31.1797 54.0567 31.3531 54.0567 31.5719C54.0567 31.7906 52.8726 31.964 51.417 31.964C49.9614 31.964 48.7773 31.783 48.7773 31.5719Z" fill="#263238"/>
<path d="M82.4312 38.9039C82.4312 39.1151 78.1926 39.2961 72.9735 39.2961C67.7545 39.2961 63.5234 39.1151 63.5234 38.9039C63.5234 38.6927 67.7545 38.5117 72.9735 38.5117C78.1926 38.5117 82.4312 38.6852 82.4312 38.9039Z" fill="#263238"/>
<path d="M49.7344 38.9642C49.7344 38.7455 50.9109 38.5645 52.3665 38.5645C53.8221 38.5645 55.0062 38.7455 55.0062 38.9642C55.0062 39.1829 53.8297 39.3564 52.3665 39.3564C50.9034 39.3564 49.7344 39.1754 49.7344 38.9642Z" fill="#263238"/>
<path d="M82.7356 45.2848C82.7356 45.5035 78.497 45.6769 73.2779 45.6769C68.0589 45.6769 63.8203 45.5035 63.8203 45.2848C63.8203 45.066 68.0589 44.8926 73.2779 44.8926C78.497 44.8926 82.7356 45.1037 82.7356 45.2848Z" fill="#263238"/>
<path d="M50.0312 45.3453C50.0312 45.1266 51.2153 44.9531 52.6709 44.9531C54.1265 44.9531 55.3106 45.1266 55.3106 45.3453C55.3106 45.564 54.1265 45.7375 52.6709 45.7375C51.2153 45.7375 50.0312 45.5565 50.0312 45.3453Z" fill="#263238"/>
<path d="M83.0249 51.6656C83.0249 51.8844 78.7938 52.0578 73.5748 52.0578C68.3558 52.0578 64.1172 51.8844 64.1172 51.6656C64.1172 51.4469 68.3482 51.2734 73.5748 51.2734C78.8014 51.2734 83.0249 51.4469 83.0249 51.6656Z" fill="#263238"/>
<path d="M50.3242 51.7242C50.3242 51.5055 51.5083 51.332 52.9639 51.332C54.4195 51.332 55.6036 51.5055 55.6036 51.7242C55.6036 51.9429 54.4195 52.1163 52.9639 52.1163C51.5083 52.1163 50.3242 51.9429 50.3242 51.7242Z" fill="#263238"/>
<path d="M83.3218 58.0445C83.3218 58.2632 79.0907 58.4367 73.8717 58.4367C68.6526 58.4367 64.4141 58.2632 64.4141 58.0445C64.4141 57.8258 68.6451 57.6523 73.8717 57.6523C79.0983 57.6523 83.3218 57.8258 83.3218 58.0445Z" fill="#263238"/>
<path d="M50.6484 58.1051C50.6484 57.8863 51.8325 57.7129 53.2881 57.7129C54.7437 57.7129 55.9278 57.8863 55.9278 58.1051C55.9278 58.3238 54.7437 58.4973 53.2881 58.4973C51.8325 58.4973 50.6484 58.3238 50.6484 58.1051Z" fill="#263238"/>
<path d="M83.4348 64.2516C83.4348 64.4703 79.1962 64.6437 73.9772 64.6437C68.7581 64.6437 64.5195 64.4703 64.5195 64.2516C64.5195 64.0329 68.7581 63.8594 73.9772 63.8594C79.1962 63.8594 83.4348 64.0329 83.4348 64.2516Z" fill="#263238"/>
<path d="M50.7383 64.3122C50.7383 64.0935 51.9148 63.92 53.3704 63.92C54.826 63.92 56.0101 64.0935 56.0101 64.3122C56.0101 64.5309 54.8336 64.7044 53.3704 64.7044C51.9073 64.7044 50.7383 64.5309 50.7383 64.3122Z" fill="#263238"/>
<path d="M82.4312 70.4293C82.4312 70.6405 78.1926 70.8215 72.9735 70.8215C67.7545 70.8215 63.5234 70.6405 63.5234 70.4293C63.5234 70.2181 67.7545 70.0371 72.9735 70.0371C78.1926 70.0371 82.4312 70.2106 82.4312 70.4293Z" fill="#263238"/>
<path d="M49.7344 70.4898C49.7344 70.2711 50.9109 70.0977 52.3665 70.0977C53.8221 70.0977 55.0062 70.2711 55.0062 70.4898C55.0062 70.7085 53.8297 70.882 52.3665 70.882C50.9034 70.882 49.7344 70.701 49.7344 70.4898Z" fill="#263238"/>
<path d="M79.9976 76.982C79.9976 77.2007 75.7665 77.3742 70.5475 77.3742C65.3284 77.3742 61.0898 77.2007 61.0898 76.982C61.0898 76.7633 65.3209 76.5898 70.5475 76.5898C75.7741 76.5898 79.9976 76.7784 79.9976 76.982Z" fill="#263238"/>
<path d="M47.3086 77.0426C47.3086 76.8239 48.4927 76.6504 49.9483 76.6504C51.4039 76.6504 52.588 76.8239 52.588 77.0426C52.588 77.2613 51.4039 77.4348 49.9483 77.4348C48.4927 77.4348 47.3086 77.2613 47.3086 77.0426Z" fill="#263238"/>
<path d="M78.1733 82.9566C78.1733 83.1753 73.9423 83.3488 68.7157 83.3488C63.4891 83.3488 59.2656 83.1753 59.2656 82.9566C59.2656 82.7379 63.4967 82.5645 68.7157 82.5645C73.9347 82.5645 78.1733 82.7379 78.1733 82.9566Z" fill="#263238"/>
<path d="M195.641 0.109375C200.013 0.292489 204.21 1.87925 207.61 4.63456L195.641 0.109375Z" fill="#FFBF9D"/>
<path d="M207.61 4.59547C204.081 2.07188 199.956 0.512155 195.641 0.070287C196.276 -0.023429 196.921 -0.023429 197.556 0.070287C200.644 0.408985 203.597 1.51619 206.147 3.2907C206.697 3.65017 207.19 4.08997 207.61 4.59547Z" fill="#FF9A6C"/>
</g>
</svg>
