<svg width="200" height="120" viewBox="0 0 200 120" fill="none" xmlns="http://www.w3.org/2000/svg">
<g opacity="0.15">
<path d="M85.372 12.4805H39.7344V101.544H85.372V12.4805Z" fill="#00924C"/>
<path opacity="0.4" d="M77.0768 12.4805H39.7344V101.544H77.0768V12.4805Z" fill="white"/>
<path d="M85.9084 12.4805H38.75V13.9321H85.9084V12.4805Z" fill="#00924C"/>
<path d="M85.9084 9.57227H38.75V11.0285H85.9084V9.57227Z" fill="#00924C"/>
<path d="M84.9204 11.0273H39.7344V12.479H84.9204V11.0273Z" fill="#F0F0F0"/>
<path d="M50.2914 17.7246H43.2773V24.7387H50.2914V17.7246Z" fill="#00924C"/>
<path opacity="0.2" d="M50.2911 17.7246H43.8945V24.7387H50.2911V17.7246Z" fill="white"/>
<path d="M60.9125 17.7246H53.8984V24.7387H60.9125V17.7246Z" fill="#00924C"/>
<path opacity="0.2" d="M60.9122 17.7246H54.5156V24.7387H60.9122V17.7246Z" fill="white"/>
<path d="M71.5336 17.7246H64.5195V24.7387H71.5336V17.7246Z" fill="#00924C"/>
<path opacity="0.2" d="M71.5333 17.7246H65.1367V24.7387H71.5333V17.7246Z" fill="white"/>
<path d="M50.2914 28.0508H43.2773V35.0649H50.2914V28.0508Z" fill="#00924C"/>
<path opacity="0.2" d="M50.2911 28.0508H43.8945V35.0649H50.2911V28.0508Z" fill="white"/>
<path d="M60.9125 28.0508H53.8984V35.0649H60.9125V28.0508Z" fill="#00924C"/>
<path opacity="0.2" d="M60.9122 28.0508H54.5156V35.0649H60.9122V28.0508Z" fill="white"/>
<path d="M71.5336 28.0508H64.5195V35.0649H71.5336V28.0508Z" fill="#00924C"/>
<path opacity="0.2" d="M71.5333 28.0508H65.1367V35.0649H71.5333V28.0508Z" fill="white"/>
<path d="M50.2914 46.9609H43.2773V53.975H50.2914V46.9609Z" fill="#00924C"/>
<path opacity="0.2" d="M50.2911 46.9609H43.8945V53.975H50.2911V46.9609Z" fill="white"/>
<path d="M60.9125 46.9609H53.8984V53.975H60.9125V46.9609Z" fill="#00924C"/>
<path opacity="0.2" d="M60.9122 46.9609H54.5156V53.975H60.9122V46.9609Z" fill="white"/>
<path d="M71.5336 46.9609H64.5195V53.975H71.5336V46.9609Z" fill="#00924C"/>
<path opacity="0.2" d="M71.5333 46.9609H65.1367V53.975H71.5333V46.9609Z" fill="white"/>
<path d="M50.2914 57.2891H43.2773V64.3031H50.2914V57.2891Z" fill="#00924C"/>
<path opacity="0.2" d="M50.2911 57.2891H43.8945V64.3031H50.2911V57.2891Z" fill="white"/>
<path d="M60.9125 57.2891H53.8984V64.3031H60.9125V57.2891Z" fill="#00924C"/>
<path opacity="0.2" d="M60.9122 57.2891H54.5156V64.3031H60.9122V57.2891Z" fill="white"/>
<path d="M71.5336 57.2891H64.5195V64.3031H71.5336V57.2891Z" fill="#00924C"/>
<path opacity="0.2" d="M71.5333 57.2891H65.1367V64.3031H71.5333V57.2891Z" fill="white"/>
<path d="M50.2914 78.3066H43.2773V85.3207H50.2914V78.3066Z" fill="#00924C"/>
<path opacity="0.2" d="M50.2911 78.3066H43.8945V85.3207H50.2911V78.3066Z" fill="white"/>
<path d="M60.9125 78.3066H53.8984V85.3207H60.9125V78.3066Z" fill="#00924C"/>
<path opacity="0.2" d="M60.9122 78.3066H54.5156V85.3207H60.9122V78.3066Z" fill="white"/>
<path d="M71.5336 78.3066H64.5195V85.3207H71.5336V78.3066Z" fill="#00924C"/>
<path opacity="0.2" d="M71.5333 78.3066H65.1367V85.3207H71.5333V78.3066Z" fill="white"/>
<path d="M50.2914 88.6348H43.2773V95.6489H50.2914V88.6348Z" fill="#00924C"/>
<path opacity="0.2" d="M50.2911 88.6348H43.8945V95.6489H50.2911V88.6348Z" fill="white"/>
<path d="M60.9125 88.6348H53.8984V95.6489H60.9125V88.6348Z" fill="#00924C"/>
<path opacity="0.2" d="M60.9122 88.6348H54.5156V95.6489H60.9122V88.6348Z" fill="white"/>
<path d="M71.5336 88.6348H64.5195V95.6489H71.5336V88.6348Z" fill="#00924C"/>
<path opacity="0.2" d="M71.5333 88.6348H65.1367V95.6489H71.5333V88.6348Z" fill="white"/>
<path opacity="0.2" d="M85.372 39.9961H39.7344V40.6459H85.372V39.9961Z" fill="white"/>
<path opacity="0.2" d="M85.372 72.3203H39.7344V72.9701H85.372V72.3203Z" fill="white"/>
<path d="M148.208 24.7383H116.645V101.543H148.208V24.7383Z" fill="#00924C"/>
<path opacity="0.4" d="M140.655 24.7383H116.645V101.543H140.655V24.7383Z" fill="white"/>
<path d="M127.374 31.0469H118.973V35.1254H127.374V31.0469Z" fill="#00924C"/>
<path opacity="0.2" d="M127.375 31.0469H119.531V35.1254H127.375V31.0469Z" fill="white"/>
<path d="M137.093 31.0469H128.691V35.1254H137.093V31.0469Z" fill="#00924C"/>
<path opacity="0.2" d="M137.094 31.0469H129.25V35.1254H137.094V31.0469Z" fill="white"/>
<path d="M127.374 38.7246H118.973V42.8031H127.374V38.7246Z" fill="#00924C"/>
<path opacity="0.2" d="M127.375 38.7246H119.531V42.8031H127.375V38.7246Z" fill="white"/>
<path d="M137.093 38.7246H128.691V42.8031H137.093V38.7246Z" fill="#00924C"/>
<path opacity="0.2" d="M137.094 38.7246H129.25V42.8031H137.094V38.7246Z" fill="white"/>
<path d="M127.374 48.5371H118.973V52.6156H127.374V48.5371Z" fill="#00924C"/>
<path opacity="0.2" d="M127.375 48.5371H119.531V52.6156H127.375V48.5371Z" fill="white"/>
<path d="M137.093 48.5371H128.691V52.6156H137.093V48.5371Z" fill="#00924C"/>
<path opacity="0.2" d="M137.094 48.5371H129.25V52.6156H137.094V48.5371Z" fill="white"/>
<path d="M127.374 54.1719H118.973V58.2504H127.374V54.1719Z" fill="#00924C"/>
<path opacity="0.2" d="M127.375 54.1719H119.531V58.2504H127.375V54.1719Z" fill="white"/>
<path d="M137.093 54.1719H128.691V58.2504H137.093V54.1719Z" fill="#00924C"/>
<path opacity="0.2" d="M137.094 54.1719H129.25V58.2504H137.094V54.1719Z" fill="white"/>
<path d="M127.374 63.4355H118.973V67.514H127.374V63.4355Z" fill="#00924C"/>
<path opacity="0.2" d="M127.375 63.4355H119.531V67.514H127.375V63.4355Z" fill="white"/>
<path d="M137.093 63.4355H128.691V67.514H137.093V63.4355Z" fill="#00924C"/>
<path opacity="0.2" d="M137.094 63.4355H129.25V67.514H137.094V63.4355Z" fill="white"/>
<path d="M127.374 69.0723H118.973V73.1508H127.374V69.0723Z" fill="#00924C"/>
<path opacity="0.2" d="M127.375 69.0723H119.531V73.1508H127.375V69.0723Z" fill="white"/>
<path d="M137.093 69.0723H128.691V73.1508H137.093V69.0723Z" fill="#00924C"/>
<path opacity="0.2" d="M137.094 69.0723H129.25V73.1508H137.094V69.0723Z" fill="white"/>
<path d="M127.374 79.1504H118.973V83.2289H127.374V79.1504Z" fill="#00924C"/>
<path opacity="0.2" d="M127.375 79.1504H119.531V83.2289H127.375V79.1504Z" fill="white"/>
<path d="M137.093 79.1504H128.691V83.2289H137.093V79.1504Z" fill="#00924C"/>
<path opacity="0.2" d="M137.094 79.1504H129.25V83.2289H137.094V79.1504Z" fill="white"/>
<path d="M127.374 86.5977H118.973V90.6762H127.374V86.5977Z" fill="#00924C"/>
<path opacity="0.2" d="M127.375 86.5977H119.531V90.6762H127.375V86.5977Z" fill="white"/>
<path d="M137.093 86.5977H128.691V90.6762H137.093V86.5977Z" fill="#00924C"/>
<path opacity="0.2" d="M137.094 86.5977H129.25V90.6762H137.094V86.5977Z" fill="white"/>
<path d="M148.212 22.4668H115.16V24.9185H148.212V22.4668Z" fill="#00924C"/>
<path opacity="0.2" d="M148.213 22.4668H140.66V24.9185H148.213V22.4668Z" fill="black"/>
<path d="M116.644 58.6523H113.672V63.3023H116.644V58.6523Z" fill="#E0E0E0"/>
<path d="M116.644 66.2598H113.672V70.9097H116.644V66.2598Z" fill="#E0E0E0"/>
<path d="M116.644 73.6562H113.672V78.3062H116.644V73.6562Z" fill="#E0E0E0"/>
<path d="M116.644 81.4785H113.672V86.1285H116.644V81.4785Z" fill="#E0E0E0"/>
<path d="M116.644 89.0859H113.672V93.7359H116.644V89.0859Z" fill="#E0E0E0"/>
<path d="M116.644 53.9785H85.3711V101.542H116.644V53.9785Z" fill="#00924C"/>
<path opacity="0.3" d="M111.363 53.9744H85.3711V101.543H111.363V53.9744Z" fill="white"/>
<path d="M108.841 58.6523H87.707V63.3023H108.841V58.6523Z" fill="#00924C"/>
<path d="M108.841 66.2598H87.707V70.9097H108.841V66.2598Z" fill="#00924C"/>
<path d="M108.841 73.8691H87.707V78.5191H108.841V73.8691Z" fill="#00924C"/>
<path d="M108.841 81.4785H87.707V86.1285H108.841V81.4785Z" fill="#00924C"/>
<path d="M108.841 89.0859H87.707V93.7359H108.841V89.0859Z" fill="#00924C"/>
<g opacity="0.1">
<path d="M108.844 58.6523H88.4883V63.3023H108.844V58.6523Z" fill="white"/>
<path d="M108.844 66.2617H88.4883V70.9117H108.844V66.2617Z" fill="white"/>
<path d="M108.844 73.8691H88.4883V78.5191H108.844V73.8691Z" fill="white"/>
<path d="M108.844 81.4785H88.4883V86.1285H108.844V81.4785Z" fill="white"/>
<path d="M108.844 89.0859H88.4883V93.7359H108.844V89.0859Z" fill="white"/>
</g>
<path d="M20.9823 68.5878H0V101.543H33.4851V68.5878V53.9744L20.9823 68.5878Z" fill="#00924C"/>
<path d="M39.7335 53.9746H33.4844V101.543H39.7335V53.9746Z" fill="#00924C"/>
<path opacity="0.7" d="M39.7335 53.9746H33.4844V101.543H39.7335V53.9746Z" fill="white"/>
<path opacity="0.7" d="M85.3702 13.9316H77.0703V101.543H85.3702V13.9316Z" fill="white"/>
<path opacity="0.6" d="M116.645 53.9746H111.363V101.543H116.645V53.9746Z" fill="white"/>
<path opacity="0.7" d="M148.213 24.918H140.66V101.543H148.213V24.918Z" fill="white"/>
<path opacity="0.5" d="M152.634 11.752H151.445V16.66H152.634V11.752Z" fill="white"/>
<path opacity="0.5" d="M152.634 20.0098H151.445V24.9178H152.634V20.0098Z" fill="white"/>
<path opacity="0.5" d="M152.634 28.5957H151.445V33.5037H152.634V28.5957Z" fill="white"/>
<path opacity="0.5" d="M152.634 37.1816H151.445V42.0897H152.634V37.1816Z" fill="white"/>
<path opacity="0.5" d="M152.634 45.7617H151.445V50.6697H152.634V45.7617Z" fill="white"/>
<path opacity="0.5" d="M152.634 54.3477H151.445V59.2557H152.634V54.3477Z" fill="white"/>
<path opacity="0.5" d="M152.634 63.8086H151.445V68.7166H152.634V63.8086Z" fill="white"/>
<path opacity="0.5" d="M152.634 73.2695H151.445V78.1775H152.634V73.2695Z" fill="white"/>
<path opacity="0.5" d="M152.634 82.7266H151.445V87.6346H152.634V82.7266Z" fill="white"/>
<path opacity="0.5" d="M152.634 92.1875H151.445V97.0955H152.634V92.1875Z" fill="white"/>
<path d="M198.996 5.21289H161.93V101.544H198.996V5.21289Z" fill="#00924C"/>
<path d="M185.277 5.21289H148.211V101.544H185.277V5.21289Z" fill="#00924C"/>
<path opacity="0.7" d="M198.997 6.5957H185.277V101.544H198.997V6.5957Z" fill="white"/>
<path d="M198.999 11.752H188.672V16.66H198.999V11.752Z" fill="#00924C"/>
<path d="M198.999 19.8242H188.672V24.7322H198.999V19.8242Z" fill="#00924C"/>
<path d="M198.999 27.9043H188.672V32.8123H198.999V27.9043Z" fill="#00924C"/>
<path d="M198.999 37.1758H188.672V42.0838H198.999V37.1758Z" fill="#00924C"/>
<path d="M198.999 45.7617H188.672V50.6697H198.999V45.7617Z" fill="#00924C"/>
<path d="M198.999 54.3477H188.672V59.2557H198.999V54.3477Z" fill="#00924C"/>
<path d="M198.999 63.8047H188.672V68.7127H198.999V63.8047Z" fill="#00924C"/>
<path d="M198.999 73.2656H188.672V78.1736H198.999V73.2656Z" fill="#00924C"/>
<path d="M198.999 82.7266H188.672V87.6346H198.999V82.7266Z" fill="#00924C"/>
<path d="M198.999 92.1875H188.672V97.0955H198.999V92.1875Z" fill="#00924C"/>
<path opacity="0.3" d="M198.999 11.752H188.672V16.66H198.999V11.752Z" fill="white"/>
<path opacity="0.3" d="M198.999 19.8242H188.672V24.7322H198.999V19.8242Z" fill="white"/>
<path opacity="0.3" d="M198.999 27.9043H188.672V32.8123H198.999V27.9043Z" fill="white"/>
<path opacity="0.3" d="M198.999 37.1758H188.672V42.0838H198.999V37.1758Z" fill="white"/>
<path opacity="0.3" d="M198.999 45.7617H188.672V50.6697H198.999V45.7617Z" fill="white"/>
<path opacity="0.3" d="M198.999 54.3477H188.672V59.2557H198.999V54.3477Z" fill="white"/>
<path opacity="0.3" d="M198.999 63.8047H188.672V68.7127H198.999V63.8047Z" fill="white"/>
<path opacity="0.3" d="M198.999 73.2656H188.672V78.1736H198.999V73.2656Z" fill="white"/>
<path opacity="0.3" d="M198.999 82.7266H188.672V87.6346H198.999V82.7266Z" fill="white"/>
<path opacity="0.3" d="M198.999 92.1875H188.672V97.0955H198.999V92.1875Z" fill="white"/>
<path opacity="0.4" d="M185.277 5.21289H148.211V101.544H185.277V5.21289Z" fill="white"/>
<path d="M182.046 11.752H151.445V16.66H182.046V11.752Z" fill="#00924C"/>
<path opacity="0.2" d="M182.044 11.7518H152.633V16.6598H182.044V11.7518Z" fill="white"/>
<path d="M182.046 20.0098H151.445V24.9178H182.046V20.0098Z" fill="#00924C"/>
<path opacity="0.2" d="M182.044 20.0098H152.633V24.9178H182.044V20.0098Z" fill="white"/>
<path d="M182.046 28.5957H151.445V33.5037H182.046V28.5957Z" fill="#00924C"/>
<path opacity="0.2" d="M182.044 28.5957H152.633V33.5037H182.044V28.5957Z" fill="white"/>
<path d="M182.046 37.1816H151.445V42.0897H182.046V37.1816Z" fill="#00924C"/>
<path opacity="0.2" d="M182.044 37.1816H152.633V42.0897H182.044V37.1816Z" fill="white"/>
<path d="M182.046 45.7617H151.445V50.6697H182.046V45.7617Z" fill="#00924C"/>
<path opacity="0.2" d="M182.044 45.7617H152.633V50.6697H182.044V45.7617Z" fill="white"/>
<path d="M182.046 54.3477H151.445V59.2557H182.046V54.3477Z" fill="#00924C"/>
<path opacity="0.2" d="M182.044 54.3475H152.633V59.2556H182.044V54.3475Z" fill="white"/>
<path d="M182.046 63.8086H151.445V68.7166H182.046V63.8086Z" fill="#00924C"/>
<path opacity="0.2" d="M182.044 63.8088H152.633V68.7168H182.044V63.8088Z" fill="white"/>
<path d="M182.046 73.2695H151.445V78.1775H182.046V73.2695Z" fill="#00924C"/>
<path opacity="0.2" d="M182.044 73.2695H152.633V78.1775H182.044V73.2695Z" fill="white"/>
<path d="M182.046 82.7266H151.445V87.6346H182.046V82.7266Z" fill="#00924C"/>
<path opacity="0.2" d="M182.044 82.7263H152.633V87.6344H182.044V82.7263Z" fill="white"/>
<path d="M182.046 92.1875H151.445V97.0955H182.046V92.1875Z" fill="#00924C"/>
<path opacity="0.2" d="M182.044 92.1876H152.633V97.0956H182.044V92.1876Z" fill="white"/>
<path d="M198.204 2.35156H185.277V4.24104H198.204V2.35156Z" fill="#00924C"/>
<path d="M198.208 1.88867H148.211V4.23899H198.208V1.88867Z" fill="#F0F0F0"/>
<path d="M199.963 4.24414H147.164V6.59446H199.963V4.24414Z" fill="#00924C"/>
<path d="M199.963 0H147.164V2.35031H199.963V0Z" fill="#00924C"/>
<path opacity="0.05" d="M199.963 4.24414H147.164V6.59446H199.963V4.24414Z" fill="black"/>
<path opacity="0.05" d="M199.963 0H147.164V2.35031H199.963V0Z" fill="black"/>
<path opacity="0.2" d="M148.208 45.2051H116.645V45.9056H148.208V45.2051Z" fill="white"/>
<path opacity="0.2" d="M148.208 60.3809H116.645V61.0814H148.208V60.3809Z" fill="white"/>
<path opacity="0.2" d="M148.208 75.6836H116.645V76.3841H148.208V75.6836Z" fill="white"/>
<path opacity="0.2" d="M85.9047 12.4805H77.0703V13.9321H85.9047V12.4805Z" fill="black"/>
<path opacity="0.2" d="M85.9047 9.57227H77.0703V11.0239H85.9047V9.57227Z" fill="black"/>
<path opacity="0.2" d="M199.96 4.24414H185.277V6.59446H199.96V4.24414Z" fill="black"/>
<path opacity="0.2" d="M199.96 0H185.278V2.35031H199.96V0Z" fill="black"/>
<path opacity="0.4" d="M20.9823 68.5878H0V101.543H33.4851V68.5878V53.9744L20.9823 68.5878Z" fill="white"/>
<path d="M8.02081 75.2695H3.03906V80.2513H8.02081V75.2695Z" fill="#00924C"/>
<path d="M18.1575 75.2695H13.1758V80.2513H18.1575V75.2695Z" fill="#00924C"/>
<path d="M28.2943 75.2695H23.3125V80.2513H28.2943V75.2695Z" fill="#00924C"/>
<path d="M8.02081 83.6523H3.03906V88.6341H8.02081V83.6523Z" fill="#00924C"/>
<path d="M18.1575 83.6523H13.1758V88.6341H18.1575V83.6523Z" fill="#00924C"/>
<path d="M28.2943 83.6523H23.3125V88.6341H28.2943V83.6523Z" fill="#00924C"/>
<path d="M8.02081 92.0352H3.03906V97.0169H8.02081V92.0352Z" fill="#00924C"/>
<path d="M18.1575 92.0352H13.1758V97.0169H18.1575V92.0352Z" fill="#00924C"/>
<path d="M28.2943 92.0352H23.3125V97.0169H28.2943V92.0352Z" fill="#00924C"/>
<path opacity="0.2" d="M8.5716 75.2695H3.58984V80.2513H8.5716V75.2695Z" fill="white"/>
<path opacity="0.2" d="M18.7044 75.2695H13.7227V80.2513H18.7044V75.2695Z" fill="white"/>
<path opacity="0.2" d="M28.8411 75.2695H23.8594V80.2513H28.8411V75.2695Z" fill="white"/>
<path opacity="0.2" d="M8.5716 83.6523H3.58984V88.6341H8.5716V83.6523Z" fill="white"/>
<path opacity="0.2" d="M18.7044 83.6523H13.7227V88.6341H18.7044V83.6523Z" fill="white"/>
<path opacity="0.2" d="M28.8411 83.6523H23.8594V88.6341H28.8411V83.6523Z" fill="white"/>
<path opacity="0.2" d="M8.5716 92.0352H3.58984V97.0169H8.5716V92.0352Z" fill="white"/>
<path opacity="0.2" d="M18.7044 92.0352H13.7227V97.0169H18.7044V92.0352Z" fill="white"/>
<path opacity="0.2" d="M28.8411 92.0352H23.8594V97.0169H28.8411V92.0352Z" fill="white"/>
<path d="M97.2638 105.365L94.3789 120.002H104.061L103.08 105.365H97.2638Z" fill="#00924C"/>
<path d="M106.316 105.365L110.464 120.002H116.953L111.635 105.365H106.316Z" fill="#00924C"/>
<path d="M115.281 105.365L123.816 120.002H131.18L120.088 105.365H115.281Z" fill="#00924C"/>
<path d="M123.941 105.365L138.085 120.002H146.892L129.218 105.365H123.941Z" fill="#00924C"/>
<path d="M93.652 105.365L89.5043 120.002H83.0156L88.3338 105.365H93.652Z" fill="#00924C"/>
<path d="M84.6844 105.365L76.1495 120.002H68.7852L79.8777 105.365H84.6844Z" fill="#00924C"/>
<path d="M76.0205 105.365L61.8771 120.002H53.0703L70.7438 105.365H76.0205Z" fill="#00924C"/>
<path opacity="0.4" d="M97.2638 105.365L94.3789 120.002H104.061L103.08 105.365H97.2638Z" fill="white"/>
<path opacity="0.4" d="M106.316 105.365L110.464 120.002H116.953L111.635 105.365H106.316Z" fill="white"/>
<path opacity="0.4" d="M115.281 105.365L123.816 120.002H131.18L120.088 105.365H115.281Z" fill="white"/>
<path opacity="0.4" d="M123.941 105.365L138.085 120.002H146.892L129.218 105.365H123.941Z" fill="white"/>
<path opacity="0.4" d="M93.652 105.365L89.5043 120.002H83.0156L88.3338 105.365H93.652Z" fill="white"/>
<path opacity="0.4" d="M84.6844 105.365L76.1495 120.002H68.7852L79.8777 105.365H84.6844Z" fill="white"/>
<path opacity="0.4" d="M76.0205 105.365L61.8771 120.002H53.0703L70.7438 105.365H76.0205Z" fill="white"/>
<path d="M31.1602 99.8526C32.8561 99.7926 34.5208 99.3796 36.0481 98.6401C37.5755 97.9005 38.9318 96.8507 40.0307 95.5576C41.1296 94.2645 41.9467 92.7564 42.4301 91.1298C42.9135 89.5031 43.0524 87.7936 42.838 86.1102C42.5339 83.7092 41.5292 81.4649 40.8195 79.1514C39.4784 74.778 39.0499 69.8423 35.9714 66.4551C35.0213 65.4134 33.8644 64.5812 32.5745 64.0119C31.2847 63.4425 29.8903 63.1484 28.4803 63.1484C27.0704 63.1484 25.676 63.4425 24.3861 64.0119C23.0963 64.5812 21.9394 65.4134 20.9893 66.4551C18.9938 68.6441 18.0491 71.6027 17.6389 74.5383C17.2288 77.4739 17.2841 80.4464 17.0306 83.382C16.8002 85.8291 16.3347 88.2716 16.4361 90.7279C16.5375 93.1842 17.2749 95.7419 19.0768 97.4148C19.9967 98.199 21.024 98.8477 22.1276 99.3411C23.19 99.9327 24.3419 100.347 25.5378 100.567C26.1371 100.673 26.7526 100.643 27.3389 100.48C27.9252 100.316 28.4672 100.023 28.9251 99.6222C29.6549 99.8074 30.4079 99.8851 31.1602 99.8526Z" fill="#00924C"/>
<path opacity="0.7" d="M31.1602 99.8526C32.8561 99.7926 34.5208 99.3796 36.0481 98.6401C37.5755 97.9005 38.9318 96.8507 40.0307 95.5576C41.1296 94.2645 41.9467 92.7564 42.4301 91.1298C42.9135 89.5031 43.0524 87.7936 42.838 86.1102C42.5339 83.7092 41.5292 81.4649 40.8195 79.1514C39.4784 74.778 39.0499 69.8423 35.9714 66.4551C35.0213 65.4134 33.8644 64.5812 32.5745 64.0119C31.2847 63.4425 29.8903 63.1484 28.4803 63.1484C27.0704 63.1484 25.676 63.4425 24.3861 64.0119C23.0963 64.5812 21.9394 65.4134 20.9893 66.4551C18.9938 68.6441 18.0491 71.6027 17.6389 74.5383C17.2288 77.4739 17.2841 80.4464 17.0306 83.382C16.8002 85.8291 16.3347 88.2716 16.4361 90.7279C16.5375 93.1842 17.2749 95.7419 19.0768 97.4148C19.9967 98.199 21.024 98.8477 22.1276 99.3411C23.19 99.9327 24.3419 100.347 25.5378 100.567C26.1371 100.673 26.7526 100.643 27.3389 100.48C27.9252 100.316 28.4672 100.023 28.9251 99.6222C29.6549 99.8074 30.4079 99.8851 31.1602 99.8526Z" fill="white"/>
<path d="M25.5234 108.789V108.176L26.5419 107.315C26.5419 107.315 27.7585 94.8718 27.9659 91.268C28.1733 87.6641 28.4268 81.9865 27.0995 77.8665C28.2753 80.6759 29.1123 83.6153 29.5927 86.6226C29.5927 86.6226 31.1688 80.9542 33.9661 77.3458C33.9661 77.3458 30.5559 86.0558 31.0167 94.1575C31.2465 98.7615 31.8242 103.342 32.7449 107.858L33.3532 108.264L33.4039 108.776L25.5234 108.789Z" fill="#00924C"/>
<path d="M28.6346 88.797C28.6346 88.797 27.7498 84.8706 25.3672 82.9258C25.3672 82.9258 27.3627 85.6909 28.0171 90.3362C28.6715 94.9815 29.3673 92.0321 29.3673 92.0321L28.6346 88.797Z" fill="#00924C"/>
<path d="M27.5914 99.4195C27.3076 98.4559 26.6729 97.6337 25.8125 97.1152C25.8125 97.1152 26.7342 98 27.1582 100.834C27.5822 103.668 28.6421 102.106 28.6421 102.106L28.725 100.544L27.5914 99.4195Z" fill="#00924C"/>
<path opacity="0.2" d="M27.1677 100.831C26.7068 97.9968 25.822 97.112 25.822 97.112C26.4775 97.5167 27.0073 98.0959 27.352 98.7848C27.6285 95.7663 27.8866 92.757 27.9742 91.2684C27.9742 90.9735 28.0064 90.6601 28.0203 90.3467C27.3659 85.683 25.375 82.9363 25.375 82.9363C26.7575 84.0654 27.6378 85.8673 28.1401 87.1761C28.1816 84.1069 28.0018 80.6413 27.117 77.8762C28.2928 80.6856 29.1298 83.625 29.6102 86.6323C29.6102 86.6323 31.1863 80.9639 33.9836 77.3555C33.9836 77.3555 30.5733 86.0655 31.0342 94.1671C31.264 98.7712 31.8417 103.351 32.7624 107.868L33.3707 108.274L33.4214 108.785H25.5225V108.172L26.5409 107.31C26.5409 107.31 26.8313 104.31 27.1677 100.831Z" fill="black"/>
<path d="M166.908 101.826C164.993 101.757 163.114 101.29 161.39 100.455C159.666 99.6197 158.135 98.4343 156.894 96.9744C155.654 95.5145 154.731 93.8121 154.185 91.9757C153.639 90.1394 153.482 88.2095 153.723 86.309C154.069 83.5992 155.202 81.0645 156.004 78.4746C157.521 73.5343 158.004 67.9626 161.479 64.1422C162.551 62.9654 163.856 62.0252 165.312 61.3819C166.768 60.7385 168.342 60.4062 169.933 60.4062C171.525 60.4062 173.099 60.7385 174.555 61.3819C176.011 62.0252 177.316 62.9654 178.388 64.1422C180.641 66.6078 181.71 69.9535 182.176 73.2624C182.641 76.5713 182.568 79.9308 182.876 83.2628C183.134 86.0278 183.66 88.7929 183.549 91.558C183.439 94.3231 182.6 97.2172 180.567 99.1113C179.522 99.9996 178.355 100.734 177.102 101.291C175.902 101.959 174.6 102.426 173.249 102.674C172.572 102.794 171.877 102.76 171.215 102.575C170.553 102.39 169.941 102.058 169.424 101.604C168.601 101.8 167.753 101.875 166.908 101.826Z" fill="#00924C"/>
<path opacity="0.7" d="M166.908 101.826C164.993 101.757 163.114 101.29 161.39 100.455C159.666 99.6197 158.135 98.4343 156.894 96.9744C155.654 95.5145 154.731 93.8121 154.185 91.9757C153.639 90.1394 153.482 88.2095 153.723 86.309C154.069 83.5992 155.202 81.0645 156.004 78.4746C157.521 73.5343 158.004 67.9626 161.479 64.1422C162.551 62.9654 163.856 62.0252 165.312 61.3819C166.768 60.7385 168.342 60.4062 169.933 60.4062C171.525 60.4062 173.099 60.7385 174.555 61.3819C176.011 62.0252 177.316 62.9654 178.388 64.1422C180.641 66.6078 181.71 69.9535 182.176 73.2624C182.641 76.5713 182.568 79.9308 182.876 83.2628C183.134 86.0278 183.66 88.7929 183.549 91.558C183.439 94.3231 182.6 97.2172 180.567 99.1113C179.522 99.9996 178.355 100.734 177.102 101.291C175.902 101.959 174.6 102.426 173.249 102.674C172.572 102.794 171.877 102.76 171.215 102.575C170.553 102.39 169.941 102.058 169.424 101.604C168.601 101.8 167.753 101.875 166.908 101.826Z" fill="white"/>
<path d="M173.255 111.909V111.222L172.108 110.245C172.108 110.245 170.725 96.1849 170.5 92.1341C170.274 88.0832 169.983 81.6544 171.477 77.0045C170.15 80.1789 169.208 83.5006 168.67 86.8989C168.67 86.8989 166.891 80.5023 163.734 76.4238C163.734 76.4238 167.582 86.2583 167.066 95.4061C166.803 100.6 166.15 105.767 165.112 110.863L164.426 111.324L164.366 111.895L173.255 111.909Z" fill="#00924C"/>
<path d="M169.756 89.3464C169.756 89.3464 170.751 84.9131 173.443 82.7148C173.443 82.7148 171.189 85.8163 170.452 91.0838C169.715 96.3513 168.922 92.9917 168.922 92.9917L169.756 89.3464Z" fill="#00924C"/>
<path d="M170.952 101.337C171.272 100.246 171.989 99.3155 172.962 98.7285C172.962 98.7285 171.934 99.7285 171.445 102.927C170.957 106.125 169.763 104.346 169.763 104.346L169.676 102.586L170.952 101.337Z" fill="#00924C"/>
<path opacity="0.2" d="M171.412 102.927C171.901 99.7288 172.928 98.7288 172.928 98.7288C172.185 99.1832 171.584 99.8381 171.195 100.618C170.887 97.2126 170.596 93.8116 170.5 92.1341C170.5 91.7977 170.463 91.4428 170.444 91.0788C171.182 85.8159 173.435 82.7144 173.435 82.7144C171.868 83.9909 170.878 86.0233 170.32 87.5026C170.274 84.037 170.477 80.129 171.477 77.0045C170.15 80.1789 169.208 83.5006 168.67 86.8989C168.67 86.8989 166.891 80.5023 163.734 76.4238C163.734 76.4238 167.582 86.2583 167.066 95.4061C166.803 100.6 166.15 105.767 165.112 110.863L164.426 111.324L164.366 111.895H173.255V111.209L172.108 110.232C172.108 110.232 171.785 106.858 171.412 102.927Z" fill="black"/>
</g>
</svg>
