<svg width="99" height="121" viewBox="0 0 99 121" fill="none" xmlns="http://www.w3.org/2000/svg">
<g opacity="0.1">
<path d="M93.5342 120L90.5379 86.9572H14.7131L14.3591 120H93.5342Z" fill="#FF007A" stroke="#382A26" stroke-width="0.3" stroke-linecap="round" stroke-linejoin="round"/>
<path d="M91.4855 97.4007H14.6016L14.6852 89.4766H90.7664L91.4855 97.4007Z" fill="#FF007A" stroke="#382A26" stroke-width="0.3" stroke-linecap="round" stroke-linejoin="round"/>
<path d="M91.2497 94.8115H14.625L14.7114 86.957H90.5362L91.2497 94.8115Z" fill="#382A26" stroke="#382A26" stroke-width="0.3" stroke-linecap="round" stroke-linejoin="round"/>
<path d="M15.7084 120L16.4833 28.4688H4.01303L1 120H15.7084Z" fill="#FF007A" stroke="#382A26" stroke-width="0.3" stroke-linecap="round" stroke-linejoin="round"/>
<path d="M16.2967 50.1361H3.29688L3.87941 32.4648H16.4472L16.2967 50.1361Z" fill="#FF007A" stroke="#382A26" stroke-width="0.3" stroke-linecap="round" stroke-linejoin="round"/>
<path d="M16.3107 49.0602H3.33594L3.88224 32.4648H16.45L16.3107 49.0602Z" fill="#FF007A" stroke="#382A26" stroke-width="0.3" stroke-linecap="round" stroke-linejoin="round"/>
<path d="M17.4279 45.8102H2.35156L2.81983 32.4648H17.5115L17.4279 45.8102Z" fill="#FF007A" stroke="#382A26" stroke-width="0.3" stroke-linecap="round" stroke-linejoin="round"/>
<path d="M15.4878 45.8102H4.29688L4.71496 32.4648H15.6215L15.4878 45.8102Z" fill="#FF007A" stroke="#382A26" stroke-width="0.3" stroke-linecap="round" stroke-linejoin="round"/>
<path d="M14.8922 34.4062H5.4294L5.15625 43.6349H14.7863L14.8922 34.4062Z" fill="white" stroke="#382A26" stroke-width="0.3" stroke-linecap="round" stroke-linejoin="round"/>
<path d="M14.4267 39.0523C14.4257 38.4915 14.3129 37.9365 14.095 37.4198C13.877 36.903 13.5583 36.4349 13.1573 36.0428C12.7564 35.6507 12.2813 35.3424 11.7599 35.136C11.2384 34.9296 10.681 34.8292 10.1204 34.8407C7.71494 34.8407 5.70811 36.7193 5.64122 39.0523C5.6317 39.619 5.73669 40.1818 5.94987 40.707C6.16306 41.2322 6.48007 41.709 6.88191 42.1087C7.28374 42.5085 7.76214 42.823 8.28843 43.0335C8.81472 43.2439 9.37808 43.346 9.94476 43.3335C12.3892 43.3335 14.396 41.4075 14.4267 39.0523Z" fill="white" stroke="#382A26" stroke-width="0.3" stroke-linecap="round" stroke-linejoin="round"/>
<path d="M12.8248 39.0525C12.8252 38.6968 12.7546 38.3447 12.6171 38.0167C12.4796 37.6888 12.278 37.3916 12.0241 37.1426C11.7702 36.8936 11.4691 36.6978 11.1385 36.5668C10.8079 36.4357 10.4544 36.3721 10.0988 36.3795C9.36945 36.3664 8.66373 36.6383 8.13176 37.1375C7.59978 37.6367 7.28353 38.3237 7.25026 39.0525C7.2453 39.4104 7.31252 39.7657 7.4479 40.0971C7.58328 40.4285 7.78405 40.7292 8.03821 40.9813C8.29238 41.2333 8.59473 41.4316 8.92723 41.5643C9.25972 41.6969 9.61553 41.7612 9.97342 41.7533C10.7079 41.767 11.4184 41.4915 11.9517 40.9863C12.4851 40.4811 12.7986 39.7866 12.8248 39.0525Z" stroke="#0B0B0B" stroke-width="0.15" stroke-linejoin="round"/>
<path d="M10.1194 34.8398L10.0859 36.3784" stroke="#0B0B0B" stroke-width="0.15" stroke-linejoin="round"/>
<path d="M9.97485 41.7539L9.94141 43.3343" stroke="#0B0B0B" stroke-width="0.15" stroke-linejoin="round"/>
<path d="M14.4224 39.0527H12.8086" stroke="#0B0B0B" stroke-width="0.15" stroke-linejoin="round"/>
<path d="M7.25445 39.0527H5.64062" stroke="#0B0B0B" stroke-width="0.15" stroke-linejoin="round"/>
<path d="M12.5716 35.5742L11.6406 36.848" stroke="#0B0B0B" stroke-width="0.15" stroke-linejoin="round"/>
<path d="M8.40358 41.2773L7.45312 42.579" stroke="#0B0B0B" stroke-width="0.15" stroke-linejoin="round"/>
<path d="M13.9059 37.0117L12.4844 37.7587" stroke="#0B0B0B" stroke-width="0.15" stroke-linejoin="round"/>
<path d="M7.56323 40.3516L6.125 41.1097" stroke="#0B0B0B" stroke-width="0.15" stroke-linejoin="round"/>
<path d="M14.0637 40.6919L12.5781 40.0898" stroke="#0B0B0B" stroke-width="0.15" stroke-linejoin="round"/>
<path d="M7.49232 38.0211L6.02344 37.4219" stroke="#0B0B0B" stroke-width="0.15" stroke-linejoin="round"/>
<path d="M12.5693 42.4995L11.6328 41.2285" stroke="#0B0B0B" stroke-width="0.15" stroke-linejoin="round"/>
<path d="M8.44045 36.8943L7.52344 35.6484" stroke="#0B0B0B" stroke-width="0.15" stroke-linejoin="round"/>
<path d="M10.7952 39.5709L6.78149 36.8477" stroke="#0B0B0B" stroke-width="0.15" stroke-linejoin="round"/>
<path d="M9.74219 39.7248L10.8292 37.7598" stroke="#0B0B0B" stroke-width="0.15" stroke-linejoin="round"/>
<path d="M17.5523 26.6211H3.02504L2.96094 28.469H17.5411L17.5523 26.6211Z" fill="#FF007A" stroke="#382A26" stroke-width="0.3" stroke-linecap="round" stroke-linejoin="round"/>
<path d="M13.953 20.3438H7.00992C6.67266 21.5952 5.21492 24.8814 4.22266 26.6207H16.4866V26.5649C15.5529 24.8312 14.2373 21.5813 13.953 20.3438Z" fill="#C4C4C4" stroke="#382A26" stroke-width="0.3" stroke-linecap="round" stroke-linejoin="round"/>
<path d="M14.1068 19.3477H6.87943L6.85156 20.3455H14.0929L14.1068 19.3477Z" fill="white" stroke="#382A26" stroke-width="0.3" stroke-linecap="round" stroke-linejoin="round"/>
<path d="M14.1895 13.3594H7.04853L7.02344 14.2903H14.1756L14.1895 13.3594Z" fill="#FF007A" stroke="#382A26" stroke-width="0.3" stroke-linecap="round" stroke-linejoin="round"/>
<path d="M13.8323 14.2891H7.26827L7.12891 19.3452H13.7626L13.8323 14.2891Z" fill="#FF007A" stroke="#382A26" stroke-width="0.3" stroke-linecap="round" stroke-linejoin="round"/>
<path d="M10.9276 2.40039H10.7603C10.0155 6.15758 8.85244 9.81961 7.29297 13.3181H13.8458C12.4668 9.7998 11.4878 6.13754 10.9276 2.40039Z" fill="#C4C4C4" stroke="#382A26" stroke-width="0.3" stroke-linecap="round" stroke-linejoin="round"/>
<path d="M8.9433 23.3396H8.08203L8.12105 21.8038L8.55865 21.4805L8.97953 21.8038L8.9433 23.3396Z" fill="white" stroke="#382A26" stroke-width="0.3" stroke-linecap="round" stroke-linejoin="round"/>
<path d="M10.8445 23.3396H9.98047L10.0139 21.8038L10.4515 21.4805L10.8752 21.8038L10.8445 23.3396Z" fill="white" stroke="#382A26" stroke-width="0.3" stroke-linecap="round" stroke-linejoin="round"/>
<path d="M12.7363 23.3415H11.875L11.9029 21.8057L12.3377 21.4824L12.7613 21.8057L12.7363 23.3415Z" fill="white" stroke="#382A26" stroke-width="0.3" stroke-linecap="round" stroke-linejoin="round"/>
<path d="M9.27104 18.9511H8.57422L8.63832 16.2782L8.99788 15.7207L9.33236 16.2782L9.27104 18.9511Z" fill="#382A26" stroke="#382A26" stroke-width="0.3" stroke-linecap="round" stroke-linejoin="round"/>
<path d="M10.8023 18.9511H10.1055L10.1612 16.2782L10.5208 15.7207L10.8552 16.2782L10.8023 18.9511Z" fill="#382A26" stroke="#382A26" stroke-width="0.3" stroke-linecap="round" stroke-linejoin="round"/>
<path d="M12.3374 18.9511H11.6406L11.688 16.2782L12.0448 15.7207L12.382 16.2782L12.3374 18.9511Z" fill="#382A26" stroke="#382A26" stroke-width="0.3" stroke-linecap="round" stroke-linejoin="round"/>
<path d="M7.94496 25.9157H7.07812L7.11993 24.3632L7.56032 24.0371L7.98399 24.3632L7.94496 25.9157Z" fill="white" stroke="#382A26" stroke-width="0.3" stroke-linecap="round" stroke-linejoin="round"/>
<path d="M9.85122 25.9157H8.98438L9.02061 24.3632L9.461 24.0371L9.88467 24.3632L9.85122 25.9157Z" fill="white" stroke="#382A26" stroke-width="0.3" stroke-linecap="round" stroke-linejoin="round"/>
<path d="M11.7614 25.9157H10.8945L10.9252 24.3632L11.3628 24.0371L11.7865 24.3632L11.7614 25.9157Z" fill="white" stroke="#382A26" stroke-width="0.3" stroke-linecap="round" stroke-linejoin="round"/>
<path d="M13.6325 25.9157H12.7656L12.7907 24.3632L13.2283 24.0371L13.6548 24.3632L13.6325 25.9157Z" fill="white" stroke="#382A26" stroke-width="0.3" stroke-linecap="round" stroke-linejoin="round"/>
<path d="M5.99678 31.9003H5.05469L5.14667 28.8984H6.08319L5.99678 31.9003Z" fill="#382A26" stroke="#382A26" stroke-width="0.3" stroke-linecap="round" stroke-linejoin="round"/>
<path d="M7.85616 31.9003H6.91406L6.99489 28.8984H7.93141L7.85616 31.9003Z" fill="#382A26" stroke="#382A26" stroke-width="0.3" stroke-linecap="round" stroke-linejoin="round"/>
<path d="M9.71969 31.9002H8.77759L8.84727 28.8983H9.78379L9.71969 31.9002Z" fill="#382A26" stroke="#382A26" stroke-width="0.3" stroke-linecap="round" stroke-linejoin="round"/>
<path d="M11.5827 31.9003H10.6406L10.6992 28.8984H11.6357L11.5827 31.9003Z" fill="#382A26" stroke="#382A26" stroke-width="0.3" stroke-linecap="round" stroke-linejoin="round"/>
<path d="M13.4421 31.9003H12.5L12.5474 28.8984H13.4839L13.4421 31.9003Z" fill="#382A26" stroke="#382A26" stroke-width="0.3" stroke-linecap="round" stroke-linejoin="round"/>
<path d="M15.3012 31.9002H14.3591L14.3982 28.8983H15.3347L15.3012 31.9002Z" fill="#382A26" stroke="#382A26" stroke-width="0.3" stroke-linecap="round" stroke-linejoin="round"/>
<path d="M5.504 49.0151H4.53125L4.6288 45.8125H5.59598L5.504 49.0151Z" fill="#382A26" stroke="#382A26" stroke-width="0.3" stroke-linecap="round" stroke-linejoin="round"/>
<path d="M7.42588 49.0131H6.45312L6.53953 45.8105H7.50671L7.42588 49.0131Z" fill="#382A26" stroke="#382A26" stroke-width="0.3" stroke-linecap="round" stroke-linejoin="round"/>
<path d="M9.34776 49.0151H8.375L8.45026 45.8125H9.41744L9.34776 49.0151Z" fill="#382A26" stroke="#382A26" stroke-width="0.3" stroke-linecap="round" stroke-linejoin="round"/>
<path d="M11.2696 49.0151H10.2969L10.361 45.8125H11.3282L11.2696 49.0151Z" fill="#382A26" stroke="#382A26" stroke-width="0.3" stroke-linecap="round" stroke-linejoin="round"/>
<path d="M13.1943 49.0151H12.2188L12.2717 45.8125H13.2389L13.1943 49.0151Z" fill="#382A26" stroke="#382A26" stroke-width="0.3" stroke-linecap="round" stroke-linejoin="round"/>
<path d="M15.1201 49.0151H14.1445L14.1863 45.8125H15.1535L15.1201 49.0151Z" fill="#382A26" stroke="#382A26" stroke-width="0.3" stroke-linecap="round" stroke-linejoin="round"/>
<path d="M5.18367 60.0177H4.19141L4.47292 50.8281H5.44846L5.18367 60.0177Z" fill="#FF007A" stroke="#382A26" stroke-width="0.3" stroke-linecap="round" stroke-linejoin="round"/>
<path d="M7.1513 60.0177H6.15625L6.40432 50.8281H7.38265L7.1513 60.0177Z" fill="#FF007A" stroke="#382A26" stroke-width="0.3" stroke-linecap="round" stroke-linejoin="round"/>
<path d="M9.10945 60.0177H8.11719L8.33181 50.8281H9.30735L9.10945 60.0177Z" fill="#FF007A" stroke="#382A26" stroke-width="0.3" stroke-linecap="round" stroke-linejoin="round"/>
<path d="M11.0704 60.0177H10.0781L10.2593 50.8281H11.2376L11.0704 60.0177Z" fill="#FF007A" stroke="#382A26" stroke-width="0.3" stroke-linecap="round" stroke-linejoin="round"/>
<path d="M13.038 60.0177H12.043L12.1935 50.8281H13.169L13.038 60.0177Z" fill="#FF007A" stroke="#382A26" stroke-width="0.3" stroke-linecap="round" stroke-linejoin="round"/>
<path d="M15.0001 60.0177H14.0078L14.1221 50.8281H15.1004L15.0001 60.0177Z" fill="#FF007A" stroke="#382A26" stroke-width="0.3" stroke-linecap="round" stroke-linejoin="round"/>
<path d="M5.0994 62.9434H4.10156L4.17403 60.5547H5.16908L5.0994 62.9434Z" fill="#FF007A" stroke="#382A26" stroke-width="0.3" stroke-linecap="round" stroke-linejoin="round"/>
<path d="M7.07597 62.9434H6.07812L6.14224 60.5547H7.13729L7.07597 62.9434Z" fill="#FF007A" stroke="#382A26" stroke-width="0.3" stroke-linecap="round" stroke-linejoin="round"/>
<path d="M9.04472 62.9434H8.04688L8.10262 60.5547H9.09768L9.04472 62.9434Z" fill="#FF007A" stroke="#382A26" stroke-width="0.3" stroke-linecap="round" stroke-linejoin="round"/>
<path d="M11.0241 62.9434H10.0234L10.0708 60.5547H11.0659L11.0241 62.9434Z" fill="#FF007A" stroke="#382A26" stroke-width="0.3" stroke-linecap="round" stroke-linejoin="round"/>
<path d="M12.9928 62.9434H11.9922L12.0312 60.5547H13.0263L12.9928 62.9434Z" fill="#FF007A" stroke="#382A26" stroke-width="0.3" stroke-linecap="round" stroke-linejoin="round"/>
<path d="M14.9705 62.9434H13.9727L14.0005 60.5547H14.9956L14.9705 62.9434Z" fill="#FF007A" stroke="#382A26" stroke-width="0.3" stroke-linecap="round" stroke-linejoin="round"/>
<path d="M4.70652 76.5738H3.68359L3.75885 74.0625H4.77899L4.70652 76.5738Z" fill="#FF007A" stroke="#382A26" stroke-width="0.3" stroke-linecap="round" stroke-linejoin="round"/>
<path d="M6.72996 76.5738H5.70703L5.77393 74.0625H6.79406L6.72996 76.5738Z" fill="#FF007A" stroke="#382A26" stroke-width="0.3" stroke-linecap="round" stroke-linejoin="round"/>
<path d="M8.75618 76.5738H7.73047L7.79179 74.0625H8.80914L8.75618 76.5738Z" fill="#FF007A" stroke="#382A26" stroke-width="0.3" stroke-linecap="round" stroke-linejoin="round"/>
<path d="M10.7757 76.5738H9.75L9.80017 74.0625H10.8203L10.7757 76.5738Z" fill="#FF007A" stroke="#382A26" stroke-width="0.3" stroke-linecap="round" stroke-linejoin="round"/>
<path d="M12.7991 76.5738H11.7734L11.8152 74.0625H12.8354L12.7991 76.5738Z" fill="#FF007A" stroke="#382A26" stroke-width="0.3" stroke-linecap="round" stroke-linejoin="round"/>
<path d="M14.8226 76.5738H13.7969L13.8303 74.0625H14.8477L14.8226 76.5738Z" fill="#FF007A" stroke="#382A26" stroke-width="0.3" stroke-linecap="round" stroke-linejoin="round"/>
<path d="M4.79748 73.4973H3.77734L4.08673 63.4883H5.08457L4.79748 73.4973Z" fill="#FF007A" stroke="#382A26" stroke-width="0.3" stroke-linecap="round" stroke-linejoin="round"/>
<path d="M6.8092 73.4973H5.78906L6.06222 63.4883H7.06006L6.8092 73.4973Z" fill="#FF007A" stroke="#382A26" stroke-width="0.3" stroke-linecap="round" stroke-linejoin="round"/>
<path d="M8.82092 73.4973H7.80078L8.03491 63.4883H9.03554L8.82092 73.4973Z" fill="#FF007A" stroke="#382A26" stroke-width="0.3" stroke-linecap="round" stroke-linejoin="round"/>
<path d="M10.8326 73.4973H9.8125L10.0104 63.4883H11.011L10.8326 73.4973Z" fill="#FF007A" stroke="#382A26" stroke-width="0.3" stroke-linecap="round" stroke-linejoin="round"/>
<path d="M12.8416 73.4973H11.8242L11.9859 63.4883H12.9865L12.8416 73.4973Z" fill="#FF007A" stroke="#382A26" stroke-width="0.3" stroke-linecap="round" stroke-linejoin="round"/>
<path d="M14.8533 73.4973H13.8359L13.9614 63.4883H14.962L14.8533 73.4973Z" fill="#FF007A" stroke="#382A26" stroke-width="0.3" stroke-linecap="round" stroke-linejoin="round"/>
<path d="M4.38618 87.6656H3.34375L3.66428 77.1465H4.69L4.38618 87.6656Z" fill="#FF007A" stroke="#382A26" stroke-width="0.3" stroke-linecap="round" stroke-linejoin="round"/>
<path d="M6.45147 87.6656H5.40625L5.69055 77.1465H6.71626L6.45147 87.6656Z" fill="#FF007A" stroke="#382A26" stroke-width="0.3" stroke-linecap="round" stroke-linejoin="round"/>
<path d="M8.51397 87.6656H7.46875L7.71682 77.1465H8.73975L8.51397 87.6656Z" fill="#FF007A" stroke="#382A26" stroke-width="0.3" stroke-linecap="round" stroke-linejoin="round"/>
<path d="M10.5737 87.6656H9.53125L9.73751 77.1465H10.7632L10.5737 87.6656Z" fill="#FF007A" stroke="#382A26" stroke-width="0.3" stroke-linecap="round" stroke-linejoin="round"/>
<path d="M12.6429 87.6656H11.5977L11.7677 77.1465H12.7934L12.6429 87.6656Z" fill="#FF007A" stroke="#382A26" stroke-width="0.3" stroke-linecap="round" stroke-linejoin="round"/>
<path d="M14.7054 87.6656H13.6602L13.7939 77.1465H14.8169L14.7054 87.6656Z" fill="#FF007A" stroke="#382A26" stroke-width="0.3" stroke-linecap="round" stroke-linejoin="round"/>
<path d="M3.85992 105.957H2.78125L2.86765 103.176H3.94075L3.85992 105.957Z" fill="#FF007A" stroke="#382A26" stroke-width="0.3" stroke-linecap="round" stroke-linejoin="round"/>
<path d="M5.98995 105.957H4.91406L4.98653 103.176H6.05963L5.98995 105.957Z" fill="#FF007A" stroke="#382A26" stroke-width="0.3" stroke-linecap="round" stroke-linejoin="round"/>
<path d="M8.11885 105.957H7.04297L7.10708 103.176H8.18017L8.11885 105.957Z" fill="#FF007A" stroke="#382A26" stroke-width="0.3" stroke-linecap="round" stroke-linejoin="round"/>
<path d="M10.2478 105.957H9.17188L9.22483 103.176H10.2979L10.2478 105.957Z" fill="#FF007A" stroke="#382A26" stroke-width="0.3" stroke-linecap="round" stroke-linejoin="round"/>
<path d="M12.3795 105.957H11.3008L11.3454 103.176H12.4185L12.3795 105.957Z" fill="#FF007A" stroke="#382A26" stroke-width="0.3" stroke-linecap="round" stroke-linejoin="round"/>
<path d="M14.5084 105.957H13.4297L13.4631 103.176H14.5362L14.5084 105.957Z" fill="#FF007A" stroke="#382A26" stroke-width="0.3" stroke-linecap="round" stroke-linejoin="round"/>
<path d="M3.50722 118.257H2.40625L2.76581 106.59H3.84448L3.50722 118.257Z" fill="#FF007A" stroke="#382A26" stroke-width="0.3" stroke-linecap="round" stroke-linejoin="round"/>
<path d="M5.67909 118.257H4.57812L4.89309 106.59H5.97454L5.67909 118.257Z" fill="#FF007A" stroke="#382A26" stroke-width="0.3" stroke-linecap="round" stroke-linejoin="round"/>
<path d="M7.85097 118.257H6.75L7.02315 106.59H8.10183L7.85097 118.257Z" fill="#FF007A" stroke="#382A26" stroke-width="0.3" stroke-linecap="round" stroke-linejoin="round"/>
<path d="M10.0268 118.257H8.92578L9.15712 106.59H10.2358L10.0268 118.257Z" fill="#FF007A" stroke="#382A26" stroke-width="0.3" stroke-linecap="round" stroke-linejoin="round"/>
<path d="M12.2025 118.257H11.1016L11.2911 106.59H12.3698L12.2025 118.257Z" fill="#FF007A" stroke="#382A26" stroke-width="0.3" stroke-linecap="round" stroke-linejoin="round"/>
<path d="M14.3744 118.257H13.2734L13.4212 106.59H14.4998L14.3744 118.257Z" fill="#FF007A" stroke="#382A26" stroke-width="0.3" stroke-linecap="round" stroke-linejoin="round"/>
<path d="M4.2528 92.3453H3.19922L3.32464 88.2676H4.36987L4.2528 92.3453Z" fill="#FF007A" stroke="#382A26" stroke-width="0.3" stroke-linecap="round" stroke-linejoin="round"/>
<path d="M6.33205 92.3453H5.28125L5.38995 88.2676H6.43518L6.33205 92.3453Z" fill="#FF007A" stroke="#382A26" stroke-width="0.3" stroke-linecap="round" stroke-linejoin="round"/>
<path d="M8.41296 92.3453H7.35938L7.45415 88.2676H8.49937L8.41296 92.3453Z" fill="#FF007A" stroke="#382A26" stroke-width="0.3" stroke-linecap="round" stroke-linejoin="round"/>
<path d="M10.4911 92.3453H9.4375L9.51833 88.2676H10.5636L10.4911 92.3453Z" fill="#FF007A" stroke="#382A26" stroke-width="0.3" stroke-linecap="round" stroke-linejoin="round"/>
<path d="M12.5742 92.3453H11.5234L11.5875 88.2676H12.6328L12.5742 92.3453Z" fill="#FF007A" stroke="#382A26" stroke-width="0.3" stroke-linecap="round" stroke-linejoin="round"/>
<path d="M14.6552 92.3453H13.6016L13.6517 88.2676H14.6997L14.6552 92.3453Z" fill="#FF007A" stroke="#382A26" stroke-width="0.3" stroke-linecap="round" stroke-linejoin="round"/>
<path d="M3.95591 102.582H2.88281L3.18105 92.9492H4.23464L3.95591 102.582Z" fill="#FF007A" stroke="#382A26" stroke-width="0.3" stroke-linecap="round" stroke-linejoin="round"/>
<path d="M6.077 102.582H5.00391L5.26591 92.9492H6.3195L6.077 102.582Z" fill="#FF007A" stroke="#382A26" stroke-width="0.3" stroke-linecap="round" stroke-linejoin="round"/>
<path d="M8.19141 102.582H7.12109L7.34687 92.9492H8.40045L8.19141 102.582Z" fill="#FF007A" stroke="#382A26" stroke-width="0.3" stroke-linecap="round" stroke-linejoin="round"/>
<path d="M10.3086 102.582H9.23828L9.42782 92.9492H10.4814L10.3086 102.582Z" fill="#FF007A" stroke="#382A26" stroke-width="0.3" stroke-linecap="round" stroke-linejoin="round"/>
<path d="M12.4247 102.582H11.3516L11.5076 92.9492H12.5612L12.4247 102.582Z" fill="#FF007A" stroke="#382A26" stroke-width="0.3" stroke-linecap="round" stroke-linejoin="round"/>
<path d="M14.5497 102.582H13.4766L13.5964 92.9492H14.6528L14.5497 102.582Z" fill="#FF007A" stroke="#382A26" stroke-width="0.3" stroke-linecap="round" stroke-linejoin="round"/>
<path d="M11.0036 0H10.803L10.75 2.6702H10.9479L11.0036 0Z" fill="#625D40"/>
<path d="M11.9704 1.42057L11.9732 1.24219H9.78794L9.78516 1.42057H11.9704Z" fill="#625D40"/>
<path d="M10.9532 6.69464H10.5156L10.5323 5.93929L10.7525 5.7832L10.9672 5.93929L10.9532 6.69464Z" fill="white" stroke="#382A26" stroke-width="0.3" stroke-linecap="round" stroke-linejoin="round"/>
<path d="M10.8427 12.177H10.4023L10.4163 11.4078L10.642 11.2461L10.8567 11.4078L10.8427 12.177Z" fill="white" stroke="#382A26" stroke-width="0.3" stroke-linecap="round" stroke-linejoin="round"/>
<path d="M9.40914 12.177H8.96875L8.98548 11.4078L9.21125 11.2461L9.42587 11.4078L9.40914 12.177Z" fill="white" stroke="#382A26" stroke-width="0.3" stroke-linecap="round" stroke-linejoin="round"/>
<path d="M12.2646 12.177H11.8242L11.8382 11.4078L12.0611 11.2461L12.2785 11.4078L12.2646 12.177Z" fill="white" stroke="#382A26" stroke-width="0.3" stroke-linecap="round" stroke-linejoin="round"/>
<path d="M10.1591 9.73508H9.71875L9.73826 8.97137L9.95846 8.8125L10.1759 8.97137L10.1591 9.73508Z" fill="white" stroke="#382A26" stroke-width="0.3" stroke-linecap="round" stroke-linejoin="round"/>
<path d="M11.6212 9.73508H11.1836L11.1975 8.97137L11.4205 8.8125L11.6351 8.97137L11.6212 9.73508Z" fill="white" stroke="#382A26" stroke-width="0.3" stroke-linecap="round" stroke-linejoin="round"/>
<path d="M24.6833 120L24.4882 89.7773H22.8438L22.9525 120H24.6833Z" fill="#FF007A" stroke="#382A26" stroke-width="0.3" stroke-linecap="round" stroke-linejoin="round"/>
<path d="M24.07 87.8633H23.2617L23.2673 88.5991H24.0756L24.07 87.8633Z" fill="#FF007A" stroke="#382A26" stroke-width="0.3" stroke-linecap="round" stroke-linejoin="round"/>
<path d="M24.0449 85.2715H23.2422L23.4763 86.0017H23.7913L24.0449 85.2715Z" fill="#FF007A" stroke="#382A26" stroke-width="0.3" stroke-linecap="round" stroke-linejoin="round"/>
<path d="M24.2393 88.4512H23.0938L23.0965 89.1898H24.2421L24.2393 88.4512Z" fill="#FF007A" stroke="#382A26" stroke-width="0.3" stroke-linecap="round" stroke-linejoin="round"/>
<path d="M24.4988 88.9531H22.8516V89.5747H24.5044L24.4988 88.9531Z" fill="#FF007A" stroke="#382A26" stroke-width="0.3" stroke-linecap="round" stroke-linejoin="round"/>
<path d="M24.6993 89.543H22.6562L22.659 90.106H24.7021L24.6993 89.543Z" fill="#FF007A" stroke="#382A26" stroke-width="0.3" stroke-linecap="round" stroke-linejoin="round"/>
<path d="M23.728 83.8906H23.5469L23.5664 87.8541H23.7503L23.728 83.8906Z" fill="#FF007A" stroke="#382A26" stroke-width="0.3" stroke-linecap="round" stroke-linejoin="round"/>
<path d="M34.3101 120L33.6328 89.7775H31.9883L32.5792 120H34.3101Z" fill="#FF007A" stroke="#382A26" stroke-width="0.3" stroke-linecap="round" stroke-linejoin="round"/>
<path d="M33.1833 87.8633H32.375L32.3889 88.5991H33.2L33.1833 87.8633Z" fill="#FF007A" stroke="#382A26" stroke-width="0.3" stroke-linecap="round" stroke-linejoin="round"/>
<path d="M33.118 85.2695H32.3125L32.5606 85.9998H32.8755L33.118 85.2695Z" fill="#FF007A" stroke="#382A26" stroke-width="0.3" stroke-linecap="round" stroke-linejoin="round"/>
<path d="M33.3643 88.4512H32.2188L32.2355 89.1898H33.381L33.3643 88.4512Z" fill="#FF007A" stroke="#382A26" stroke-width="0.3" stroke-linecap="round" stroke-linejoin="round"/>
<path d="M33.6277 88.9531H31.9805L31.9916 89.5747H33.6417L33.6277 88.9531Z" fill="#FF007A" stroke="#382A26" stroke-width="0.3" stroke-linecap="round" stroke-linejoin="round"/>
<path d="M33.8399 89.543H31.7969L31.808 90.106H33.8539L33.8399 89.543Z" fill="#FF007A" stroke="#382A26" stroke-width="0.3" stroke-linecap="round" stroke-linejoin="round"/>
<path d="M32.7749 83.8906H32.5938L32.6746 87.8541H32.8585L32.7749 83.8906Z" fill="#FF007A" stroke="#382A26" stroke-width="0.3" stroke-linecap="round" stroke-linejoin="round"/>
<path d="M43.9396 120L42.7773 89.7773H41.1328L42.2087 120H43.9396Z" fill="#FF007A" stroke="#382A26" stroke-width="0.3" stroke-linecap="round" stroke-linejoin="round"/>
<path d="M42.3005 87.8633H41.4922L41.5173 88.5991H42.3284L42.3005 87.8633Z" fill="#FF007A" stroke="#382A26" stroke-width="0.3" stroke-linecap="round" stroke-linejoin="round"/>
<path d="M42.1883 85.2715H41.3828L41.6392 86.0017H41.957L42.1883 85.2715Z" fill="#FF007A" stroke="#382A26" stroke-width="0.3" stroke-linecap="round" stroke-linejoin="round"/>
<path d="M42.4893 88.4512H41.3438L41.3716 89.1898H42.5172L42.4893 88.4512Z" fill="#FF007A" stroke="#382A26" stroke-width="0.3" stroke-linecap="round" stroke-linejoin="round"/>
<path d="M42.7567 88.9531H41.1094L41.1289 89.5747H42.7817L42.7567 88.9531Z" fill="#FF007A" stroke="#382A26" stroke-width="0.3" stroke-linecap="round" stroke-linejoin="round"/>
<path d="M42.9778 89.543H40.9375L40.957 90.106H43.0001L42.9778 89.543Z" fill="#FF007A" stroke="#382A26" stroke-width="0.3" stroke-linecap="round" stroke-linejoin="round"/>
<path d="M41.8285 83.8906H41.6445L41.7923 87.8541H41.9762L41.8285 83.8906Z" fill="#FF007A" stroke="#382A26" stroke-width="0.3" stroke-linecap="round" stroke-linejoin="round"/>
<path d="M53.5624 120L51.9179 89.7773H50.2734L51.8315 120H53.5624Z" fill="#FF007A" stroke="#382A26" stroke-width="0.3" stroke-linecap="round" stroke-linejoin="round"/>
<path d="M51.4099 87.8633H50.6016L50.6406 88.5991H51.4517L51.4099 87.8633Z" fill="#FF007A" stroke="#382A26" stroke-width="0.3" stroke-linecap="round" stroke-linejoin="round"/>
<path d="M51.2626 85.2715H50.457L50.7246 86.0017H51.0424L51.2626 85.2715Z" fill="#FF007A" stroke="#382A26" stroke-width="0.3" stroke-linecap="round" stroke-linejoin="round"/>
<path d="M51.6104 88.4512H50.4648L50.5039 89.1898H51.6494L51.6104 88.4512Z" fill="#FF007A" stroke="#382A26" stroke-width="0.3" stroke-linecap="round" stroke-linejoin="round"/>
<path d="M51.8923 88.9531H50.2422L50.2756 89.5747H51.9257L51.8923 88.9531Z" fill="#FF007A" stroke="#382A26" stroke-width="0.3" stroke-linecap="round" stroke-linejoin="round"/>
<path d="M52.1173 89.543H50.0742L50.1021 90.106H52.1479L52.1173 89.543Z" fill="#FF007A" stroke="#382A26" stroke-width="0.3" stroke-linecap="round" stroke-linejoin="round"/>
<path d="M50.8793 83.8906H50.6953L50.9071 87.8541H51.0911L50.8793 83.8906Z" fill="#FF007A" stroke="#382A26" stroke-width="0.3" stroke-linecap="round" stroke-linejoin="round"/>
<path d="M63.193 120L61.0636 89.7775H59.4219L61.4622 120H63.193Z" fill="#FF007A" stroke="#382A26" stroke-width="0.3" stroke-linecap="round" stroke-linejoin="round"/>
<path d="M60.5232 87.8633H59.7148L59.765 88.5991H60.5733L60.5232 87.8633Z" fill="#FF007A" stroke="#382A26" stroke-width="0.3" stroke-linecap="round" stroke-linejoin="round"/>
<path d="M60.3368 85.2695H59.5312L59.81 85.9998H60.1277L60.3368 85.2695Z" fill="#FF007A" stroke="#382A26" stroke-width="0.3" stroke-linecap="round" stroke-linejoin="round"/>
<path d="M60.7315 88.4512H59.5859L59.6361 89.1898H60.7817L60.7315 88.4512Z" fill="#FF007A" stroke="#382A26" stroke-width="0.3" stroke-linecap="round" stroke-linejoin="round"/>
<path d="M61.0212 88.9531H59.3711L59.4129 89.5747H61.063L61.0212 88.9531Z" fill="#FF007A" stroke="#382A26" stroke-width="0.3" stroke-linecap="round" stroke-linejoin="round"/>
<path d="M61.2579 89.543H59.2148L59.2539 90.106H61.2969L61.2579 89.543Z" fill="#FF007A" stroke="#382A26" stroke-width="0.3" stroke-linecap="round" stroke-linejoin="round"/>
<path d="M59.9261 83.8906H59.7422L60.0153 87.8541H60.1993L59.9261 83.8906Z" fill="#FF007A" stroke="#382A26" stroke-width="0.3" stroke-linecap="round" stroke-linejoin="round"/>
<path d="M72.8187 120L70.207 89.7773H68.5625L71.0878 120H72.8187Z" fill="#FF007A" stroke="#382A26" stroke-width="0.3" stroke-linecap="round" stroke-linejoin="round"/>
<path d="M69.6364 87.8633H68.8281L68.8894 88.5991H69.6978L69.6364 87.8633Z" fill="#FF007A" stroke="#382A26" stroke-width="0.3" stroke-linecap="round" stroke-linejoin="round"/>
<path d="M69.4043 85.2715H68.6016L68.8914 86.0017H69.2092L69.4043 85.2715Z" fill="#FF007A" stroke="#382A26" stroke-width="0.3" stroke-linecap="round" stroke-linejoin="round"/>
<path d="M69.8565 88.4511H68.7109L68.775 89.1897H69.9206L69.8565 88.4511Z" fill="#FF007A" stroke="#382A26" stroke-width="0.3" stroke-linecap="round" stroke-linejoin="round"/>
<path d="M70.154 88.9531H68.5039L68.5569 89.5747H70.2069L70.154 88.9531Z" fill="#FF007A" stroke="#382A26" stroke-width="0.3" stroke-linecap="round" stroke-linejoin="round"/>
<path d="M70.3997 89.543H68.3594L68.404 90.106H70.4498L70.3997 89.543Z" fill="#FF007A" stroke="#382A26" stroke-width="0.3" stroke-linecap="round" stroke-linejoin="round"/>
<path d="M68.9808 83.8906H68.7969L69.1341 87.8541H69.3181L68.9808 83.8906Z" fill="#FF007A" stroke="#382A26" stroke-width="0.3" stroke-linecap="round" stroke-linejoin="round"/>
<path d="M20.3107 92.3203H17.5374L17.5234 94.8205H20.3079L20.3107 92.3203Z" fill="#FF007A" stroke="#382A26" stroke-width="0.3" stroke-linecap="round" stroke-linejoin="round"/>
<path d="M18.9326 89.625L18.5508 92.2506H19.295L18.9326 89.625Z" fill="#FF007A" stroke="#382A26" stroke-width="0.3" stroke-linecap="round" stroke-linejoin="round"/>
<path d="M29.4502 92.3203H26.6797L26.7048 94.8205H29.4893L29.4502 92.3203Z" fill="#FF007A" stroke="#382A26" stroke-width="0.3" stroke-linecap="round" stroke-linejoin="round"/>
<path d="M28.0275 89.625L27.6875 92.2506H28.4317L28.0275 89.625Z" fill="#FF007A" stroke="#382A26" stroke-width="0.3" stroke-linecap="round" stroke-linejoin="round"/>
<path d="M38.5858 92.3203H35.8125L35.8794 94.8205H38.6611L38.5858 92.3203Z" fill="#FF007A" stroke="#382A26" stroke-width="0.3" stroke-linecap="round" stroke-linejoin="round"/>
<path d="M37.1225 89.625L36.8242 92.2506H37.5684L37.1225 89.625Z" fill="#FF007A" stroke="#382A26" stroke-width="0.3" stroke-linecap="round" stroke-linejoin="round"/>
<path d="M47.7237 92.3203H44.9531L45.0563 94.8205H47.8407L47.7237 92.3203Z" fill="#FF007A" stroke="#382A26" stroke-width="0.3" stroke-linecap="round" stroke-linejoin="round"/>
<path d="M46.2174 89.625L45.9609 92.2506H46.7051L46.2174 89.625Z" fill="#FF007A" stroke="#382A26" stroke-width="0.3" stroke-linecap="round" stroke-linejoin="round"/>
<path d="M56.8565 92.3203H54.0859L54.2309 94.8205H57.0154L56.8565 92.3203Z" fill="#FF007A" stroke="#382A26" stroke-width="0.3" stroke-linecap="round" stroke-linejoin="round"/>
<path d="M55.3123 89.625L55.0977 92.2506H55.8419L55.3123 89.625Z" fill="#FF007A" stroke="#382A26" stroke-width="0.3" stroke-linecap="round" stroke-linejoin="round"/>
<path d="M65.9999 92.3203H63.2266L63.4133 94.8205H66.195L65.9999 92.3203Z" fill="#FF007A" stroke="#382A26" stroke-width="0.3" stroke-linecap="round" stroke-linejoin="round"/>
<path d="M64.4072 89.625L64.2344 92.2506H64.9786L64.4072 89.625Z" fill="#FF007A" stroke="#382A26" stroke-width="0.3" stroke-linecap="round" stroke-linejoin="round"/>
<path d="M20.8454 103.648H17.0547L17.0909 97.9785H20.8454V103.648Z" fill="#FF007A" stroke="#382A26" stroke-width="0.3" stroke-linecap="round" stroke-linejoin="round"/>
<path d="M30.2108 103.648H26.4201L26.3672 97.9785H30.1216L30.2108 103.648Z" fill="#FF007A" stroke="#382A26" stroke-width="0.3" stroke-linecap="round" stroke-linejoin="round"/>
<path d="M39.5763 103.648H35.7856L35.6406 97.9785H39.3951L39.5763 103.648Z" fill="#FF007A" stroke="#382A26" stroke-width="0.3" stroke-linecap="round" stroke-linejoin="round"/>
<path d="M48.9417 103.648H45.151L44.9141 97.9785H48.6685L48.9417 103.648Z" fill="#FF007A" stroke="#382A26" stroke-width="0.3" stroke-linecap="round" stroke-linejoin="round"/>
<path d="M58.3082 103.648H54.5175L54.1914 97.9785H57.9459L58.3082 103.648Z" fill="#FF007A" stroke="#382A26" stroke-width="0.3" stroke-linecap="round" stroke-linejoin="round"/>
<path d="M67.6736 103.648H63.8829L63.4648 97.9785H67.2193L67.6736 103.648Z" fill="#FF007A" stroke="#382A26" stroke-width="0.3" stroke-linecap="round" stroke-linejoin="round"/>
<path d="M20.8459 111.063H17.0078L17.044 105.252H20.8459V111.063Z" fill="#FF007A" stroke="#382A26" stroke-width="0.3" stroke-linecap="round" stroke-linejoin="round"/>
<path d="M30.3313 111.063H26.4932L26.4375 105.252H30.2365L30.3313 111.063Z" fill="#FF007A" stroke="#382A26" stroke-width="0.3" stroke-linecap="round" stroke-linejoin="round"/>
<path d="M39.8167 111.063H35.9758L35.8281 105.252H39.63L39.8167 111.063Z" fill="#FF007A" stroke="#382A26" stroke-width="0.3" stroke-linecap="round" stroke-linejoin="round"/>
<path d="M49.2965 111.063H45.4585L45.2188 105.252H49.0178L49.2965 111.063Z" fill="#FF007A" stroke="#382A26" stroke-width="0.3" stroke-linecap="round" stroke-linejoin="round"/>
<path d="M58.7819 111.063H54.9438L54.6094 105.252H58.4112L58.7819 111.063Z" fill="#FF007A" stroke="#382A26" stroke-width="0.3" stroke-linecap="round" stroke-linejoin="round"/>
<path d="M68.2673 111.063H64.4292L64 105.252H67.8018L68.2673 111.063Z" fill="#FF007A" stroke="#382A26" stroke-width="0.3" stroke-linecap="round" stroke-linejoin="round"/>
<path d="M20.8453 118.673H16.957L16.9961 112.711H20.8453V118.673Z" fill="#FF007A" stroke="#382A26" stroke-width="0.3" stroke-linecap="round" stroke-linejoin="round"/>
<path d="M30.4546 118.673H26.5663L26.5078 112.711H30.357L30.4546 118.673Z" fill="#FF007A" stroke="#382A26" stroke-width="0.3" stroke-linecap="round" stroke-linejoin="round"/>
<path d="M40.0572 118.673H36.1689L36.0156 112.711H39.8676L40.0572 118.673Z" fill="#FF007A" stroke="#382A26" stroke-width="0.3" stroke-linecap="round" stroke-linejoin="round"/>
<path d="M49.6676 118.673H45.7793L45.5312 112.711H49.3805L49.6676 118.673Z" fill="#FF007A" stroke="#382A26" stroke-width="0.3" stroke-linecap="round" stroke-linejoin="round"/>
<path d="M59.2701 118.673H55.3819L55.0391 112.711H58.8883L59.2701 118.673Z" fill="#FF007A" stroke="#382A26" stroke-width="0.3" stroke-linecap="round" stroke-linejoin="round"/>
<path d="M68.8766 118.673H64.9884L64.5508 112.711H68.4L68.8766 118.673Z" fill="#FF007A" stroke="#382A26" stroke-width="0.3" stroke-linecap="round" stroke-linejoin="round"/>
<path d="M82.2171 120L79.6054 89.7773H77.9609L80.4862 120H82.2171Z" fill="#FF007A" stroke="#382A26" stroke-width="0.3" stroke-linecap="round" stroke-linejoin="round"/>
<path d="M79.0376 87.8633H78.2266L78.2907 88.5991H79.099L79.0376 87.8633Z" fill="#FF007A" stroke="#382A26" stroke-width="0.3" stroke-linecap="round" stroke-linejoin="round"/>
<path d="M78.8016 85.2715H77.9961L78.2888 86.0017H78.6065L78.8016 85.2715Z" fill="#FF007A" stroke="#382A26" stroke-width="0.3" stroke-linecap="round" stroke-linejoin="round"/>
<path d="M79.2549 88.4512H78.1094L78.1707 89.1898H79.319L79.2549 88.4512Z" fill="#FF007A" stroke="#382A26" stroke-width="0.3" stroke-linecap="round" stroke-linejoin="round"/>
<path d="M79.5457 88.9531H77.8984L77.9514 89.5747H79.6015L79.5457 88.9531Z" fill="#FF007A" stroke="#382A26" stroke-width="0.3" stroke-linecap="round" stroke-linejoin="round"/>
<path d="M79.7931 89.543H77.75L77.7974 90.106H79.8432L79.7931 89.543Z" fill="#FF007A" stroke="#382A26" stroke-width="0.3" stroke-linecap="round" stroke-linejoin="round"/>
<path d="M78.3715 83.8906H78.1875L78.5248 87.8541H78.7059L78.3715 83.8906Z" fill="#FF007A" stroke="#382A26" stroke-width="0.3" stroke-linecap="round" stroke-linejoin="round"/>
<path d="M77.0681 103.648H73.2775L72.8594 97.9785H76.6138L77.0681 103.648Z" fill="#FF007A" stroke="#382A26" stroke-width="0.3" stroke-linecap="round" stroke-linejoin="round"/>
<path d="M77.6657 111.063H73.8249L73.3984 105.252H77.2003L77.6657 111.063Z" fill="#FF007A" stroke="#382A26" stroke-width="0.3" stroke-linecap="round" stroke-linejoin="round"/>
<path d="M78.2711 118.673H74.3829L73.9453 112.711H77.7945L78.2711 118.673Z" fill="#FF007A" stroke="#382A26" stroke-width="0.3" stroke-linecap="round" stroke-linejoin="round"/>
<path d="M91.6049 120L88.996 89.7773H87.3516L89.874 120H91.6049Z" fill="#FF007A" stroke="#382A26" stroke-width="0.3" stroke-linecap="round" stroke-linejoin="round"/>
<path d="M88.4294 87.8633H87.6211L87.6824 88.5991H88.4935L88.4294 87.8633Z" fill="#FF007A" stroke="#382A26" stroke-width="0.3" stroke-linecap="round" stroke-linejoin="round"/>
<path d="M88.1961 85.2715H87.3906L87.6833 86.0017H87.9982L88.1961 85.2715Z" fill="#FF007A" stroke="#382A26" stroke-width="0.3" stroke-linecap="round" stroke-linejoin="round"/>
<path d="M88.6495 88.4512H87.5039L87.5652 89.1898H88.7108L88.6495 88.4512Z" fill="#FF007A" stroke="#382A26" stroke-width="0.3" stroke-linecap="round" stroke-linejoin="round"/>
<path d="M88.9442 88.9531H87.2969L87.347 89.5747H88.9999L88.9442 88.9531Z" fill="#FF007A" stroke="#382A26" stroke-width="0.3" stroke-linecap="round" stroke-linejoin="round"/>
<path d="M89.1915 89.543H87.1484L87.1958 90.106H89.2389L89.1915 89.543Z" fill="#FF007A" stroke="#382A26" stroke-width="0.3" stroke-linecap="round" stroke-linejoin="round"/>
<path d="M87.7671 83.8906H87.5859L87.9204 87.8541H88.1044L87.7671 83.8906Z" fill="#FF007A" stroke="#382A26" stroke-width="0.3" stroke-linecap="round" stroke-linejoin="round"/>
<path d="M86.4666 103.648H82.6759L82.2578 97.9785H86.0123L86.4666 103.648Z" fill="#FF007A" stroke="#382A26" stroke-width="0.3" stroke-linecap="round" stroke-linejoin="round"/>
<path d="M87.0575 111.063H83.2194L82.793 105.252H86.5948L87.0575 111.063Z" fill="#FF007A" stroke="#382A26" stroke-width="0.3" stroke-linecap="round" stroke-linejoin="round"/>
<path d="M87.6696 118.673H83.7814L83.3438 112.711H87.193L87.6696 118.673Z" fill="#FF007A" stroke="#382A26" stroke-width="0.3" stroke-linecap="round" stroke-linejoin="round"/>
<path d="M51.9923 74.8828H38.7305V120H51.9923V74.8828Z" fill="white" stroke="#382A26" stroke-width="0.3" stroke-linecap="round" stroke-linejoin="round"/>
<path d="M43.7187 120.001H32.9654C32.9515 119.538 32.9348 118.476 32.9654 116.745C33.0184 114.34 33.98 101.675 33.98 101.675L33.8741 96.9724C33.8741 96.9724 33.1271 98.2546 30.4541 100.875C27.7811 103.495 20.3531 108.679 20.3531 108.679L20.1914 94.7817C20.1914 94.7817 25.8579 89.5974 25.8579 89.4385C26.084 87.8077 26.6872 86.2522 27.6195 84.8952C29.0633 82.8633 31.9509 81.5282 31.9509 81.5282L38.0438 79.1758L38.2027 79.605C38.2027 79.605 40.1259 83.4514 40.6611 85.5363C41.1962 87.6212 41.985 90.0656 41.985 90.0656C41.985 90.0656 41.6227 95.5314 41.5697 101.945C41.5307 107.784 43.387 118.192 43.7187 120.001Z" fill="#382A26" stroke="#382A26" stroke-width="0.3" stroke-linecap="round" stroke-linejoin="round"/>
<path d="M28.7487 91.8786L28.0547 91.0898" stroke="#382A26" stroke-width="0.3" stroke-linecap="round" stroke-linejoin="round"/>
<path d="M33.5087 97.2924L29.5312 92.7715" stroke="#382A26" stroke-width="0.3" stroke-linecap="round" stroke-linejoin="round"/>
<path d="M32.7585 96.0075L29.1797 90.0762" stroke="#382A26" stroke-width="0.3" stroke-linecap="round" stroke-linejoin="round"/>
<path d="M35.9563 79.4872C35.9563 79.4872 31.5719 80.931 31.0395 82.6424C30.5072 84.3538 31.0925 89.5883 31.5719 92.37C32.0513 95.1517 33.0157 97.125 33.4979 97.2867C33.9801 97.4484 34.5125 96.484 34.7271 95.3077C34.9417 94.1315 36.1207 83.7099 36.3827 82.0543C36.6447 80.3987 36.3409 79.3339 35.9563 79.4872Z" fill="#B0B0B0" stroke="#382A26" stroke-width="0.3" stroke-linecap="round" stroke-linejoin="round"/>
<path d="M34.7353 80.0278C34.324 83.7198 34.11 87.4312 34.0943 91.1461C34.0943 96.9715 33.9856 101.674 33.9856 101.674C33.9856 101.674 32.971 94.9396 32.8093 90.6639C32.6477 86.3883 32.918 80.8305 32.918 80.8305C32.918 80.8305 34.3061 79.9748 34.7353 80.0278Z" fill="#382A26" stroke="#382A26" stroke-width="0.3" stroke-linecap="round" stroke-linejoin="round"/>
<path d="M64.6614 85.8698C64.6614 85.8698 68.1511 93.1167 69.6562 95.3074C71.1613 97.4982 70.9551 98.248 70.3391 98.1114C70.0048 98.0448 69.6818 97.9303 69.3803 97.7714C69.3803 97.7714 72.803 103.653 73.0762 105.854C73.3493 108.056 73.8956 110.367 70.2025 112.282C66.5094 114.197 63.3625 110.027 62.8135 109.411C62.2644 108.795 61.5843 89.5044 61.7209 87.4529C61.8574 85.4015 63.6942 84.9779 64.6614 85.8698Z" fill="#B0B0B0" stroke="#382A26" stroke-width="0.3" stroke-linecap="round" stroke-linejoin="round"/>
<path d="M69.3696 97.7715C69.1484 97.6229 68.9812 97.4068 68.893 97.1555C68.7564 96.7457 66.2924 93.8721 65.6096 92.367C64.9267 90.8618 64.1713 89.9727 63.8982 90.7922C63.625 91.6116 62.7359 92.1607 62.6662 90.179C62.5965 88.1972 64.241 85.5939 64.6507 85.8698C65.1666 86.2384 65.6074 86.7019 65.9496 87.2356C66.2924 87.7931 69.6455 93.8721 70.5347 95.5138C71.4238 97.1555 71.5604 98.1812 71.1507 98.524C70.7409 98.8668 69.9187 98.0446 69.3696 97.7715Z" fill="#B0B0B0" stroke="#382A26" stroke-width="0.3" stroke-linecap="round" stroke-linejoin="round"/>
<path d="M69.3711 102.082C69.3711 102.082 70.4665 107.487 70.8093 108.785C71.1521 110.084 72.1082 110.221 72.451 110.017" stroke="#382A26" stroke-width="0.3" stroke-linecap="round" stroke-linejoin="round"/>
<path d="M70.9428 99.9602C70.9428 99.9602 68.5485 99.4028 68.7548 100.44C68.961 101.476 69.1645 102.834 69.7108 103.037C70.2571 103.241 72.1051 102.424 72.1051 102.424C72.1051 102.424 71.6285 100.44 70.9428 99.9602Z" fill="#B0B0B0" stroke="#382A26" stroke-width="0.3" stroke-linecap="round" stroke-linejoin="round"/>
<path d="M64.9558 90.4252V95.4813C64.9558 96.3481 64.8833 98.0065 64.8833 98.0065L68.2503 120.001H50.4815C50.2725 118.866 49.0879 112.439 47.9145 105.95C46.6128 98.8009 47.9145 95.9161 47.9145 95.9161C47.9145 95.9161 49.2133 87.0331 49.4307 85.7342C49.6481 84.4354 49.7903 79.1618 49.7903 79.1618C49.7903 79.1618 50.6571 73.6737 50.7296 73.1692C50.8021 72.6647 52.1009 73.3142 52.1009 73.3142C52.1009 73.3142 56.0728 73.3866 57.0121 73.0968C57.9514 72.8069 60.1896 71.0035 62.0682 71.4244C63.9468 71.8453 66.185 73.2306 66.185 73.2306L70.7338 70.9199C70.7338 70.9199 69.3625 72.5087 69.4349 78.4288C69.5074 84.3489 70.3715 84.5608 71.8877 85.0012C72.5525 85.2062 73.228 85.3746 73.9113 85.5057C73.9113 85.5057 66.5278 86.2917 65.4436 86.5815C64.3593 86.8714 64.9558 86.8157 64.9558 90.4252Z" fill="#382A26" stroke="#382A26" stroke-width="0.3" stroke-linecap="round" stroke-linejoin="round"/>
<path d="M65.2429 74.0332C65.2429 74.0332 63.3643 74.0332 61.7031 77.5702" stroke="#382A26" stroke-width="0.3" stroke-linecap="round" stroke-linejoin="round"/>
<path d="M60.6445 80.1621C60.6306 80.399 60.625 80.6443 60.625 80.8924" stroke="#382A26" stroke-width="0.3" stroke-linecap="round" stroke-linejoin="round"/>
<path d="M61.6341 75.9082C61.1419 77.0463 60.8279 78.2534 60.7031 79.487" stroke="#382A26" stroke-width="0.3" stroke-linecap="round" stroke-linejoin="round"/>
<path d="M63.4064 98.058C62.6021 96.4977 61.938 94.8692 61.4219 93.1914" stroke="#382A26" stroke-width="0.3" stroke-linecap="round" stroke-linejoin="round"/>
<path d="M49.3768 99.9791C49.3768 99.9791 52.9445 99.6474 54.2768 99.1067C55.6091 98.566 57.3428 97.3814 58.0257 97.1891C58.7086 96.9968 59.1406 97.9667 59.1824 98.2845C59.2242 98.6022 60.2527 100.414 59.9489 100.991C59.6451 101.568 56.9777 105.729 56.0969 105.991C55.2161 106.253 49.951 105.509 49.6053 105.336C49.2597 105.163 48.9977 104.336 48.9448 103.909C48.8918 103.483 48.7803 100.392 48.7803 100.392C48.7803 100.392 48.5796 100.079 49.3768 99.9791Z" fill="#B0B0B0" stroke="#382A26" stroke-width="0.3" stroke-linecap="round" stroke-linejoin="round"/>
<path d="M57.6606 72.518C57.314 75.8763 57.2422 79.2573 57.4459 82.6274C57.8055 87.7531 58.5999 89.7767 58.1678 90.6435C57.7358 91.5104 56.1443 91.5104 55.2774 90.6435C54.4106 89.7767 52.5348 88.7649 52.1 83.2768C51.6652 77.7887 52.8943 73.3123 53.1842 73.1674C53.4741 73.0225 56.6516 71.9354 57.6606 72.518Z" fill="#B0B0B0" stroke="#382A26" stroke-width="0.3" stroke-linecap="round" stroke-linejoin="round"/>
<path d="M56.1849 72.279C56.1849 72.279 55.1648 82.9458 56.6114 87.9295C58.058 92.9131 68.3542 103.566 68.4991 104.001C68.644 104.436 67.4873 104.36 66.9828 103.928C66.4783 103.496 60.2934 98.8165 56.9096 93.6879C53.5259 88.5594 53.682 84.2559 53.6235 80.0973C53.573 77.7027 53.8277 75.3115 54.3816 72.9814C54.3816 72.9814 54.4819 71.978 56.1849 72.279Z" fill="#382A26" stroke="#382A26" stroke-width="0.3" stroke-linecap="round" stroke-linejoin="round"/>
<path d="M97.9602 65.7461L77.4432 67.8783C77.4432 67.8783 73.2623 67.8115 72.1083 70.9443C70.9544 74.0772 70.5363 77.7871 70.8764 80.4545C71.2164 83.1219 71.6289 83.6013 73.0671 84.2842C74.5054 84.967 79.2911 84.5629 79.2911 84.5629L96.8871 81.8565" fill="white"/>
<path d="M97.9602 65.7461L77.4432 67.8783C77.4432 67.8783 73.2623 67.8115 72.1083 70.9443C70.9544 74.0772 70.5363 77.7871 70.8764 80.4545C71.2164 83.1219 71.6289 83.6013 73.0671 84.2842C74.5054 84.967 79.2911 84.5629 79.2911 84.5629L96.8871 81.8565" stroke="#382A26" stroke-width="0.3" stroke-linecap="round" stroke-linejoin="round"/>
<path d="M77.4417 67.878C77.4417 67.878 73.7486 67.878 72.1766 72.1202C70.6045 76.3624 71.3543 80.2032 71.8337 82.1738C72.3131 84.1444 76.8954 84.6378 77.7845 84.6378C78.2871 84.6401 78.7895 84.6168 79.2897 84.5681C78.9607 85.1708 78.5199 85.7053 77.9908 86.1429C77.2382 86.7003 72.8594 86.4216 70.808 85.9366C68.7566 85.4516 66.6271 82.3132 66.4292 79.643C66.2313 76.9728 68.004 72.1174 69.8492 70.4088C71.6944 68.7002 75.8112 67.4682 77.4417 67.878Z" fill="#8C8C8C" stroke="#382A26" stroke-width="0.3" stroke-linecap="round" stroke-linejoin="round"/>
<path d="M55.4708 104.81C55.8096 104.707 56.0006 104.348 55.8976 104.01C55.7945 103.671 55.4364 103.48 55.0977 103.583C54.759 103.686 54.5679 104.044 54.6709 104.383C54.774 104.722 55.1321 104.913 55.4708 104.81Z" fill="white" stroke="#382A26" stroke-width="0.3" stroke-linecap="round" stroke-linejoin="round"/>
<path d="M55.2509 83.1663C55.2509 83.1663 52.9792 81.7531 52.3242 81.2988C51.6692 80.8445 50.9111 80.5936 50.7578 80.694C50.5714 80.9417 50.4195 81.2136 50.3062 81.5023C50.3062 81.5023 49.9021 79.8857 50.1028 79.1805C50.3035 78.4753 51.0114 78.9798 51.7751 79.3812C52.5464 79.8517 53.2293 80.4536 53.7931 81.1595C54.2419 81.7169 55.2509 83.1663 55.2509 83.1663Z" fill="#382A26" stroke="#382A26" stroke-width="0.3" stroke-linecap="round" stroke-linejoin="round"/>
<path d="M47.4805 69.4117C47.4805 69.4117 48.7096 68.9769 49.504 69.4842C50.2984 69.9915 53.3309 72.6617 53.3309 72.6617C53.3309 72.6617 53.186 77.138 53.9079 79.3762C54.6298 81.6144 55.7559 83.0219 55.2514 83.1669C54.7469 83.3118 52.4641 80.243 51.7422 79.9532C51.0203 79.6633 50.3709 79.3037 50.3709 79.6744C50.3709 80.0451 50.9478 87.9052 50.6496 89.349C50.3514 90.7928 47.6254 96.49 47.6254 96.49C47.6254 96.49 49.1417 80.6026 49.3591 77.6425C49.5765 74.6824 47.4805 69.4117 47.4805 69.4117Z" fill="#8C8C8C" stroke="#382A26" stroke-width="0.3" stroke-linecap="round" stroke-linejoin="round"/>
<path d="M48.2473 67.5977C48.2473 67.5977 49.3929 73.4509 49.3929 75.2375C49.3929 77.0242 47.9742 81.0629 45.265 81.3695C41.1342 81.8294 40.1002 78.6157 39.356 77.3531C38.6118 76.0904 37.6836 73.0523 37.6836 73.0523C37.6836 73.0523 40.2646 74.2564 41.6415 73.568C43.0184 72.8795 48.2473 67.5977 48.2473 67.5977Z" fill="white" stroke="#382A26" stroke-width="0.3" stroke-linecap="round" stroke-linejoin="round"/>
<path d="M43.3417 75.3926L39.356 77.3437C38.6921 75.9538 38.1331 74.5162 37.6836 73.043L43.3417 75.3926Z" fill="#382A26" stroke="#382A26" stroke-width="0.3" stroke-linecap="round" stroke-linejoin="round"/>
<path d="M41.9914 90.0629C41.9914 90.0629 38.7191 84.441 38.0892 84.3267C37.4593 84.2124 35.8594 85.2409 35.8594 84.8423C35.8594 84.4437 37.1136 81.6425 37.2865 81.414C37.4593 81.1854 37.7436 81.2997 38.2007 82.0439C38.6578 82.7881 41.9914 90.0629 41.9914 90.0629Z" fill="#382A26" stroke="#382A26" stroke-width="0.3" stroke-linecap="round" stroke-linejoin="round"/>
<path d="M41.9927 90.061C41.9927 90.061 39.6096 85.802 38.7428 84.5728C38.2411 83.8718 37.8062 83.1252 37.4439 82.343C37.4439 82.343 36.0001 85.3756 35.3507 85.3756C34.7012 85.3756 34.7012 85.7379 35.2057 83.9318C35.7102 82.1256 35.9388 78.2736 36.6607 75.818C37.3826 73.3625 37.9707 72.1138 38.4752 72.3284C38.9797 72.543 38.6006 73.605 39.5371 78.5161C40.4737 83.4273 41.5161 85.8327 41.806 87.1343C41.9835 88.0991 42.0462 89.0815 41.9927 90.061Z" fill="#8C8C8C" stroke="#382A26" stroke-width="0.3" stroke-linecap="round" stroke-linejoin="round"/>
<path d="M39.2712 77.0912C39.2712 77.0912 38.7611 75.862 38.2956 75.4439C37.8302 75.0258 37.125 74.5102 37.125 74.5102L37.6825 73.0469L38.7221 74.8837C38.7221 74.8837 39.4106 76.0209 39.2712 77.0912Z" fill="#382A26" stroke="#382A26" stroke-width="0.3" stroke-linecap="round" stroke-linejoin="round"/>
<path d="M30.9385 61.813C30.9385 61.813 29.8236 61.3531 29.7093 62.6855C29.595 64.0178 30.4786 64.8372 31.0416 65.2469C31.5148 65.5381 32.0342 65.7464 32.5774 65.8629L32.0199 62.8388L30.9385 61.813Z" fill="white" stroke="#382A26" stroke-width="0.3" stroke-linecap="round" stroke-linejoin="round"/>
<path d="M31.0938 54.6396C31.0938 54.6396 32.1696 64.1163 32.5794 66.6249C32.9891 69.1334 38.781 74.9866 39.2939 75.388C39.8067 75.7894 41.8554 75.7476 43.341 75.388C44.8266 75.0284 47.2432 70.4183 47.9539 69.4957C48.6647 68.5731 49.0688 68.0101 49.1329 66.7781C49.197 65.5462 49.4395 63.6035 49.4395 63.6035C49.4395 63.6035 50.6186 63.2941 51.5913 61.6524C52.5641 60.0107 52.4108 57.3488 50.9753 56.9391C49.5399 56.5294 49.3364 57.6554 49.0242 58.8902C48.7121 60.125 48.4668 55.919 48.3581 55.356C48.2494 54.7929 48.3051 53.3575 43.695 52.4349C39.0848 51.5123 36.5707 51.922 35.8042 52.1283C35.0377 52.3346 31.4951 53.8202 31.0938 54.6396Z" fill="white" stroke="#382A26" stroke-width="0.3" stroke-linecap="round" stroke-linejoin="round"/>
<path d="M48.3637 51.5646C48.3637 51.5646 51.0785 53.2564 50.7189 54.6919C50.3594 56.1273 48.8236 58.176 49.0298 58.8923C49.2361 59.6086 49.1831 60.8434 48.8765 60.5842C48.5699 60.3249 47.2348 55.2549 47.2348 55.2549C47.2348 55.2549 45.5959 54.2292 41.4959 53.6662C37.3958 53.1031 36.5763 53.4627 36.5763 53.4627C36.5763 53.4627 41.5488 54.5776 40.7266 54.9985C39.9043 55.4194 39.2939 56.0744 35.152 56.3921C31.0102 56.7099 31.7739 55.9712 31.7739 55.9712C31.7739 55.9712 31.877 58.1258 31.877 58.9452C31.877 59.7647 32.1334 63.5554 32.1334 63.5554C31.9025 63.4397 31.694 63.284 31.5174 63.0955C31.2929 62.686 31.1063 62.2568 30.96 61.8133C30.96 61.8133 28.7051 59.7647 28.5518 58.3794C28.3985 56.9942 30.2938 55.1518 30.2938 55.1518C29.8393 54.1578 29.7134 53.0448 29.9343 51.9743C30.2938 50.1319 32.9585 46.8513 35.5729 45.8786C38.1874 44.9058 39.8569 44.1867 44.3166 46.2353C48.7762 48.284 49.749 50.5918 49.3336 51.0517C49.08 51.3305 48.7369 51.5119 48.3637 51.5646Z" fill="#382A26" stroke="#382A26" stroke-width="0.3" stroke-linecap="round" stroke-linejoin="round"/>
<path d="M41.8438 60.8121C42.1943 60.4639 42.6419 60.2297 43.1278 60.1402C43.6137 60.0507 44.1153 60.11 44.5669 60.3104" fill="white"/>
<path d="M41.8438 60.8121C42.1943 60.4639 42.6419 60.2297 43.1278 60.1402C43.6137 60.0507 44.1153 60.11 44.5669 60.3104" stroke="#382A26" stroke-width="0.3" stroke-linecap="round" stroke-linejoin="round"/>
<path d="M36.323 62.351C36.323 62.351 34.8987 61.8493 34.0625 62.7719L36.323 62.351Z" fill="white"/>
<path d="M36.323 62.351C36.323 62.351 34.8987 61.8493 34.0625 62.7719" stroke="#382A26" stroke-width="0.3" stroke-linecap="round" stroke-linejoin="round"/>
<path d="M43.0625 60.6356C43.0625 60.7458 43.0952 60.8536 43.1564 60.9453C43.2177 61.037 43.3048 61.1084 43.4066 61.1506C43.5085 61.1928 43.6206 61.2038 43.7287 61.1823C43.8368 61.1608 43.9362 61.1077 44.0141 61.0298C44.0921 60.9518 44.1452 60.8525 44.1667 60.7443C44.1882 60.6362 44.1772 60.5241 44.135 60.4222C44.0928 60.3204 44.0213 60.2333 43.9297 60.1721C43.838 60.1108 43.7302 60.0781 43.62 60.0781C43.4721 60.0781 43.3303 60.1369 43.2258 60.2414C43.1212 60.3459 43.0625 60.4877 43.0625 60.6356Z" fill="#382A26" stroke="#382A26" stroke-width="0.3" stroke-linecap="round" stroke-linejoin="round"/>
<path d="M35.0859 62.7078C35.0859 62.8181 35.1186 62.9259 35.1799 63.0175C35.2411 63.1092 35.3282 63.1807 35.4301 63.2229C35.5319 63.2651 35.644 63.2761 35.7521 63.2546C35.8603 63.2331 35.9596 63.18 36.0376 63.102C36.1155 63.0241 36.1686 62.9247 36.1901 62.8166C36.2116 62.7085 36.2006 62.5964 36.1584 62.4945C36.1162 62.3927 36.0448 62.3056 35.9531 62.2443C35.8614 62.1831 35.7536 62.1504 35.6434 62.1504C35.4955 62.1504 35.3538 62.2091 35.2492 62.3137C35.1447 62.4182 35.0859 62.56 35.0859 62.7078Z" fill="#382A26" stroke="#382A26" stroke-width="0.3" stroke-linecap="round" stroke-linejoin="round"/>
<path d="M45.5719 57.8296C45.5719 57.8296 42.8515 56.9935 40.6719 58.4568L45.5719 57.8296Z" fill="white"/>
<path d="M45.5719 57.8296C45.5719 57.8296 42.8515 56.9935 40.6719 58.4568" stroke="#382A26" stroke-width="0.900001" stroke-linecap="round" stroke-linejoin="round"/>
<path d="M35.8209 59.798C35.8209 59.798 33.8531 59.4217 32.6797 60.9715L35.8209 59.798Z" fill="white"/>
<path d="M35.8209 59.798C35.8209 59.798 33.8531 59.4217 32.6797 60.9715" stroke="#382A26" stroke-width="0.900001" stroke-linecap="round" stroke-linejoin="round"/>
<path d="M41.8915 66.457C41.8915 66.457 40.6762 67.7531 39.8819 67.8785C39.0875 68.004 37.9977 67.3211 37.9141 67.1678" fill="white"/>
<path d="M41.8915 66.457C41.8915 66.457 40.6762 67.7531 39.8819 67.8785C39.0875 68.004 37.9977 67.3211 37.9141 67.1678" stroke="#382A26" stroke-width="0.3" stroke-linecap="round" stroke-linejoin="round"/>
<path d="M44.3166 67.0842C44.3166 67.0842 42.2206 69.1774 40.5872 69.5119C38.9539 69.8463 36.4844 69.0938 36.4844 69.0938C36.4844 69.0938 39.5838 71.7751 40.6653 71.8588C41.0741 71.9073 41.4884 71.8385 41.8595 71.6603C42.2307 71.4821 42.5435 71.2019 42.7613 70.8525C43.2017 70.2672 44.3166 67.0842 44.3166 67.0842Z" fill="white" stroke="#382A26" stroke-width="0.3" stroke-linecap="round" stroke-linejoin="round"/>
<path d="M46.7032 58.2489C46.7032 58.2489 47.2049 61.4738 46.7868 61.8501C46.3687 62.2264 43.5619 63.0653 42.3049 63.1071C41.0478 63.149 40.6715 62.8563 40.5043 62.6472C40.3371 62.4382 39.6263 60.2168 39.7099 59.9241C39.7936 59.6314 43.7292 58.2071 46.7032 58.2489Z" stroke="#382A26" stroke-width="0.3" stroke-linecap="round" stroke-linejoin="round"/>
<path d="M30.4961 62.0816C30.4961 62.0816 31.4605 65.2005 32.0012 65.3538C32.5419 65.5071 35.4323 65.0305 36.5779 64.5176C37.7235 64.0048 37.9353 63.5755 37.9938 63.3135C38.0524 63.0515 37.7151 60.7437 37.5144 60.5263C37.3137 60.3089 33.1496 60.7381 30.4961 62.0816Z" stroke="#382A26" stroke-width="0.3" stroke-linecap="round" stroke-linejoin="round"/>
<path d="M46.707 58.248L48.8699 58.2564" stroke="#382A26" stroke-width="0.3" stroke-linecap="round" stroke-linejoin="round"/>
<path d="M39.712 59.9246C39.712 59.9246 38.3657 59.7853 37.5156 60.5183" stroke="#382A26" stroke-width="0.3" stroke-linecap="round" stroke-linejoin="round"/>
<path d="M39.778 60.4942C39.778 60.4942 38.5544 60.3102 37.7266 61.0711" stroke="#382A26" stroke-width="0.3" stroke-linecap="round" stroke-linejoin="round"/>
<path d="M21.3749 99.6976C21.3749 99.6976 23.5128 101.192 23.6744 102.529C23.8361 103.867 24.3685 107.232 23.6187 108.408C22.8689 109.584 20.3604 111.819 15.0144 111.24C9.66843 110.66 9.56251 106.432 9.77713 104.879C9.99175 103.327 10.3652 100.871 11.2739 100.283C12.1825 99.6948 16.6171 97.6657 21.3749 99.6976Z" fill="#8C8C8C" stroke="#382A26" stroke-width="0.3" stroke-linecap="round" stroke-linejoin="round"/>
<path d="M21.9688 69.5891C21.9688 69.5891 23.4739 67.2617 23.4739 65.6869C23.4739 64.1121 23.5436 63.1561 24.363 63.4292C25.1825 63.7024 26.0047 65.6172 25.9378 66.9858C25.8578 67.9612 25.6709 68.9248 25.3804 69.8594C25.3804 69.8594 25.1016 69.6532 23.9449 69.5807C23.2867 69.5407 22.6266 69.5435 21.9688 69.5891Z" fill="white" stroke="#382A26" stroke-width="0.3" stroke-linecap="round" stroke-linejoin="round"/>
<path d="M23.4112 68.7012C23.4112 68.7012 29.9083 69.8635 30.3793 70.3429C30.5989 70.5334 30.7603 70.7819 30.8451 71.0599C30.9299 71.338 30.9346 71.6343 30.8588 71.9149C30.7649 72.2993 30.5728 72.6527 30.3013 72.9406C30.4538 73.6748 30.3829 74.4378 30.0978 75.1314C29.6184 76.1571 29.6853 75.8143 29.6853 75.8143C29.6853 75.8143 29.6184 77.8657 28.9355 78.072C28.2527 78.2782 27.907 78.412 27.907 78.412C27.907 78.412 27.907 79.9171 27.2242 80.1234C26.5413 80.3296 24.8299 80.0537 24.8299 80.0537C24.8299 80.0537 23.6676 81.5588 22.7088 81.6285C22.0452 81.6589 21.3802 81.6131 20.727 81.4919C20.727 81.4919 21.8196 97.7026 22.0928 99.3443C22.366 100.986 23.1882 105.844 21.0671 107.427C18.946 109.011 15.8019 109.069 13.8202 107.837C11.8384 106.605 11.2894 105.306 11.2197 102.775C11.15 100.245 15.0494 82.1079 15.8131 80.5331C16.5768 78.9583 20.7382 70.9561 21.4907 69.8635C21.7085 69.5431 21.9928 69.2735 22.3242 69.0729C22.6556 68.8723 23.0264 68.7455 23.4112 68.7012Z" fill="white" stroke="#382A26" stroke-width="0.3" stroke-linecap="round" stroke-linejoin="round"/>
<path d="M30.3157 72.9403C30.3157 72.9403 26.2797 72.4609 25.6665 72.3243C25.0533 72.1877 22.6562 71.8477 22.6562 71.8477" fill="white"/>
<path d="M30.3157 72.9403C30.3157 72.9403 26.2797 72.4609 25.6665 72.3243C25.0533 72.1877 22.6562 71.8477 22.6562 71.8477" stroke="#382A26" stroke-width="0.3" stroke-linecap="round" stroke-linejoin="round"/>
<path d="M29.6988 75.8148C29.6988 75.8148 26.0056 75.405 24.7737 75.1988L22.3125 74.7891" fill="white"/>
<path d="M29.6988 75.8148C29.6988 75.8148 26.0056 75.405 24.7737 75.1988L22.3125 74.7891" stroke="#382A26" stroke-width="0.3" stroke-linecap="round" stroke-linejoin="round"/>
<path d="M27.9198 78.4126C27.9198 78.4126 23.6804 77.8551 22.2422 77.5234L27.9198 78.4126Z" fill="white"/>
<path d="M27.9198 78.4126C27.9198 78.4126 23.6804 77.8551 22.2422 77.5234" stroke="#382A26" stroke-width="0.3" stroke-linecap="round" stroke-linejoin="round"/>
<path d="M21.1149 82.8704C21.1149 82.8704 20.1672 83.5226 18.3444 83.3358C15.9139 83.0878 15.061 81.9004 15.061 81.9004L14.6484 84.1581C14.6484 84.1581 16.1313 85.6409 18.2078 85.7301C19.2471 85.7523 20.2736 85.4974 21.1818 84.9915L21.1149 82.8704Z" fill="#382A26" stroke="#382A26" stroke-width="0.3" stroke-linecap="round" stroke-linejoin="round"/>
<path d="M33.9372 101.034C33.9372 101.034 37.9648 100.997 38.447 100.978C38.9292 100.958 39.2246 100.752 39.2135 101.404C39.2023 102.056 39.9242 105.028 39.6929 105.279C39.4615 105.529 36.6074 107.04 36.3063 107.193C36.0053 107.347 35.0716 106.895 35.0716 106.895C35.0716 106.895 33.834 106.218 33.7504 106.014C33.6668 105.811 33.9372 101.034 33.9372 101.034Z" fill="#B0B0B0" stroke="#382A26" stroke-width="0.3" stroke-linecap="round" stroke-linejoin="round"/>
<path d="M34.9526 105.409C34.9717 105.535 35.0275 105.652 35.1129 105.745C35.1984 105.839 35.3097 105.905 35.4328 105.935C35.5558 105.966 35.6852 105.959 35.8044 105.916C35.9236 105.873 36.0274 105.795 36.1025 105.693C36.1777 105.591 36.221 105.469 36.2268 105.342C36.2326 105.216 36.2007 105.09 36.1352 104.982C36.0697 104.873 35.9735 104.786 35.8588 104.733C35.744 104.679 35.6159 104.66 35.4905 104.679C35.4073 104.692 35.3273 104.721 35.2552 104.764C35.183 104.808 35.1202 104.865 35.0702 104.933C35.0203 105.001 34.9842 105.078 34.964 105.159C34.9438 105.241 34.9399 105.326 34.9526 105.409Z" fill="white" stroke="#382A26" stroke-width="0.3" stroke-linecap="round" stroke-linejoin="round"/>
<path d="M40.2431 90.7698C40.2533 90.8727 40.2932 90.9705 40.3578 91.0513C40.4225 91.1321 40.5092 91.1923 40.6075 91.2248C40.7057 91.2574 40.8112 91.2607 40.9113 91.2344C41.0114 91.2082 41.1018 91.1535 41.1714 91.077C41.241 91.0004 41.287 90.9054 41.3037 90.8032C41.3204 90.7011 41.3072 90.5964 41.2656 90.5016C41.224 90.4069 41.1558 90.3262 41.0693 90.2694C40.9828 90.2126 40.8817 90.1821 40.7782 90.1816C40.7042 90.1845 40.6316 90.202 40.5645 90.2333C40.4974 90.2645 40.4371 90.3088 40.3873 90.3635C40.3375 90.4183 40.2991 90.4824 40.2743 90.5521C40.2496 90.6219 40.2389 90.6959 40.2431 90.7698Z" fill="white" stroke="#382A26" stroke-width="0.3" stroke-linecap="round" stroke-linejoin="round"/>
<path d="M40.079 99.1623C40.0887 99.2661 40.1284 99.3649 40.1932 99.4466C40.2581 99.5283 40.3452 99.5893 40.4441 99.6224C40.543 99.6554 40.6494 99.659 40.7503 99.6327C40.8512 99.6064 40.9423 99.5513 41.0125 99.4742C41.0826 99.3971 41.1289 99.3012 41.1456 99.1983C41.1623 99.0954 41.1487 98.9898 41.1065 98.8944C41.0643 98.7991 40.9953 98.7181 40.9079 98.6612C40.8205 98.6043 40.7184 98.5741 40.6142 98.5742C40.5402 98.5771 40.4675 98.5946 40.4004 98.6258C40.3333 98.6571 40.2731 98.7013 40.2233 98.7561C40.1735 98.8108 40.135 98.8749 40.1103 98.9447C40.0855 99.0144 40.0749 99.0884 40.079 99.1623Z" fill="white" stroke="#382A26" stroke-width="0.3" stroke-linecap="round" stroke-linejoin="round"/>
<path d="M40.2977 107.498C40.308 107.601 40.3479 107.699 40.4125 107.78C40.4772 107.861 40.5639 107.921 40.6621 107.953C40.7604 107.986 40.8659 107.989 40.966 107.963C41.0661 107.937 41.1564 107.882 41.2261 107.805C41.2957 107.729 41.3417 107.634 41.3584 107.532C41.3751 107.43 41.3619 107.325 41.3203 107.23C41.2786 107.135 41.2105 107.055 41.124 106.998C41.0375 106.941 40.9364 106.911 40.8329 106.91C40.7589 106.913 40.6863 106.931 40.6192 106.962C40.5521 106.993 40.4918 107.037 40.442 107.092C40.3922 107.147 40.3538 107.211 40.329 107.281C40.3042 107.35 40.2936 107.424 40.2977 107.498Z" fill="white" stroke="#382A26" stroke-width="0.3" stroke-linecap="round" stroke-linejoin="round"/>
<path d="M41.7899 117.227C41.8002 117.33 41.84 117.428 41.9047 117.508C41.9694 117.589 42.0561 117.649 42.1543 117.682C42.2526 117.714 42.3581 117.718 42.4582 117.691C42.5583 117.665 42.6486 117.611 42.7183 117.534C42.7879 117.457 42.8339 117.362 42.8506 117.26C42.8673 117.158 42.854 117.053 42.8124 116.959C42.7708 116.864 42.7027 116.783 42.6162 116.726C42.5297 116.67 42.4286 116.639 42.3251 116.639C42.2511 116.642 42.1785 116.659 42.1114 116.69C42.0442 116.722 41.984 116.766 41.9342 116.821C41.8844 116.875 41.846 116.939 41.8212 117.009C41.7964 117.079 41.7858 117.153 41.7899 117.227Z" fill="white" stroke="#382A26" stroke-width="0.3" stroke-linecap="round" stroke-linejoin="round"/>
</g>
</svg>
