<svg width="144" height="48" viewBox="0 0 144 48" fill="none" xmlns="http://www.w3.org/2000/svg">
<mask id="mask0_1_19318" style="mask-type:luminance" maskUnits="userSpaceOnUse" x="45" y="12" width="54" height="24">
<path d="M98.5 12H45.5V36H98.5V12Z" fill="white"/>
</mask>
<g mask="url(#mask0_1_19318)">
<path d="M46.8313 20.2761C47.1066 17.0545 45.5 16.0781 45.5 16.0781C45.5 16.0781 45.8791 17.4445 45.602 20.9494C45.4133 23.339 46.2721 25.1915 46.7711 26.3354C46.842 26.4977 47.0832 26.3715 47.0383 26.2031C46.586 24.5105 46.604 22.9397 46.8313 20.2761Z" fill="#FF4612"/>
</g>
<mask id="mask1_1_19318" style="mask-type:luminance" maskUnits="userSpaceOnUse" x="45" y="12" width="54" height="24">
<path d="M98.5 12H45.5V36H98.5V12Z" fill="white"/>
</mask>
<g mask="url(#mask1_1_19318)">
<path d="M54.5367 35.5059C56.6445 33.5985 59.6429 27.917 59.6982 23.6095C59.2113 23.7521 58.2461 24.2677 57.8891 25.86C57.6838 26.7744 57.1062 28.9349 54.9791 28.7486C52.0296 28.4906 52.4571 22.958 57.0757 23.4593C59.2585 23.6964 59.6129 22.1384 59.6129 21.9299C59.1345 22.1473 58.4141 22.0564 57.7372 21.9762C53.576 21.4798 51.5782 23.8439 51.5782 26.5422C51.5782 28.1622 52.6395 29.5227 53.836 30.2803C54.4724 30.6823 54.0148 31.0758 53.5418 30.7375C52.2833 29.8364 50.8137 28.6457 50.8137 26.1077C50.8137 21.8701 55.1709 20.0292 56.1944 19.2725C57.713 18.149 58.4446 17.2217 58.0745 15.5688C57.4736 16.6664 55.9977 17.6254 54.8964 18.2061C51.9204 19.7756 49.5876 22.0609 49.5876 25.417C49.5876 28.0579 50.7562 29.5084 52.1603 30.6314C52.4787 30.8859 52.1414 31.2424 51.7336 30.9167C49.4991 29.1296 48.7616 27.151 48.7616 24.6086C48.7616 19.8046 54.8663 15.4609 52.1212 12.001C52.1594 15.5336 47.5557 18.6187 47.5557 24.4629C47.5557 27.0868 48.6174 29.6911 51.5777 31.7509C53.3217 32.9648 53.5688 34.3548 53.3137 35.6124C53.1996 36.2915 54.0287 35.9653 54.5367 35.5059Z" fill="#FF4612"/>
</g>
<mask id="mask2_1_19318" style="mask-type:luminance" maskUnits="userSpaceOnUse" x="45" y="12" width="54" height="24">
<path d="M98.5 12H45.5V36H98.5V12Z" fill="white"/>
</mask>
<g mask="url(#mask2_1_19318)">
<path d="M70.7581 21.928C70.3835 21.928 70.052 22.2025 70.0013 22.5764C69.9343 23.071 70.3848 23.5011 70.8789 23.4213C71.3172 23.3505 71.611 22.9008 71.4911 22.4743C71.4003 22.149 71.0922 21.928 70.7581 21.928Z" fill="black"/>
</g>
<mask id="mask3_1_19318" style="mask-type:luminance" maskUnits="userSpaceOnUse" x="45" y="12" width="54" height="24">
<path d="M98.5 12H45.5V36H98.5V12Z" fill="white"/>
</mask>
<g mask="url(#mask3_1_19318)">
<path d="M95.8296 26.0708C95.8296 24.5944 95.1379 24.0369 93.6324 24.0369C92.5113 24.0369 91.4594 24.4477 91.4594 24.8595C91.4594 25.0012 91.5919 25.3702 91.8066 25.6153C92.3357 25.3141 92.7925 25.1046 93.397 25.1046C94.3564 25.1046 94.3716 25.5409 94.3716 26.0815C92.8005 26.0815 91.1226 26.4095 91.1226 27.9607C91.1226 28.9977 91.7496 29.631 92.8378 29.631C93.596 29.631 94.0168 29.3543 94.4835 29.0521C94.6829 29.6871 95.583 29.5971 96.0559 29.3886C95.8772 29.1047 95.8287 28.8008 95.8287 28.1216L95.8296 26.0708ZM94.3725 28.1501C94.0658 28.438 93.7406 28.594 93.3422 28.594C92.3959 28.594 92.3546 27.5512 92.9164 27.1764C93.2695 26.9416 93.9176 26.8698 94.3725 26.8698V28.1501Z" fill="black"/>
</g>
<mask id="mask4_1_19318" style="mask-type:luminance" maskUnits="userSpaceOnUse" x="45" y="12" width="54" height="24">
<path d="M98.5 12H45.5V36H98.5V12Z" fill="white"/>
</mask>
<g mask="url(#mask4_1_19318)">
<path d="M81.1895 26.0708C81.1895 24.5944 80.4982 24.0369 78.9927 24.0369C77.8717 24.0369 76.8193 24.4477 76.8193 24.8595C76.8193 25.0012 76.9518 25.3702 77.1669 25.6153C77.696 25.3141 78.1528 25.1046 78.7574 25.1046C79.7167 25.1046 79.732 25.5409 79.732 26.0815C78.1609 26.0815 76.4829 26.4095 76.4829 27.9607C76.4829 28.9977 77.1095 29.631 78.1982 29.631C78.9563 29.631 79.3772 29.3543 79.8434 29.0521C80.0432 29.6871 80.9433 29.5971 81.4163 29.3886C81.2375 29.1047 81.189 28.8008 81.189 28.1216L81.1895 26.0708ZM79.7329 28.1501C79.4261 28.438 79.101 28.594 78.7026 28.594C77.7562 28.594 77.7149 27.5512 78.2768 27.1764C78.6298 26.9416 79.2779 26.8698 79.7329 26.8698V28.1501Z" fill="black"/>
</g>
<mask id="mask5_1_19318" style="mask-type:luminance" maskUnits="userSpaceOnUse" x="45" y="12" width="54" height="24">
<path d="M98.5 12H45.5V36H98.5V12Z" fill="white"/>
</mask>
<g mask="url(#mask5_1_19318)">
<path d="M66.0224 21.928H64.0049V29.4981C64.0866 29.5253 64.498 29.5502 64.5946 29.5418C65.2194 29.5257 65.5284 29.2739 65.5284 28.7115V26.7935H66.0988C67.8379 26.7935 69.1246 26.0292 69.1246 24.1936C69.1246 22.4485 67.6425 21.928 66.0224 21.928ZM65.5293 25.7155V23.0474C66.6009 22.9463 67.5562 23.1406 67.5562 24.2703C67.5562 25.691 66.565 25.7155 65.5293 25.7155Z" fill="black"/>
</g>
<mask id="mask6_1_19318" style="mask-type:luminance" maskUnits="userSpaceOnUse" x="45" y="12" width="54" height="24">
<path d="M98.5 12H45.5V36H98.5V12Z" fill="white"/>
</mask>
<g mask="url(#mask6_1_19318)">
<path d="M71.5181 28.7107C71.5181 29.2739 71.2091 29.5248 70.5844 29.5413C70.4878 29.5502 70.0768 29.5244 69.9946 29.4972V24.9811C69.9946 24.4173 70.3036 24.1665 70.9284 24.15C71.025 24.1411 71.4364 24.1673 71.5181 24.1936V28.7107Z" fill="black"/>
</g>
<mask id="mask7_1_19318" style="mask-type:luminance" maskUnits="userSpaceOnUse" x="45" y="12" width="54" height="24">
<path d="M98.5 12H45.5V36H98.5V12Z" fill="white"/>
</mask>
<g mask="url(#mask7_1_19318)">
<path d="M88.7535 26.6451C88.7535 25.9659 88.7396 25.7805 88.6848 25.6321C88.4472 24.9877 87.0778 25.182 87.0778 25.8434V28.7115C87.0778 29.2757 86.7688 29.5262 86.1445 29.5422C86.0475 29.5516 85.636 29.5253 85.5547 29.4985V26.6464C85.5547 25.9668 85.5408 25.7814 85.486 25.633C85.2484 24.9886 83.8785 25.1829 83.8785 25.8443V28.7124C83.8785 29.2766 83.5695 29.527 82.9457 29.5435C82.8482 29.5529 82.4373 29.5262 82.356 29.4994V24.1932C82.9807 24.1058 83.671 24.1138 83.8004 24.7208C84.4085 23.8652 86.4804 23.6718 86.877 24.9521C87.2449 24.2569 88.0569 23.981 88.8299 24.0474C90.1414 24.1589 90.2739 25.2235 90.2788 26.5234L90.2793 28.7111C90.2793 29.2753 89.9702 29.5257 89.3459 29.5417C89.2489 29.5511 88.8375 29.5248 88.7562 29.4981V26.6455L88.7535 26.6451Z" fill="black"/>
</g>
<mask id="mask8_1_19318" style="mask-type:luminance" maskUnits="userSpaceOnUse" x="45" y="12" width="54" height="24">
<path d="M98.5 12H45.5V36H98.5V12Z" fill="white"/>
</mask>
<g mask="url(#mask8_1_19318)">
<path d="M72.6919 29.4981C72.7736 29.5252 73.1851 29.5502 73.2816 29.5426C73.9073 29.5257 74.2154 29.2739 74.2154 28.7115V26.0279C74.2154 25.4445 75.097 25.0345 75.8619 25.6722C76.0492 25.3625 76.2316 24.8736 76.2316 24.5871C76.2316 23.9699 74.9165 23.6985 74.148 24.7159C74.0065 24.1321 73.291 24.0947 72.6919 24.194V29.4981Z" fill="black"/>
</g>
<mask id="mask9_1_19318" style="mask-type:luminance" maskUnits="userSpaceOnUse" x="45" y="12" width="54" height="24">
<path d="M98.5 12H45.5V36H98.5V12Z" fill="white"/>
</mask>
<g mask="url(#mask9_1_19318)">
<path d="M98.5001 21.9716C98.4296 21.9479 98.108 21.927 97.9854 21.927C97.3135 21.927 96.9771 22.1752 96.9771 22.7604V29.4976C97.0601 29.5247 97.4707 29.5497 97.5668 29.5421C98.1915 29.5252 98.5001 29.2734 98.5001 28.711V21.9716Z" fill="black"/>
</g>
</svg>
