<svg width="116" height="109" viewBox="0 0 116 109" fill="none" xmlns="http://www.w3.org/2000/svg">
<g opacity="0.15">
<g opacity="0.3">
<path d="M93.5568 43.8535C88.7113 43.0761 83.8128 42.6764 78.9054 42.6579C76.9802 42.6934 72.3193 42.7086 66.4121 42.7187L66.4121 31.8315L74.7004 0.983434L68.7831 3.15176L61.1534 17.1598L52.3281 17.1598L52.3281 23.9991L57.4247 23.9991L53.6048 31.0209L43.9791 31.0209L43.9791 37.8602L49.8862 37.8602L47.2771 42.6478L47.343 42.7086C36.1974 42.7086 25.8826 42.668 23.1722 42.6579C22.7075 42.6564 22.2456 42.73 21.8043 42.8757C19.2511 43.8263 16.7545 44.9224 14.3267 46.1586C14.1249 46.2599 13.9467 46.4024 13.8036 46.577C13.6604 46.7515 13.5556 46.9542 13.4958 47.1719C13.4651 47.4693 13.5289 47.7688 13.678 48.028C13.8271 48.2872 14.0541 48.4928 14.3267 48.6157C14.3267 48.6157 20.6999 52.2229 22.5541 52.3647C23.385 52.4255 34.865 52.4356 47.2721 52.4204L49.8812 57.2131L43.974 57.2131L43.974 64.0524L53.5997 64.0524L57.4197 71.0691L52.3281 71.0691L52.3281 77.9084L61.1534 77.9084L68.7831 91.9215L74.7004 94.0898L66.4223 63.2418L66.4223 52.385C73.8442 52.385 79.2043 52.3596 79.2043 52.3596C79.2043 52.3596 87.143 52.233 93.5669 51.0982L103.699 65.8864L107.828 65.8864L102.696 48.4536L114.08 48.2408L115.189 48.2408L115.189 46.7716L111.319 46.7007L102.706 46.5487L102.706 46.2346L107.838 29.2072L103.811 29.2072L93.5568 43.8738L93.5568 43.8535Z" fill="black"/>
</g>
<path d="M54.9355 29.6923L54.9355 21.9512L43.9622 21.9512L43.9622 29.6923L54.9355 29.6923Z" fill="#F0F0F0"/>
<path d="M45.4746 45.3739L45.4746 37.6328L34.5013 37.6328L34.5013 45.3739L45.4746 45.3739Z" fill="#F0F0F0"/>
<path d="M69.2698 3.64586L62.5723 6.10296L38.2344 50.7969L59.8923 50.7969L59.8923 38.5519L69.2698 3.64586Z" fill="#F0F0F0"/>
<path d="M53.3208 50.791C53.3122 50.7153 53.3122 50.6388 53.3208 50.563L53.2955 49.9095L53.2549 47.4372L53.1992 38.7791L53.1992 38.7537L53.1992 38.7234L56.3149 31.2761C59.1874 24.4266 61.7307 18.4586 63.0884 15.3429L63.0884 15.2922L63.1391 15.2922C64.0054 15.2922 64.6893 15.3176 65.1909 15.3277C65.4087 15.3277 65.581 15.3277 65.7279 15.3277C65.7329 15.3058 65.7457 15.2866 65.764 15.2736C65.7823 15.2606 65.8047 15.2548 65.827 15.2573C65.8493 15.2598 65.8699 15.2705 65.8848 15.2872C65.8998 15.3039 65.908 15.3255 65.908 15.348C65.908 15.3704 65.8998 15.392 65.8848 15.4087C65.8699 15.4254 65.8493 15.4361 65.827 15.4386C65.8047 15.4411 65.7823 15.4353 65.764 15.4223C65.7457 15.4093 65.7329 15.3901 65.7279 15.3682C65.581 15.3682 65.4087 15.3682 65.1909 15.3682C64.6843 15.3682 64.0054 15.3682 63.1391 15.4037L63.21 15.3581C61.9384 18.5093 59.456 24.5026 56.5784 31.3521L53.4424 38.7892L53.4424 38.7335L53.3867 47.3916L53.3461 49.8639L53.3461 50.5174C53.3527 50.6094 53.3442 50.7018 53.3208 50.791Z" fill="#263238"/>
<path d="M59.9583 38.8762C59.9583 38.9623 58.484 39.0332 56.6653 39.0332C54.8465 39.0332 53.3672 38.9623 53.3672 38.8762C53.3672 38.79 54.8465 38.7242 56.6653 38.7242C58.484 38.7242 59.9583 38.79 59.9583 38.8762Z" fill="#263238"/>
<path d="M69.2698 3.64586L64.2796 7.7292L43.9541 50.7969L38.2344 50.7969L62.5723 6.10296L69.2698 3.64586Z" fill="#FF4040"/>
<path d="M43.957 82.9425L43.957 90.6836L54.9304 90.6836L54.9304 82.9425L43.957 82.9425Z" fill="#F0F0F0"/>
<path d="M34.5117 67.2764L34.5117 75.0176L45.4851 75.0176L45.4851 67.2764L34.5117 67.2764Z" fill="#F0F0F0"/>
<path d="M69.2777 109L62.5802 106.543L38.2422 61.849L59.9001 61.849L59.9001 74.094L69.2777 109Z" fill="#F0F0F0"/>
<path d="M90.6133 60.3464L102.088 77.08L106.759 77.08L100.953 57.3523L100.953 54.8192L106.759 35.5525L102.215 35.5525L90.6133 52.1493L90.6133 60.3464Z" fill="#FF4040"/>
<path d="M0.960798 57.5371C0.960798 57.5371 8.17505 61.5901 10.2725 61.7725C12.3699 61.9548 74.3597 61.7725 74.3597 61.7725C74.3597 61.7725 99.6248 61.3722 99.6907 55.8805C99.6907 55.8805 100.739 55.156 98.4799 53.9452C96.2203 52.7344 82.5011 50.637 74.0254 50.794C66.1424 50.946 17.6894 50.8194 10.9513 50.794C10.425 50.7935 9.90192 50.8756 9.40107 51.0372C6.51559 52.1067 3.69412 53.3415 0.950671 54.7355C0.719216 54.8495 0.515156 55.0122 0.352502 55.2124C0.189847 55.4127 0.0724496 55.6458 0.00836012 55.8957C-0.0262607 56.2348 0.0472075 56.5761 0.218271 56.8709C0.389335 57.1657 0.64923 57.3989 0.960798 57.5371Z" fill="#FF4040"/>
<path d="M0.960798 57.5371C0.960798 57.5371 8.17505 61.5901 10.2725 61.7725C12.3699 61.9548 74.3597 61.7725 74.3597 61.7725C74.3597 61.7725 99.6248 61.3722 99.6907 55.8805C99.6907 55.8805 100.739 55.156 98.4799 53.9452C96.2203 52.7344 82.5011 50.637 74.0254 50.794C66.1424 50.946 17.6894 50.8194 10.9513 50.794C10.425 50.7935 9.90192 50.8756 9.40107 51.0372C6.51559 52.1067 3.69412 53.3415 0.950671 54.7355C0.719216 54.8495 0.515156 55.0122 0.352502 55.2124C0.189847 55.4127 0.0724496 55.6458 0.00836012 55.8957C-0.0262607 56.2348 0.0472075 56.5761 0.218271 56.8709C0.389335 57.1657 0.64923 57.3989 0.960798 57.5371Z" fill="#F0F0F0"/>
<path d="M6.28328 56.5658L8.10203 56.5658C8.10203 56.5658 7.73221 57.6094 8.8417 59.0988L7.56502 59.6055C7.13866 59.2261 6.80235 58.7563 6.58061 58.2305C6.35887 57.7046 6.25729 57.1359 6.28328 56.5658Z" fill="#263238"/>
<path d="M8.38477 60.0323L9.19535 60.625L9.86409 59.9512L9.12442 59.404L8.38477 60.0323Z" fill="#263238"/>
<path d="M6.29625 56.0547L8.11501 56.0547C8.11501 56.0547 7.74518 55.0111 8.85974 53.5216L7.578 53.015C7.15361 53.3959 6.81864 53.866 6.59706 54.3914C6.37549 54.9169 6.27277 55.4849 6.29625 56.0547Z" fill="#263238"/>
<path d="M8.39844 52.5866L9.20903 51.9939L9.88283 52.6677L9.1381 53.2148L8.39844 52.5866Z" fill="#263238"/>
<path d="M17.0488 59.8652L17.0488 61.1875L18.1938 61.1875L18.1938 59.8652L17.0488 59.8652Z" fill="#263238"/>
<path d="M19.252 59.8711L19.252 61.1934L20.3969 61.1934L20.3969 59.8711L19.252 59.8711Z" fill="#263238"/>
<path d="M21.4473 59.8711L21.4473 61.1934L22.5922 61.1934L22.5922 59.8711L21.4473 59.8711Z" fill="#263238"/>
<path d="M23.6328 59.8711L23.6328 61.1934L24.7778 61.1934L24.7778 59.8711L23.6328 59.8711Z" fill="#263238"/>
<path d="M25.8359 59.8691L25.8359 61.1914L26.9809 61.1914L26.9809 59.8691L25.8359 59.8691Z" fill="#263238"/>
<path d="M28.0293 59.875L28.0293 61.1973L29.1743 61.1973L29.1743 59.875L28.0293 59.875Z" fill="#263238"/>
<path d="M30.2207 59.8672L30.2207 61.1895L31.3657 61.1895L31.3657 59.8672L30.2207 59.8672Z" fill="#263238"/>
<path d="M32.4177 59.8752L32.4177 61.1974L33.5627 61.1974L33.5627 59.8752L32.4177 59.8752Z" fill="#263238"/>
<path d="M34.6152 59.873L34.6152 61.1953L35.7602 61.1953L35.7602 59.873L34.6152 59.873Z" fill="#263238"/>
<path d="M36.8066 59.8691L36.8066 61.1914L37.9516 61.1914L37.9516 59.8691L36.8066 59.8691Z" fill="#263238"/>
<path d="M39 59.8672L39 61.1895L40.145 61.1895L40.145 59.8672L39 59.8672Z" fill="#263238"/>
<path d="M41.1953 59.8672L41.1953 61.1895L42.3403 61.1895L42.3403 59.8672L41.1953 59.8672Z" fill="#263238"/>
<path d="M43.3904 59.8672L43.3904 61.1895L44.5353 61.1895L44.5353 59.8672L43.3904 59.8672Z" fill="#263238"/>
<path d="M45.582 59.875L45.582 61.1973L46.727 61.1973L46.727 59.875L45.582 59.875Z" fill="#263238"/>
<path d="M47.7812 59.873L47.7812 61.1953L48.9262 61.1953L48.9262 59.873L47.7812 59.873Z" fill="#263238"/>
<path d="M49.9687 59.8711L49.9688 61.1934L51.1137 61.1934L51.1137 59.8711L49.9687 59.8711Z" fill="#263238"/>
<path d="M52.1719 59.873L52.1719 61.1953L53.3168 61.1953L53.3168 59.873L52.1719 59.873Z" fill="#263238"/>
<path d="M54.3574 59.8672L54.3574 61.1895L55.5024 61.1895L55.5024 59.8672L54.3574 59.8672Z" fill="#263238"/>
<path d="M56.5605 59.873L56.5605 61.1953L57.7055 61.1953L57.7055 59.873L56.5605 59.873Z" fill="#263238"/>
<path d="M58.7578 59.873L58.7578 61.1953L59.9028 61.1953L59.9028 59.873L58.7578 59.873Z" fill="#263238"/>
<path d="M60.9551 59.8691L60.9551 61.1914L62.1 61.1914L62.1 59.8691L60.9551 59.8691Z" fill="#263238"/>
<path d="M63.1465 59.8652L63.1465 61.1875L64.2914 61.1875L64.2914 59.8652L63.1465 59.8652Z" fill="#263238"/>
<path d="M65.334 59.8672L65.334 61.1895L66.4789 61.1895L66.4789 59.8672L65.334 59.8672Z" fill="#263238"/>
<path d="M67.5195 59.8652L67.5195 61.1875L68.6645 61.1875L68.6645 59.8652L67.5195 59.8652Z" fill="#263238"/>
<path d="M69.7207 59.8672L69.7207 61.1895L70.8657 61.1895L70.8657 59.8672L69.7207 59.8672Z" fill="#263238"/>
<path d="M71.9238 59.8789L71.9238 61.2012L73.0688 61.2012L73.0688 59.8789L71.9238 59.8789Z" fill="#263238"/>
<path d="M74.1172 59.8652L74.1172 61.1875L75.2622 61.1875L75.2622 59.8652L74.1172 59.8652Z" fill="#263238"/>
<path d="M17.0491 51.8283L17.0491 53.1506L18.194 53.1506L18.194 51.8283L17.0491 51.8283Z" fill="#263238"/>
<path d="M19.2383 51.8262L19.2383 53.1484L20.3832 53.1484L20.3832 51.8262L19.2383 51.8262Z" fill="#263238"/>
<path d="M21.4434 51.8301L21.4434 53.1523L22.5883 53.1523L22.5883 51.8301L21.4434 51.8301Z" fill="#263238"/>
<path d="M23.6367 51.8301L23.6367 53.1523L24.7817 53.1523L24.7817 51.8301L23.6367 51.8301Z" fill="#263238"/>
<path d="M25.8281 51.834L25.8281 53.1562L26.9731 53.1562L26.9731 51.834L25.8281 51.834Z" fill="#263238"/>
<path d="M28.0273 51.8262L28.0273 53.1484L29.1723 53.1484L29.1723 51.8262L28.0273 51.8262Z" fill="#263238"/>
<path d="M30.2246 51.832L30.2246 53.1543L31.3696 53.1543L31.3696 51.832L30.2246 51.832Z" fill="#263238"/>
<path d="M32.4062 51.8281L32.4062 53.1504L33.5512 53.1504L33.5512 51.8281L32.4062 51.8281Z" fill="#263238"/>
<path d="M34.6133 51.8281L34.6133 53.1504L35.7582 53.1504L35.7582 51.8281L34.6133 51.8281Z" fill="#263238"/>
<path d="M36.8105 51.8301L36.8105 53.1523L37.9555 53.1523L37.9555 51.8301L36.8105 51.8301Z" fill="#263238"/>
<path d="M39.0002 51.8321L39.0002 53.1544L40.1452 53.1544L40.1452 51.8321L39.0002 51.8321Z" fill="#263238"/>
<path d="M41.1953 51.8262L41.1953 53.1484L42.3403 53.1484L42.3403 51.8262L41.1953 51.8262Z" fill="#263238"/>
<path d="M43.3867 51.832L43.3867 53.1543L44.5317 53.1543L44.5317 51.832L43.3867 51.832Z" fill="#263238"/>
<path d="M45.5859 51.832L45.5859 53.1543L46.7309 53.1543L46.7309 51.832L45.5859 51.832Z" fill="#263238"/>
<path d="M47.7734 51.8359L47.7734 53.1582L48.9184 53.1582L48.9184 51.8359L47.7734 51.8359Z" fill="#263238"/>
<path d="M49.9746 51.8281L49.9746 53.1504L51.1196 53.1504L51.1196 51.8281L49.9746 51.8281Z" fill="#263238"/>
<path d="M52.1699 51.8301L52.1699 53.1523L53.3149 53.1523L53.3149 51.8301L52.1699 51.8301Z" fill="#263238"/>
<path d="M54.3574 51.8282L54.3574 53.1505L55.5024 53.1505L55.5024 51.8282L54.3574 51.8282Z" fill="#263238"/>
<path d="M56.5566 51.834L56.5566 53.1562L57.7016 53.1562L57.7016 51.834L56.5566 51.834Z" fill="#263238"/>
<path d="M58.75 51.8301L58.75 53.1523L59.895 53.1523L59.895 51.8301L58.75 51.8301Z" fill="#263238"/>
<path d="M60.9453 51.8282L60.9453 53.1505L62.0903 53.1505L62.0903 51.8282L60.9453 51.8282Z" fill="#263238"/>
<path d="M63.1387 51.8301L63.1387 53.1523L64.2836 53.1523L64.2836 51.8301L63.1387 51.8301Z" fill="#263238"/>
<path d="M65.334 51.832L65.334 53.1543L66.4789 53.1543L66.4789 51.832L65.334 51.832Z" fill="#263238"/>
<path d="M67.5254 51.832L67.5254 53.1543L68.6704 53.1543L68.6704 51.832L67.5254 51.832Z" fill="#263238"/>
<path d="M69.7246 51.8262L69.7246 53.1484L70.8696 53.1484L70.8696 51.8262L69.7246 51.8262Z" fill="#263238"/>
<path d="M71.9238 51.8301L71.9238 53.1523L73.0688 53.1523L73.0688 51.8301L71.9238 51.8301Z" fill="#263238"/>
<path d="M74.1113 51.832L74.1113 53.1543L75.2563 53.1543L75.2563 51.832L74.1113 51.832Z" fill="#263238"/>
<path d="M53.3169 61.8471C53.3357 61.9216 53.3442 61.9983 53.3422 62.0751L53.3422 62.7286L53.3828 65.2009L53.4385 73.859L53.4385 73.8033L56.5745 81.2405C59.4521 88.09 61.9345 94.0833 63.2061 97.2344L63.1352 97.1888C64.0015 97.1888 64.6854 97.1888 65.187 97.2243C65.4048 97.2243 65.5771 97.2243 65.724 97.2243C65.7828 97.2158 65.8425 97.2158 65.9013 97.2243C65.9013 97.2243 65.8405 97.2243 65.724 97.2243C65.6075 97.2243 65.4048 97.2243 65.187 97.2243C64.6804 97.2243 64.0015 97.2243 63.1352 97.2598L63.0845 97.2598L63.0845 97.2091C61.7268 94.0934 59.1835 88.1254 56.311 81.2759L53.1953 73.8286L53.1953 73.7982L53.1953 73.7729L53.251 65.1148L53.2916 62.6425L53.3169 61.989C53.3136 61.9417 53.3136 61.8943 53.3169 61.8471Z" fill="#263238"/>
<path d="M59.9602 73.759C59.9602 73.8451 58.486 73.916 56.6672 73.916C54.8485 73.916 53.3691 73.8451 53.3691 73.759C53.3691 73.6728 54.8485 73.6019 56.6672 73.6019C58.486 73.6019 59.9602 73.6728 59.9602 73.759Z" fill="#263238"/>
<path d="M59.9642 65.4125C59.9642 65.4986 58.4899 65.5645 56.6711 65.5645C54.8524 65.5645 53.373 65.4986 53.373 65.4125C53.373 65.3263 54.8524 65.2554 56.6711 65.2554C58.4899 65.2554 59.9642 65.3061 59.9642 65.4125Z" fill="#263238"/>
<path d="M69.2777 109L64.2875 104.917L43.9619 61.849L38.2422 61.849L62.5802 106.543L69.2777 109Z" fill="#FF4040"/>
<path d="M81.2251 57.7229L115.087 57.0897L115.087 55.4279L81.1947 54.8301C80.902 54.8195 80.6105 54.8724 80.3403 54.9852C80.07 55.098 79.8275 55.2681 79.6292 55.4837C79.5223 55.5889 79.438 55.7148 79.3816 55.8538C79.3251 55.9928 79.2977 56.1418 79.3011 56.2918C79.3044 56.4418 79.3384 56.5895 79.4009 56.7258C79.4634 56.8621 79.5532 56.9842 79.6647 57.0846C79.8637 57.2968 80.1061 57.4636 80.3754 57.5737C80.6446 57.6839 80.9344 57.7348 81.2251 57.7229Z" fill="#FF4040"/>
<path d="M113.836 57.1197C113.727 57.143 113.617 57.1532 113.506 57.1501C113.258 57.1501 112.949 57.1501 112.574 57.1856C111.718 57.1856 110.548 57.2363 109.129 57.2717C106.186 57.3528 102.188 57.4592 97.7758 57.5757C93.3632 57.6922 89.3254 57.7682 86.4174 57.7834C84.9634 57.7834 83.783 57.7834 82.9724 57.7834C82.5924 57.7834 82.2834 57.7834 82.0352 57.7834C81.9264 57.7892 81.8174 57.7807 81.7109 57.7581C81.8162 57.7281 81.9259 57.7161 82.0352 57.7226C82.2834 57.7226 82.5924 57.7226 82.9724 57.6922C83.8286 57.6669 84.9989 57.6365 86.4124 57.601C89.3609 57.525 93.353 57.4187 97.7708 57.2971C102.188 57.1755 106.221 57.1045 109.129 57.0893C110.583 57.0893 111.758 57.0893 112.574 57.0893C112.949 57.0893 113.258 57.0893 113.506 57.1147C113.616 57.1033 113.726 57.105 113.836 57.1197Z" fill="#263238"/>
<path d="M82.1172 54.8274C89.3669 55.1212 110.711 55.334 110.711 55.334L82.1172 54.8274Z" fill="#FF4040"/>
<path d="M110.731 55.3615C110.637 55.3843 110.539 55.3928 110.442 55.3868C110.214 55.3868 109.936 55.3868 109.611 55.3868C108.836 55.3868 107.803 55.3868 106.546 55.3868C103.958 55.3868 100.381 55.3209 96.414 55.25C92.4471 55.1791 88.8907 55.098 86.2816 55.022C85.0252 54.9764 83.9917 54.941 83.2419 54.9156C82.9075 54.9156 82.6339 54.8852 82.406 54.8751C82.3083 54.8752 82.2111 54.8615 82.1172 54.8346C82.2139 54.8154 82.3125 54.8069 82.411 54.8093C82.639 54.8093 82.9176 54.8093 83.2419 54.8093C84.017 54.8093 85.0505 54.8093 86.312 54.8093C88.8957 54.8093 92.4725 54.8751 96.419 54.946C100.366 55.017 103.942 55.098 106.526 55.174C107.783 55.2196 108.816 55.2551 109.591 55.2804C109.92 55.2804 110.199 55.3108 110.422 55.326C110.526 55.3194 110.631 55.3314 110.731 55.3615Z" fill="#263238"/>
</g>
</svg>
