<svg width="400" height="400" viewBox="0 0 400 400" fill="none" xmlns="http://www.w3.org/2000/svg">
<path d="M400 305.92H0V306.12H400V305.92Z" fill="#EBEBEB"/>
<path d="M62.768 313.536H41.968V313.736H62.768V313.536Z" fill="#EBEBEB"/>
<path d="M160.344 311.368H117.064V311.568H160.344V311.368Z" fill="#EBEBEB"/>
<path d="M84.624 320.968H63.568V321.168H84.624V320.968Z" fill="#EBEBEB"/>
<path d="M359.92 319.624H344.536V319.824H359.92V319.624Z" fill="#EBEBEB"/>
<path d="M337.408 319.624H313.176V319.824H337.408V319.624Z" fill="#EBEBEB"/>
<path d="M250.232 316.248H206.584V316.448H250.232V316.248Z" fill="#EBEBEB"/>
<path d="M189.6 270.24H35.128C33.9179 270.238 32.758 269.756 31.9031 268.899C31.0482 268.043 30.568 266.882 30.568 265.672V48.528C30.5785 47.3248 31.0633 46.1744 31.9171 45.3266C32.7709 44.4788 33.9248 44.0021 35.128 44H189.6C190.811 44 191.973 44.4813 192.83 45.3379C193.687 46.1946 194.168 47.3565 194.168 48.568V265.672C194.168 266.884 193.687 268.045 192.83 268.902C191.973 269.759 190.811 270.24 189.6 270.24ZM35.128 44.16C33.9709 44.1621 32.862 44.6233 32.0445 45.4422C31.2271 46.2611 30.768 47.3709 30.768 48.528V265.672C30.768 266.829 31.2271 267.939 32.0445 268.758C32.862 269.577 33.9709 270.038 35.128 270.04H189.6C190.758 270.038 191.868 269.577 192.686 268.758C193.505 267.94 193.966 266.83 193.968 265.672V48.528C193.966 47.3702 193.505 46.2604 192.686 45.4417C191.868 44.623 190.758 44.1621 189.6 44.16H35.128Z" fill="#EBEBEB"/>
<path d="M362.648 270.24H208.168C206.957 270.238 205.796 269.756 204.94 268.9C204.084 268.044 203.602 266.883 203.6 265.672V48.528C203.613 47.3241 204.099 46.1737 204.954 45.3261C205.809 44.4785 206.964 44.002 208.168 44H362.648C363.85 44.0042 365.002 44.4818 365.854 45.3294C366.706 46.177 367.189 47.3262 367.2 48.528V265.672C367.2 266.881 366.721 268.04 365.868 268.896C365.015 269.753 363.857 270.236 362.648 270.24ZM208.168 44.16C207.01 44.1621 205.9 44.623 205.082 45.4417C204.263 46.2604 203.802 47.3702 203.8 48.528V265.672C203.802 266.83 204.263 267.94 205.082 268.758C205.9 269.577 207.01 270.038 208.168 270.04H362.648C363.806 270.038 364.916 269.577 365.734 268.758C366.553 267.94 367.014 266.83 367.016 265.672V48.528C367.014 47.3702 366.553 46.2604 365.734 45.4417C364.916 44.623 363.806 44.1621 362.648 44.16H208.168Z" fill="#EBEBEB"/>
<path d="M353 221.872H331V305.92H353V221.872Z" fill="#E6E6E6"/>
<path d="M348.824 305.92H353V294.032H344.44L348.824 305.92Z" fill="#F0F0F0"/>
<path d="M227.464 221.872H205.464V305.92H227.464V221.872Z" fill="#E6E6E6"/>
<path d="M353 221.872H223.816V298.624H353V221.872Z" fill="#F0F0F0"/>
<path d="M228.112 225.76V283.76H266.408V225.76H228.112Z" fill="#E6E6E6"/>
<path d="M251.048 229.088H243.472C241.844 229.088 240.232 228.757 238.736 228.115C237.239 227.473 235.889 226.533 234.768 225.352H259.752C258.631 226.533 257.281 227.473 255.784 228.115C254.288 228.757 252.676 229.088 251.048 229.088Z" fill="#F0F0F0"/>
<path d="M269.264 225.768V283.768H307.56V225.768H269.264Z" fill="#E6E6E6"/>
<path d="M292.584 229.088H285.008C283.381 229.087 281.771 228.756 280.276 228.114C278.781 227.471 277.433 226.532 276.312 225.352H301.288C300.167 226.533 298.817 227.473 297.32 228.115C295.824 228.757 294.212 229.088 292.584 229.088Z" fill="#F0F0F0"/>
<path d="M310.408 225.768V283.768H348.704V225.768H310.408Z" fill="#E6E6E6"/>
<path d="M333.736 229.088H326.16C324.532 229.088 322.92 228.757 321.424 228.115C319.927 227.473 318.577 226.533 317.456 225.352H342.4C341.283 226.528 339.94 227.465 338.451 228.107C336.961 228.749 335.358 229.083 333.736 229.088Z" fill="#F0F0F0"/>
<path d="M227.992 305.92H223.816V294.032H232.376L227.992 305.92Z" fill="#F0F0F0"/>
<path d="M175.808 59.192H54.608V172.712H175.808V59.192Z" fill="#E6E6E6"/>
<path d="M180.16 59.192H56.64V172.712H180.16V59.192Z" fill="#F0F0F0"/>
<path d="M175.808 172.712H54.608V180.8H175.808V172.712Z" fill="#E6E6E6"/>
<path d="M187.408 172.712H63.888V180.8H187.408V172.712Z" fill="#F0F0F0"/>
<path d="M174.072 166.616V65.288H62.736V166.616H174.072Z" fill="#FAFAFA"/>
<path d="M74.392 166.616L110.16 65.288H127.04L91.272 166.616H74.392Z" fill="white"/>
<path d="M65.552 132.24C65.6687 132.24 65.7806 132.194 65.8631 132.111C65.9456 132.029 65.992 131.917 65.992 131.8V69.248C65.9899 69.1327 65.9426 69.0228 65.8603 68.942C65.778 68.8612 65.6673 68.816 65.552 68.816C65.4374 68.816 65.3275 68.8615 65.2465 68.9425C65.1655 69.0236 65.12 69.1334 65.12 69.248V131.8C65.12 131.915 65.1652 132.026 65.246 132.108C65.3268 132.191 65.4367 132.238 65.552 132.24Z" fill="#F0F0F0"/>
<path d="M94.904 166.616L130.672 65.288H137.248L101.488 166.616H94.904Z" fill="white"/>
<path d="M174.064 166.616V65.288H173.288V166.616H174.064Z" fill="#E6E6E6"/>
<path opacity="0.5" d="M181.6 75.792H60.4L59.84 67.656H181.04L181.6 75.792Z" fill="#E6E6E6"/>
<path opacity="0.5" d="M181.6 81.744H60.4L59.84 73.608H181.04L181.6 81.744Z" fill="#E6E6E6"/>
<path opacity="0.5" d="M181.6 88.888H60.4L59.84 80.752H181.04L181.6 88.888Z" fill="#E6E6E6"/>
<path opacity="0.5" d="M181.6 96.84H60.4L59.84 88.704H181.04L181.6 96.84Z" fill="#E6E6E6"/>
<path opacity="0.5" d="M181.6 106.368H60.4L59.84 98.232H181.04L181.6 106.368Z" fill="#E6E6E6"/>
<path opacity="0.5" d="M181.6 117.08H60.4L59.84 108.944H181.04L181.6 117.08Z" fill="#E6E6E6"/>
<path d="M182.904 230.56H147.032V305.92H182.904V230.56Z" fill="#E6E6E6"/>
<path d="M179.296 305.92H182.904V295.656H175.512L179.296 305.92Z" fill="#F0F0F0"/>
<path d="M94.664 230.56H58.792V305.92H94.664V230.56Z" fill="#E6E6E6"/>
<path d="M182.896 230.56H91.512V299.624H182.896V230.56Z" fill="#F0F0F0"/>
<path d="M180.104 233.616H94.312V252.56H180.104V233.616Z" fill="#E6E6E6"/>
<path d="M141.256 239.504H133.152C129.632 239.504 126.272 237.168 123.848 233.04H150.568C148.144 237.168 144.8 239.504 141.256 239.504Z" fill="#F0F0F0"/>
<path d="M95.12 305.92H91.512V295.656H98.904L95.12 305.92Z" fill="#F0F0F0"/>
<path d="M180.104 255.616H94.312V274.56H180.104V255.616Z" fill="#E6E6E6"/>
<path d="M141.256 261.504H133.152C129.632 261.504 126.272 259.168 123.848 255.04H150.568C148.144 259.2 144.8 261.504 141.256 261.504Z" fill="#F0F0F0"/>
<path d="M180.104 277.616H94.312V296.56H180.104V277.616Z" fill="#E6E6E6"/>
<path d="M141.256 283.504H133.152C129.632 283.504 126.272 281.168 123.848 277.04H150.568C148.144 281.168 144.8 283.504 141.256 283.504Z" fill="#F0F0F0"/>
<path d="M327.736 74.776H258.088V167.928H327.736V74.776Z" fill="#E6E6E6"/>
<path d="M332.264 74.776H259.064V167.928H332.264V74.776Z" fill="#F0F0F0"/>
<path d="M322.128 157.792V84.904H269.192V157.792H322.128Z" fill="white"/>
<path d="M322.128 157.792V84.904H321.336V157.792H322.128Z" fill="#E6E6E6"/>
<path d="M296.648 105.936H280.8C280.644 105.936 280.495 105.997 280.384 106.107C280.273 106.216 280.21 106.364 280.208 106.52V122.336C280.221 126.151 281.742 129.807 284.44 132.504C287.137 135.202 290.793 136.723 294.608 136.736H310.424C310.581 136.736 310.732 136.674 310.843 136.563C310.954 136.452 311.016 136.301 311.016 136.144V120.36C311.012 116.545 309.498 112.888 306.806 110.185C304.114 107.483 300.462 105.955 296.648 105.936ZM294.672 135.592C291.158 135.588 287.79 134.19 285.306 131.704C282.822 129.219 281.426 125.85 281.424 122.336V107.136H296.624C300.137 107.14 303.505 108.537 305.99 111.02C308.475 113.504 309.874 116.871 309.88 120.384L294.672 135.592Z" fill="#F0F0F0"/>
<path d="M200 342.048C285.666 342.048 355.112 337.994 355.112 332.992C355.112 327.991 285.666 323.936 200 323.936C114.334 323.936 44.888 327.991 44.888 332.992C44.888 337.994 114.334 342.048 200 342.048Z" fill="#F5F5F5"/>
<path d="M197.272 70.4C196.544 65.984 199.528 62.4 203.944 62.4H171.68C167.264 62.4 164.28 65.976 165.008 70.4H197.272Z" fill="#8D8D8D"/>
<path d="M203.944 62.4H171.68C173.913 62.4742 176.054 63.3071 177.749 64.7614C179.445 66.2158 180.594 68.2046 181.008 70.4L188.072 113.056C188.487 115.251 189.637 117.239 191.332 118.693C193.028 120.147 195.168 120.98 197.4 121.056H213.672C218.088 121.056 221.072 117.472 220.344 113.056L213.272 70.4C212.858 68.2046 211.709 66.2158 210.013 64.7614C208.318 63.3071 206.177 62.4742 203.944 62.4Z" fill="#C7C7C7"/>
<path d="M204.072 113.08C204.8 117.496 201.816 121.08 197.4 121.08H229.664C230.668 121.114 231.667 120.918 232.584 120.508C233.501 120.097 234.312 119.483 234.956 118.711C235.599 117.939 236.058 117.031 236.297 116.055C236.536 115.079 236.55 114.062 236.336 113.08H204.072Z" fill="#8D8D8D"/>
<path d="M209.264 74.104H186.232C186.098 74.0992 185.97 74.0491 185.868 73.9619C185.766 73.8747 185.697 73.7556 185.672 73.624C185.658 73.565 185.659 73.5037 185.673 73.4448C185.687 73.386 185.714 73.3311 185.753 73.2846C185.792 73.2381 185.84 73.2012 185.896 73.1768C185.951 73.1524 186.012 73.1412 186.072 73.144H209.104C209.238 73.1488 209.366 73.1989 209.468 73.2861C209.57 73.3733 209.639 73.4924 209.664 73.624C209.678 73.683 209.677 73.7443 209.663 73.8032C209.649 73.862 209.622 73.9169 209.583 73.9634C209.545 74.0099 209.496 74.0468 209.44 74.0712C209.385 74.0956 209.324 74.1068 209.264 74.104Z" fill="white"/>
<path d="M196.504 77.432H186.784C186.65 77.4271 186.522 77.377 186.42 77.2898C186.318 77.2027 186.249 77.0835 186.224 76.952C186.21 76.893 186.211 76.8317 186.225 76.7728C186.239 76.7139 186.266 76.6591 186.305 76.6126C186.344 76.5661 186.392 76.5292 186.448 76.5048C186.503 76.4804 186.564 76.4692 186.624 76.472H196.344C196.478 76.4768 196.606 76.5269 196.708 76.6141C196.81 76.7013 196.879 76.8204 196.904 76.952C196.916 77.0108 196.915 77.0715 196.9 77.1297C196.885 77.1879 196.858 77.242 196.819 77.2881C196.781 77.3342 196.733 77.3711 196.678 77.396C196.623 77.4209 196.564 77.4332 196.504 77.432Z" fill="white"/>
<path d="M205.496 77.432H198.776C198.643 77.4268 198.516 77.3764 198.416 77.2891C198.315 77.2018 198.248 77.0829 198.224 76.952C198.211 76.8937 198.211 76.8331 198.224 76.7749C198.238 76.7166 198.265 76.6622 198.302 76.6159C198.34 76.5696 198.388 76.5325 198.442 76.5076C198.497 76.4826 198.556 76.4705 198.616 76.472H205.336C205.469 76.4772 205.596 76.5276 205.696 76.6149C205.797 76.7021 205.864 76.8211 205.888 76.952C205.901 77.0103 205.901 77.0709 205.888 77.1291C205.874 77.1874 205.847 77.2417 205.81 77.2881C205.772 77.3344 205.724 77.3715 205.67 77.3964C205.615 77.4214 205.556 77.4335 205.496 77.432Z" fill="white"/>
<path d="M210.4 80.8H187.336C187.203 80.797 187.075 80.7485 186.973 80.6627C186.871 80.5768 186.802 80.4587 186.776 80.328C186.762 80.269 186.763 80.2077 186.777 80.1488C186.791 80.0899 186.818 80.0351 186.857 79.9886C186.896 79.9421 186.944 79.9052 187 79.8808C187.055 79.8564 187.116 79.8452 187.176 79.848H210.208C210.342 79.8528 210.47 79.9029 210.572 79.9901C210.674 80.0773 210.743 80.1964 210.768 80.328C210.78 80.3837 210.779 80.4414 210.766 80.4969C210.753 80.5524 210.728 80.6044 210.693 80.6493C210.658 80.6943 210.614 80.731 210.563 80.757C210.513 80.783 210.457 80.7977 210.4 80.8Z" fill="white"/>
<path d="M208.648 84.096H187.888C187.754 84.0912 187.626 84.0411 187.524 83.9539C187.422 83.8667 187.353 83.7476 187.328 83.616C187.316 83.5572 187.317 83.4965 187.332 83.4383C187.347 83.3801 187.374 83.326 187.413 83.2799C187.451 83.2338 187.499 83.1969 187.554 83.172C187.609 83.1471 187.668 83.1348 187.728 83.136H208.528C208.662 83.1408 208.79 83.191 208.892 83.2781C208.994 83.3653 209.063 83.4844 209.088 83.616C209.101 83.6783 209.099 83.7429 209.083 83.8043C209.066 83.8658 209.035 83.9223 208.992 83.9693C208.949 84.0162 208.895 84.0522 208.835 84.0743C208.775 84.0963 208.711 84.1038 208.648 84.096Z" fill="white"/>
<path d="M202.4 87.424H188.44C188.306 87.4192 188.178 87.369 188.076 87.2819C187.974 87.1947 187.905 87.0756 187.88 86.944C187.868 86.8856 187.869 86.8252 187.884 86.7673C187.898 86.7095 187.926 86.6557 187.965 86.6102C188.003 86.5647 188.052 86.5286 188.106 86.5046C188.161 86.4807 188.22 86.4695 188.28 86.472H202.248C202.38 86.4778 202.507 86.5273 202.608 86.6126C202.71 86.698 202.78 86.8145 202.808 86.944C202.82 87.0035 202.819 87.0649 202.804 87.1237C202.789 87.1825 202.76 87.2371 202.721 87.2834C202.682 87.3296 202.632 87.3663 202.577 87.3907C202.521 87.4151 202.461 87.4264 202.4 87.424Z" fill="white"/>
<path d="M212 90.76H188.992C188.858 90.7552 188.73 90.7051 188.628 90.6179C188.526 90.5307 188.457 90.4116 188.432 90.28C188.42 90.2212 188.421 90.1605 188.436 90.1023C188.451 90.0441 188.478 89.9899 188.517 89.9439C188.555 89.8978 188.603 89.8609 188.658 89.836C188.713 89.8111 188.772 89.7988 188.832 89.8H211.864C211.998 89.8048 212.126 89.855 212.228 89.9421C212.33 90.0293 212.399 90.1484 212.424 90.28C212.438 90.3411 212.438 90.4047 212.423 90.4656C212.408 90.5265 212.378 90.5828 212.336 90.6298C212.295 90.6769 212.243 90.7133 212.184 90.7359C212.126 90.7586 212.062 90.7668 212 90.76Z" fill="white"/>
<path d="M212.576 94.088H189.544C189.41 94.0832 189.282 94.0331 189.18 93.9459C189.078 93.8587 189.009 93.7396 188.984 93.608C188.972 93.5492 188.973 93.4885 188.988 93.4303C189.003 93.3721 189.03 93.318 189.069 93.2719C189.107 93.2258 189.155 93.1889 189.21 93.164C189.265 93.1391 189.324 93.1268 189.384 93.128H212.424C212.557 93.1332 212.684 93.1836 212.784 93.2709C212.885 93.3582 212.952 93.4771 212.976 93.608C212.99 93.667 212.989 93.7283 212.975 93.7872C212.961 93.8461 212.934 93.9009 212.895 93.9474C212.857 93.9939 212.808 94.0308 212.752 94.0552C212.697 94.0796 212.636 94.0908 212.576 94.088Z" fill="white"/>
<path d="M204.064 97.416H190.096C189.964 97.4102 189.837 97.3607 189.736 97.2754C189.634 97.19 189.564 97.0735 189.536 96.944C189.524 96.8852 189.525 96.8245 189.54 96.7663C189.555 96.7081 189.582 96.6539 189.621 96.6079C189.659 96.5618 189.707 96.5249 189.762 96.5C189.817 96.4751 189.876 96.4628 189.936 96.464H203.904C204.038 96.4688 204.166 96.519 204.268 96.6061C204.37 96.6933 204.439 96.8124 204.464 96.944C204.476 97.0024 204.475 97.0628 204.46 97.1207C204.446 97.1785 204.418 97.2323 204.379 97.2778C204.341 97.3233 204.292 97.3594 204.238 97.3834C204.183 97.4073 204.124 97.4185 204.064 97.416Z" fill="white"/>
<path d="M217.287 106.575L218.728 107.469L240.837 71.8253L239.396 70.9313L217.287 106.575Z" fill="#263238"/>
<path opacity="0.3" d="M217.287 106.575L218.728 107.469L240.837 71.8253L239.396 70.9313L217.287 106.575Z" fill="black"/>
<path d="M214.41 104.794L215.851 105.687L237.96 70.0434L236.519 69.1495L214.41 104.794Z" fill="#263238"/>
<path opacity="0.3" d="M214.41 104.794L215.851 105.687L237.96 70.0434L236.519 69.1495L214.41 104.794Z" fill="black"/>
<path d="M215.859 105.681L217.3 106.575L239.409 70.931L237.967 70.037L215.859 105.681Z" fill="#263238"/>
<path d="M214.376 108.224L215.672 109.032L218.736 107.472L214.416 104.792L214.376 108.224Z" fill="#FF8B7B"/>
<path d="M214.36 109.704L215.672 109.032L214.376 108.224L214.36 109.704Z" fill="#263238"/>
<path d="M213.6 110H213.544C212.472 109.558 211.524 108.861 210.784 107.968C210.32 107.47 209.814 107.012 209.272 106.6C209.19 106.532 209.087 106.494 208.98 106.494C208.873 106.494 208.77 106.532 208.688 106.6C208.623 106.671 208.587 106.764 208.587 106.86C208.587 106.956 208.623 107.049 208.688 107.12C208.88 107.408 209.096 107.68 209.312 107.92C209.399 108.015 209.453 108.136 209.466 108.264C209.479 108.392 209.45 108.521 209.384 108.632C209.315 108.729 209.215 108.801 209.101 108.837C208.987 108.873 208.865 108.872 208.752 108.832C208.448 108.733 208.149 108.618 207.856 108.488C207.83 108.465 207.796 108.453 207.762 108.454C207.727 108.455 207.694 108.469 207.669 108.493C207.645 108.518 207.631 108.551 207.63 108.586C207.629 108.62 207.641 108.654 207.664 108.68L207.704 108.784C207.751 108.889 207.77 109.005 207.759 109.12C207.748 109.236 207.707 109.346 207.64 109.44C207.572 109.53 207.481 109.602 207.378 109.648C207.274 109.694 207.161 109.713 207.048 109.704C203.527 109.538 200 109.551 196.48 109.744C196.427 109.744 196.376 109.723 196.339 109.685C196.301 109.648 196.28 109.597 196.28 109.544C196.28 109.491 196.301 109.44 196.339 109.403C196.376 109.365 196.427 109.344 196.48 109.344C200.013 109.151 203.554 109.138 207.088 109.304C207.133 109.312 207.179 109.307 207.221 109.29C207.264 109.273 207.301 109.245 207.328 109.208C207.352 109.167 207.364 109.12 207.364 109.072C207.364 109.024 207.352 108.977 207.328 108.936L207.288 108.848C207.232 108.746 207.211 108.629 207.227 108.514C207.243 108.399 207.296 108.293 207.379 108.211C207.461 108.128 207.567 108.075 207.682 108.059C207.797 108.043 207.914 108.064 208.016 108.12C208.291 108.249 208.574 108.359 208.864 108.448C208.889 108.467 208.92 108.478 208.952 108.478C208.984 108.478 209.015 108.467 209.04 108.448C209.06 108.41 209.067 108.367 209.06 108.325C209.053 108.283 209.031 108.245 209 108.216C208.768 107.944 208.552 107.656 208.352 107.368C208.237 107.218 208.178 107.032 208.187 106.843C208.196 106.654 208.271 106.475 208.4 106.336C208.548 106.199 208.742 106.123 208.944 106.123C209.146 106.123 209.34 106.199 209.488 106.336C210.064 106.757 210.6 107.231 211.088 107.752C211.772 108.553 212.632 109.185 213.6 109.6C213.625 109.608 213.649 109.621 213.669 109.639C213.689 109.656 213.706 109.677 213.718 109.701C213.73 109.725 213.737 109.751 213.739 109.777C213.74 109.804 213.737 109.831 213.728 109.856C213.721 109.889 213.705 109.919 213.682 109.944C213.66 109.97 213.632 109.989 213.6 110Z" fill="white"/>
<path d="M210.168 139.312L215.52 130.056H204.824L210.168 139.312Z" fill="#03C5AD"/>
<path d="M270.224 112.128C267.949 110.116 264.987 109.056 261.952 109.168C260.008 105.248 256 102.96 251.76 103.736C245.68 104.848 243.824 112.152 248.048 114.816C249.445 115.701 250.958 116.388 252.544 116.856V117.048C250.06 117.944 247.887 119.537 246.287 121.638C244.686 123.738 243.725 126.255 243.52 128.888C242.896 137.944 252.624 143.24 257.92 138.2C258.652 137.505 259.347 136.77 260 136C261.024 137.44 262.128 138.912 263.32 140.448C276.552 134.352 278.784 119.512 270.224 112.128Z" fill="#263238"/>
<path d="M243.624 147.336C243.544 148.456 243.448 149.432 243.304 150.456C243.16 151.48 243.024 152.472 242.856 153.472C242.52 155.48 242.056 157.472 241.584 159.432C240.611 163.419 239.249 167.302 237.52 171.024L237.352 171.376C237.288 171.512 237.272 171.56 237.152 171.8C236.952 172.196 236.713 172.571 236.44 172.92C235.924 173.553 235.305 174.094 234.608 174.52C233.457 175.206 232.187 175.67 230.864 175.888C228.684 176.224 226.468 176.253 224.28 175.976C220.229 175.479 216.249 174.521 212.416 173.12L213.296 169.92C215.144 170.2 217.072 170.456 218.96 170.624C220.82 170.826 222.689 170.923 224.56 170.912C226.277 170.943 227.992 170.76 229.664 170.368C230.269 170.222 230.842 169.964 231.352 169.608C231.479 169.516 231.585 169.399 231.664 169.264C231.686 169.224 231.702 169.181 231.712 169.136L231.936 168.56C232.272 167.704 232.6 166.84 232.88 165.952C233.16 165.064 233.456 164.184 233.736 163.296C234.24 161.496 234.736 159.696 235.144 157.856C235.552 156.016 235.888 154.176 236.2 152.32C236.512 150.464 236.76 148.544 236.944 146.816L243.624 147.336Z" fill="#FFB573"/>
<path d="M239.072 139.328C236.368 140.008 234.48 151.12 234.48 151.12L241.92 156.176C241.92 156.176 249.056 144.976 246.976 142.008C244.8 138.912 243.008 138.32 239.072 139.328Z" fill="#263238"/>
<path opacity="0.2" d="M239.312 141.808L237.24 153L241.416 155.84L239.312 141.808Z" fill="black"/>
<path d="M210.512 170.064L205.464 172L211.168 175.44C211.168 175.44 214.808 173.336 214.712 170.64L214.152 170.32C213.602 170.01 212.991 169.826 212.361 169.781C211.731 169.737 211.1 169.834 210.512 170.064Z" fill="#FFB573"/>
<path opacity="0.1" d="M210.136 170.312L207.64 171.2C207.152 171.365 206.674 171.557 206.208 171.776C206.208 171.776 207.856 172.464 208.68 172C209.93 172.094 211.186 172.019 212.416 171.776L210.136 170.312Z" fill="black"/>
<path d="M202.32 175.752L206.616 179.328L211.16 175.472L205.464 172.032L202.32 175.752Z" fill="#FFB573"/>
<path d="M253.672 326.304H247.128L246.688 311.136H253.24L253.672 326.304Z" fill="#FFB573"/>
<path d="M246.904 325.544H254.256C254.384 325.541 254.508 325.585 254.605 325.667C254.703 325.75 254.766 325.866 254.784 325.992L255.584 331.816C255.6 331.963 255.584 332.111 255.539 332.252C255.493 332.392 255.419 332.521 255.32 332.631C255.221 332.74 255.1 332.827 254.965 332.887C254.83 332.947 254.684 332.977 254.536 332.976C251.976 332.936 250.736 332.784 247.496 332.784C245.512 332.784 239.792 332.992 237.04 332.992C234.288 332.992 234.144 330.272 235.288 330.024C240.424 328.92 244.088 327.4 245.776 325.944C246.093 325.682 246.493 325.54 246.904 325.544Z" fill="#263238"/>
<g opacity="0.2">
<path d="M246.688 311.136L246.912 318.96H253.464L253.24 311.136H246.688Z" fill="black"/>
</g>
<path d="M239.072 139.328C239.072 139.328 235.952 140.424 242.2 178.856H268.8C268.352 168.032 268.344 161.352 273.52 139.136C269.796 138.365 266.021 137.868 262.224 137.648C258.202 137.36 254.165 137.36 250.144 137.648C244.952 138.12 239.072 139.328 239.072 139.328Z" fill="#263238"/>
<path d="M257.392 149.864C255.195 149.799 253.059 149.123 251.224 147.912C251.203 147.898 251.184 147.879 251.17 147.857C251.156 147.836 251.147 147.812 251.142 147.786C251.138 147.761 251.138 147.735 251.144 147.71C251.15 147.685 251.161 147.661 251.176 147.64C251.191 147.618 251.209 147.599 251.231 147.584C251.253 147.569 251.278 147.558 251.304 147.553C251.33 147.548 251.357 147.548 251.383 147.553C251.409 147.559 251.434 147.569 251.456 147.584C253.417 148.87 255.728 149.518 258.072 149.44C258.944 148.888 264.976 144.864 265.432 137.896C265.434 137.87 265.441 137.844 265.453 137.821C265.465 137.797 265.482 137.776 265.502 137.759C265.522 137.742 265.545 137.729 265.57 137.721C265.595 137.713 265.622 137.71 265.648 137.712C265.674 137.714 265.7 137.721 265.723 137.733C265.747 137.745 265.768 137.762 265.785 137.782C265.802 137.802 265.815 137.825 265.823 137.85C265.831 137.875 265.834 137.902 265.832 137.928C265.368 145.056 259.432 149.072 258.24 149.8C258.211 149.808 258.181 149.808 258.152 149.8C257.896 149.856 257.64 149.864 257.392 149.864Z" fill="white"/>
<path d="M246.072 148.632C246.038 148.644 246.002 148.644 245.968 148.632C245.676 148.405 245.437 148.117 245.269 147.788C245.1 147.459 245.006 147.097 244.992 146.728C244.616 144.288 245.52 140.024 247.392 137.816C247.411 137.797 247.433 137.781 247.458 137.771C247.482 137.76 247.509 137.755 247.536 137.755C247.563 137.755 247.589 137.76 247.614 137.771C247.639 137.781 247.661 137.797 247.68 137.816C247.717 137.853 247.737 137.904 247.737 137.956C247.737 138.008 247.717 138.059 247.68 138.096C245.904 140.168 244.984 144.336 245.344 146.688C245.38 147.296 245.646 147.868 246.088 148.288C247.196 148.095 248.272 147.754 249.288 147.272C249.337 147.253 249.391 147.253 249.44 147.272C249.489 147.291 249.529 147.328 249.552 147.376C249.563 147.4 249.568 147.426 249.569 147.453C249.569 147.479 249.565 147.505 249.555 147.53C249.545 147.554 249.531 147.577 249.512 147.595C249.494 147.614 249.472 147.63 249.448 147.64C248.375 148.129 247.239 148.463 246.072 148.632Z" fill="white"/>
<path d="M261.024 124.048C260.264 127.928 259.504 135.056 262.224 137.648C262.224 137.648 261.16 141.592 253.936 141.592C245.992 141.592 250.144 137.648 250.144 137.648C254.472 136.608 254.36 133.392 253.608 130.376L261.024 124.048Z" fill="#FFB573"/>
<path d="M262.216 137.648C258.194 137.36 254.158 137.36 250.136 137.648L249.336 137.728C248.368 139.552 248.128 142.36 250.44 146.528C250.44 146.528 261.032 142.256 263.792 137.792C263.28 137.712 262.752 137.672 262.216 137.648Z" fill="#FFB573"/>
<path opacity="0.2" d="M258 126.632L253.6 130.4C253.79 131.102 253.916 131.819 253.976 132.544C255.632 132.304 257.904 130.488 258.08 128.752C258.185 128.047 258.158 127.328 258 126.632Z" fill="black"/>
<path d="M265.216 117.312C263.736 123.64 263.24 126.352 259.448 129.08C253.752 133.192 246.304 129.992 245.848 123.344C245.448 117.368 247.944 108.016 254.648 106.544C256.122 106.212 257.657 106.261 259.107 106.688C260.556 107.115 261.873 107.906 262.931 108.984C263.99 110.063 264.755 111.394 265.155 112.851C265.555 114.309 265.576 115.844 265.216 117.312Z" fill="#FFB573"/>
<path d="M242.2 178.856C242.2 178.856 237.032 229.312 237.464 249.256C237.912 270.056 245.52 317.408 245.52 317.408H254.4C254.4 317.408 253 271.24 253.784 250.84C254.64 228.592 261.704 178.84 261.704 178.84L242.2 178.856Z" fill="#C50303"/>
<path opacity="0.3" d="M242.2 178.856C242.2 178.856 237.032 229.312 237.464 249.256C237.912 270.056 245.52 317.408 245.52 317.408H254.4C254.4 317.408 253 271.24 253.784 250.84C254.64 228.592 261.704 178.84 261.704 178.84L242.2 178.856Z" fill="white"/>
<path d="M255.144 317.76H244.752L243.992 314.448L255.632 314.04L255.144 317.76Z" fill="#263238"/>
<path opacity="0.2" d="M253.672 191.408C247.144 204.552 252.36 228.528 254.672 237.448C255.856 224.056 257.872 207.672 259.416 195.648C258.4 188.848 256.688 185.352 253.672 191.408Z" fill="black"/>
<path d="M284.288 326.304H277.736L275.336 311.136H281.88L284.288 326.304Z" fill="#FFB573"/>
<path d="M277.416 325.544H284.8C284.932 325.546 285.059 325.591 285.163 325.672C285.267 325.753 285.341 325.865 285.376 325.992L286.976 331.816C287.015 331.954 287.021 332.099 286.994 332.239C286.966 332.38 286.906 332.512 286.818 332.625C286.73 332.738 286.616 332.829 286.487 332.89C286.357 332.951 286.215 332.98 286.072 332.976C283.504 332.936 282.248 332.784 279.008 332.784C277.016 332.784 271.328 332.992 268.608 332.992C265.888 332.992 265.36 330.272 266.472 330.024C271.464 328.92 274.888 327.4 276.432 325.944C276.701 325.697 277.051 325.555 277.416 325.544Z" fill="#263238"/>
<g opacity="0.2">
<path d="M275.336 311.136L276.576 318.96H283.128L281.888 311.136H275.336Z" fill="black"/>
</g>
<path d="M249.6 178.856C249.6 178.856 255.096 229.312 258.12 249.256C261.264 270.056 275.024 317.408 275.024 317.408H283.84C283.84 317.408 276.448 271.24 274.584 250.84C272.552 228.592 269.04 178.84 269.04 178.84L249.6 178.856Z" fill="#C50303"/>
<path opacity="0.3" d="M249.6 178.856C249.6 178.856 255.096 229.312 258.12 249.256C261.264 270.056 275.024 317.408 275.024 317.408H283.84C283.84 317.408 276.448 271.24 274.584 250.84C272.552 228.592 269.04 178.84 269.04 178.84L249.6 178.856Z" fill="white"/>
<path d="M284.648 317.76H274.256L273.064 314.448L284.648 314.04V317.76Z" fill="#263238"/>
<path d="M275.104 326.688C274.529 326.734 273.954 326.594 273.464 326.288C273.348 326.198 273.253 326.083 273.188 325.951C273.123 325.82 273.089 325.675 273.088 325.528C273.079 325.447 273.094 325.365 273.131 325.293C273.168 325.22 273.225 325.16 273.296 325.12C274.04 324.68 276.824 326.008 277.136 326.168C277.168 326.181 277.194 326.203 277.213 326.232C277.231 326.26 277.241 326.294 277.24 326.328C277.241 326.358 277.23 326.388 277.211 326.411C277.192 326.434 277.166 326.45 277.136 326.456C276.468 326.599 275.787 326.676 275.104 326.688ZM273.76 325.336C273.663 325.329 273.567 325.349 273.48 325.392C273.451 325.408 273.427 325.433 273.413 325.463C273.399 325.493 273.394 325.527 273.4 325.56C273.401 325.655 273.423 325.749 273.465 325.835C273.506 325.921 273.566 325.996 273.64 326.056C274.088 326.416 275.168 326.472 276.592 326.232C275.702 325.784 274.746 325.482 273.76 325.336Z" fill="#C50303"/>
<path d="M277.104 326.456H277.04C276.24 326.096 274.488 324.688 274.512 323.944C274.512 323.768 274.616 323.552 275.04 323.504C275.36 323.477 275.678 323.575 275.928 323.776C276.598 324.473 277.053 325.348 277.24 326.296C277.245 326.322 277.244 326.349 277.235 326.374C277.227 326.4 277.212 326.422 277.192 326.44C277.165 326.454 277.134 326.459 277.104 326.456ZM275.2 323.8H275.112C274.832 323.8 274.824 323.944 274.824 323.976C274.824 324.424 276 325.536 276.856 326.016C276.691 325.253 276.311 324.553 275.76 324C275.601 323.872 275.404 323.802 275.2 323.8Z" fill="#C50303"/>
<path d="M254.728 117.272C254.64 117.792 254.288 118.168 253.928 118.072C253.568 117.976 253.376 117.544 253.472 117.024C253.568 116.504 253.904 116.128 254.272 116.184C254.64 116.24 254.816 116.752 254.728 117.272Z" fill="#263238"/>
<path d="M248.84 116.272C248.752 116.792 248.4 117.168 248.04 117.072C247.68 116.976 247.496 116.552 247.584 116.024C247.672 115.496 248.016 115.128 248.384 115.224C248.752 115.32 248.928 115.752 248.84 116.272Z" fill="#263238"/>
<path d="M248.528 115.28L247.336 114.704C247.336 114.704 247.816 115.792 248.528 115.28Z" fill="#263238"/>
<path d="M250.496 117.52C249.837 118.627 249.029 119.639 248.096 120.528C248.331 120.762 248.613 120.942 248.924 121.056C249.234 121.171 249.566 121.217 249.896 121.192L250.496 117.52Z" fill="#ED893E"/>
<path d="M252.36 123.712C252.092 123.712 251.824 123.688 251.56 123.64C251.54 123.637 251.521 123.63 251.503 123.62C251.486 123.609 251.471 123.595 251.459 123.579C251.447 123.563 251.438 123.544 251.434 123.524C251.429 123.504 251.429 123.484 251.432 123.464C251.44 123.423 251.463 123.386 251.498 123.362C251.532 123.338 251.575 123.329 251.616 123.336C252.261 123.46 252.925 123.43 253.556 123.249C254.187 123.069 254.767 122.742 255.248 122.296C255.262 122.28 255.28 122.268 255.299 122.26C255.318 122.251 255.339 122.247 255.36 122.247C255.381 122.247 255.402 122.251 255.421 122.26C255.44 122.268 255.458 122.28 255.472 122.296C255.486 122.31 255.498 122.327 255.505 122.345C255.513 122.364 255.517 122.384 255.517 122.404C255.517 122.424 255.513 122.444 255.505 122.463C255.498 122.481 255.486 122.498 255.472 122.512C254.634 123.308 253.515 123.739 252.36 123.712Z" fill="#263238"/>
<path d="M268.304 107.456C267.553 106.929 266.7 106.564 265.8 106.384C265.072 100.144 260.072 96.176 254.496 97.432C248.176 98.856 245.976 106.696 250.224 109.368C252.723 110.895 255.545 111.813 258.464 112.048C258.576 117.224 261.8 121.648 264.064 121.888C270.528 119.312 272.2 110.2 268.304 107.456Z" fill="#263238"/>
<path d="M265.952 123.472C265.314 124.555 264.278 125.345 263.064 125.672C261.464 126.08 260.664 124.632 261.16 123.128C261.584 121.776 262.944 119.928 264.552 120.176C264.901 120.24 265.229 120.389 265.506 120.611C265.783 120.833 266.001 121.12 266.14 121.447C266.279 121.774 266.334 122.13 266.301 122.483C266.269 122.837 266.149 123.176 265.952 123.472Z" fill="#FFB573"/>
<path d="M257.296 116.472C257.23 116.472 257.166 116.451 257.113 116.412C257.06 116.373 257.02 116.319 257 116.256C256.576 114.888 254.824 114.296 254.808 114.296C254.73 114.27 254.665 114.215 254.627 114.141C254.59 114.068 254.583 113.983 254.608 113.904C254.62 113.865 254.639 113.828 254.666 113.796C254.692 113.765 254.725 113.739 254.761 113.72C254.798 113.701 254.838 113.69 254.879 113.688C254.92 113.685 254.961 113.69 255 113.704C255.08 113.704 257.08 114.4 257.592 116.104C257.617 116.183 257.61 116.268 257.573 116.341C257.535 116.415 257.47 116.47 257.392 116.496L257.296 116.472Z" fill="#263238"/>
<path d="M247.536 113.248C247.481 113.248 247.428 113.234 247.38 113.207C247.333 113.181 247.293 113.142 247.264 113.096C247.224 113.024 247.214 112.939 247.236 112.859C247.259 112.78 247.312 112.712 247.384 112.672C247.805 112.417 248.281 112.267 248.773 112.233C249.264 112.2 249.756 112.285 250.208 112.48C250.271 112.523 250.316 112.587 250.335 112.66C250.354 112.734 250.345 112.812 250.311 112.879C250.277 112.947 250.219 113 250.148 113.028C250.078 113.056 249.999 113.057 249.928 113.032C249.567 112.884 249.176 112.823 248.787 112.854C248.398 112.884 248.022 113.006 247.688 113.208C247.642 113.236 247.59 113.25 247.536 113.248Z" fill="#263238"/>
<path d="M276.576 146.76C277.376 150.528 277.904 154.232 278.352 158.016C278.825 161.815 279.092 165.636 279.152 169.464C279.152 169.656 279.152 170.056 279.152 170.408C279.152 170.76 279.096 171.048 279.056 171.344C278.96 171.928 278.856 172.472 278.72 172.944C278.464 173.968 278.16 174.92 277.84 175.856C277.2 177.72 276.44 179.488 275.672 181.232C274.107 184.691 272.369 188.068 270.464 191.352L267.456 189.952L269.24 184.688C269.84 182.944 270.416 181.184 270.952 179.432C271.488 177.68 272.008 175.944 272.456 174.232C272.672 173.376 272.856 172.528 272.984 171.728C273.048 171.328 273.096 170.928 273.128 170.608C273.128 170.44 273.128 170.288 273.128 170.152L273.088 169.696C272.944 167.904 272.736 166.104 272.52 164.296L271.768 158.856C271.216 155.24 270.6 151.576 269.984 148L276.576 146.76Z" fill="#FFB573"/>
<path d="M273.52 139.136C276.184 139.936 279.384 149.12 279.384 149.12L269.04 156.512C269.04 156.512 265.272 148.856 266.392 145.408C267.56 141.824 270.472 138.208 273.52 139.136Z" fill="#263238"/>
<path d="M244.44 326.688C243.876 326.744 243.311 326.603 242.84 326.288C242.734 326.195 242.652 326.076 242.603 325.944C242.554 325.811 242.54 325.668 242.56 325.528C242.564 325.444 242.589 325.362 242.634 325.29C242.679 325.219 242.742 325.16 242.816 325.12C243.616 324.68 246.232 326.008 246.528 326.168C246.557 326.183 246.58 326.206 246.594 326.235C246.608 326.264 246.613 326.296 246.608 326.328C246.604 326.359 246.59 326.388 246.568 326.411C246.547 326.434 246.519 326.45 246.488 326.456C245.814 326.597 245.128 326.674 244.44 326.688ZM243.272 325.336C243.173 325.33 243.074 325.349 242.984 325.392C242.953 325.408 242.927 325.432 242.909 325.462C242.89 325.491 242.88 325.525 242.88 325.56C242.868 325.651 242.877 325.743 242.908 325.829C242.939 325.916 242.989 325.993 243.056 326.056C243.456 326.416 244.536 326.472 245.984 326.232C245.138 325.78 244.221 325.477 243.272 325.336Z" fill="#C50303"/>
<path d="M246.472 326.456H246.4C245.6 326.096 244.072 324.688 244.2 323.944C244.2 323.768 244.352 323.552 244.776 323.504C244.931 323.489 245.087 323.505 245.236 323.552C245.384 323.598 245.522 323.675 245.64 323.776C246.44 324.464 246.616 326.224 246.616 326.296C246.62 326.324 246.617 326.352 246.605 326.378C246.594 326.403 246.576 326.425 246.552 326.44C246.527 326.452 246.5 326.458 246.472 326.456ZM244.912 323.8H244.8C244.52 323.8 244.504 323.944 244.496 323.976C244.424 324.424 245.472 325.536 246.264 326.016C246.212 325.277 245.933 324.573 245.464 324C245.312 323.866 245.115 323.794 244.912 323.8Z" fill="#C50303"/>
<path d="M254.4 116.28L253.208 115.704C253.208 115.704 253.704 116.8 254.4 116.28Z" fill="#263238"/>
<path d="M269.2 177.296L269.88 179.696C269.976 179.888 269.752 180.072 269.448 180.072H242.064C241.824 180.072 241.632 179.952 241.616 179.808L241.376 177.408C241.376 177.24 241.568 177.104 241.824 177.104H268.8C268.877 177.102 268.954 177.119 269.023 177.152C269.093 177.185 269.153 177.235 269.2 177.296Z" fill="#C50303"/>
<path d="M265.6 180.304H266.32C266.464 180.304 266.568 180.232 266.56 180.144L266.224 177.048C266.224 176.96 266.088 176.88 265.944 176.88H265.224C265.08 176.88 264.968 176.96 264.976 177.048L265.32 180.144C265.312 180.232 265.44 180.304 265.6 180.304Z" fill="#C50303"/>
<g opacity="0.3">
<path d="M265.6 180.304H266.32C266.464 180.304 266.568 180.232 266.56 180.144L266.224 177.048C266.224 176.96 266.088 176.88 265.944 176.88H265.224C265.08 176.88 264.968 176.96 264.976 177.048L265.32 180.144C265.312 180.232 265.44 180.304 265.6 180.304Z" fill="white"/>
</g>
<path d="M244.096 180.304H244.816C244.96 180.304 245.072 180.232 245.064 180.144L244.72 177.048C244.72 176.96 244.584 176.88 244.44 176.88H243.72C243.576 176.88 243.464 176.96 243.48 177.048L243.816 180.144C243.824 180.232 243.952 180.304 244.096 180.304Z" fill="#C50303"/>
<path opacity="0.3" d="M244.096 180.304H244.816C244.96 180.304 245.072 180.232 245.064 180.144L244.72 177.048C244.72 176.96 244.584 176.88 244.44 176.88H243.72C243.576 176.88 243.464 176.96 243.48 177.048L243.816 180.144C243.824 180.232 243.952 180.304 244.096 180.304Z" fill="white"/>
<path d="M254.84 180.304H255.56C255.704 180.304 255.816 180.232 255.8 180.144L255.464 177.048C255.464 176.96 255.328 176.88 255.184 176.88H254.464C254.32 176.88 254.208 176.96 254.224 177.048L254.56 180.144C254.568 180.232 254.696 180.304 254.84 180.304Z" fill="#C50303"/>
<path opacity="0.3" d="M254.84 180.304H255.56C255.704 180.304 255.816 180.232 255.8 180.144L255.464 177.048C255.464 176.96 255.328 176.88 255.184 176.88H254.464C254.32 176.88 254.208 176.96 254.224 177.048L254.56 180.144C254.568 180.232 254.696 180.304 254.84 180.304Z" fill="white"/>
<path d="M267.576 189.36L262.496 194.288L269.12 194.952C269.12 194.952 271.52 191.488 270.264 189.072L267.576 189.36Z" fill="#FFB573"/>
<path d="M261.744 199.744L267.328 200L269.12 194.952L262.496 194.288L261.744 199.744Z" fill="#FFB573"/>
<path d="M132.24 327.288C132.871 327.362 133.507 327.205 134.032 326.848C134.105 326.766 134.152 326.665 134.166 326.556C134.18 326.448 134.161 326.338 134.112 326.24C134.076 326.159 134.022 326.088 133.954 326.031C133.886 325.974 133.806 325.933 133.72 325.912C132.776 325.648 130.52 326.816 130.456 326.872C130.429 326.885 130.406 326.905 130.39 326.931C130.375 326.956 130.367 326.986 130.368 327.016C130.369 327.043 130.379 327.068 130.397 327.089C130.414 327.109 130.438 327.123 130.464 327.128C131.05 327.233 131.644 327.287 132.24 327.288ZM133.344 326.152C133.432 326.139 133.52 326.139 133.608 326.152C133.66 326.163 133.71 326.186 133.751 326.219C133.793 326.252 133.826 326.295 133.848 326.344C133.92 326.52 133.848 326.608 133.848 326.656C133.52 327.032 132.032 327.04 130.96 326.888C131.705 326.505 132.512 326.256 133.344 326.152Z" fill="#03C5AD"/>
<path d="M130.488 327.128H130.552C131.304 326.808 132.896 325.528 132.888 324.872C132.888 324.712 132.8 324.52 132.424 324.48C132.137 324.46 131.853 324.545 131.624 324.72C131.008 325.344 130.578 326.128 130.384 326.984C130.376 327.007 130.376 327.032 130.383 327.055C130.39 327.078 130.404 327.098 130.424 327.112C130.443 327.124 130.466 327.129 130.488 327.128ZM132.272 324.728H132.36C132.6 324.728 132.608 324.848 132.608 324.88C132.608 325.28 131.512 326.28 130.72 326.712C130.897 326.027 131.257 325.402 131.76 324.904C131.91 324.798 132.089 324.742 132.272 324.744V324.728Z" fill="#03C5AD"/>
<path d="M124.048 326.992H129.928L132.512 313.376H126.632L124.048 326.992Z" fill="#B55B52"/>
<path d="M129.984 326.312H123.584C123.462 326.316 123.343 326.357 123.244 326.428C123.144 326.499 123.068 326.598 123.024 326.712L121.096 331.936C121.042 332.049 121.018 332.175 121.027 332.3C121.036 332.425 121.077 332.546 121.146 332.65C121.216 332.755 121.311 332.84 121.422 332.897C121.534 332.954 121.659 332.981 121.784 332.976C124.112 332.976 127.472 332.808 130.384 332.808C133.784 332.808 133.472 332.992 137.464 332.992C139.864 332.992 140.904 330.552 139.928 330.328C135.48 329.328 134.96 329.216 131.352 326.768C130.954 326.479 130.476 326.32 129.984 326.312Z" fill="#263238"/>
<path opacity="0.2" d="M132.512 313.384L131.176 320.4H125.296L126.632 313.384H132.512Z" fill="black"/>
<path d="M132.952 180.36L136.8 184.4L130.592 186.568C130.592 186.568 128.336 183.272 130.072 181.016L132.952 180.36Z" fill="#B55B52"/>
<path d="M137.952 190.048L131.808 190.944L130.592 186.568L136.8 184.4L137.952 190.048Z" fill="#B55B52"/>
<path d="M109.888 213.888L139.872 215.2C140.577 215.211 141.263 214.978 141.816 214.541C142.368 214.103 142.753 213.488 142.904 212.8L146.488 194.48C146.562 194.17 146.566 193.846 146.499 193.535C146.431 193.223 146.295 192.93 146.099 192.678C145.903 192.426 145.653 192.221 145.367 192.079C145.081 191.937 144.767 191.86 144.448 191.856L114.464 190.536C113.761 190.527 113.076 190.761 112.525 191.198C111.974 191.635 111.591 192.249 111.44 192.936L107.848 211.256C107.772 211.567 107.767 211.891 107.834 212.204C107.901 212.517 108.037 212.811 108.233 213.064C108.43 213.317 108.68 213.522 108.967 213.665C109.253 213.808 109.568 213.884 109.888 213.888Z" fill="#263238"/>
<path d="M111.944 219.52L148.984 221.12C149.824 221.152 150.644 220.86 151.276 220.305C151.907 219.75 152.301 218.973 152.376 218.136L154.336 195.4C154.376 194.996 154.332 194.588 154.208 194.202C154.083 193.815 153.881 193.458 153.613 193.153C153.346 192.848 153.018 192.601 152.651 192.427C152.284 192.254 151.886 192.157 151.48 192.144L114.448 190.544C113.608 190.516 112.789 190.808 112.157 191.363C111.526 191.917 111.129 192.691 111.048 193.528L109.088 216.264C109.05 216.668 109.094 217.075 109.219 217.461C109.344 217.847 109.546 218.203 109.813 218.508C110.081 218.813 110.408 219.06 110.774 219.234C111.141 219.408 111.539 219.505 111.944 219.52Z" fill="#311302"/>
<path d="M139.12 198.168H139.024L128.272 197.696C127.992 197.686 127.717 197.619 127.463 197.5C127.21 197.38 126.984 197.209 126.799 196.999C126.614 196.788 126.474 196.542 126.387 196.275C126.301 196.009 126.27 195.727 126.296 195.448L126.72 190.544C126.824 189.541 127.304 188.615 128.062 187.951C128.819 187.286 129.8 186.932 130.808 186.96L138.008 187.272C138.528 187.293 139.039 187.419 139.509 187.643C139.979 187.867 140.398 188.185 140.742 188.576C141.085 188.967 141.346 189.425 141.507 189.92C141.668 190.415 141.727 190.937 141.68 191.456L141.272 196.208C141.219 196.743 140.969 197.239 140.572 197.601C140.175 197.963 139.657 198.165 139.12 198.168ZM128.72 195.304L138.888 195.752L139.28 191.24C139.302 191.043 139.283 190.843 139.224 190.653C139.166 190.463 139.068 190.287 138.938 190.137C138.808 189.987 138.648 189.865 138.469 189.78C138.29 189.694 138.095 189.646 137.896 189.64L130.696 189.32C130.304 189.317 129.925 189.458 129.63 189.716C129.335 189.974 129.145 190.331 129.096 190.72L128.72 195.304Z" fill="#672602"/>
<path d="M152.944 221.32L115.912 219.72C115.066 219.671 114.268 219.307 113.676 218.7C113.084 218.093 112.74 217.287 112.712 216.44L112.216 193.6C112.2 193.197 112.268 192.795 112.417 192.42C112.565 192.045 112.791 191.705 113.078 191.422C113.366 191.139 113.71 190.92 114.088 190.779C114.466 190.637 114.869 190.576 115.272 190.6L152.312 192.2C153.159 192.248 153.957 192.611 154.55 193.218C155.142 193.825 155.485 194.632 155.512 195.48L156 218.32C156.015 218.723 155.946 219.124 155.797 219.499C155.648 219.873 155.422 220.213 155.135 220.495C154.847 220.778 154.504 220.997 154.126 221.139C153.749 221.281 153.346 221.343 152.944 221.32Z" fill="#672602"/>
<path d="M141.976 135.616C141.584 136.416 141.12 137.328 140.704 138.2C140.288 139.072 139.904 140 139.464 140.904C138.664 142.72 137.864 144.544 137.176 146.376C136.488 148.208 135.848 150.056 135.28 151.888C135.016 152.808 134.744 153.72 134.544 154.624C134.424 155.08 134.32 155.536 134.24 155.976L134.112 156.648C134.064 156.88 134.016 157.112 134 157.272C134 157.624 133.904 157.944 133.888 158.416C133.872 158.888 133.832 159.272 133.832 159.76C133.832 160.696 133.832 161.68 133.832 162.664C133.872 164.656 133.992 166.664 134.112 168.728C134.344 172.816 134.688 176.968 135.008 181.064L127.68 182.248C126.688 178.08 125.904 173.952 125.2 169.72C124.864 167.608 124.576 165.48 124.336 163.32C124.224 162.216 124.112 161.12 124.056 159.96C124.008 159.408 124 158.784 123.992 158.176C123.984 157.568 123.992 156.88 124.064 156.192C124.08 155.879 124.112 155.566 124.16 155.256L124.272 154.376C124.336 153.784 124.424 153.208 124.528 152.648C124.72 151.496 124.96 150.384 125.2 149.272C125.72 147.072 126.312 144.904 127.016 142.808C127.72 140.712 128.464 138.632 129.296 136.6C129.712 135.584 130.096 134.576 130.592 133.568C131.088 132.56 131.48 131.6 132.032 130.496L141.976 135.616Z" fill="#FF8A00"/>
<path d="M158.008 177.496C158.008 177.496 152.352 221.44 149.08 239.36C145.672 258 133.6 319.04 133.6 319.04H123.608C123.608 319.04 128.68 259.088 130.928 240.784C133.384 220.784 137.328 177.496 137.328 177.496H158.008Z" fill="#263238"/>
<path d="M136.064 315.072C136.112 315.072 134.896 319.208 134.896 319.208H122.784L123 315.52L136.064 315.072Z" fill="#03C5AD"/>
<path d="M162.824 104.52C162.824 105.016 163.088 105.424 163.416 105.424C163.744 105.424 164 105.016 164 104.52C164 104.024 163.736 103.624 163.416 103.624C163.096 103.624 162.824 104 162.824 104.52Z" fill="#263238"/>
<path d="M163.04 105.424C163.641 106.946 164.448 108.378 165.44 109.68C165.097 109.926 164.705 110.093 164.29 110.171C163.875 110.248 163.448 110.234 163.04 110.128V105.424Z" fill="#A02724"/>
<path d="M161.064 101.76C161.123 101.76 161.182 101.744 161.232 101.712C161.523 101.487 161.863 101.334 162.225 101.267C162.587 101.2 162.96 101.221 163.312 101.328C163.384 101.354 163.464 101.351 163.534 101.32C163.604 101.289 163.659 101.231 163.688 101.16C163.702 101.124 163.709 101.086 163.708 101.048C163.707 101.009 163.699 100.972 163.683 100.937C163.667 100.902 163.645 100.87 163.617 100.844C163.589 100.818 163.556 100.797 163.52 100.784C163.078 100.641 162.607 100.608 162.149 100.686C161.691 100.764 161.258 100.951 160.888 101.232C160.826 101.278 160.785 101.347 160.773 101.423C160.761 101.499 160.779 101.577 160.824 101.64C160.851 101.678 160.887 101.709 160.929 101.73C160.971 101.751 161.017 101.761 161.064 101.76Z" fill="#263238"/>
<path d="M147.072 110.016C147.872 114.32 148.752 122.2 145.744 125.064C145.744 125.064 146.92 129.424 154.912 129.424C163.712 129.424 159.104 125.064 159.104 125.064C154.304 123.92 154.44 120.368 155.272 117.024L147.072 110.016Z" fill="#B55B52"/>
<path d="M144.592 126.56C143.968 125.184 143.272 123.6 144.704 123.104C146.304 122.56 154.92 122.008 157.896 123.032C158.289 123.141 158.656 123.326 158.976 123.578C159.296 123.83 159.564 124.142 159.762 124.498C159.961 124.854 160.087 125.245 160.133 125.65C160.18 126.055 160.145 126.465 160.032 126.856L144.592 126.56Z" fill="#263238"/>
<path d="M134.168 126.752C129.024 129.088 125.824 146.8 125.824 146.8L135.912 150C137.894 145.323 139.541 140.511 140.84 135.6C142.672 128.208 139.432 124.368 134.168 126.752Z" fill="#FF8A00"/>
<path d="M196.8 170.608H203.008L201.92 178.032C201.92 178.032 197.056 177.856 194.848 174.192L196.8 170.608Z" fill="#B55B52"/>
<path d="M208.848 173.192L205.728 178.928L201.888 178.048L202.976 170.624L208.848 173.192Z" fill="#B55B52"/>
<path d="M146.224 103.464C146.6 109.576 146.512 113.176 149.6 116.312C154.24 121.032 161.784 118.232 163.24 112.128C164.56 106.64 163.72 97.568 157.736 95.136C156.42 94.5937 154.987 94.3967 153.573 94.5639C152.16 94.7311 150.812 95.2568 149.659 96.0912C148.505 96.9255 147.584 98.0409 146.983 99.3312C146.382 100.622 146.121 102.044 146.224 103.464Z" fill="#B55B52"/>
<path d="M145.52 111.776C145.52 111.776 139.984 103.472 141.184 98.056C142.28 93.104 153.456 91.336 158.096 91.832C163.024 92.368 164.944 94.488 162.24 98.76C160.644 99.5163 158.966 100.085 157.24 100.456C157.24 100.456 159.984 103.824 160.008 106.056C159.208 106.472 156.736 107.464 156.736 107.464C156.736 107.464 153.232 116.112 153.128 116.096C151.776 115.936 148.648 115.888 147.528 116.312C146.734 114.858 146.063 113.341 145.52 111.776Z" fill="#263238"/>
<path d="M154.312 106.568C154.715 108.03 155.587 109.32 156.792 110.24C158.392 111.44 159.584 110.304 159.464 108.504C159.36 106.904 158.4 104.32 156.64 103.816C154.88 103.312 153.848 104.8 154.312 106.568Z" fill="#B55B52"/>
<path opacity="0.3" d="M153.768 193.92C145.904 195.744 147.368 224.192 148.88 240.408C148.952 240.04 149.008 239.696 149.072 239.36C151.024 228.688 153.816 208.8 155.76 194.448C155.155 194.098 154.467 193.916 153.768 193.92Z" fill="black"/>
<path d="M161.376 327.288C162.128 327.288 162.856 327.184 163.104 326.848C163.168 326.759 163.202 326.653 163.202 326.544C163.202 326.435 163.168 326.329 163.104 326.24C163.057 326.158 162.993 326.087 162.918 326.031C162.842 325.974 162.756 325.934 162.664 325.912C161.688 325.648 159.632 326.816 159.544 326.872C159.52 326.886 159.5 326.908 159.489 326.934C159.478 326.96 159.474 326.988 159.48 327.016C159.486 327.044 159.499 327.069 159.519 327.089C159.539 327.109 159.564 327.122 159.592 327.128C160.181 327.231 160.778 327.285 161.376 327.288ZM162.312 326.152C162.4 326.139 162.488 326.139 162.576 326.152C162.632 326.163 162.686 326.186 162.732 326.219C162.779 326.252 162.819 326.295 162.848 326.344C162.952 326.52 162.912 326.608 162.848 326.656C162.576 327.032 161.088 327.04 159.992 326.888C160.71 326.494 161.498 326.244 162.312 326.152Z" fill="#03C5AD"/>
<path d="M159.6 327.128H159.656C160.368 326.808 161.776 325.528 161.664 324.872C161.664 324.712 161.528 324.52 161.144 324.48C161.001 324.463 160.857 324.475 160.719 324.516C160.581 324.558 160.454 324.627 160.344 324.72C159.592 325.336 159.44 326.92 159.432 326.984C159.429 327.008 159.432 327.033 159.442 327.056C159.452 327.078 159.468 327.098 159.488 327.112C159.522 327.132 159.562 327.137 159.6 327.128ZM161.032 324.728H161.12C161.368 324.728 161.384 324.848 161.392 324.88C161.456 325.28 160.496 326.28 159.792 326.712C159.865 326.041 160.145 325.41 160.592 324.904C160.717 324.804 160.872 324.748 161.032 324.744V324.728Z" fill="#03C5AD"/>
<path d="M153.136 326.992H159.016L159.6 313.376H153.728L153.136 326.992Z" fill="#B55B52"/>
<path d="M158.976 326.312H152.576C152.459 326.312 152.346 326.352 152.255 326.425C152.163 326.497 152.099 326.598 152.072 326.712L150.912 331.936C150.884 332.062 150.885 332.193 150.915 332.318C150.945 332.444 151.003 332.561 151.085 332.661C151.166 332.761 151.269 332.841 151.386 332.896C151.503 332.95 151.631 332.978 151.76 332.976C154.072 332.976 157.416 332.808 160.328 332.808C163.736 332.808 166.672 332.992 170.664 332.992C173.064 332.992 173.744 330.552 172.736 330.328C168.136 329.328 164.384 329.216 160.408 326.768C159.983 326.485 159.487 326.327 158.976 326.312Z" fill="#263238"/>
<path opacity="0.2" d="M159.6 313.384L159.296 320.4H153.416L153.72 313.384H159.6Z" fill="black"/>
<path d="M168.496 177.496C168.496 177.496 169.296 221.44 168.664 239.36C168 258 161.464 319.04 161.464 319.04H151.536C151.536 319.04 151.168 259.088 150.736 240.784C150.248 220.784 147.84 177.496 147.84 177.496H168.496Z" fill="#263238"/>
<path d="M163.408 315.072C163.448 315.072 162.84 319.208 162.84 319.208H150.736L150.4 315.52L163.408 315.072Z" fill="#03C5AD"/>
<path d="M168.144 126.696C168.144 126.696 175.2 137.448 169.288 181.184H136.088C135.872 176.384 139.88 149.128 135.224 126.392C138.698 125.723 142.212 125.279 145.744 125.064C150.194 124.808 154.654 124.808 159.104 125.064C162.155 125.371 165.178 125.917 168.144 126.696Z" fill="#FF8A00"/>
<path opacity="0.2" d="M171.648 149.072L164.688 137.536C164.688 137.536 167.304 153.888 171.312 161.264C171.584 156.648 171.68 152.6 171.648 149.072Z" fill="black"/>
<path d="M174.616 135.112C175.76 138.768 177.016 142.512 178.304 146.176C179.592 149.84 180.936 153.48 182.408 156.976L182.968 158.272C183.016 158.368 183.059 158.467 183.096 158.568C183.129 158.642 183.166 158.714 183.208 158.784C183.563 159.314 183.976 159.802 184.44 160.24C185.702 161.416 187.059 162.486 188.496 163.44C190 164.48 191.592 165.488 193.232 166.44C194.872 167.392 196.568 168.368 198.184 169.208L195.072 176.472C191.134 175.027 187.312 173.283 183.64 171.256C181.675 170.159 179.802 168.904 178.04 167.504C176.99 166.658 176.037 165.697 175.2 164.64C174.96 164.296 174.728 163.992 174.496 163.608C174.264 163.224 174.008 162.744 173.936 162.584L173.232 161.184C171.4 157.456 169.76 153.728 168.248 149.984C166.736 146.24 165.328 142.472 163.976 138.576L174.616 135.112Z" fill="#FF8A00"/>
<path d="M160.304 129.352C158.248 134.584 170.752 155.648 170.752 155.648L178.888 147.864C178.888 147.864 177.112 141.248 174.744 133.28C172.408 125.448 162.264 124.352 160.304 129.352Z" fill="#FF8A00"/>
</svg>
