<svg width="300" height="200" viewBox="0 0 300 200" fill="none" xmlns="http://www.w3.org/2000/svg">
<path d="M225.006 6.02597C193.913 6.83917 180.057 26.5112 139.701 34.7944C98.6064 37.9964 79.7072 22.9428 49.6308 30.7548C17.2716 39.1596 0.32443 86.5548 16.2052 128.772C32.086 170.99 81.9632 188.106 104.972 184.313C123.36 181.282 138.125 171.152 158.761 166.026C180.028 165.244 197.084 170.886 215.597 168.714C238.762 165.997 281.765 135.784 284.991 90.872C288.217 45.9604 258.458 5.15077 225.006 6.02597Z" fill="#567493"/>
<path opacity="0.7" d="M225.006 6.02597C193.913 6.83917 180.057 26.5112 139.701 34.7944C98.6064 37.9964 79.7072 22.9428 49.6308 30.7548C17.2716 39.1596 0.32443 86.5548 16.2052 128.772C32.086 170.99 81.9632 188.106 104.972 184.313C123.36 181.282 138.125 171.152 158.761 166.026C180.028 165.244 197.084 170.886 215.597 168.714C238.762 165.997 281.765 135.784 284.991 90.872C288.217 45.9604 258.458 5.15077 225.006 6.02597Z" fill="white"/>
<path d="M33.324 185.773H278.792" stroke="#263238" stroke-miterlimit="10"/>
<path d="M20.5788 185.773H27.1876" stroke="#263238" stroke-miterlimit="10"/>
<path d="M229.214 128.627C229.214 128.627 236.401 140.114 239.408 151.224C241.546 159.123 241.642 174.8 241.642 174.8C241.642 174.8 241.787 128.287 252.491 110.278" stroke="#263238" stroke-miterlimit="10" stroke-linecap="round" stroke-linejoin="round"/>
<path d="M258.268 70.0104C258.268 70.0104 247.904 86.6608 245.015 103.991C242.127 121.322 241.447 164.307 241.447 164.307C241.277 155.302 239.918 122.341 237.03 108.069C234.141 93.7968 228.874 83.4328 228.874 83.4328" stroke="#263238" stroke-miterlimit="10" stroke-linecap="round" stroke-linejoin="round"/>
<path d="M231.122 88.4896C231.122 88.4896 239.796 88.8908 243.846 82.3796C247.896 75.868 245.233 69.644 241.426 69.1888C237.619 68.7336 235.966 73.442 234.555 71.1836C233.144 68.9252 238.605 64.672 232.486 60.7604C226.366 56.8488 223.515 62.4588 221.574 60.4548C219.634 58.4508 221.032 53.2124 216.992 50.912C212.951 48.6116 211.064 51.4752 208.827 51.5708C206.59 51.6668 199.548 47.8716 196.738 50.852C193.929 53.832 200.653 61.0416 197.493 61.254C194.333 61.4668 193.051 67.6276 195.618 71.6144C198.185 75.6008 206.446 77.1796 204.834 79.258C203.223 81.3368 195.333 81.2108 198.547 85.8652C201.761 90.5196 212.672 90.8252 214.242 91.3764C215.811 91.9276 209.216 93.1376 210.33 97.4956C211.444 101.854 220.511 102.393 226.342 99.5924C232.174 96.792 231.122 88.4896 231.122 88.4896Z" fill="#567493"/>
<path d="M206.095 59.122C206.095 59.122 224.518 71.1644 231.122 88.4896" stroke="#263238" stroke-miterlimit="10" stroke-linecap="round" stroke-linejoin="round"/>
<path d="M205.192 67.5568L217.542 68.7616L214.53 58.5196" stroke="#263238" stroke-miterlimit="10" stroke-linecap="round" stroke-linejoin="round"/>
<path d="M215.132 81.7152H227.484L228.387 70.5692" stroke="#263238" stroke-miterlimit="10" stroke-linecap="round" stroke-linejoin="round"/>
<path d="M256.529 73.734C256.529 73.734 249.488 74.0596 246.2 68.774C242.913 63.488 245.075 58.4356 248.165 58.066C251.255 57.6964 252.597 61.5184 253.742 59.6852C254.888 57.852 250.455 54.3992 255.422 51.224C260.39 48.0488 262.704 52.6024 264.28 50.976C265.856 49.3492 264.72 45.0968 268 43.2296C271.28 41.3624 272.812 43.6868 274.628 43.7644C276.444 43.842 282.16 40.7616 284.441 43.1808C286.722 45.6 281.264 51.4524 283.828 51.6252C286.394 51.798 287.434 56.7992 285.35 60.0352C283.267 63.2712 276.561 64.5528 277.869 66.24C279.177 67.9272 285.582 67.8252 282.973 71.6036C280.364 75.382 271.506 75.63 270.232 76.0772C268.958 76.5244 274.312 77.5068 273.408 81.0444C272.504 84.582 265.144 85.0196 260.41 82.7464C255.675 80.4736 256.529 73.734 256.529 73.734Z" fill="#567493"/>
<path d="M276.845 49.894C276.845 49.894 261.889 59.6696 256.529 73.734" stroke="#263238" stroke-miterlimit="10" stroke-linecap="round" stroke-linejoin="round"/>
<path d="M277.578 56.7412L267.552 57.7192L269.998 49.4048" stroke="#263238" stroke-miterlimit="10" stroke-linecap="round" stroke-linejoin="round"/>
<path d="M269.508 68.2344H259.482L258.749 59.1864" stroke="#263238" stroke-miterlimit="10" stroke-linecap="round" stroke-linejoin="round"/>
<path d="M233.495 136.786C233.495 136.786 239.207 137.05 241.874 132.762C244.541 128.473 242.787 124.374 240.28 124.075C237.773 123.775 236.684 126.876 235.756 125.388C234.826 123.901 238.422 121.1 234.392 118.524C230.363 115.948 228.485 119.642 227.207 118.323C225.929 117.003 226.85 113.554 224.189 112.038C221.528 110.524 220.285 112.409 218.812 112.472C217.338 112.536 212.701 110.036 210.851 111.999C209.001 113.961 213.429 118.709 211.348 118.849C209.267 118.989 208.423 123.047 210.113 125.672C211.804 128.297 217.244 129.337 216.182 130.706C215.121 132.075 209.926 131.992 212.042 135.057C214.158 138.122 221.344 138.324 222.378 138.686C223.412 139.049 219.068 139.846 219.802 142.716C220.536 145.586 226.506 145.942 230.347 144.097C234.187 142.253 233.495 136.786 233.495 136.786Z" fill="#567493"/>
<path d="M217.013 117.445C217.013 117.445 229.146 125.376 233.495 136.786" stroke="#263238" stroke-miterlimit="10" stroke-linecap="round" stroke-linejoin="round"/>
<path d="M216.418 123L224.552 123.794L222.568 117.048" stroke="#263238" stroke-miterlimit="10" stroke-linecap="round" stroke-linejoin="round"/>
<path d="M222.965 132.324H231.098L231.694 124.984" stroke="#263238" stroke-miterlimit="10" stroke-linecap="round" stroke-linejoin="round"/>
<path d="M250.434 114.416C250.434 114.416 241.828 113.26 239.009 106.128C236.19 98.9976 239.923 93.3504 243.75 93.5836C247.577 93.8168 248.361 98.7448 250.153 96.7756C251.945 94.806 247.334 89.6448 254.054 86.8908C260.774 84.1368 262.576 90.1664 264.844 88.5424C267.112 86.918 266.673 81.514 271.06 79.9736C275.446 78.4332 276.791 81.588 278.975 82.0824C281.159 82.5768 288.766 80.1032 290.997 83.5376C293.228 86.9724 285.322 92.8624 288.393 93.6372C291.464 94.4116 291.623 100.703 288.384 104.166C285.146 107.629 276.736 107.704 277.95 110.038C279.163 112.371 286.948 113.659 282.953 117.663C278.958 121.668 268.168 120.016 266.526 120.278C264.883 120.539 271.155 122.91 269.28 126.998C267.404 131.086 258.387 129.995 253.151 126.196C247.915 122.397 250.434 114.416 250.434 114.416Z" fill="#567493"/>
<path d="M280.312 89.9996C280.312 89.9996 260.031 98.552 250.434 114.416" stroke="#263238" stroke-miterlimit="10" stroke-linecap="round" stroke-linejoin="round"/>
<path d="M279.692 98.46L267.324 97.436L272.121 87.898" stroke="#263238" stroke-miterlimit="10" stroke-linecap="round" stroke-linejoin="round"/>
<path d="M267.378 110.612L255.226 108.402L256.331 97.2744" stroke="#263238" stroke-miterlimit="10" stroke-linecap="round" stroke-linejoin="round"/>
<path d="M227.546 152.974C226.93 154.631 226.578 168.723 226.578 170.594C226.578 182.986 233.414 185.863 241.847 185.863C250.28 185.863 257.116 183.65 257.116 170.594C257.116 168.723 256.764 154.63 256.148 152.974H227.546Z" fill="#263238" stroke="#263238" stroke-miterlimit="10" stroke-linecap="round" stroke-linejoin="round"/>
<path d="M31.3456 154.527V161.036" stroke="#263238" stroke-miterlimit="10"/>
<path d="M34.6 157.782H28.0916" stroke="#263238" stroke-miterlimit="10"/>
<path d="M155.564 143.17V147.183" stroke="#263238" stroke-miterlimit="10"/>
<path d="M157.57 145.177H153.557" stroke="#263238" stroke-miterlimit="10"/>
<path d="M176.768 7.33881V11.3512" stroke="#263238" stroke-miterlimit="10"/>
<path d="M178.775 9.34521H174.762" stroke="#263238" stroke-miterlimit="10"/>
<path d="M258.892 141.758V145.77" stroke="#263238" stroke-miterlimit="10"/>
<path d="M260.898 143.764H256.886" stroke="#263238" stroke-miterlimit="10"/>
<path d="M174.221 162.232V171.972" stroke="#263238" stroke-miterlimit="10"/>
<path d="M179.092 167.102H169.351" stroke="#263238" stroke-miterlimit="10"/>
<path d="M25.3549 22.0944V31.8352" stroke="#263238" stroke-miterlimit="10"/>
<path d="M30.2252 26.9648H20.4844" stroke="#263238" stroke-miterlimit="10"/>
<path d="M59.82 147.904C60.7907 147.904 61.5776 147.117 61.5776 146.146C61.5776 145.175 60.7907 144.388 59.82 144.388C58.8493 144.388 58.0624 145.175 58.0624 146.146C58.0624 147.117 58.8493 147.904 59.82 147.904Z" stroke="#263238" stroke-miterlimit="10"/>
<path d="M24.3976 98.826C24.3976 99.7968 23.6108 100.584 22.64 100.584C21.6692 100.584 20.8824 99.7968 20.8824 98.826C20.8824 97.8552 21.6692 97.0684 22.64 97.0684C23.6108 97.0684 24.3976 97.8552 24.3976 98.826Z" stroke="#263238" stroke-miterlimit="10"/>
<path d="M59.9552 166.832C60.5525 166.832 61.0368 166.347 61.0368 165.75C61.0368 165.153 60.5525 164.668 59.9552 164.668C59.3578 164.668 58.8736 165.153 58.8736 165.75C58.8736 166.347 59.3578 166.832 59.9552 166.832Z" stroke="#263238" stroke-miterlimit="10"/>
<path d="M81.0468 147.904C81.6442 147.904 82.1284 147.419 82.1284 146.822C82.1284 146.225 81.6442 145.74 81.0468 145.74C80.4495 145.74 79.9652 146.225 79.9652 146.822C79.9652 147.419 80.4495 147.904 81.0468 147.904Z" stroke="#263238" stroke-miterlimit="10"/>
<path d="M124.311 12.9736C124.908 12.9736 125.392 12.4894 125.392 11.892C125.392 11.2947 124.908 10.8104 124.311 10.8104C123.713 10.8104 123.229 11.2947 123.229 11.892C123.229 12.4894 123.713 12.9736 124.311 12.9736Z" stroke="#263238" stroke-miterlimit="10"/>
<path d="M182.041 157.638C182.713 157.638 183.258 157.093 183.258 156.421C183.258 155.749 182.713 155.204 182.041 155.204C181.369 155.204 180.824 155.749 180.824 156.421C180.824 157.093 181.369 157.638 182.041 157.638Z" stroke="#263238" stroke-miterlimit="10"/>
<path d="M273.82 136.576C274.492 136.576 275.037 136.032 275.037 135.36C275.037 134.688 274.492 134.143 273.82 134.143C273.148 134.143 272.603 134.688 272.603 135.36C272.603 136.032 273.148 136.576 273.82 136.576Z" stroke="#263238" stroke-miterlimit="10"/>
<path d="M241.259 33.3892C241.931 33.3892 242.476 32.8444 242.476 32.1724C242.476 31.5004 241.931 30.9556 241.259 30.9556C240.587 30.9556 240.042 31.5004 240.042 32.1724C240.042 32.8444 240.587 33.3892 241.259 33.3892Z" stroke="#263238" stroke-miterlimit="10"/>
<path d="M18.878 65.7256C20.399 64.2046 20.399 61.7386 18.878 60.2176C17.357 58.6966 14.891 58.6966 13.37 60.2176C11.849 61.7386 11.849 64.2046 13.37 65.7256C14.891 67.2466 17.357 67.2466 18.878 65.7256Z" stroke="#263238" stroke-miterlimit="10"/>
<path d="M252.733 46.6611C253.225 44.5671 251.927 42.4706 249.833 41.9784C247.739 41.4863 245.642 42.7848 245.15 44.8789C244.658 46.9729 245.956 49.0694 248.05 49.5616C250.144 50.0538 252.241 48.7552 252.733 46.6611Z" stroke="#263238" stroke-miterlimit="10"/>
<path d="M216.18 156.252C216.525 154.129 215.084 152.127 212.961 151.782C210.838 151.436 208.837 152.877 208.491 155C208.146 157.123 209.586 159.124 211.71 159.47C213.833 159.816 215.834 158.375 216.18 156.252Z" stroke="#263238" stroke-miterlimit="10"/>
<path d="M68.264 13.2645C68.7583 11.1711 67.4619 9.07333 65.3686 8.57902C63.2752 8.08471 61.1774 9.38102 60.6831 11.4744C60.1888 13.5678 61.4851 15.6655 63.5785 16.1599C65.6719 16.6542 67.7696 15.3579 68.264 13.2645Z" stroke="#263238" stroke-miterlimit="10"/>
<path d="M135.873 122.269H120.242V185.329H135.873V122.269Z" fill="#263238" stroke="#263238" stroke-miterlimit="10" stroke-linecap="round" stroke-linejoin="round"/>
<path d="M230.665 18.2464H33.3996V137.899H230.665V18.2464Z" fill="#263238" stroke="#263238" stroke-miterlimit="10" stroke-linecap="round" stroke-linejoin="round"/>
<path d="M226.69 18.2464H29.4252V137.899H226.69V18.2464Z" fill="#567493" stroke="#263238" stroke-miterlimit="10" stroke-linecap="round" stroke-linejoin="round"/>
<path d="M219.582 22.5584H36.5336V133.588H219.582V22.5584Z" fill="white" stroke="#263238" stroke-miterlimit="10" stroke-linecap="round" stroke-linejoin="round"/>
<path d="M219.582 126.901H36.5336V133.587H219.582V126.901Z" fill="white" stroke="#263238" stroke-miterlimit="10" stroke-linecap="round" stroke-linejoin="round"/>
<path d="M128.911 178.255L70.9596 182V185.773H185.156V182L128.911 178.255Z" fill="#263238" stroke="#263238" stroke-miterlimit="10" stroke-linecap="round" stroke-linejoin="round"/>
<path d="M219.582 22.5584H36.5336V133.588H219.582V22.5584Z" fill="white" stroke="#263238" stroke-miterlimit="10" stroke-linecap="round" stroke-linejoin="round"/>
<path d="M219.582 112.94H36.5336V133.587H219.582V112.94Z" fill="#C2C2C2" stroke="#263238" stroke-miterlimit="10" stroke-linecap="round" stroke-linejoin="round"/>
<path d="M201.04 117.966H53.354V124.026H201.04V117.966Z" fill="#E8E8E8" stroke="#263238" stroke-miterlimit="10" stroke-linecap="round" stroke-linejoin="round"/>
<path d="M201.04 119.871H53.354V122.121H201.04V119.871Z" fill="white" stroke="#263238" stroke-miterlimit="10" stroke-linecap="round" stroke-linejoin="round"/>
<path d="M51.4968 120.934L44.282 116.769V125.1L51.4968 120.934Z" fill="#E8E8E8" stroke="#263238" stroke-miterlimit="10" stroke-linecap="round" stroke-linejoin="round"/>
<path d="M219.582 22.5584H215.831V133.588H219.582V22.5584Z" fill="#E8E8E8" stroke="#263238" stroke-miterlimit="10" stroke-linecap="round" stroke-linejoin="round"/>
<path d="M219.582 43.9848H215.831V102.738H219.582V43.9848Z" fill="#C2C2C2" stroke="#263238" stroke-miterlimit="10" stroke-linecap="round" stroke-linejoin="round"/>
<path d="M219.582 22.5584H36.5336V26.8352H219.582V22.5584Z" fill="black" stroke="#263238" stroke-miterlimit="10" stroke-linecap="round" stroke-linejoin="round"/>
<path d="M219.582 130.368H36.5336V133.588H219.582V130.368Z" fill="black" stroke="#263238" stroke-miterlimit="10" stroke-linecap="round" stroke-linejoin="round"/>
<path d="M172.853 93.6852H81.5088C79.318 93.6852 77.542 91.9092 77.542 89.7184V69.5888C77.542 67.398 79.318 65.622 81.5088 65.622H172.853C175.044 65.622 176.82 67.398 176.82 69.5888V89.7184C176.82 91.9092 175.044 93.6852 172.853 93.6852Z" fill="#567493"/>
<path d="M86.6968 86.892C85.798 86.892 85.05 86.6996 84.4532 86.3144C83.856 85.9292 83.4036 85.3968 83.0952 84.716C82.7868 84.0356 82.6072 83.246 82.556 82.3472L84.482 81.8272C84.5204 82.3796 84.6072 82.9124 84.742 83.426C84.8768 83.9396 85.0984 84.36 85.4064 84.6876C85.7148 85.0148 86.1444 85.1784 86.6968 85.1784C87.2616 85.1784 87.6888 85.0212 87.9776 84.7064C88.2664 84.392 88.4108 83.9396 88.4108 83.3488C88.4108 82.6428 88.25 82.0748 87.9292 81.6444C87.608 81.2144 87.2036 80.7812 86.7156 80.3444L84.0964 78.0332C83.5824 77.584 83.204 77.0928 82.96 76.56C82.716 76.0272 82.594 75.3692 82.594 74.586C82.594 73.4432 82.9212 72.5576 83.5764 71.928C84.2312 71.2992 85.1236 70.9844 86.2536 70.9844C86.8696 70.9844 87.412 71.0648 87.8808 71.2252C88.3492 71.386 88.7408 71.6328 89.0556 71.9668C89.3704 72.3008 89.6204 72.7212 89.8068 73.2284C89.9928 73.7356 90.118 74.3296 90.1824 75.01L88.3336 75.5108C88.2948 74.9976 88.218 74.5256 88.1024 74.0956C87.9868 73.6656 87.7848 73.3188 87.4956 73.0556C87.2068 72.7924 86.7928 72.6608 86.2536 72.6608C85.7144 72.6608 85.2936 72.8052 84.992 73.094C84.69 73.3828 84.5396 73.81 84.5396 74.3748C84.5396 74.85 84.6196 75.2416 84.7804 75.55C84.9408 75.858 85.2008 76.1728 85.5604 76.4936L88.1988 78.8048C88.7892 79.3184 89.3092 79.9312 89.7588 80.644C90.208 81.3564 90.4328 82.2012 90.4328 83.1764C90.4328 83.9468 90.272 84.6112 89.9512 85.1696C89.63 85.728 89.1904 86.1552 88.632 86.4504C88.0736 86.7444 87.4284 86.892 86.6968 86.892Z" fill="#263238"/>
<path d="M93.8416 86.7188V72.7364H91.2028V71.1184H98.5792V72.7364H96.0176V86.7188H93.8416Z" fill="#263238"/>
<path d="M99.196 86.7188L102.508 71.1184H104.608L107.94 86.7188H105.879L105.166 82.79H101.989L101.238 86.7188H99.196ZM102.277 81.2296H104.877L103.568 74.2L102.277 81.2296Z" fill="#263238"/>
<path d="M109.519 86.7188V71.1184H112.658C113.698 71.1184 114.558 71.2568 115.239 71.5324C115.92 71.8088 116.424 72.2516 116.751 72.8616C117.079 73.4716 117.242 74.2708 117.242 75.2592C117.242 75.8628 117.178 76.412 117.05 76.906C116.922 77.4004 116.716 77.8176 116.434 78.1576C116.151 78.498 115.779 78.7452 115.317 78.8992L117.532 86.7184H115.432L113.39 79.3996H111.696V86.7184L109.519 86.7188ZM111.695 77.84H112.523C113.14 77.84 113.64 77.7632 114.026 77.6088C114.411 77.4548 114.693 77.1916 114.873 76.8192C115.053 76.4468 115.143 75.9268 115.143 75.2592C115.143 74.3476 114.976 73.6896 114.642 73.2852C114.308 72.8808 113.647 72.6784 112.658 72.6784H111.695V77.84Z" fill="#263238"/>
<path d="M121.229 86.7188V72.7364H118.59V71.1184H125.966V72.7364H123.405V86.7188H121.229Z" fill="#263238"/>
<path d="M131.879 86.7188V71.1184H135.269C136.424 71.1184 137.339 71.2952 138.013 71.648C138.688 72.0012 139.169 72.5308 139.458 73.2368C139.746 73.9432 139.891 74.8228 139.891 75.8756V81.6152C139.891 82.7196 139.747 83.6504 139.458 84.4076C139.169 85.1656 138.7 85.74 138.052 86.1312C137.403 86.5232 136.533 86.7188 135.442 86.7188H131.879ZM134.055 85.1588H135.288C136.084 85.1588 136.649 85.0048 136.983 84.6964C137.316 84.3884 137.519 83.9392 137.59 83.348C137.66 82.7576 137.696 82.0452 137.696 81.2104V76.1448C137.696 75.336 137.644 74.6812 137.542 74.1804C137.439 73.6796 137.214 73.3136 136.867 73.0828C136.52 72.8516 135.975 72.736 135.23 72.736H134.055V85.1588Z" fill="#263238"/>
<path d="M142.028 86.7188V71.1184H148.076V72.7364H144.205V77.898H147.344V79.4388H144.205V85.1588H148.114V86.7188H142.028Z" fill="#263238"/>
<path d="M149.829 86.7188L150.118 71.1184H152.256L155.01 83.772L157.783 71.1184H159.902L160.191 86.7188H158.438L158.265 75.394L155.626 86.7188H154.394L151.774 75.394L151.601 86.7188H149.829Z" fill="#263238"/>
<path d="M166.565 86.892C165.512 86.892 164.671 86.6868 164.042 86.276C163.413 85.8652 162.964 85.2776 162.694 84.5136C162.424 83.75 162.29 82.8544 162.29 81.8268V75.914C162.29 74.8868 162.427 74.004 162.704 73.2656C162.979 72.5276 163.429 71.9628 164.052 71.5708C164.674 71.1792 165.512 70.9832 166.565 70.9832C167.618 70.9832 168.452 71.1824 169.069 71.5804C169.685 71.9784 170.131 72.5432 170.408 73.2752C170.683 74.0072 170.822 74.8864 170.822 75.9136V81.8456C170.822 82.86 170.683 83.746 170.408 84.5036C170.131 85.2616 169.685 85.8488 169.069 86.266C168.453 86.6836 167.618 86.892 166.565 86.892ZM166.565 85.178C167.143 85.178 167.579 85.0596 167.875 84.8216C168.17 84.584 168.369 84.2504 168.472 83.82C168.574 83.39 168.626 82.886 168.626 82.308V75.4708C168.626 74.8932 168.574 74.3956 168.472 73.9784C168.369 73.5612 168.17 73.24 167.875 73.0152C167.579 72.7908 167.143 72.6784 166.565 72.6784C165.988 72.6784 165.548 72.7908 165.246 73.0152C164.944 73.24 164.742 73.5612 164.639 73.9784C164.536 74.3956 164.485 74.8932 164.485 75.4708V82.308C164.485 82.886 164.536 83.39 164.639 83.82C164.742 84.2504 164.944 84.584 165.246 84.8216C165.548 85.0592 165.988 85.178 166.565 85.178Z" fill="#263238"/>
<path d="M124.459 61.2244C132.728 61.2244 139.432 54.5209 139.432 46.2516C139.432 37.9824 132.728 31.2788 124.459 31.2788C116.19 31.2788 109.486 37.9824 109.486 46.2516C109.486 54.5209 116.19 61.2244 124.459 61.2244Z" fill="#567493"/>
<path d="M107.124 45.188L107.677 50.3296C107.786 51.3508 108.751 52.0556 109.757 51.8496C113.414 51.0996 121.579 49.5592 126.575 49.6404C133.164 49.7476 139.121 53.0756 139.121 53.0756L139.06 50.0768C138.966 45.4428 138.257 40.8416 136.951 36.394L136.087 33.4508C136.087 33.4508 131.473 38.5676 124.744 40.704C119.679 42.3124 112.144 43.0156 108.729 43.2652C107.746 43.3372 107.019 44.2084 107.124 45.188Z" fill="white" stroke="#263238" stroke-miterlimit="10" stroke-linecap="round" stroke-linejoin="round"/>
<path d="M136.198 34.9768L136.156 34.8236C136.156 34.8236 131.46 39.8656 124.698 41.8936C124.332 42.0032 123.954 42.108 123.566 42.208" stroke="#263238" stroke-miterlimit="10"/>
<path d="M122.037 42.5684C120.891 42.8156 119.689 43.0288 118.485 43.2116" stroke="#263238" stroke-miterlimit="10"/>
<path d="M139.229 54.0724C139.2 54.0756 139.17 54.0772 139.141 54.078C138.587 54.0892 138.129 53.6496 138.118 53.096L138.057 50.0972C137.965 45.5532 137.269 41.0376 135.989 36.6764L135.125 33.7332C134.969 33.202 135.273 32.6448 135.804 32.4888C136.336 32.3332 136.893 32.6372 137.049 33.1684L137.912 36.1116C139.242 40.6432 139.966 45.3348 140.062 50.0564L140.122 53.0552C140.134 53.5792 139.74 54.0176 139.229 54.0724Z" fill="#263238" stroke="#263238" stroke-miterlimit="10" stroke-linecap="round" stroke-linejoin="round"/>
<path d="M119.017 42.0421C115.057 42.7361 110.99 43.1005 108.729 43.2657C107.746 43.3373 107.019 44.2085 107.124 45.1885L107.677 50.3301C107.786 51.3513 108.751 52.0561 109.757 51.8501C112.016 51.3869 115.996 50.6221 119.886 50.1241L119.017 42.0421Z" fill="#263238" stroke="#263238" stroke-miterlimit="10" stroke-linecap="round" stroke-linejoin="round"/>
<path d="M112.312 50.4664C112.312 50.4664 113.912 53.7193 114.162 54.0185C114.256 54.1313 114.431 54.212 114.612 54.2688C115.053 54.4068 115.432 54.6928 115.687 55.0784C116.83 56.8104 119.753 61.2337 119.901 61.3925C120.086 61.59 120.538 61.7588 120.79 61.5688C121.042 61.3788 122.91 59.5469 122.77 58.7469C122.63 57.9465 122.384 58.1904 121.967 57.8544C121.632 57.584 120.337 55.2688 119.845 54.3756C119.726 54.1612 119.737 53.8988 119.872 53.694L120.307 53.0316C120.307 53.0316 118.403 51.4969 118.374 51.2281C118.345 50.9593 119.14 50.7652 119.164 50.4908C119.189 50.2164 118.488 49.2589 118.488 49.2589L112.312 50.4664Z" fill="white" stroke="#263238" stroke-miterlimit="10" stroke-linecap="round" stroke-linejoin="round"/>
<path d="M119.12 52.0316L120.517 52.546C120.571 52.566 120.592 52.6324 120.558 52.6796L120.307 53.0324L119.12 52.0316Z" fill="#567493" stroke="#263238" stroke-miterlimit="10"/>
<path d="M115.646 53.3384L115.244 53.65" stroke="#263238" stroke-miterlimit="10"/>
<path d="M118.374 51.2285L115.995 53.0689" stroke="#263238" stroke-miterlimit="10"/>
<path d="M115.413 45.7024L113.864 45.8687L113.97 46.8543L115.518 46.688L115.413 45.7024Z" fill="#567493"/>
<path d="M109.498 168.382C109.498 168.382 108.567 184.223 108.567 184.474C108.567 184.725 107.395 188.658 107.562 189.244C107.73 189.829 109.069 189.997 109.989 190.08C110.91 190.164 112.834 190.415 113.588 190.415C114.341 190.415 117.019 190.248 117.521 190.08C118.023 189.913 118.692 189.411 118.107 188.992C117.521 188.574 116.098 188.406 114.425 186.482C112.751 184.557 112.333 183.72 112.333 183.72L115.858 168.549L109.498 168.382Z" fill="white" stroke="#263238" stroke-miterlimit="10" stroke-linecap="round" stroke-linejoin="round"/>
<path d="M108.567 184.474C108.567 184.474 109.214 184.751 109.872 184.916C110.53 185.08 111.902 185.574 111.902 185.574L112.333 183.72L114.426 185.684C114.426 185.684 114.262 186.123 114.152 186.946C114.042 187.769 113.932 188.647 113.932 188.647L115.194 189.031L115.688 186.781L117.39 187.988L117.006 189.525C117.006 189.525 117.444 189.909 118.158 189.69C118.871 189.47 118.871 189.744 118.707 190.184C118.542 190.622 117.17 190.952 115.963 191.062C114.756 191.171 110.586 190.842 109.598 190.623C108.611 190.403 107.897 190.348 107.404 190.019C106.91 189.69 107.294 188.593 107.349 188.373C107.404 188.154 110.422 189.251 110.696 189.251C110.97 189.251 111.464 187.88 111.464 187.88L107.624 186.837C107.622 186.836 107.7 184.58 108.567 184.474Z" fill="#263238" stroke="#263238" stroke-miterlimit="10" stroke-linecap="round" stroke-linejoin="round"/>
<path d="M78.1224 183.864C78.1224 183.864 77.1952 184.126 76.4 184.849C75.6048 185.572 75.6468 187.938 75.6468 187.938L78.1224 183.864Z" fill="#263238" stroke="#263238" stroke-miterlimit="10" stroke-linecap="round" stroke-linejoin="round"/>
<path d="M80.7368 187.885C80.7368 187.885 78.4236 187.162 77.5564 187.09C76.6892 187.017 75.6048 187.09 75.6048 187.09C75.6048 187.09 74.9544 187.306 74.9544 187.812C74.9544 188.318 74.8428 189.042 76.5776 189.332C78.3124 189.621 79.942 189.33 80.7372 188.897C81.532 188.463 80.7368 187.885 80.7368 187.885Z" fill="#263238" stroke="#263238" stroke-miterlimit="10" stroke-linecap="round" stroke-linejoin="round"/>
<path d="M85.9828 165.453C85.9828 165.453 80.2084 181.018 79.7064 181.688C79.2044 182.357 75.8212 186.634 75.7376 187.47C75.654 188.307 79.984 188.387 80.7372 187.885C81.4904 187.383 82.3844 183.026 82.8864 182.106C83.3884 181.186 93.7656 166.624 93.7656 166.624L85.9828 165.453Z" fill="white" stroke="#263238" stroke-miterlimit="10" stroke-linecap="round" stroke-linejoin="round"/>
<path d="M82.6888 183.692C82.6888 183.692 81.1708 182.753 80.3756 182.608C79.5804 182.463 78.7852 182.391 78.7852 182.391L77.7008 184.054L81.7488 186.005C81.7488 186.005 82.3996 184.704 82.6888 183.692Z" fill="#263238" stroke="#263238" stroke-miterlimit="10" stroke-linecap="round" stroke-linejoin="round"/>
<path d="M96.9616 118.289L96.838 121.012C96.838 121.012 89.66 139.452 86.1944 148.487C82.7292 157.521 81.8628 164.452 81.8628 164.452C81.8628 164.452 84.9568 167.298 93.3724 168.66C101.788 170.021 109.833 170.269 114.412 170.269C118.991 170.269 124.189 168.784 124.189 168.784C124.189 168.784 120.229 144.526 117.011 133.512C113.794 122.497 111.937 120.764 111.937 120.764L111.442 117.299L96.9616 118.289Z" fill="white" stroke="#263238" stroke-miterlimit="10" stroke-linecap="round" stroke-linejoin="round"/>
<path d="M102.215 137.031L101.294 169.526" stroke="#263238" stroke-miterlimit="10" stroke-linecap="round" stroke-linejoin="round"/>
<path d="M102.284 134.625L102.247 135.903" stroke="#263238" stroke-miterlimit="10" stroke-linecap="round" stroke-linejoin="round"/>
<path d="M109.311 121.647C109.828 121.538 110.335 121.41 110.823 121.259" stroke="#263238" stroke-miterlimit="10" stroke-linecap="round" stroke-linejoin="round"/>
<path d="M98.3232 121.878C98.3232 121.878 102.92 122.501 107.416 121.955" stroke="#263238" stroke-miterlimit="10" stroke-linecap="round" stroke-linejoin="round"/>
<path d="M127.801 89.1308C127.801 89.1308 127.437 87.4944 127.376 86.4032C127.316 85.3124 126.286 83.8576 126.407 83.2516C126.528 82.6456 127.134 82.706 127.437 82.888C127.74 83.07 128.104 83.676 128.104 83.676C128.104 83.676 128.952 81.0696 128.952 79.9184C128.952 78.7668 129.68 78.888 129.983 79.676C130.286 80.464 129.862 83.4944 129.862 83.4944C129.862 83.4944 131.013 83.7976 131.559 84.04C132.104 84.2824 133.135 84.7672 132.953 86.2824C132.771 87.7976 132.589 88.6464 132.226 88.6464C131.862 88.6464 131.559 88.1616 131.559 88.1616C131.559 88.1616 131.559 89.798 131.013 90.2828C130.468 90.7676 129.377 90.8284 129.377 90.8284C129.377 90.8284 129.498 89.6156 127.801 89.1308Z" fill="white" stroke="#263238" stroke-miterlimit="10" stroke-linecap="round" stroke-linejoin="round"/>
<path d="M131.558 88.1608C131.558 88.1608 131.922 86.7668 131.922 86.5848" stroke="#263238" stroke-miterlimit="10" stroke-linecap="round" stroke-linejoin="round"/>
<path d="M128.104 83.676L127.74 85.3728" stroke="#263238" stroke-miterlimit="10" stroke-linecap="round" stroke-linejoin="round"/>
<path d="M126.294 90.8268L127.436 88.8944C127.436 88.8944 127.875 88.2796 128.929 88.6308C128.939 88.6344 128.95 88.638 128.96 88.6416C129.917 88.9648 130.447 89.9884 130.186 90.964L129.895 92.0568C129.895 92.0568 127.611 90.7388 126.294 90.8268Z" fill="#567493" stroke="#263238" stroke-miterlimit="10" stroke-linecap="round" stroke-linejoin="round"/>
<path d="M78.6412 129.565C78.6412 129.565 78.9168 131.013 79.0548 132.047C79.1928 133.081 79.882 135.15 80.3648 135.426C80.8472 135.701 81.468 136.046 80.7784 136.253C80.0888 136.46 79.6752 136.528 79.0548 136.046C78.4344 135.563 78.0208 135.012 78.0208 135.012C78.0208 135.012 77.538 137.149 77.1936 138.183C76.8488 139.217 75.8148 140.872 75.8148 140.872C75.8148 140.872 76.0904 142.044 75.6768 142.251C75.2632 142.458 74.6428 141.561 74.6428 141.561C74.6428 141.561 74.0224 141.423 73.7464 140.941C73.4708 140.458 73.126 136.804 73.1948 136.115C73.2636 135.425 76.052 129.035 76.052 129.035L78.6412 129.565Z" fill="white" stroke="#263238" stroke-miterlimit="10" stroke-linecap="round" stroke-linejoin="round"/>
<path d="M74.724 137.15C74.5052 137.551 74.298 138.057 74.298 138.252C74.298 138.528 74.6428 141.561 74.6428 141.561" stroke="#263238" stroke-miterlimit="10" stroke-linecap="round" stroke-linejoin="round"/>
<path d="M75.8144 140.872L75.5388 139.218L76.0904 136.873" stroke="#263238" stroke-miterlimit="10" stroke-linecap="round" stroke-linejoin="round"/>
<path d="M76.2972 140.045C76.2972 140.045 76.46 138.382 76.8488 136.942" stroke="#263238" stroke-miterlimit="10" stroke-linecap="round" stroke-linejoin="round"/>
<path d="M76.9864 133.702C76.9864 133.702 76.9176 134.322 76.4348 134.805C75.952 135.288 74.9868 135.977 74.9868 135.977" stroke="#263238" stroke-miterlimit="10" stroke-linecap="round" stroke-linejoin="round"/>
<path d="M95.4632 100.225C95.4632 100.225 89.8416 102.948 89.4904 103.651C89.1392 104.354 82.112 116.914 81.146 118.144C80.18 119.373 77.1932 120.954 76.842 122.184C76.4908 123.414 76.754 126.752 76.754 126.752L76.0512 129.035C76.0512 129.035 76.1392 129.826 77.3688 130.089C78.5984 130.353 78.5984 130.353 78.5984 130.353L80.7064 128.333C80.7064 128.333 85.274 127.191 87.1184 124.995C88.9628 122.799 93.4428 112.522 93.4428 112.522L92.74 119.462C92.74 119.462 97.3076 120.164 102.753 119.725C108.199 119.286 114.172 118.408 114.172 118.408L113.382 110.327C113.382 110.327 126.381 108.219 127.084 107.604C127.787 106.989 128.402 105.32 128.489 104.706C128.577 104.091 130.773 92.3208 130.773 92.3208C130.773 92.3208 129.982 91.0032 128.138 90.652C126.293 90.3008 124.448 91.2668 124.361 91.794C124.273 92.3212 120.496 99.9628 120.496 99.9628C120.496 99.9628 120.232 99.7872 119.266 100.226C118.3 100.666 117.861 100.841 117.861 100.841C117.861 100.841 113.206 98.9968 111.274 99.1724C109.341 99.348 107.497 99.6116 107.497 99.6116C107.497 99.6116 104.071 98.0304 101.524 98.7332C98.9768 99.4344 95.4632 100.225 95.4632 100.225Z" fill="#567493" stroke="#263238" stroke-miterlimit="10" stroke-linecap="round" stroke-linejoin="round"/>
<path d="M107.585 111.117L113.382 110.326L109.517 112.346" stroke="#263238" stroke-miterlimit="10" stroke-linecap="round" stroke-linejoin="round"/>
<path d="M93.5308 108.57L93.4432 112.522L92.1256 110.853" stroke="#263238" stroke-miterlimit="10" stroke-linecap="round" stroke-linejoin="round"/>
<path d="M77.5448 127.103C77.5448 127.103 77.8084 127.981 79.9164 127.981" stroke="#263238" stroke-miterlimit="10" stroke-linecap="round" stroke-linejoin="round"/>
<path d="M110.251 83.6704C110.251 83.6704 110.843 84.77 111.097 85.7008C111.351 86.6312 112.366 87.6464 112.62 89.1692C112.874 90.692 112.874 92.0456 112.704 92.7224C112.535 93.3992 111.182 93.5684 111.182 93.5684C111.182 93.5684 109.067 92.8916 108.898 90.3536C108.728 87.8156 110.251 83.6704 110.251 83.6704Z" fill="white" stroke="#263238" stroke-miterlimit="10" stroke-linecap="round" stroke-linejoin="round"/>
<path d="M111.523 86.4712C111.523 86.4712 112.069 86.6696 112.317 86.6696C112.565 86.6696 113.012 86.7192 112.863 87.3148C112.714 87.9104 112.367 88.1092 112.367 88.1092L111.523 86.4712Z" fill="white" stroke="#263238" stroke-miterlimit="10" stroke-linecap="round" stroke-linejoin="round"/>
<path d="M105.344 79.3556C105.344 79.3556 103.23 78.3404 101.791 79.102C100.353 79.8632 96.1232 83.6704 96.0384 84.9392C95.9536 86.208 95.8692 88.0692 95.8692 88.8308C95.8692 89.5924 92.8236 91.1996 91.724 93.822C90.6244 96.4444 94.6848 101.605 97.392 101.182C100.099 100.759 100.86 99.49 101.876 99.49C102.891 99.49 106.106 102.028 107.967 101.52C109.828 101.013 112.704 98.052 112.789 96.1908C112.873 94.3296 110.843 92.384 110.505 90.9456C110.166 89.5076 110.59 88.0692 110.928 86.9696C111.266 85.87 110.505 82.4012 110.505 82.4012C110.505 82.4012 112.366 82.6548 111.52 80.7936C110.674 78.9324 109.913 78.2556 108.136 78.0864C106.36 77.9176 105.344 79.3556 105.344 79.3556Z" fill="#263238" stroke="#263238" stroke-miterlimit="10" stroke-linecap="round" stroke-linejoin="round"/>
</svg>
