<svg width="467" height="464" viewBox="0 0 467 464" fill="none" xmlns="http://www.w3.org/2000/svg">
<path d="M391.845 66.973L144.632 27.8184L31 250.833L207.985 427.818L431 314.186L391.845 66.973Z" stroke="#ECECEC" stroke-width="2" stroke-miterlimit="10"/>
<path d="M233.488 119.587L122.305 200.367L164.773 331.072H302.203L344.671 200.367L233.488 119.587Z" stroke="#ECECEC" stroke-width="2" stroke-miterlimit="10"/>
<path d="M233.491 119.587L172.616 86.3755L122.307 200.367M233.491 119.587L354.873 74.1538L344.674 200.367L356.999 261.194L386.755 315.924L302.206 331.072M233.491 119.587L223.502 231.999M122.307 200.367L68.4688 229.844L119.479 313.799L164.775 331.072M122.307 200.367L223.502 231.999M164.775 331.072L276.231 381.813L302.206 331.072M164.775 331.072L223.502 231.999M302.206 331.072L223.502 231.999M223.502 231.999L318.002 206.499" stroke="#ECECEC" stroke-width="2" stroke-miterlimit="10"/>
<path d="M356.996 261.194L302.203 331.072" stroke="#ECECEC" stroke-width="2" stroke-miterlimit="10"/>
<path d="M386.753 315.925L354.727 353.15L276.229 381.814L207.985 427.818L119.477 313.799L31 250.833L68.4663 229.844L86.001 174.05L115.226 170.331L172.613 86.3758L144.632 27.8184L115.226 170.331L122.305 200.368L86.001 174.05" stroke="#ECECEC" stroke-width="2" stroke-miterlimit="10"/>
<path d="M172.613 86.3755L236.908 75.2169L354.871 74.1538L391.845 66.9727L344.672 200.367L414.384 209.652L356.996 261.194L401.1 268.633L386.753 315.924L431 314.186L401.1 268.633L414.384 209.652" stroke="#ECECEC" stroke-width="2" stroke-miterlimit="10"/>
<path d="M236.908 75.2173L144.632 27.8184L86.001 174.05L31 250.833" stroke="#ECECEC" stroke-width="2" stroke-miterlimit="10"/>
<path d="M1 223C1 219.134 4.13401 216 8 216H64C67.866 216 71 219.134 71 223V286H8C4.13401 286 1 282.866 1 279V223Z" fill="white"/>
<g clip-path="url(#clip0_1_38051)">
<path d="M56 251.465C56 249.744 55.8639 248.487 55.5692 247.184H36.4082V254.955H47.6553C47.4286 256.886 46.2041 259.795 43.483 261.749L43.4448 262.009L49.5032 266.825L49.9229 266.868C53.7777 263.215 56 257.84 56 251.465Z" fill="#4285F4"/>
<path d="M36.4081 271.94C41.9182 271.94 46.544 270.079 49.9228 266.868L43.4829 261.749C41.7596 262.982 39.4466 263.843 36.4081 263.843C31.0113 263.843 26.4308 260.19 24.798 255.141L24.5587 255.162L18.2591 260.165L18.1768 260.4C21.5327 267.24 28.4262 271.94 36.4081 271.94Z" fill="#34A853"/>
<path d="M24.7981 255.142C24.3673 253.839 24.1179 252.442 24.1179 251C24.1179 249.557 24.3673 248.161 24.7754 246.859L24.764 246.581L18.3855 241.498L18.1768 241.6C16.7937 244.439 16 247.626 16 251C16 254.374 16.7937 257.561 18.1768 260.4L24.7981 255.142Z" fill="#FBBC05"/>
<path d="M36.4081 238.157C40.2402 238.157 42.8252 239.855 44.2992 241.275L50.0588 235.504C46.5215 232.131 41.9182 230.06 36.4081 230.06C28.4262 230.06 21.5327 234.76 18.1768 241.6L24.7754 246.859C26.4308 241.81 31.0113 238.157 36.4081 238.157Z" fill="#EB4335"/>
</g>
<path d="M41.1426 286.95H71.0231L53.8038 272.283L41.1426 286.95Z" fill="#ECECEC"/>
<path d="M71.027 286.952V252.285L56.3398 269.618L71.027 286.952Z" fill="#ECECEC"/>
<path d="M1 223C1 219.134 4.13401 216 8 216H64C67.866 216 71 219.134 71 223V286H8C4.13401 286 1 282.866 1 279V223Z" stroke="#ECECEC" stroke-width="2"/>
<path d="M174 400C174 396.134 177.134 393 181 393H237C240.866 393 244 396.134 244 400V463H181C177.134 463 174 459.866 174 456V400Z" fill="white"/>
<g clip-path="url(#clip1_1_38051)">
<path d="M189 408H208.007V427.007H189V408Z" fill="#F25022"/>
<path d="M209.993 408H229V427.007H209.993V408Z" fill="#7FBA00"/>
<path d="M189 428.992H208.007V448H189V428.992Z" fill="#00A4EF"/>
<path d="M209.993 428.992H229V448H209.993V428.992Z" fill="#FFB900"/>
</g>
<path d="M214.143 463.95H244.023L226.804 449.283L214.143 463.95Z" fill="#ECECEC"/>
<path d="M244.027 463.952V429.285L229.34 446.618L244.027 463.952Z" fill="#ECECEC"/>
<path d="M174 400C174 396.134 177.134 393 181 393H237C240.866 393 244 396.134 244 400V463H181C177.134 463 174 459.866 174 456V400Z" stroke="#ECECEC" stroke-width="2"/>
<path d="M396 288C396 284.134 399.134 281 403 281H459C462.866 281 466 284.134 466 288V351H403C399.134 351 396 347.866 396 344V288Z" fill="white"/>
<path d="M455 311.256V322.637L453.425 324.175V313.037L455 311.256Z" fill="#E79225"/>
<path d="M444.678 311.266L443.047 313.037L443.131 313.15L453.359 313.112L453.453 313.037L455 311.256L444.678 311.266Z" fill="#FFF16D"/>
<path d="M443.047 313.037H453.453V324.184H443.047V313.037Z" fill="url(#paint0_linear_1_38051)"/>
<path d="M451.869 317.05C451.662 316.534 451.353 316.066 450.95 315.662C450.566 315.269 450.134 314.969 449.647 314.772C449.169 314.575 448.653 314.472 448.091 314.472C447.528 314.472 447.003 314.575 446.525 314.772C446.037 314.969 445.606 315.269 445.222 315.662C444.819 316.066 444.519 316.534 444.312 317.05C444.106 317.566 444.012 318.128 444.012 318.747C444.012 319.347 444.116 319.909 444.322 320.434C444.527 320.96 444.836 321.438 445.231 321.841C445.606 322.225 446.037 322.516 446.516 322.712C446.994 322.909 447.528 323.012 448.1 323.012C448.653 323.012 449.169 322.909 449.647 322.712C450.125 322.516 450.566 322.225 450.95 321.841C451.353 321.428 451.662 320.959 451.869 320.444C452.075 319.928 452.178 319.356 452.178 318.756C452.178 318.128 452.075 317.566 451.869 317.05ZM449.722 320.725C449.319 321.203 448.784 321.447 448.091 321.447C447.397 321.447 446.853 321.203 446.45 320.725C446.047 320.247 445.85 319.581 445.85 318.737C445.85 317.875 446.056 317.209 446.45 316.722C446.853 316.234 447.387 316 448.091 316C448.784 316 449.319 316.244 449.722 316.722C450.116 317.209 450.322 317.875 450.322 318.737C450.322 319.581 450.125 320.247 449.722 320.725Z" fill="white"/>
<path d="M442.025 310.328V310.384L443.356 320.612L442.578 322.769L442.475 322.694L441.106 312.887L441.134 312.756L441.987 310.384L442.025 310.328Z" fill="#009ADA"/>
<path d="M431.778 311.753L442.025 310.328L441.162 312.784L441.041 312.916L431.459 314.322L431.506 312.569L431.778 311.753Z" fill="#91C9ED"/>
<path d="M441.162 312.784L442.578 322.769L432.481 324.184L431.122 314.537L431.712 314.078L441.162 312.784Z" fill="url(#paint1_linear_1_38051)"/>
<path d="M439.447 314.697C439.4 314.387 439.297 314.153 439.128 313.994C438.988 313.872 438.819 313.806 438.622 313.806C438.575 313.806 438.519 313.806 438.463 313.816C438.2 313.853 438.003 313.975 437.881 314.172C437.788 314.312 437.75 314.491 437.75 314.697C437.75 314.772 437.759 314.856 437.769 314.941L438.134 317.537L435.228 317.969L434.863 315.372C434.816 315.072 434.713 314.837 434.544 314.678C434.403 314.547 434.234 314.481 434.047 314.481C434 314.481 433.953 314.481 433.906 314.491C433.634 314.528 433.428 314.65 433.297 314.847C433.203 314.987 433.166 315.166 433.166 315.372C433.166 315.447 433.175 315.531 433.184 315.625L434.178 322.384C434.225 322.694 434.328 322.928 434.516 323.087C434.656 323.209 434.825 323.266 435.031 323.266C435.088 323.266 435.144 323.266 435.2 323.256C435.453 323.219 435.641 323.097 435.763 322.9C435.847 322.759 435.884 322.591 435.884 322.394C435.884 322.319 435.875 322.234 435.866 322.15L435.463 319.478L438.369 319.047L438.772 321.719C438.819 322.028 438.922 322.262 439.1 322.412C439.241 322.534 439.409 322.6 439.606 322.6C439.653 322.6 439.709 322.6 439.766 322.591C440.028 322.553 440.225 322.431 440.347 322.234C440.431 322.094 440.478 321.925 440.478 321.719C440.478 321.644 440.469 321.559 440.459 321.475L439.447 314.697Z" fill="white"/>
<path d="M422.188 307.722L418.541 316.384L419.038 320.191L419.066 320.181L423.163 310.966L423.144 310.769L422.263 307.844L422.188 307.722Z" fill="#66BF6B"/>
<path d="M422.188 307.722L423.153 310.966L432.172 315.006L432.2 314.987L431.431 311.95L422.188 307.722Z" fill="#98D0A0"/>
<path d="M423.134 310.9L432.2 314.987L428.103 324.278L419.037 320.191L423.134 310.9Z" fill="url(#paint2_linear_1_38051)"/>
<path d="M429.453 315.737C429.256 315.212 428.984 314.762 428.628 314.387C428.272 314.012 427.841 313.712 427.334 313.497C426.828 313.281 426.322 313.178 425.806 313.178H425.778C425.253 313.178 424.738 313.3 424.231 313.525C423.697 313.759 423.238 314.078 422.844 314.5C422.45 314.912 422.131 315.419 421.888 316C421.644 316.572 421.513 317.153 421.484 317.725V317.922C421.484 318.428 421.569 318.925 421.747 319.412C421.934 319.928 422.206 320.369 422.563 320.744C422.919 321.119 423.359 321.419 423.884 321.634C424.381 321.85 424.888 321.953 425.403 321.953H425.412C425.928 321.953 426.444 321.841 426.95 321.625C427.484 321.391 427.953 321.062 428.347 320.641C428.741 320.228 429.069 319.731 429.313 319.15C429.556 318.569 429.688 317.997 429.716 317.425V317.256C429.725 316.741 429.641 316.234 429.453 315.737ZM427.644 318.437C427.306 319.244 426.847 319.797 426.294 320.097C425.994 320.256 425.684 320.341 425.375 320.341C425.103 320.341 424.812 320.275 424.522 320.153C423.884 319.881 423.491 319.45 423.322 318.831C423.266 318.625 423.237 318.409 423.237 318.184C423.237 317.734 423.35 317.237 423.575 316.703C423.922 315.878 424.381 315.316 424.934 315.006C425.234 314.837 425.544 314.762 425.853 314.762C426.134 314.762 426.416 314.828 426.716 314.95C427.344 315.222 427.738 315.653 427.906 316.272C427.963 316.469 427.991 316.684 427.991 316.909C427.991 317.378 427.878 317.884 427.644 318.437Z" fill="white"/>
<path d="M417.819 309.194L419.3 319.112L418.625 322.6L418.531 322.478L417.088 312.897V312.709L417.725 309.362L417.819 309.194Z" fill="#760D16"/>
<path d="M407 314.322L407.703 310.816L417.819 309.194L417.134 312.766V313L407.122 314.416L407 314.322Z" fill="#EF463E"/>
<path d="M417.134 312.766L418.625 322.6L408.613 324.166L407 314.322L417.134 312.766Z" fill="url(#paint3_linear_1_38051)"/>
<path d="M416.056 321.034C415.981 320.941 415.869 320.875 415.737 320.828C415.606 320.781 415.447 320.763 415.25 320.763C415.072 320.763 414.866 320.781 414.641 320.819L411.997 321.269C412.025 321.063 412.128 320.8 412.306 320.472C412.503 320.106 412.803 319.666 413.188 319.159C413.288 319.023 413.391 318.889 413.497 318.756C413.544 318.691 413.619 318.606 413.712 318.484C414.322 317.688 414.688 317.041 414.837 316.534C414.922 316.244 414.969 315.953 414.987 315.662C414.997 315.578 414.997 315.503 414.997 315.428C414.997 315.222 414.978 315.016 414.941 314.809C414.912 314.622 414.866 314.472 414.8 314.35C414.734 314.228 414.659 314.134 414.566 314.078C414.462 314.013 414.303 313.984 414.106 313.984C413.947 313.984 413.75 314.003 413.516 314.041L410.459 314.566C410.094 314.631 409.813 314.734 409.644 314.903C409.503 315.034 409.438 315.203 409.438 315.391C409.438 315.438 409.438 315.494 409.447 315.55C409.494 315.812 409.625 316 409.841 316.094C409.972 316.15 410.122 316.178 410.309 316.178C410.431 316.178 410.572 316.169 410.722 316.141L413.272 315.691C413.272 315.737 413.281 315.784 413.281 315.822C413.281 315.982 413.253 316.141 413.197 316.291C413.122 316.506 412.934 316.806 412.625 317.191L412.231 317.678C411.537 318.512 411.05 319.225 410.75 319.816C410.534 320.228 410.394 320.622 410.309 321.025C410.262 321.259 410.234 321.475 410.234 321.691C410.234 321.841 410.244 321.991 410.272 322.131C410.309 322.338 410.356 322.506 410.422 322.638C410.487 322.769 410.581 322.872 410.684 322.928C410.787 322.984 410.928 323.003 411.134 323.003C411.387 323.003 411.734 322.966 412.175 322.891L414.95 322.413C415.438 322.328 415.784 322.206 415.981 322.047C416.141 321.916 416.225 321.738 416.225 321.531C416.225 321.475 416.216 321.419 416.206 321.363C416.187 321.241 416.141 321.128 416.056 321.034Z" fill="white"/>
<path d="M436.143 351.95H466.023L448.804 337.283L436.143 351.95Z" fill="#ECECEC"/>
<path d="M466.027 351.952V317.285L451.34 334.618L466.027 351.952Z" fill="#ECECEC"/>
<path d="M396 288C396 284.134 399.134 281 403 281H459C462.866 281 466 284.134 466 288V351H403C399.134 351 396 347.866 396 344V288Z" stroke="#ECECEC" stroke-width="2"/>
<path d="M310 172C310 168.134 313.134 165 317 165H373C376.866 165 380 168.134 380 172V235H317C313.134 235 310 231.866 310 228V172Z" fill="white"/>
<path d="M337.112 200.82C337.762 200.391 339.115 198.741 339.192 198.597C339.269 198.454 339.544 198.168 339.258 197.882C338.972 197.596 338.686 197.739 338.323 197.948C337.971 198.091 336.463 199.236 335.891 199.742C335.319 200.171 333.888 201.459 333.888 201.459C333.888 201.459 333.096 202.108 333.382 202.46C333.668 202.812 333.954 202.68 334.317 202.537C334.747 202.394 336.474 201.249 337.112 200.82ZM368.925 208.919C369.145 208.985 369.64 209.139 369.64 209.634C369.64 209.634 369.134 210.636 368.991 210.713C368.771 210.779 368.419 210.779 367.703 210.493C366.988 210.207 363.478 209.348 362.543 209.128C361.607 208.908 359.538 208.556 359.538 208.556C359.538 208.556 359.252 208.413 358.823 209.062C358.394 209.777 357.03 211.714 357.03 211.714C356.986 211.879 356.843 212 356.677 212C356.391 212 355.313 211.923 354.884 211.714C354.455 211.505 354.312 211.494 354.598 211.065C354.884 210.636 355.819 208.699 356.248 208.347C356.6 207.995 355.962 208.061 355.742 207.995C355.522 207.929 351.374 207.709 350.152 207.775C348.931 207.775 344.639 207.775 343.055 207.918C341.481 207.984 335.891 208.567 334.383 208.776C332.876 209.062 326.857 209.855 326.075 210.064C325.294 210.273 323.644 210.493 323.644 210.493C323.093 210.614 322.521 210.57 321.993 210.35C321.201 209.998 319.913 209.491 320.992 209.128C322.07 208.765 327.44 207.698 329.091 207.478C330.741 207.192 335.968 206.476 338.114 206.399C340.26 206.322 346.213 205.97 348.436 205.97C350.658 205.97 353.662 206.113 355.027 206.256C356.314 206.322 357.173 206.399 357.459 206.476C357.745 206.553 357.745 206.333 358.031 206.047C358.317 205.761 359.109 204.683 359.109 204.683C359.109 204.683 359.395 204.254 358.823 204.617C358.317 204.969 357.459 204.969 357.03 204.617C356.6 204.187 356.457 203.824 356.237 203.967C355.775 204.22 355.302 204.441 354.807 204.617C354.378 204.76 352.518 205.189 351.44 204.474C350.361 203.681 350.295 203.395 350.152 203.043C350.009 202.548 349.932 202.548 349.58 202.757C349.217 202.966 348.006 203.615 347.5 203.835C347.049 204.099 346.521 204.198 345.993 204.121C345.277 204.055 344.485 203.835 344.133 203.263C343.847 202.691 343.781 202.262 343.418 202.548C343.055 202.834 341.052 203.978 339.984 204.265C338.906 204.628 338.62 204.694 338.048 204.628C337.399 204.562 336.76 204.265 336.54 203.912C336.32 203.56 336.254 203.483 335.968 203.626C335.682 203.846 334.89 204.419 334.317 204.419C333.745 204.353 332.238 203.989 331.456 202.482C330.675 200.974 331.236 200.336 331.963 199.544C332.678 198.829 333.965 197.684 333.965 197.684C333.965 197.684 335.616 196.463 336.111 196.254C336.683 195.968 337.542 195.461 338.114 195.461C338.895 195.362 339.676 195.593 340.271 196.111C341.063 196.76 341.558 197.398 341.635 197.684C341.712 197.97 342.064 198.829 341.492 199.478C340.92 200.127 339.269 201.624 339.269 201.624C339.269 201.624 338.62 201.987 338.906 202.416C339.192 202.845 340.271 202.13 340.623 201.921C340.975 201.635 342.846 200.061 343.418 199.555C343.99 198.983 347.577 195.472 347.929 195.109C348.215 194.746 351.231 191.808 351.649 191.522C352.078 191.236 352.221 191.016 353.079 191.17C353.53 191.247 353.959 191.39 354.367 191.599C354.367 191.599 355.225 191.962 354.51 192.457C353.86 192.952 351.572 194.889 350.999 195.461C350.427 196.034 348.777 197.684 348.281 198.256C347.775 198.972 346.345 200.765 346.136 201.051C345.916 201.414 345.773 201.767 346.136 202.053C346.499 202.273 347.137 202.053 347.786 201.481C348.436 200.908 350.438 199.258 351.087 198.542C351.803 197.827 355.533 194.317 355.885 193.954C356.248 193.668 357.965 192.303 357.965 192.303C357.965 192.303 358.185 192.017 358.68 192.017C359.175 192.017 359.682 192.083 359.968 192.237L360.826 192.666C360.826 192.666 361.178 192.809 360.606 193.239C360.034 193.668 356.887 196.1 356.094 197.035C355.236 197.97 353.585 199.83 352.936 200.622C352.287 201.481 351.858 201.844 352.364 202.416C352.87 202.988 353.442 202.845 353.728 202.779C354.444 202.372 355.093 201.866 355.665 201.271C356.38 200.556 358.526 198.19 358.823 197.97C359.043 197.684 359.902 196.892 359.902 196.892C359.902 196.892 360.045 196.54 360.551 196.54C361.057 196.54 361.266 196.606 361.772 196.683C362.201 196.749 363.203 196.969 362.708 197.541C362.135 198.113 360.771 199.544 360.485 199.83C360.199 200.182 359.054 201.481 358.834 201.833C358.614 202.185 358.328 202.625 358.614 202.834C358.9 203.043 359.693 202.768 360.408 202.328C361.398 201.8 362.311 201.15 363.126 200.391C364.061 199.533 365.558 198.168 365.558 198.168C365.558 198.168 365.844 197.596 366.922 197.816C368.001 198.102 368.287 198.168 368.287 198.168C368.287 198.168 369.145 198.388 368.573 198.884C368.001 199.379 366.141 201.106 365.426 201.745C364.71 202.46 362.488 204.683 362.124 205.112C361.761 205.541 360.694 206.542 361.123 206.619C361.552 206.696 364.853 207.269 365.569 207.489C366.13 207.918 368.716 208.776 368.925 208.919ZM331.886 191.082C331.247 190.994 330.598 190.994 329.949 191.082C328.87 191.225 325.723 191.511 325.151 191.797C324.579 192.083 324.073 191.434 323.864 191.225C323.578 191.005 323.005 190.367 323.005 190.367C323.005 190.367 322.719 190.003 323.225 189.86C323.798 189.717 327.022 189.211 328.023 189.068C329.025 189.002 333.899 188.705 335.264 188.705C336.551 188.705 341.063 188.991 342.284 189.277C342.284 189.277 342.504 189.211 342.79 189.783C342.923 190.146 343 190.543 343.011 190.928C343.011 190.928 343.231 191.357 342.438 191.291C341.503 191.225 340.15 191.148 339.214 191.071C338.279 190.994 336.067 190.851 335.704 190.851C335.418 190.851 335.275 190.851 335.132 191.137C334.912 191.423 334.053 192.567 333.844 192.853C333.635 193.14 332.7 194.361 331.908 195.439C331.115 196.518 330.114 197.871 329.19 199.236C328.331 200.666 327.539 201.954 327.187 202.537C326.967 202.878 326.78 203.241 326.615 203.615C326.549 203.758 326.472 203.978 326.042 203.978C325.613 203.978 323.754 203.912 323.754 203.912C323.754 203.912 322.961 203.978 323.468 203.12C323.974 202.185 325.041 200.402 325.47 199.753C325.899 199.038 328.265 195.813 328.76 195.241C329.168 194.735 331.886 191.082 331.886 191.082Z" fill="#ED1C24"/>
<path d="M336.827 200.104C337.476 199.675 338.841 198.024 338.907 197.881C338.973 197.738 339.27 197.452 338.973 197.166C338.676 196.88 338.401 197.023 338.038 197.232C337.685 197.375 336.178 198.597 335.606 199.026C335.033 199.455 333.603 200.742 333.603 200.742C333.603 200.742 332.811 201.392 333.108 201.744C333.405 202.096 333.68 201.964 334.043 201.821C334.461 201.678 336.189 200.533 336.827 200.104ZM334.967 188H334.615C332.899 188 328.739 188.286 327.804 188.363C326.802 188.429 323.578 189.012 323.006 189.155C322.434 189.298 322.72 189.65 322.72 189.65C322.72 189.65 323.292 190.3 323.578 190.509C323.864 190.729 324.294 191.367 324.866 191.081C325.515 190.795 328.662 190.509 329.663 190.366C330.302 190.278 330.951 190.278 331.6 190.366C331.6 190.366 328.882 193.942 328.453 194.591C328.024 195.163 325.658 198.387 325.152 199.103C324.723 199.818 323.578 201.612 323.072 202.47C322.643 203.328 323.424 203.262 323.424 203.262C323.424 203.262 325.284 203.328 325.713 203.328C326.065 203.328 326.142 203.042 326.219 202.899C326.384 202.525 326.571 202.173 326.791 201.821C327.155 201.248 327.936 199.961 328.794 198.52C329.652 197.078 330.731 195.724 331.512 194.646C332.293 193.568 333.229 192.357 333.449 192.071C333.669 191.785 334.527 190.641 334.736 190.355C334.945 190.068 335.022 190.068 335.309 190.068C335.672 190.068 337.883 190.212 338.819 190.289C339.82 190.366 341.185 190.432 342.043 190.509C342.901 190.586 342.615 190.145 342.615 190.145C342.648 189.771 342.571 189.397 342.395 189.067C342.109 188.495 341.889 188.561 341.889 188.561C340.766 188.22 336.255 188 334.967 188ZM368.639 208.203C368.86 208.346 369.355 208.489 369.289 208.918C369.289 208.918 368.86 209.92 368.639 209.997C368.419 210.074 368.067 210.063 367.352 209.777C366.637 209.49 363.127 208.632 362.191 208.412C361.333 208.269 359.253 207.917 359.253 207.917C359.253 207.917 358.967 207.774 358.538 208.489C358.109 209.138 356.744 211.141 356.744 211.141C356.7 211.306 356.557 211.427 356.381 211.427C356.095 211.427 355.017 211.361 354.587 211.141C354.158 210.921 354.015 210.921 354.301 210.492C354.587 210.063 355.523 208.126 355.952 207.774C356.381 207.422 355.732 207.488 355.523 207.422C355.303 207.422 351.154 207.136 349.933 207.202C348.711 207.202 344.42 207.202 342.835 207.345C341.251 207.488 335.595 207.994 334.164 208.203C332.657 208.423 326.637 209.281 325.856 209.49C325.064 209.633 323.424 209.92 323.424 209.92C322.874 210.041 322.302 209.997 321.774 209.777C320.981 209.424 319.694 208.918 320.772 208.555C321.851 208.192 327.221 207.125 328.871 206.905C330.522 206.684 335.749 205.903 337.894 205.826C340.04 205.683 345.993 205.397 348.205 205.397C350.428 205.397 353.432 205.54 354.797 205.683C356.084 205.749 356.942 205.826 357.228 205.903C357.514 205.98 357.514 205.76 357.801 205.474C358.087 205.188 358.879 204.11 358.879 204.11C358.879 204.11 359.165 203.746 358.593 204.043C358.021 204.396 357.228 204.396 356.799 203.977C356.37 203.548 356.227 203.262 356.007 203.328C355.787 203.394 355.006 203.823 354.576 203.977C354.147 204.132 352.354 204.55 351.275 203.757C350.197 203.042 350.131 202.679 349.988 202.393C349.845 202.041 349.768 202.041 349.416 202.25C349.052 202.536 347.842 203.108 347.336 203.328C346.874 203.581 346.356 203.702 345.828 203.68C345.113 203.614 344.321 203.394 343.969 202.822C343.617 202.25 343.606 201.821 343.253 202.107C342.901 202.393 340.888 203.537 339.82 203.823C338.599 203.966 338.313 204.11 337.74 203.966C337.091 203.823 336.453 203.603 336.233 203.251C336.013 202.899 335.947 202.822 335.661 203.031C335.375 203.24 334.582 203.823 334.01 203.746C333.438 203.669 331.93 203.317 331.072 201.81C330.28 200.302 330.852 199.664 331.567 198.949C332.282 198.156 333.647 197.089 333.647 197.089C333.647 197.089 335.298 195.945 335.793 195.658C336.365 195.372 337.223 194.866 337.795 194.866C338.368 194.866 339.16 194.866 339.941 195.515C340.722 196.165 341.163 196.803 341.306 197.089C341.372 197.309 341.735 198.233 341.163 198.883C340.59 199.532 339.017 201.028 339.017 201.028C339.017 201.028 338.368 201.392 338.654 201.887C338.94 202.316 340.018 201.601 340.304 201.315C340.667 201.094 342.527 199.455 343.099 198.949C343.672 198.376 347.259 194.866 347.611 194.58C347.897 194.217 350.901 191.279 351.407 190.993C351.836 190.707 351.98 190.498 352.838 190.641C353.289 190.718 353.718 190.861 354.125 191.07C354.125 191.07 354.984 191.422 354.268 191.928C353.619 192.5 351.33 194.36 350.758 194.932C350.186 195.504 348.546 197.155 348.051 197.727C347.479 198.299 346.048 200.093 345.828 200.445C345.608 200.797 345.465 201.16 345.828 201.447C346.191 201.733 346.83 201.447 347.479 200.874C348.128 200.302 350.131 198.652 350.78 197.936C351.429 197.221 355.226 193.711 355.578 193.425C355.93 193.139 357.658 191.708 357.658 191.708C357.658 191.708 357.878 191.422 358.373 191.422C358.868 191.422 359.374 191.488 359.66 191.642L360.519 192.071C360.519 192.071 360.882 192.214 360.298 192.643C359.715 193.073 356.568 195.504 355.71 196.44C354.918 197.375 353.201 199.235 352.563 200.016C351.913 200.874 351.484 201.304 351.991 201.81C352.486 202.382 353.069 202.239 353.355 202.162C353.641 202.085 354.642 201.37 355.292 200.654C356.007 199.939 358.153 197.639 358.439 197.353C358.659 197.067 359.517 196.275 359.517 196.275C359.517 196.275 359.66 195.923 360.166 195.923C360.673 195.923 360.882 195.989 361.388 196.066C361.817 196.209 362.818 196.352 362.323 196.924C361.751 197.496 360.387 198.861 360.1 199.213C359.814 199.565 358.67 200.863 358.45 201.215C358.23 201.568 357.955 202.008 358.23 202.217C358.505 202.426 359.308 202.151 360.023 201.711C361.036 201.193 361.971 200.544 362.818 199.774C363.754 198.916 365.25 197.551 365.25 197.551C365.25 197.551 365.47 196.979 366.615 197.199C367.693 197.419 367.979 197.551 367.979 197.551C367.979 197.551 368.838 197.771 368.265 198.266C367.693 198.762 365.833 200.412 365.107 201.127C364.392 201.777 362.169 204.065 361.806 204.495C361.443 204.924 360.376 205.925 360.805 206.002C361.234 206.079 364.524 206.717 365.25 206.938C365.911 207.191 368.419 208.126 368.639 208.203Z" fill="black"/>
<path d="M350.143 235.95H380.023L362.804 221.283L350.143 235.95Z" fill="#ECECEC"/>
<path d="M380.027 235.952V201.285L365.34 218.618L380.027 235.952Z" fill="#ECECEC"/>
<path d="M310 172C310 168.134 313.134 165 317 165H373C376.866 165 380 168.134 380 172V235H317C313.134 235 310 231.866 310 228V172Z" stroke="#ECECEC" stroke-width="2"/>
<path d="M110 8C110 4.13401 113.134 1 117 1H173C176.866 1 180 4.13401 180 8V71H117C113.134 71 110 67.866 110 64V8Z" fill="white"/>
<path d="M146.093 53.9981L145.706 53.1618C147.826 52.2307 150.04 51.5295 152.31 51.0702C154.723 50.5166 157.21 50.3622 159.673 50.6132L159.874 50.6412C160.924 50.7649 161.966 50.9432 162.997 51.1752V52.131C161.999 51.8812 160.685 51.6866 159.745 51.5544L159.545 51.5264C157.186 51.2892 154.804 51.4406 152.494 51.9744C150.296 52.423 148.15 53.1012 146.093 53.9981Z" fill="#0E3863"/>
<path d="M163 24.5274V27.9666C161.938 27.8057 160.865 27.7249 159.791 27.7249C154.178 27.7249 148.795 29.9588 144.826 33.9351C140.857 37.9114 138.627 43.3044 138.627 48.9278C138.583 50.1383 138.686 51.3497 138.934 52.5354C138.215 50.5051 137.87 48.3609 137.916 46.2072C137.916 43.3288 138.481 40.4785 139.58 37.8191C140.679 35.1596 142.29 32.7431 144.322 30.7076C146.353 28.672 148.764 27.0573 151.419 25.9556C154.073 24.8538 156.918 24.2867 159.791 24.2866C160.865 24.2854 161.938 24.365 163 24.5246" fill="#0E3863"/>
<path d="M163.001 24.5257V27.9649C159.5 26.9104 155.786 26.782 152.222 27.5921C148.657 28.4023 145.362 30.1234 142.658 32.5879L142.897 32.2848C143.665 31.2701 144.559 30.3577 145.557 29.5696L145.919 29.2628C149.827 26.0447 154.731 24.2884 159.79 24.2949C160.864 24.2937 161.937 24.3733 163 24.5329" fill="#33B3E1"/>
<path d="M144.368 23.4641C144.239 28.2274 140.311 29.7316 138.546 34.304C137.161 37.1546 136.474 40.2947 136.542 43.4642C136.61 46.6337 137.43 49.7415 138.935 52.5301C133.977 46.506 133.12 37.9034 137.296 31.5834C139.158 28.3614 141.813 25.8236 141.978 23.0668C142.362 19.2447 136.815 18.3758 135.649 21.6784C135.272 24.3556 137.316 27.3043 133.87 28.727C133.185 29.0153 132.428 29.0839 131.702 28.9234C134.568 27.44 132.09 24.2615 133.069 21.9427C134.765 15.886 144.313 17.1305 144.368 23.4677" fill="#0E3863"/>
<path d="M162.998 49.4471C152.97 47.3528 143.614 53.4584 133.734 53.9896C122.18 54.329 127.366 46.2966 135.317 49.4064C125.868 48.8317 128.892 54.9852 137.149 52.9425C145.739 51.1749 154.008 46.1663 162.998 48.5982V49.4471Z" fill="#0E3863"/>
<path d="M150.143 71.9499H180.023L162.804 57.2832L150.143 71.9499Z" fill="#ECECEC"/>
<path d="M180.027 71.9518V37.2852L165.34 54.6184L180.027 71.9518Z" fill="#ECECEC"/>
<path d="M110 8C110 4.13401 113.134 1 117 1H173C176.866 1 180 4.13401 180 8V71H117C113.134 71 110 67.866 110 64V8Z" stroke="#ECECEC" stroke-width="2"/>
<path d="M357 39C357 35.134 360.134 32 364 32H420C423.866 32 427 35.134 427 39V102H364C360.134 102 357 98.866 357 95V39Z" fill="white"/>
<g clip-path="url(#clip2_1_38051)">
<path d="M367 79.4625H392.245L417 54.5H367V79.4625Z" fill="#014185"/>
<path fill-rule="evenodd" clip-rule="evenodd" d="M396.648 59.1916L391.755 59.1906V70.9982L387.45 59.1906H383.243L379.524 69.0655C379.133 66.578 376.589 65.7183 374.534 65.0747C373.262 64.6423 371.795 64.0067 371.892 63.3117C371.892 62.7353 372.577 62.2062 374.045 62.2852C375.023 62.3355 375.904 62.4174 377.665 63.2644L379.427 60.2567C377.763 59.4433 375.611 58.9291 373.849 58.9271C371.697 58.9271 369.935 59.6102 368.859 60.7423C368.174 61.53 367.685 62.53 367.685 63.6385C367.685 65.1635 368.272 66.2454 369.348 67.1071C370.425 67.8326 371.599 68.3054 372.773 68.6519C374.143 69.0793 375.219 69.4495 375.219 70.2431C375.219 70.5362 375.121 70.8028 374.926 71.017C374.534 71.3713 374.045 71.5056 373.262 71.5223C371.892 71.548 370.914 71.3279 369.25 70.3477L367.685 73.3929C369.348 74.3365 371.305 74.8913 373.262 74.8913L373.556 74.8893C375.219 74.8577 376.687 74.3592 377.763 73.4531C377.861 73.3998 377.861 73.3504 377.959 73.3011L377.47 74.6267H381.971L382.656 72.3288C383.438 72.5933 384.319 72.7473 385.297 72.7473C386.276 72.7473 387.059 72.5983 387.841 72.3476L388.624 74.6267H395.865V69.8601H397.528C401.344 69.8601 403.595 67.8849 403.595 64.5723C403.595 60.8845 401.442 59.1916 396.648 59.1916ZM385.297 69.3004C384.71 69.3004 384.221 69.1978 383.732 69.0181L385.297 64.0511L386.863 69.0339C386.374 69.2037 385.885 69.3004 385.297 69.3004ZM396.941 66.4438H395.865V62.4392H396.941C398.409 62.4392 399.583 62.9238 399.583 64.4212C399.583 65.9611 398.409 66.4438 396.941 66.4438Z" fill="white"/>
<path d="M398.409 77.8674C398.409 77.1043 398.996 76.523 399.681 76.523C400.366 76.523 400.953 77.1043 400.953 77.8674C400.953 78.659 400.366 79.2296 399.681 79.2296C398.996 79.2296 398.409 78.659 398.409 77.8674ZM399.681 79.5C400.562 79.5 401.344 78.8081 401.344 77.8674C401.344 76.9405 400.562 76.2594 399.681 76.2594C398.8 76.2594 398.018 76.9405 398.018 77.8674C398.018 78.8081 398.8 79.5 399.681 79.5ZM399.387 78.0026H399.681L400.17 78.8081H400.464L399.975 77.9868C400.17 77.9532 400.464 77.8081 400.464 77.4765C400.464 77.1043 400.17 76.9405 399.779 76.9405H399.094V78.8081H399.387V78.0026ZM399.387 77.7617V77.1784H399.779C399.877 77.1784 400.17 77.2238 400.17 77.4597C400.17 77.743 399.877 77.7617 399.681 77.7617H399.387Z" fill="#014185"/>
</g>
<path d="M397.143 102.952H427.023L409.804 88.2852L397.143 102.952Z" fill="#ECECEC"/>
<path d="M427.027 102.952V68.2852L412.34 85.6184L427.027 102.952Z" fill="#ECECEC"/>
<path d="M357 39C357 35.134 360.134 32 364 32H420C423.866 32 427 35.134 427 39V102H364C360.134 102 357 98.866 357 95V39Z" stroke="#ECECEC" stroke-width="2"/>
<path d="M249.472 197.999H196.816C194.526 197.999 193 199.239 193 202.132V258.586C193 261.066 194.526 262.719 196.816 262.719H249.472C251.761 262.719 253.287 261.066 253.287 258.586V202.132C253.287 199.652 251.761 197.999 249.472 197.999Z" fill="#7E7E7E"/>
<path d="M196.812 204.048H241.074L196.812 256.669V204.048Z" fill="#3CE9D6"/>
<path d="M204.445 256.668H249.47L223.524 234.406L204.445 256.668Z" fill="#3CE9D6"/>
<path d="M249.475 256.669V204.048L227.344 230.359L249.475 256.669Z" fill="#3CE9D6"/>
<defs>
<linearGradient id="paint0_linear_1_38051" x1="448.25" y1="313.197" x2="448.25" y2="323.848" gradientUnits="userSpaceOnUse">
<stop offset="0.005618" stop-color="#FFE513"/>
<stop offset="1" stop-color="#FDB924"/>
</linearGradient>
<linearGradient id="paint1_linear_1_38051" x1="431.639" y1="314.323" x2="442.082" y2="322.71" gradientUnits="userSpaceOnUse">
<stop offset="0.005618" stop-color="#008CD2"/>
<stop offset="1" stop-color="#00649D"/>
</linearGradient>
<linearGradient id="paint2_linear_1_38051" x1="425.619" y1="314.616" x2="425.619" y2="323.948" gradientUnits="userSpaceOnUse">
<stop stop-color="#26A146"/>
<stop offset="1" stop-color="#008A52"/>
</linearGradient>
<linearGradient id="paint3_linear_1_38051" x1="412.084" y1="313.701" x2="413.689" y2="323.39" gradientUnits="userSpaceOnUse">
<stop stop-color="#D92231"/>
<stop offset="1" stop-color="#BA2234"/>
</linearGradient>
<clipPath id="clip0_1_38051">
<rect width="40" height="42" fill="white" transform="translate(16 230)"/>
</clipPath>
<clipPath id="clip1_1_38051">
<rect width="40" height="40" fill="white" transform="translate(189 408)"/>
</clipPath>
<clipPath id="clip2_1_38051">
<rect width="50" height="25" fill="white" transform="translate(367 54.5)"/>
</clipPath>
</defs>
</svg>
