<svg width="144" height="48" viewBox="0 0 144 48" fill="none" xmlns="http://www.w3.org/2000/svg">
<path d="M21.4995 20.6146L27.6557 27.765L36.9862 11.5574L21.4995 20.6146ZM34.6776 13.9409L31.1186 20.1379L23.8081 20.3286L34.6776 13.9409ZM27.5595 26.2396L23.1348 21.0913L30.6376 20.9006L27.5595 26.2396Z" fill="#173346"/>
<path d="M33.043 20.2349L23.5201 36.4425L39.103 27.4806L33.043 20.2349ZM33.1391 21.7603L37.5639 27.0039L29.9649 27.29L33.1391 21.7603ZM25.8287 34.0591L29.3877 28.148L36.6982 27.862L25.8287 34.0591Z" fill="#173346"/>
<path d="M47.2801 21.2822C47.1839 20.5194 46.5106 20.1381 45.3563 20.1381C44.202 20.1381 43.6248 20.5194 43.6248 21.1868C43.6248 21.4728 43.721 21.7588 44.0096 21.8542C44.2982 22.0449 44.5867 22.1402 44.9715 22.2355C45.3563 22.3309 45.741 22.4262 46.222 22.5216C46.7029 22.6169 47.0877 22.7122 47.4725 22.9029C47.8572 23.0936 48.1458 23.2843 48.4344 23.5703C48.7229 23.8563 48.8191 24.2377 48.8191 24.7144C48.8191 25.4771 48.5305 25.9538 47.9534 26.3351C47.3763 26.7165 46.6067 26.9072 45.741 26.9072C44.7791 26.9072 43.9134 26.6211 43.3363 26.1445C42.7591 25.6678 42.4706 25.0957 42.4706 24.4283H43.6248C43.721 25.0957 44.1058 25.5724 44.7791 25.8584C45.0677 25.9538 45.2601 25.9538 45.5486 25.9538C45.8372 25.9538 46.0296 25.9538 46.222 25.9538C46.4144 25.9538 46.7029 25.8584 46.8953 25.7631C47.3763 25.5724 47.6648 25.2864 47.6648 24.8097C47.6648 24.5237 47.5686 24.2377 47.2801 24.1423C46.9915 23.9516 46.7029 23.8563 46.3182 23.761C45.9334 23.6656 45.5486 23.5703 45.0677 23.475C44.5867 23.3796 44.202 23.2843 43.8172 23.0936C43.4325 22.9029 43.1439 22.7122 42.8553 22.5216C42.5667 22.2355 42.4706 21.9495 42.4706 21.4728C42.4706 20.8055 42.7591 20.2334 43.2401 19.8521C43.721 19.4707 44.4906 19.28 45.4525 19.28C46.4144 19.28 47.0877 19.4707 47.6648 19.9474C48.1458 20.3288 48.3382 20.8055 48.4344 21.3775H47.2801V21.2822Z" fill="#173346"/>
<path d="M51.3199 20.4242C51.8009 19.5662 52.5704 19.1848 53.6285 19.1848C54.1095 19.1848 54.5904 19.2802 54.9752 19.5662C55.3599 19.8522 55.7447 20.2335 55.9371 20.7102C56.3218 20.0429 56.8028 19.6615 57.5723 19.3755C57.8609 19.2802 58.1495 19.1848 58.5342 19.1848C58.919 19.1848 59.2076 19.2802 59.5923 19.3755C59.9771 19.5662 60.2657 19.7569 60.458 19.9475C61.0352 20.5196 61.3238 21.2823 61.3238 22.1403V26.6213H60.1695V22.1403C60.1695 21.5683 59.9771 20.9963 59.6885 20.6149C59.3038 20.2335 58.919 20.0429 58.3418 20.0429C57.7647 20.0429 57.2837 20.2335 56.899 20.6149C56.5142 20.9963 56.3218 21.473 56.3218 22.1403V26.6213H55.1676V22.1403C55.1676 21.5683 54.9752 20.9963 54.6866 20.6149C54.3018 20.2335 53.9171 20.0429 53.3399 20.0429C52.7628 20.0429 52.2818 20.2335 51.8971 20.6149C51.5123 20.9963 51.3199 21.473 51.3199 22.1403V26.6213H50.1657V19.1848H51.3199V20.4242Z" fill="#173346"/>
<path d="M69.1148 25.4777C68.5376 26.3357 67.5757 26.8124 66.4214 26.8124C65.3634 26.8124 64.4976 26.4311 63.7281 25.6684C63.0548 24.9057 62.7662 24.0476 62.7662 22.9035C62.7662 21.7595 63.0548 20.9014 63.7281 20.1387C64.4015 19.376 65.3634 18.9946 66.4214 18.9946C67.5757 18.9946 68.4414 19.4713 69.0186 20.3294V19.09H70.1729V26.5264H69.0186V25.4777H69.1148ZM66.5176 25.8591C67.2872 25.8591 67.9605 25.573 68.4414 25.001C68.9224 24.429 69.1148 23.7616 69.1148 22.9989C69.1148 22.2362 68.9224 21.5688 68.4414 20.9968C67.9605 20.4247 67.2872 20.1387 66.5176 20.1387C65.7481 20.1387 65.0748 20.4247 64.5938 20.9968C64.1129 21.5688 63.9205 22.2362 63.9205 22.9989C63.9205 23.7616 64.1129 24.429 64.5938 25.001C65.0748 25.573 65.7481 25.8591 66.5176 25.8591Z" fill="#173346"/>
<path d="M76.1371 19.0898V20.2339H76.0409C75.2713 20.2339 74.598 20.5199 74.0209 21.1873C73.5399 21.7593 73.2513 22.5221 73.2513 23.3801V26.6216H72.0971V19.1852H73.2513V20.9966C73.4437 20.2339 74.0209 19.6619 74.7904 19.2805C75.1751 19.1852 75.5599 19.0898 76.1371 19.0898Z" fill="#173346"/>
<path d="M78.1575 26.7168V20.2337H76.6184V19.2803H78.1575V16.6108H79.3118V19.2803H81.0432V20.2337H79.3118V26.7168H78.1575Z" fill="#173346"/>
<path d="M83.6399 18.3265C83.4475 18.5171 83.3513 18.7078 83.2552 18.8985C83.159 19.0892 83.159 19.2798 83.159 19.5659C83.159 19.8519 83.2552 20.0426 83.4475 20.1379C83.6399 20.3286 83.9285 20.5193 84.2171 20.6146C84.5056 20.7099 84.8904 20.9006 85.2752 20.996C85.6599 21.0913 86.1409 21.1866 86.5256 21.282C86.9104 21.3773 87.3913 21.4726 87.7761 21.6633C88.1609 21.854 88.5456 21.9493 88.8342 22.14C89.5075 22.6167 89.8923 23.1888 89.8923 23.9515C89.8923 24.9049 89.5075 25.5722 88.8342 26.0489C88.1609 26.5256 87.199 26.8116 85.9485 26.8116C84.5056 26.8116 83.4475 26.5256 82.7742 25.9536C82.1009 25.4769 81.7161 24.7142 81.6199 23.7608H82.7742C82.7742 24.4282 83.159 25.0002 83.7361 25.2862C84.3133 25.5722 84.9866 25.7629 85.8523 25.7629C87.6799 25.7629 88.6418 25.1909 88.6418 24.0468C88.6418 23.6654 88.4494 23.3794 88.1609 23.0934C87.8723 22.9027 87.3913 22.7121 86.9104 22.5214C86.4294 22.3307 85.8523 22.2354 85.2752 22.14C84.698 22.0447 84.1209 21.854 83.6399 21.6633C83.159 21.4726 82.678 21.1866 82.3894 20.9006C82.1009 20.6146 81.9085 20.1379 81.9085 19.5659C81.9085 18.8031 82.1971 18.1358 82.8704 17.5637C83.5437 16.9917 84.4094 16.801 85.6599 16.801C86.9104 16.801 87.8723 17.087 88.6418 17.6591C89.3152 18.1358 89.6037 18.8031 89.6037 19.6612H88.4494C88.3533 18.8031 87.7761 18.3265 86.8142 18.0404C86.4294 17.9451 86.0447 17.8498 85.5637 17.8498C85.0828 17.8498 84.6018 17.9451 84.3133 18.0404C84.1209 18.0404 83.8323 18.2311 83.6399 18.3265Z" fill="#173346"/>
<path d="M94.8944 25.8589C95.9525 25.8589 96.6258 25.4776 97.1068 24.6195H98.3572C98.0687 25.2869 97.6839 25.8589 97.1068 26.2403C96.5296 26.6216 95.8563 26.9077 94.8944 26.9077C93.7401 26.9077 92.8744 26.5263 92.1049 25.7636C91.4315 25.0009 91.0468 24.1428 91.0468 22.9988C91.0468 21.8547 91.3353 20.9966 92.0087 20.2339C92.682 19.4712 93.6439 19.0898 94.702 19.0898C95.7601 19.0898 96.722 19.4712 97.3953 20.2339C98.0687 20.9966 98.3572 21.8547 98.3572 22.9988V23.4754H92.0087C92.1049 24.1428 92.3934 24.7149 92.8744 25.1916C93.5477 25.5729 94.1249 25.8589 94.8944 25.8589ZM94.7982 20.1386C94.1249 20.1386 93.5477 20.3293 93.0668 20.8059C92.5858 21.1873 92.3934 21.7593 92.2972 22.4267H97.3953C97.2991 21.7593 97.0106 21.2826 96.6258 20.8059C96.0487 20.3293 95.4715 20.1386 94.7982 20.1386Z" fill="#173346"/>
<path d="M101.05 19.2805V20.4246C101.339 20.0432 101.627 19.7572 102.012 19.4712C102.397 19.1852 102.878 19.0898 103.359 19.0898C103.84 19.0898 104.321 19.1852 104.609 19.2805C104.898 19.3759 105.283 19.6619 105.571 19.9479C106.148 20.5199 106.533 21.378 106.533 22.3314V26.717H105.379V22.4267C105.379 21.7593 105.186 21.1873 104.802 20.8059C104.417 20.4246 103.936 20.2339 103.263 20.2339C102.589 20.2339 102.108 20.4246 101.627 20.9013C101.146 21.2826 100.954 21.8547 100.954 22.5221V26.8123H99.7998V19.3759H101.05V19.2805Z" fill="#173346"/>
<path d="M112.883 21.2823C112.786 20.5196 112.113 20.1382 110.959 20.1382C109.804 20.1382 109.227 20.4242 109.227 21.1869C109.227 21.473 109.324 21.759 109.612 21.8543C109.901 22.045 110.189 22.1403 110.574 22.2357C110.959 22.331 111.344 22.4263 111.824 22.5217C112.305 22.617 112.69 22.7124 113.075 22.903C113.46 23.0937 113.748 23.2844 114.037 23.5704C114.325 23.8564 114.422 24.2378 114.422 24.7145C114.422 25.4772 114.133 25.9539 113.556 26.3353C112.883 26.6213 112.113 26.812 111.151 26.812C110.189 26.812 109.324 26.5259 108.746 26.0492C108.169 25.5725 107.881 25.0005 107.881 24.3331H109.035C109.131 25.0005 109.516 25.4772 110.189 25.7632C110.478 25.8586 110.67 25.8586 110.959 25.8586C111.247 25.8586 111.44 25.8586 111.632 25.8586C111.824 25.8586 112.113 25.7632 112.305 25.6679C112.786 25.4772 113.075 25.1912 113.075 24.7145C113.075 24.4285 112.979 24.1425 112.69 24.0471C112.402 23.8564 112.113 23.7611 111.728 23.6658C111.344 23.5704 110.959 23.4751 110.478 23.3797C109.997 23.2844 109.612 23.1891 109.227 22.9984C108.843 22.8077 108.554 22.617 108.265 22.4263C107.977 22.1403 107.881 21.8543 107.881 21.3776C107.881 20.7102 108.169 20.1382 108.65 19.7569C109.131 19.3755 109.901 19.1848 110.863 19.1848C111.824 19.1848 112.498 19.3755 113.075 19.8522C113.556 20.2335 113.748 20.7102 113.844 21.2823H112.883Z" fill="#173346"/>
<path d="M119.038 25.8589C120.096 25.8589 120.769 25.4776 121.25 24.6195H122.5C122.212 25.2869 121.827 25.8589 121.25 26.2403C120.673 26.6216 120 26.9077 119.038 26.9077C117.883 26.9077 117.018 26.5263 116.248 25.7636C115.575 25.0009 115.19 24.1428 115.19 22.9988C115.19 21.8547 115.479 20.9966 116.152 20.2339C116.825 19.4712 117.787 19.0898 118.845 19.0898C119.903 19.0898 120.865 19.4712 121.539 20.2339C122.212 20.9966 122.5 21.8547 122.5 22.9988V23.4754H116.152C116.248 24.1428 116.537 24.7149 117.018 25.1916C117.691 25.5729 118.268 25.8589 119.038 25.8589ZM118.941 20.1386C118.268 20.1386 117.691 20.3293 117.21 20.8059C116.729 21.1873 116.537 21.7593 116.44 22.4267H121.539C121.442 21.7593 121.154 21.2826 120.769 20.8059C120.192 20.3293 119.615 20.1386 118.941 20.1386Z" fill="#173346"/>
</svg>
