<svg width="144" height="48" viewBox="0 0 144 48" fill="none" xmlns="http://www.w3.org/2000/svg">
<path d="M21.4995 20.6146L27.6557 27.765L36.9862 11.5574L21.4995 20.6146ZM34.6776 13.9409L31.1186 20.1379L23.8081 20.3286L34.6776 13.9409ZM27.5595 26.2396L23.1347 21.0913L30.6376 20.9006L27.5595 26.2396Z" fill="#173346"/>
<path d="M33.0429 20.2349L23.52 36.4425L39.1029 27.4806L33.0429 20.2349ZM33.1391 21.7603L37.5638 27.0039L29.9648 27.29L33.1391 21.7603ZM25.8286 34.0591L29.3876 28.148L36.6981 27.862L25.8286 34.0591Z" fill="#173346"/>
<path d="M47.2802 21.2822C47.184 20.5194 46.5107 20.1381 45.3564 20.1381C44.2021 20.1381 43.625 20.5194 43.625 21.1868C43.625 21.4728 43.7212 21.7588 44.0098 21.8542C44.2983 22.0449 44.5869 22.1402 44.9717 22.2355C45.3564 22.3309 45.7412 22.4262 46.2221 22.5216C46.7031 22.6169 47.0878 22.7122 47.4726 22.9029C47.8574 23.0936 48.1459 23.2843 48.4345 23.5703C48.7231 23.8563 48.8193 24.2377 48.8193 24.7144C48.8193 25.4771 48.5307 25.9538 47.9536 26.3351C47.3764 26.7165 46.6069 26.9072 45.7412 26.9072C44.7793 26.9072 43.9136 26.6211 43.3364 26.1445C42.7593 25.6678 42.4707 25.0957 42.4707 24.4283H43.625C43.7212 25.0957 44.1059 25.5724 44.7793 25.8584C45.0678 25.9538 45.2602 25.9538 45.5488 25.9538C45.8374 25.9538 46.0298 25.9538 46.2221 25.9538C46.4145 25.9538 46.7031 25.8584 46.8955 25.7631C47.3764 25.5724 47.665 25.2864 47.665 24.8097C47.665 24.5237 47.5688 24.2377 47.2802 24.1423C46.9917 23.9516 46.7031 23.8563 46.3183 23.761C45.9336 23.6656 45.5488 23.5703 45.0678 23.475C44.5869 23.3796 44.2021 23.2843 43.8174 23.0936C43.4326 22.9029 43.144 22.7122 42.8555 22.5216C42.5669 22.2355 42.4707 21.9495 42.4707 21.4728C42.4707 20.8055 42.7593 20.2334 43.2402 19.8521C43.7212 19.4707 44.4907 19.28 45.4526 19.28C46.4145 19.28 47.0878 19.4707 47.665 19.9474C48.1459 20.3288 48.3383 20.8055 48.4345 21.3775H47.2802V21.2822Z" fill="#173346"/>
<path d="M51.3203 20.4242C51.8013 19.5662 52.5708 19.1848 53.6289 19.1848C54.1098 19.1848 54.5908 19.2802 54.9755 19.5662C55.3603 19.8522 55.7451 20.2335 55.9374 20.7102C56.3222 20.0429 56.8032 19.6615 57.5727 19.3755C57.8613 19.2802 58.1498 19.1848 58.5346 19.1848C58.9193 19.1848 59.2079 19.2802 59.5927 19.3755C59.9774 19.5662 60.266 19.7569 60.4584 19.9475C61.0355 20.5196 61.3241 21.2823 61.3241 22.1403V26.6213H60.1698V22.1403C60.1698 21.5683 59.9774 20.9963 59.6889 20.6149C59.3041 20.2335 58.9193 20.0429 58.3422 20.0429C57.7651 20.0429 57.2841 20.2335 56.8993 20.6149C56.5146 20.9963 56.3222 21.473 56.3222 22.1403V26.6213H55.1679V22.1403C55.1679 21.5683 54.9755 20.9963 54.687 20.6149C54.3022 20.2335 53.9174 20.0429 53.3403 20.0429C52.7632 20.0429 52.2822 20.2335 51.8974 20.6149C51.5127 20.9963 51.3203 21.473 51.3203 22.1403V26.6213H50.166V19.1848H51.3203V20.4242Z" fill="#173346"/>
<path d="M69.1152 25.4777C68.538 26.3357 67.5761 26.8124 66.4218 26.8124C65.3637 26.8124 64.498 26.4311 63.7285 25.6684C63.0552 24.9057 62.7666 24.0476 62.7666 22.9035C62.7666 21.7595 63.0552 20.9014 63.7285 20.1387C64.4018 19.376 65.3637 18.9946 66.4218 18.9946C67.5761 18.9946 68.4418 19.4713 69.019 20.3294V19.09H70.1733V26.5264H69.019V25.4777H69.1152ZM66.518 25.8591C67.2876 25.8591 67.9609 25.573 68.4418 25.001C68.9228 24.429 69.1152 23.7616 69.1152 22.9989C69.1152 22.2362 68.9228 21.5688 68.4418 20.9968C67.9609 20.4247 67.2876 20.1387 66.518 20.1387C65.7485 20.1387 65.0752 20.4247 64.5942 20.9968C64.1133 21.5688 63.9209 22.2362 63.9209 22.9989C63.9209 23.7616 64.1133 24.429 64.5942 25.001C65.0752 25.573 65.7485 25.8591 66.518 25.8591Z" fill="#173346"/>
<path d="M76.1372 19.0898V20.2339H76.041C75.2715 20.2339 74.5981 20.5199 74.021 21.1873C73.54 21.7593 73.2515 22.5221 73.2515 23.3801V26.6216H72.0972V19.1852H73.2515V20.9966C73.4438 20.2339 74.021 19.6619 74.7905 19.2805C75.1753 19.1852 75.56 19.0898 76.1372 19.0898Z" fill="#173346"/>
<path d="M78.1577 26.7168V20.2337H76.6187V19.2803H78.1577V16.6108H79.312V19.2803H81.0434V20.2337H79.312V26.7168H78.1577Z" fill="#173346"/>
<path d="M83.6401 18.3265C83.4477 18.5171 83.3515 18.7078 83.2554 18.8985C83.1592 19.0892 83.1592 19.2798 83.1592 19.5659C83.1592 19.8519 83.2554 20.0426 83.4477 20.1379C83.6401 20.3286 83.9287 20.5193 84.2173 20.6146C84.5058 20.7099 84.8906 20.9006 85.2754 20.996C85.6601 21.0913 86.1411 21.1866 86.5258 21.282C86.9106 21.3773 87.3915 21.4726 87.7763 21.6633C88.1611 21.854 88.5458 21.9493 88.8344 22.14C89.5077 22.6167 89.8925 23.1888 89.8925 23.9515C89.8925 24.9049 89.5077 25.5722 88.8344 26.0489C88.1611 26.5256 87.1992 26.8116 85.9487 26.8116C84.5058 26.8116 83.4477 26.5256 82.7744 25.9536C82.1011 25.4769 81.7163 24.7142 81.6201 23.7608H82.7744C82.7744 24.4282 83.1592 25.0002 83.7363 25.2862C84.3135 25.5722 84.9868 25.7629 85.8525 25.7629C87.6801 25.7629 88.642 25.1909 88.642 24.0468C88.642 23.6654 88.4496 23.3794 88.1611 23.0934C87.8725 22.9027 87.3915 22.7121 86.9106 22.5214C86.4296 22.3307 85.8525 22.2354 85.2754 22.14C84.6982 22.0447 84.1211 21.854 83.6401 21.6633C83.1592 21.4726 82.6782 21.1866 82.3896 20.9006C82.1011 20.6146 81.9087 20.1379 81.9087 19.5659C81.9087 18.8031 82.1973 18.1358 82.8706 17.5637C83.5439 16.9917 84.4096 16.801 85.6601 16.801C86.9106 16.801 87.8725 17.087 88.642 17.6591C89.3154 18.1358 89.6039 18.8031 89.6039 19.6612H88.4496C88.3535 18.8031 87.7763 18.3265 86.8144 18.0404C86.4296 17.9451 86.0449 17.8498 85.5639 17.8498C85.083 17.8498 84.602 17.9451 84.3134 18.0404C84.1211 18.0404 83.8325 18.2311 83.6401 18.3265Z" fill="#173346"/>
<path d="M94.8945 25.8589C95.9526 25.8589 96.6259 25.4776 97.1069 24.6195H98.3573C98.0688 25.2869 97.684 25.8589 97.1069 26.2403C96.5297 26.6216 95.8564 26.9077 94.8945 26.9077C93.7402 26.9077 92.8745 26.5263 92.105 25.7636C91.4316 25.0009 91.0469 24.1428 91.0469 22.9988C91.0469 21.8547 91.3354 20.9966 92.0088 20.2339C92.6821 19.4712 93.644 19.0898 94.7021 19.0898C95.7602 19.0898 96.7221 19.4712 97.3954 20.2339C98.0688 20.9966 98.3573 21.8547 98.3573 22.9988V23.4754H92.0088C92.105 24.1428 92.3935 24.7149 92.8745 25.1916C93.5478 25.5729 94.125 25.8589 94.8945 25.8589ZM94.7983 20.1386C94.125 20.1386 93.5478 20.3293 93.0669 20.8059C92.5859 21.1873 92.3935 21.7593 92.2974 22.4267H97.3954C97.2993 21.7593 97.0107 21.2826 96.6259 20.8059C96.0488 20.3293 95.4716 20.1386 94.7983 20.1386Z" fill="#173346"/>
<path d="M101.05 19.2805V20.4246C101.339 20.0432 101.627 19.7572 102.012 19.4712C102.397 19.1852 102.878 19.0898 103.359 19.0898C103.84 19.0898 104.321 19.1852 104.609 19.2805C104.898 19.3759 105.283 19.6619 105.571 19.9479C106.148 20.5199 106.533 21.378 106.533 22.3314V26.717H105.379V22.4267C105.379 21.7593 105.186 21.1873 104.802 20.8059C104.417 20.4246 103.936 20.2339 103.263 20.2339C102.589 20.2339 102.108 20.4246 101.627 20.9013C101.146 21.2826 100.954 21.8547 100.954 22.5221V26.8123H99.7998V19.3759H101.05V19.2805Z" fill="#173346"/>
<path d="M112.883 21.2823C112.787 20.5196 112.113 20.1382 110.959 20.1382C109.805 20.1382 109.228 20.4242 109.228 21.1869C109.228 21.473 109.324 21.759 109.612 21.8543C109.901 22.045 110.189 22.1403 110.574 22.2357C110.959 22.331 111.344 22.4263 111.825 22.5217C112.306 22.617 112.69 22.7124 113.075 22.903C113.46 23.0937 113.748 23.2844 114.037 23.5704C114.326 23.8564 114.422 24.2378 114.422 24.7145C114.422 25.4772 114.133 25.9539 113.556 26.3353C112.883 26.6213 112.113 26.812 111.151 26.812C110.189 26.812 109.324 26.5259 108.747 26.0492C108.169 25.5725 107.881 25.0005 107.881 24.3331H109.035C109.131 25.0005 109.516 25.4772 110.189 25.7632C110.478 25.8586 110.67 25.8586 110.959 25.8586C111.248 25.8586 111.44 25.8586 111.632 25.8586C111.825 25.8586 112.113 25.7632 112.306 25.6679C112.787 25.4772 113.075 25.1912 113.075 24.7145C113.075 24.4285 112.979 24.1425 112.69 24.0471C112.402 23.8564 112.113 23.7611 111.728 23.6658C111.344 23.5704 110.959 23.4751 110.478 23.3797C109.997 23.2844 109.612 23.1891 109.228 22.9984C108.843 22.8077 108.554 22.617 108.266 22.4263C107.977 22.1403 107.881 21.8543 107.881 21.3776C107.881 20.7102 108.169 20.1382 108.65 19.7569C109.131 19.3755 109.901 19.1848 110.863 19.1848C111.825 19.1848 112.498 19.3755 113.075 19.8522C113.556 20.2335 113.748 20.7102 113.845 21.2823H112.883Z" fill="#173346"/>
<path d="M119.038 25.8589C120.096 25.8589 120.769 25.4776 121.25 24.6195H122.5C122.212 25.2869 121.827 25.8589 121.25 26.2403C120.673 26.6216 119.999 26.9077 119.038 26.9077C117.883 26.9077 117.018 26.5263 116.248 25.7636C115.575 25.0009 115.19 24.1428 115.19 22.9988C115.19 21.8547 115.479 20.9966 116.152 20.2339C116.825 19.4712 117.787 19.0898 118.845 19.0898C119.903 19.0898 120.865 19.4712 121.539 20.2339C122.212 20.9966 122.5 21.8547 122.5 22.9988V23.4754H116.152C116.248 24.1428 116.537 24.7149 117.018 25.1916C117.691 25.5729 118.268 25.8589 119.038 25.8589ZM118.941 20.1386C118.268 20.1386 117.691 20.3293 117.21 20.8059C116.729 21.1873 116.537 21.7593 116.44 22.4267H121.539C121.442 21.7593 121.154 21.2826 120.769 20.8059C120.192 20.3293 119.615 20.1386 118.941 20.1386Z" fill="#173346"/>
</svg>
