<svg width="154" height="125" viewBox="0 0 154 125" fill="none" xmlns="http://www.w3.org/2000/svg">
<g opacity="0.15">
<path d="M141.907 13.5141L142.07 13.7969L0.165955 95.7254L0.00271223 95.4426L141.907 13.5141Z" fill="#E0E0E0"/>
<path d="M15.9889 105.537L4.05586 98.6448L5.38466 97.8809L17.3047 104.78L15.9889 105.537Z" fill="#E0E0E0"/>
<path d="M19.9694 103.238L8.03634 96.3493L9.36187 95.582L21.2852 102.481L19.9694 103.238Z" fill="#E0E0E0"/>
<path d="M23.9531 100.943L12.0201 94.0511L13.3456 93.2871L25.2656 100.186L23.9531 100.943Z" fill="#E0E0E0"/>
<path d="M27.9264 98.6444L15.9934 91.7555L17.3222 90.9883L29.2422 97.8869L27.9264 98.6444Z" fill="#E0E0E0"/>
<path d="M31.9108 96.3508L19.9777 89.4587L21.3033 88.6914L33.2266 95.5901L31.9108 96.3508Z" fill="#E0E0E0"/>
<path d="M35.8867 94.0506L23.9537 87.1585L25.2792 86.3945L37.1992 93.2932L35.8867 94.0506Z" fill="#E0E0E0"/>
<path d="M39.8639 91.757L27.9309 84.8649L29.2597 84.0977L41.1797 90.9963L39.8639 91.757Z" fill="#E0E0E0"/>
<path d="M43.8444 89.4588L31.9113 82.5667L33.2369 81.8027L45.1602 88.7014L43.8444 89.4588Z" fill="#E0E0E0"/>
<path d="M47.8203 87.16L35.8873 80.2711L37.2128 79.5039L49.1328 86.4026L47.8203 87.16Z" fill="#E0E0E0"/>
<path d="M51.8014 84.8651L39.8684 77.973L41.1939 77.209L53.1172 84.1076L51.8014 84.8651Z" fill="#E0E0E0"/>
<path d="M55.7819 82.5663L43.8488 75.6774L45.1744 74.9102L57.0977 81.8088L55.7819 82.5663Z" fill="#E0E0E0"/>
<path d="M59.7578 80.2707L47.8248 73.3786L49.1503 72.6113L61.0703 79.51L59.7578 80.2707Z" fill="#E0E0E0"/>
<path d="M63.7389 77.9725L51.8059 71.0804L53.1314 70.3164L65.0547 77.2151L63.7389 77.9725Z" fill="#E0E0E0"/>
<path d="M67.7155 75.677L55.7824 68.7848L57.108 68.0176L69.0312 74.9162L67.7155 75.677Z" fill="#E0E0E0"/>
<path d="M71.6953 73.3788L59.7623 66.4866L61.0878 65.7227L73.0078 72.6213L71.6953 73.3788Z" fill="#E0E0E0"/>
<path d="M75.6764 71.0799L63.7434 64.1911L65.0689 63.4238L76.9922 70.3225L75.6764 71.0799Z" fill="#E0E0E0"/>
<path d="M79.653 68.785L67.7199 61.8929L69.0455 61.1289L80.9688 68.0276L79.653 68.785Z" fill="#E0E0E0"/>
<path d="M83.6328 66.4862L71.6998 59.5973L73.0253 58.8301L84.9453 65.7287L83.6328 66.4862Z" fill="#E0E0E0"/>
<path d="M87.61 64.1906L75.677 57.2985L77.0025 56.5312L88.9258 63.4299L87.61 64.1906Z" fill="#E0E0E0"/>
<path d="M91.5905 61.8924L79.6574 55.0003L80.983 54.2363L92.9062 61.135L91.5905 61.8924Z" fill="#E0E0E0"/>
<path d="M95.5703 59.5969L83.6373 52.7047L84.9628 51.9375L96.8828 58.8362L95.5703 59.5969Z" fill="#E0E0E0"/>
<path d="M99.5436 57.2987L87.6106 50.4066L88.9361 49.6426L100.859 56.5412L99.5436 57.2987Z" fill="#E0E0E0"/>
<path d="M103.528 54.9999L91.5949 48.111L92.9205 47.3438L104.844 54.2424L103.528 54.9999Z" fill="#E0E0E0"/>
<path d="M107.508 52.7049L95.5748 45.8128L96.9003 45.0488L108.82 51.9475L107.508 52.7049Z" fill="#E0E0E0"/>
<path d="M111.481 50.4061L99.5481 43.5172L100.874 42.75L112.797 49.6487L111.481 50.4061Z" fill="#E0E0E0"/>
<path d="M115.462 48.1131L103.529 41.221L104.854 40.457L116.777 47.3524L115.462 48.1131Z" fill="#E0E0E0"/>
<path d="M119.438 45.8124L107.504 38.9235L108.83 38.1562L120.75 45.0549L119.438 45.8124Z" fill="#E0E0E0"/>
<path d="M123.419 43.5187L111.486 36.6266L112.811 35.8594L124.734 42.758L123.419 43.5187Z" fill="#E0E0E0"/>
<path d="M127.399 41.2186L115.466 34.3265L116.792 33.5625L128.715 40.4612L127.399 41.2186Z" fill="#E0E0E0"/>
<path d="M131.379 38.925L119.446 32.0329L120.771 31.2656L132.691 38.1643L131.379 38.925Z" fill="#E0E0E0"/>
<path d="M135.356 36.6249L123.423 29.7327L124.749 28.9688L136.672 35.8674L135.356 36.6249Z" fill="#E0E0E0"/>
<path d="M139.333 34.328L127.4 27.4391L128.725 26.6719L140.648 33.5705L139.333 34.328Z" fill="#E0E0E0"/>
<path d="M143.313 32.0311L131.379 25.139L132.705 24.375L144.625 31.2704L143.313 32.0311Z" fill="#E0E0E0"/>
<path d="M147.294 29.7342L135.361 22.8454L136.686 22.0781L148.609 28.9768L147.294 29.7342Z" fill="#E0E0E0"/>
<path d="M151.27 27.4387L139.337 20.5465L140.663 19.7793L152.586 26.678L151.27 27.4387Z" fill="#E0E0E0"/>
<path d="M14.6689 106.305L153.922 25.9073L153.305 25.5449L14.0485 105.945L14.6689 106.305Z" fill="#37474F"/>
<path d="M3.3551 99.772L142.602 19.378L141.985 19.0156L2.73477 99.4129L3.3551 99.772Z" fill="#37474F"/>
<path d="M153.837 31.1313L154 31.4141L12.0956 113.343L11.9324 113.06L153.837 31.1313Z" fill="#E0E0E0"/>
<path d="M123.416 56.3154V124.28H147.285V59.5052C147.285 48.6854 140.158 44.0297 131.369 49.1033C128.473 50.7749 125.757 53.2987 123.416 56.3154Z" fill="#E0E0E0"/>
<path d="M79.654 124.285V81.5869C81.9949 78.5702 84.7113 76.0366 87.6072 74.3748C96.3962 69.3012 103.523 73.9569 103.523 84.7767V124.282L79.654 124.285Z" fill="#E0E0E0"/>
<path d="M35.8884 124.284V106.862C38.2293 103.846 40.9457 101.312 43.8416 99.6502C52.6306 94.5766 59.7578 99.2323 59.7578 110.052V124.284H35.8884Z" fill="#E0E0E0"/>
<path d="M103.376 124.284V84.7796C103.376 79.4416 101.567 75.3376 98.42 73.5191C95.5077 71.8377 91.6911 72.187 87.6786 74.4986C78.9451 79.5395 71.8375 92.3933 71.8375 103.148V124.281H71.5469V103.151C71.5469 92.3051 78.7296 79.3371 87.5447 74.2472C91.6552 71.8769 95.5698 71.5275 98.5767 73.2677C101.868 75.1646 103.68 79.2522 103.68 84.7796V124.284H103.376Z" fill="#E0E0E0"/>
<path d="M59.6137 124.285V110.04C59.6137 104.705 57.805 100.601 54.6576 98.7828C51.7421 97.0981 47.9287 97.4507 43.9162 99.7622C36.2797 104.173 29.8773 114.552 28.4016 124.281H28.1077C29.5965 114.457 36.0544 103.967 43.7791 99.5108C47.8863 97.1406 51.8074 96.7912 54.8111 98.5314C58.1021 100.432 59.9141 104.519 59.9141 110.043V124.288L59.6137 124.285Z" fill="#E0E0E0"/>
<path d="M115.31 77.8804V124.281H115.601V77.8804C115.601 70.7304 118.741 62.6531 123.417 56.5608C125.771 53.4886 128.513 50.9192 131.442 49.2312C135.457 46.9132 139.277 46.5638 142.183 48.2518C145.334 50.0703 147.139 54.1742 147.139 59.5123V124.287H147.43V59.5058C147.43 53.9816 145.618 49.894 142.33 47.9938C139.323 46.2569 135.405 46.6063 131.298 48.9733C122.483 54.0698 115.31 67.0345 115.31 77.8804Z" fill="#E0E0E0"/>
<path d="M71.5454 103.15H71.8359V124.281H71.5454V103.15Z" fill="#E0E0E0"/>
<path d="M103.373 84.7754H103.664V124.284H103.373V84.7754Z" fill="#E0E0E0"/>
<path d="M142.973 33.3203C142.885 25.0471 141.872 13.2479 141.686 11.1192L125.617 1.84375C125.316 5.0172 124.422 15.0567 124.392 22.5985L142.973 33.3203Z" fill="#455A64"/>
<path d="M91.9122 19.9057L125.067 0.76384L142.296 10.7184C142.296 10.7184 143.621 25.2666 143.621 34.454L110.466 53.5959L90.5736 42.1101C90.5866 32.9228 91.9122 19.9057 91.9122 19.9057Z" fill="#E0E0E0"/>
<path d="M110.393 49.0553C110.445 50.6486 110.478 52.1863 110.478 53.5968L143.633 34.4548C143.633 33.0444 143.6 31.5165 143.548 29.9102L110.393 49.0553Z" fill="#BA68C8"/>
<path opacity="0.2" d="M110.393 49.0553C110.445 50.6486 110.478 52.1863 110.478 53.5968L143.633 34.4548C143.633 33.0444 143.6 31.5165 143.548 29.9102L110.393 49.0553Z" fill="black"/>
<path d="M109.151 29.8608L91.9093 19.9062C91.9093 19.9062 90.5837 32.9233 90.5837 42.1073L110.477 53.5931C110.477 44.4091 109.151 29.8608 109.151 29.8608Z" fill="#E0E0E0"/>
<path opacity="0.2" d="M109.151 29.8608L91.9093 19.9062C91.9093 19.9062 90.5837 32.9233 90.5837 42.1073L110.477 53.5931C110.477 44.4091 109.151 29.8608 109.151 29.8608Z" fill="black"/>
<path d="M109.148 29.8611V29.0939L91.9067 19.1426V19.9066L109.148 29.8611Z" fill="#BA68C8"/>
<path d="M142.305 10.7186V9.95131L125.063 0V0.763977L142.305 10.7186Z" fill="#BA68C8"/>
<path d="M109.15 29.0932L142.305 9.95131L125.063 0L91.9082 19.1419L109.15 29.0932Z" fill="#BA68C8"/>
<path opacity="0.3" d="M109.15 29.0932L142.305 9.95131L125.063 0L91.9082 19.1419L109.15 29.0932Z" fill="white"/>
<path d="M109.15 29.0931V29.8603L142.305 10.7184V9.95117L109.15 29.0931Z" fill="#BA68C8"/>
<path opacity="0.15" d="M109.15 29.0931V29.8603L142.305 10.7184V9.95117L109.15 29.0931Z" fill="white"/>
<path d="M110.955 30.3578C111.207 33.2961 111.758 40.185 112.016 46.5907L141.945 29.3032C141.678 22.8257 141.119 15.8781 140.881 13.0703L110.955 30.3578Z" fill="#37474F"/>
<path d="M140.602 28.5733C140.38 23.6009 140.001 18.4522 139.743 15.2363L112.318 31.0709C112.547 33.8199 112.971 39.0568 113.216 44.3818L140.602 28.5733Z" fill="#455A64"/>
<path d="M133.625 34.1079L131.96 35.0678C131.695 28.6164 131.14 21.6818 130.899 18.8381L132.561 17.875C132.802 20.7187 133.361 27.65 133.625 34.1079Z" fill="#37474F"/>
<path d="M123.473 39.9718L121.811 40.9317C121.546 34.477 120.988 27.5457 120.746 24.6988L122.408 23.752C122.65 26.5826 123.208 33.5139 123.473 39.9718Z" fill="#37474F"/>
<path d="M131.695 22.9688V23.6217L111.802 35.1075V34.4545L131.695 22.9688Z" fill="#37474F"/>
<path d="M139.885 14.9668L139.907 15.2247C140.126 17.977 140.534 23.3869 140.766 28.5682C140.991 32.7799 140.985 33.792 140.978 34.8694C140.978 35.0588 140.978 35.2481 140.978 35.4604V35.5518L133.649 39.7961V39.5186C133.649 39.4859 133.603 36.2962 133.404 32.6624C133.175 27.7944 132.8 22.7339 132.526 19.345V19.2438L139.885 14.9668ZM140.652 34.8825C140.652 33.8116 140.652 32.8028 140.44 28.5976C140.214 23.5665 139.826 18.3459 139.601 15.5381L136.538 17.3077C136.744 20.06 137.162 25.385 137.397 30.5173C137.622 34.7323 137.615 35.7411 137.609 36.8185C137.609 36.9198 137.609 37.0242 137.609 37.1287L140.662 35.3657C140.662 35.1796 140.662 35.0294 140.662 34.8694L140.652 34.8825ZM133.724 32.6428C133.887 35.6758 133.946 38.3922 133.962 39.2476L137.273 37.3311C137.273 37.1581 137.273 37.0046 137.273 36.8316C137.273 35.7607 137.273 34.7519 137.06 30.5435C136.835 25.5058 136.447 20.2885 136.221 17.484L132.849 19.4429C133.126 22.7959 133.498 27.8075 133.724 32.6297V32.6428Z" fill="#263238"/>
<path d="M103.847 15.1694L118.434 6.74609L122.414 9.04456V9.33187L107.827 17.7552L103.847 15.4567V15.1694Z" fill="#BA68C8"/>
<path d="M122.414 9.04456L107.827 17.4679L103.847 15.1694L118.434 6.74609L122.414 9.04456Z" fill="#BA68C8"/>
<path opacity="0.3" d="M122.414 9.0436L107.827 17.4669L103.847 15.1685L118.434 6.84961L122.414 9.0436Z" fill="white"/>
<path opacity="0.15" d="M122.414 9.04297L107.827 17.4663V17.7536L122.414 9.33028V9.04297Z" fill="black"/>
<path d="M107.828 17.4664L103.848 15.168V15.4553L107.828 17.7537V17.4664Z" fill="#BA68C8"/>
<path d="M107.827 17.4704L122.414 9.04703L126.391 11.3455V12.1095L111.803 20.0529L107.827 17.7577V17.4704Z" fill="#EBEBEB"/>
<path d="M126.391 11.3455L111.803 19.7688L107.827 17.4704L122.414 9.04703L126.391 11.3455Z" fill="#BA68C8"/>
<path opacity="0.6" d="M126.391 11.3455L111.803 19.7688L107.827 17.4704L122.414 9.04703L126.391 11.3455Z" fill="white"/>
<path d="M111.801 19.7692L107.824 17.4707V17.758L111.801 20.0532V19.7692Z" fill="#BA68C8"/>
<path opacity="0.3" d="M111.801 19.7692L107.824 17.4707V17.758L111.801 20.0532V19.7692Z" fill="white"/>
<path d="M111.808 19.7638L126.398 11.3438L130.375 13.639V13.9263L115.788 22.3496L111.808 20.0511V19.7638Z" fill="#BA68C8"/>
<path d="M130.375 13.639L115.788 22.0623L111.808 19.7638L126.398 11.3438L130.375 13.639Z" fill="#BA68C8"/>
<path opacity="0.3" d="M130.164 13.639L115.782 22.0623L111.802 19.7638L126.393 11.3438L130.164 13.639Z" fill="white"/>
<path opacity="0.15" d="M130.375 13.6367L115.788 22.0601V22.3474L130.375 13.924V13.6367Z" fill="white"/>
<path d="M115.785 22.0602L111.805 19.7617V20.049L115.785 22.3475V22.0602Z" fill="#BA68C8"/>
<path d="M112.075 18.8032L109.48 17.3079C109.323 17.2165 109.242 17.1185 109.297 17.0859C109.434 17.0748 109.571 17.113 109.682 17.1936L112.278 18.6889C112.435 18.7803 112.516 18.8783 112.457 18.9109C112.399 18.9436 112.229 18.8946 112.075 18.8032Z" fill="#455A64"/>
<path d="M113.211 18.1495L110.615 16.6542C110.458 16.5628 110.377 16.4649 110.432 16.4322C110.569 16.4193 110.706 16.4564 110.817 16.5367L113.413 18.0353C113.57 18.1234 113.651 18.2214 113.596 18.254C113.459 18.2685 113.322 18.2312 113.211 18.1495Z" fill="#455A64"/>
<path d="M114.343 17.4926L111.747 15.9972C111.591 15.9058 111.509 15.8079 111.568 15.7752C111.705 15.7644 111.841 15.8026 111.953 15.883L114.542 17.3783C114.699 17.4697 114.78 17.5676 114.725 17.6003C114.589 17.6106 114.453 17.5724 114.343 17.4926Z" fill="#455A64"/>
<path d="M115.472 16.8394L112.86 15.3408C112.704 15.2527 112.622 15.1547 112.681 15.1221C112.818 15.1079 112.955 15.1452 113.066 15.2266L115.678 16.7219C115.831 16.8133 115.913 16.9112 115.858 16.9439C115.802 16.9765 115.629 16.9276 115.472 16.8394Z" fill="#455A64"/>
<path d="M116.613 16.1845L114.001 14.6892C113.844 14.5978 113.766 14.4998 113.821 14.4672C113.877 14.4345 114.05 14.4835 114.206 14.5749L116.818 16.0702C116.975 16.1616 117.053 16.2596 116.998 16.2922C116.861 16.303 116.724 16.2649 116.613 16.1845Z" fill="#455A64"/>
<path d="M117.744 15.5308L115.132 14.0322C114.975 13.9441 114.897 13.8429 114.953 13.8135C115.09 13.7993 115.227 13.8366 115.338 13.918L117.95 15.4133C118.106 15.5047 118.188 15.6026 118.129 15.6353C118.071 15.6679 117.901 15.619 117.744 15.5308Z" fill="#455A64"/>
<path d="M118.877 14.876L116.265 13.3807C116.112 13.2893 116.03 13.1913 116.085 13.1587C116.222 13.146 116.359 13.1831 116.471 13.2631L119.083 14.7617C119.239 14.8499 119.321 14.9511 119.262 14.9805C119.125 14.9946 118.988 14.9574 118.877 14.876Z" fill="#455A64"/>
<path d="M120.011 14.2223L117.4 12.7238C117.243 12.6356 117.161 12.5344 117.217 12.505C117.354 12.4905 117.491 12.5278 117.602 12.6095L120.214 14.1048C120.371 14.1962 120.452 14.2942 120.397 14.3268C120.26 14.3397 120.123 14.3026 120.011 14.2223Z" fill="#455A64"/>
<path d="M121.144 13.5654L118.532 12.0701C118.376 11.9787 118.294 11.8807 118.353 11.8481C118.412 11.8154 118.581 11.8481 118.735 11.9526L121.347 13.4511C121.503 13.5393 121.585 13.6405 121.529 13.6699C121.393 13.6843 121.255 13.6471 121.144 13.5654Z" fill="#455A64"/>
<path d="M122.278 12.9117L119.666 11.4131C119.509 11.3249 119.427 11.2237 119.486 11.1943C119.623 11.1802 119.76 11.2174 119.871 11.2988L122.467 12.7941C122.621 12.8856 122.702 12.9835 122.647 13.0161C122.591 13.0488 122.434 12.9998 122.278 12.9117Z" fill="#455A64"/>
<path d="M123.409 12.2568L120.798 10.7615C120.641 10.6701 120.562 10.5721 120.618 10.5395C120.674 10.5068 120.847 10.5395 121.003 10.644L123.615 12.1425C123.772 12.2307 123.85 12.3319 123.795 12.3613C123.658 12.3754 123.52 12.3382 123.409 12.2568Z" fill="#455A64"/>
<path d="M124.544 11.6L121.949 10.1047C121.792 10.0133 121.714 9.91531 121.769 9.88266C121.906 9.87185 122.043 9.91003 122.154 9.9904L124.766 11.4857C124.923 11.5771 125.005 11.6751 124.946 11.7077C124.887 11.7404 124.701 11.6914 124.544 11.6Z" fill="#455A64"/>
<path d="M87.9359 43.6452C87.9653 36.1033 88.8599 26.0639 89.1603 22.8904L92.4643 20.9805L108.534 30.256C108.72 32.3912 109.732 44.1904 109.82 52.457L106.516 54.3637L87.9359 43.6452Z" fill="#37474F"/>
<path d="M108.531 30.256L105.227 32.1659L89.1575 22.8904L92.4616 20.9805L108.531 30.256Z" fill="#455A64"/>
<path d="M106.516 54.3711C106.424 46.1012 105.415 34.302 105.226 32.17L89.1596 22.8945C88.8592 26.068 87.9647 36.1074 87.9353 43.6493L106.516 54.3711Z" fill="#263238"/>
<path d="M106.516 54.3685C106.424 46.0986 105.415 34.2994 105.226 32.1674L89.1596 22.8887C88.8592 26.0654 87.9647 36.1048 87.9353 43.6467L106.516 54.3685Z" fill="#455A64"/>
<path d="M55.4505 40.9583L88.6085 21.8164L105.847 31.771C105.847 31.771 107.176 46.3192 107.176 55.5065L74.0211 74.6484L54.1283 63.1626C54.1283 53.9753 55.4505 40.9583 55.4505 40.9583Z" fill="#E0E0E0"/>
<path d="M73.9362 70.1126C73.9884 71.7059 74.0211 73.2436 74.0211 74.6541L107.176 55.5056C107.176 54.0952 107.143 52.5673 107.091 50.9609L73.9362 70.1126Z" fill="#BA68C8"/>
<path opacity="0.2" d="M73.9362 70.1126C73.9884 71.7059 74.0211 73.2436 74.0211 74.6541L107.176 55.5056C107.176 54.0952 107.143 52.5673 107.091 50.9609L73.9362 70.1126Z" fill="black"/>
<path d="M72.6934 50.9116L55.4483 40.957C55.4483 40.957 54.1228 53.9741 54.1228 63.1581L74.0156 74.6439C74.0189 65.4598 72.6934 50.9116 72.6934 50.9116Z" fill="#E0E0E0"/>
<path opacity="0.2" d="M72.6934 50.9116L55.4483 40.957C55.4483 40.957 54.1228 53.9741 54.1228 63.1581L74.0156 74.6439C74.0189 65.4598 72.6934 50.9116 72.6934 50.9116Z" fill="black"/>
<path d="M72.6914 50.9132V50.146L55.4529 40.1914V40.9586L72.6914 50.9132Z" fill="#BA68C8"/>
<path d="M105.848 31.7706V31.0034L88.6059 21.0488V21.8161L105.848 31.7706Z" fill="#BA68C8"/>
<path d="M72.6897 50.1453L105.848 31.0034L88.6059 21.0488L55.4512 40.1907L72.6897 50.1453Z" fill="#BA68C8"/>
<path opacity="0.3" d="M72.6897 50.1453L105.848 31.0034L88.6059 21.0488L55.4512 40.1907L72.6897 50.1453Z" fill="white"/>
<path d="M72.6897 50.1458V50.913L105.848 31.7711V31.0039L72.6897 50.1458Z" fill="#BA68C8"/>
<path opacity="0.15" d="M72.6897 50.1458V50.913L105.848 31.7711V31.0039L72.6897 50.1458Z" fill="white"/>
<path d="M74.4877 51.4079C74.7391 54.3463 75.2909 61.2351 75.5488 67.6408L105.484 50.3599C105.217 43.8824 104.658 36.9347 104.42 34.127L74.4877 51.4079Z" fill="#37474F"/>
<path d="M104.148 49.626C103.926 44.6536 103.544 39.505 103.29 36.2891L75.8649 52.1237C76.0935 54.8727 76.5179 60.1095 76.7628 65.4345L104.148 49.626Z" fill="#455A64"/>
<path d="M97.168 55.1606L95.5029 56.1205C95.2384 49.6659 94.6834 42.7346 94.4385 39.8876L96.1036 38.9277C96.3452 41.7714 96.9133 48.7027 97.168 55.1606Z" fill="#37474F"/>
<path d="M87.0117 61.0239L85.3466 61.9838C85.0822 55.5292 84.5272 48.5978 84.2823 45.7509L85.9474 44.791C86.189 47.6314 86.7473 54.5628 87.0117 61.0239Z" fill="#37474F"/>
<path d="M95.2383 44.0195V44.6725L75.3455 56.155V55.5053L95.2383 44.0195Z" fill="#37474F"/>
<path d="M103.427 36.0176L103.446 36.2755C103.668 39.0278 104.073 44.4213 104.308 49.6157C104.53 53.8307 104.524 54.8395 104.517 55.9202V56.6025L97.1877 60.8469V60.5661C97.1877 60.5367 97.142 57.3469 96.9461 53.7099C96.7176 48.842 96.3421 43.7814 96.0679 40.3925V40.288L103.427 36.0176ZM104.191 55.9169C104.191 54.8493 104.191 53.8372 103.982 49.6321C103.757 44.6009 103.368 39.3804 103.143 36.5726L100.08 38.3389C100.302 41.1206 100.701 46.4456 100.933 51.5779C101.155 55.7929 101.148 56.8017 101.141 57.8824V58.1925L104.191 56.4295V55.9169ZM97.2628 53.6805C97.4293 56.7136 97.4881 59.4299 97.5044 60.2853L100.815 58.359V57.8693C100.815 56.7984 100.815 55.7896 100.606 51.5812C100.381 46.5435 99.9922 41.3262 99.767 38.5217L96.3943 40.4806C96.6686 43.8467 97.0375 48.8583 97.2628 53.6805Z" fill="#263238"/>
<path d="M67.3858 36.2202L81.9733 27.7969L85.9531 30.0953V30.3826L71.3624 38.8027L67.3858 36.5075V36.2202Z" fill="#BA68C8"/>
<path d="M85.9531 30.0953L71.3624 38.5187L67.3858 36.2202L81.9733 27.7969L85.9531 30.0953Z" fill="#BA68C8"/>
<path opacity="0.3" d="M85.9531 30.0963L71.3624 38.5197L67.3858 36.2212L81.9733 27.9023L85.9531 30.0963Z" fill="white"/>
<path opacity="0.15" d="M85.9531 30.0957L71.3624 38.5191V38.8031L85.9531 30.383V30.0957Z" fill="black"/>
<path d="M71.3633 38.5192L67.3867 36.2207V36.508L71.3633 38.8032V38.5192Z" fill="#BA68C8"/>
<path d="M71.3663 38.523L85.957 30.0996L89.9336 32.3981V33.1621L75.3462 41.1055L71.3663 38.8103V38.523Z" fill="#EBEBEB"/>
<path d="M89.9336 32.3981L75.3462 40.8182L71.3663 38.523L85.957 30.0996L89.9336 32.3981Z" fill="#BA68C8"/>
<path opacity="0.6" d="M89.9336 32.3981L75.3462 40.8182L71.3663 38.523L85.957 30.0996L89.9336 32.3981Z" fill="white"/>
<path d="M75.3438 40.8167L71.3639 38.5215V38.8088L75.3438 41.104V40.8167Z" fill="#BA68C8"/>
<path opacity="0.3" d="M75.3438 40.8167L71.3639 38.5215V38.8088L75.3438 41.104V40.8167Z" fill="white"/>
<path d="M75.3468 40.814L89.9342 32.3906L93.9141 34.6891V34.9764L79.3267 43.3997L75.3468 41.1013V40.814Z" fill="#BA68C8"/>
<path d="M93.9141 34.6891L79.3267 43.1124L75.3468 40.814L89.9342 32.3906L93.9141 34.6891Z" fill="#BA68C8"/>
<path opacity="0.3" d="M93.707 34.6891L79.3253 43.1124L75.3454 40.814L89.9328 32.3906L93.707 34.6891Z" fill="white"/>
<path opacity="0.15" d="M93.9141 34.6895L79.3266 43.1128V43.4001L93.9141 34.9768V34.6895Z" fill="white"/>
<path d="M79.3242 43.1129L75.3443 40.8145V41.1018L79.3242 43.4002V43.1129Z" fill="#BA68C8"/>
<path d="M75.6204 39.8544L73.0085 38.3591C72.8518 38.2677 72.7734 38.1698 72.8289 38.1371C72.8844 38.1045 73.0575 38.1534 73.2142 38.2416L75.8261 39.7402C75.9828 39.8283 76.0612 39.9295 76.0056 39.9622C75.8685 39.973 75.732 39.9348 75.6204 39.8544Z" fill="#455A64"/>
<path d="M76.748 39.2007L74.1524 37.7022C73.999 37.614 73.9174 37.5128 73.9729 37.4834C74.1098 37.4693 74.2471 37.5065 74.3581 37.5879L76.9537 39.0963C77.1104 39.1877 77.192 39.2856 77.1332 39.3183C77.0745 39.3509 76.9047 39.2889 76.748 39.2007Z" fill="#455A64"/>
<path d="M77.8857 38.544L75.2901 37.0486C75.1334 36.9572 75.0518 36.8593 75.1073 36.8266C75.2441 36.814 75.3809 36.8511 75.4926 36.9311L78.1045 38.4297C78.2612 38.5178 78.3428 38.619 78.2873 38.6484C78.1449 38.6675 78.0007 38.63 77.8857 38.544Z" fill="#455A64"/>
<path d="M79.0192 37.8924L76.4237 36.3938C76.2669 36.3056 76.1853 36.2044 76.2408 36.175C76.3778 36.1603 76.5153 36.1975 76.6261 36.2795L79.2216 37.7912C79.3784 37.8826 79.46 37.9805 79.4045 38.0132C79.2656 38.0211 79.1287 37.9782 79.0192 37.8924Z" fill="#455A64"/>
<path d="M80.152 37.2353L77.5564 35.74C77.3997 35.6486 77.3181 35.5506 77.3769 35.518C77.4356 35.4853 77.6054 35.5343 77.7621 35.6225L80.3577 37.1374C80.5111 37.2255 80.5928 37.3267 80.5373 37.3561C80.3982 37.3656 80.2607 37.3225 80.152 37.2353Z" fill="#455A64"/>
<path d="M81.2806 36.5785L78.685 35.0832C78.5283 34.9918 78.4467 34.8938 78.5054 34.8612C78.6425 34.8504 78.779 34.8885 78.8907 34.9689L81.4862 36.4642C81.6429 36.5556 81.7213 36.6536 81.6658 36.6862C81.6103 36.7189 81.4373 36.6699 81.2806 36.5785Z" fill="#455A64"/>
<path d="M82.4173 35.9267L79.8217 34.4314C79.665 34.34 79.5866 34.242 79.6421 34.2094C79.6976 34.1767 79.8707 34.2257 80.0274 34.3139L82.623 35.8124C82.7797 35.9006 82.858 35.9985 82.8025 36.0312C82.6656 36.0453 82.5283 36.0081 82.4173 35.9267Z" fill="#455A64"/>
<path d="M83.5488 35.2699L80.9532 33.7746C80.7998 33.6832 80.7181 33.5852 80.7736 33.5526C80.9108 33.5418 81.0473 33.5799 81.1589 33.6603L83.7545 35.1556C83.9112 35.247 83.9928 35.345 83.934 35.3776C83.7969 35.3884 83.6604 35.3503 83.5488 35.2699Z" fill="#455A64"/>
<path d="M84.6856 34.6182L82.0737 33.1196C81.9169 33.0315 81.8353 32.9335 81.8908 32.9009C82.0276 32.8882 82.1644 32.9253 82.2761 33.0053L84.8716 34.5039C85.0284 34.5921 85.11 34.69 85.0512 34.7227C84.9924 34.7553 84.8325 34.7063 84.6856 34.6182Z" fill="#455A64"/>
<path d="M85.8129 33.9615L83.201 32.4662C83.0443 32.3748 82.9627 32.2768 83.0182 32.2442C83.1553 32.2328 83.292 32.271 83.4034 32.3519L85.999 33.8472C86.1557 33.9386 86.2373 34.0366 86.1818 34.0692C86.0501 34.0765 85.92 34.0384 85.8129 33.9615Z" fill="#455A64"/>
<path d="M86.9496 33.3082L84.3377 31.8096C84.181 31.7214 84.0994 31.6202 84.1581 31.5908C84.2951 31.5767 84.4324 31.6139 84.5434 31.6953L87.1357 33.1906C87.2924 33.282 87.374 33.38 87.3185 33.4126C87.1872 33.4213 87.0569 33.3844 86.9496 33.3082Z" fill="#455A64"/>
<path d="M88.0973 32.6513L85.4854 31.156C85.3287 31.0646 85.2471 30.9666 85.3059 30.934C85.3646 30.9013 85.5344 30.9503 85.6911 31.0385L88.303 32.537C88.4565 32.6252 88.5381 32.7264 88.4826 32.759C88.3454 32.7699 88.2089 32.7317 88.0973 32.6513Z" fill="#455A64"/>
<path d="M51.475 64.6966C51.5044 57.1547 52.3957 47.1153 52.6993 43.9386L56.0034 42.0352L72.0698 51.3074C72.2591 53.4426 73.268 65.2418 73.3594 73.5084L70.0553 75.4184L51.475 64.6966Z" fill="#37474F"/>
<path d="M72.0703 51.3067L68.7663 53.2167L52.6999 43.9379L56.0039 42.0312L72.0703 51.3067Z" fill="#455A64"/>
<path d="M70.0547 75.4213C69.9633 67.1514 68.9544 55.3521 68.7651 53.2202L52.6987 43.9414C52.395 47.1181 51.5037 57.1576 51.4743 64.6994L70.0547 75.4213Z" fill="#263238"/>
<path d="M70.0547 75.4212C69.9665 67.1513 68.9577 55.3521 68.7683 53.2201L52.7019 43.9414C52.3983 47.1181 51.507 57.1576 51.4776 64.6994L70.0547 75.4212Z" fill="#455A64"/>
<path d="M7.70557 91.7762C7.70686 88.5623 8.39361 85.3857 9.72 82.4583L14.2745 72.3992C17.3416 65.6331 22.4508 59.9976 28.8848 56.2839L52.1469 42.8555L69.3854 52.81C69.3854 52.81 70.7109 67.3583 70.7109 76.5456L45.1275 91.3354C40.098 94.2385 34.7231 96.497 29.1296 98.0578L23.1516 99.7294C21.1979 100.276 19.1547 100.427 17.142 100.173C15.1292 99.9187 13.1875 99.2651 11.4308 98.2504C10.2963 97.5931 9.35478 96.6488 8.70088 95.5124C8.04697 94.3759 7.7037 93.0874 7.70557 91.7762Z" fill="#E0E0E0"/>
<path d="M7.98371 88.2768C8.12599 87.3767 8.32225 86.4859 8.57139 85.6094L11.2878 90.1998L22.2969 90.9605C22.2969 90.9605 20.9681 93.1251 20.6285 93.7911C13.0051 93.8499 8.98929 92.2893 7.98371 88.2768Z" fill="#263238"/>
<path d="M20.8672 91.912C20.8599 92.0404 20.8242 92.1655 20.7627 92.2785C20.7011 92.3914 20.6153 92.4892 20.5113 92.5649C20.1873 92.7822 19.8232 92.9329 19.4404 93.008C19.0575 93.0831 18.6635 93.0812 18.2814 93.0024C17.9549 92.9469 17.586 92.7641 17.5534 92.4343C17.4848 91.7193 18.8299 91.4549 19.3196 91.3667C19.8094 91.2786 20.7856 91.2492 20.8672 91.912Z" fill="#FAFAFA"/>
<path d="M16.3756 93.0334C16.2254 93.0073 16.1569 92.9616 16.1242 92.9028C16.1025 92.8479 16.0972 92.7879 16.1088 92.7299C16.1203 92.672 16.1484 92.6187 16.1895 92.5763C16.2833 92.4523 16.4093 92.3563 16.5537 92.2988C16.6982 92.2412 16.8556 92.2243 17.009 92.2498C17.056 92.2581 17.1009 92.2756 17.1411 92.3013C17.1813 92.3269 17.2161 92.3603 17.2434 92.3994C17.2707 92.4385 17.29 92.4827 17.3002 92.5293C17.3104 92.5759 17.3113 92.6241 17.3029 92.671C17.2506 93.0563 16.7021 93.0922 16.3756 93.0334Z" fill="#FAFAFA"/>
<path d="M8.01107 88.0692C8.11668 88.1375 8.24042 88.1725 8.36619 88.1696C8.49196 88.1667 8.61394 88.126 8.71628 88.0529C9.2909 87.6284 8.91217 86.7469 8.75546 86.4433C8.67568 86.2908 8.57084 86.1528 8.4453 86.0352C8.00781 86.662 7.98168 87.5468 8.01107 88.0692Z" fill="#FAFAFA"/>
<path d="M8.58406 89.1406C8.62044 89.1975 8.67725 89.2384 8.74282 89.2548C8.8084 89.2712 8.87777 89.2619 8.93667 89.2287C9.03097 89.1677 9.09863 89.0732 9.12603 88.9643C9.19133 88.6933 9.1848 88.4517 9.0085 88.3276C8.93871 88.2863 8.85774 88.2679 8.77694 88.2749C8.69614 88.2819 8.61956 88.3141 8.55795 88.3668C8.28696 88.5562 8.43388 88.9675 8.58406 89.1406Z" fill="#FAFAFA"/>
<path d="M7.82966 93.0949C8.11044 95.0081 11.4961 98.9717 17.781 98.8378C24.0658 98.7039 29.381 95.7003 37.4746 91.1588L70.6293 72.0137C70.6816 73.6037 70.7109 75.1381 70.7109 76.5486L45.1307 91.3351C40.1012 94.2382 34.7264 96.4967 29.1329 98.0575L23.1549 99.7291C21.2011 100.275 19.158 100.425 17.1454 100.171C15.1328 99.9173 13.191 99.2641 11.4341 98.2501C10.4936 97.7062 9.68304 96.9638 9.05885 96.0746C8.43465 95.1854 8.01183 94.1708 7.81985 93.1014L7.82966 93.0949Z" fill="#BA68C8"/>
<path opacity="0.2" d="M7.82966 93.0949C8.11044 95.0081 11.4961 98.9717 17.781 98.8378C24.0658 98.7039 29.381 95.7003 37.4746 91.1588L70.6293 72.0137C70.6816 73.6037 70.7109 75.1381 70.7109 76.5486L45.1307 91.3351C40.1012 94.2382 34.7264 96.4967 29.1329 98.0575L23.1549 99.7291C21.2011 100.275 19.158 100.425 17.1454 100.171C15.1328 99.9173 13.191 99.2641 11.4341 98.2501C10.4936 97.7062 9.68304 96.9638 9.05885 96.0746C8.43465 95.1854 8.01183 94.1708 7.81985 93.1014L7.82966 93.0949Z" fill="black"/>
<path d="M69.3828 52.8234V52.0561L52.1443 42.1016V42.8688L69.3828 52.8234Z" fill="#BA68C8"/>
<path d="M28.1476 55.9642L52.1443 42.1016L69.3828 52.0561L45.3861 65.9187C39.2742 69.435 31.5757 73.6826 20.9649 91.4924L11.2845 90.1865L8.56491 85.5928C16.7728 62.52 23.0315 59.0136 28.1476 55.9642Z" fill="#BA68C8"/>
<path opacity="0.3" d="M28.1476 55.9642L52.1443 42.1016L69.3828 52.0561L45.3861 65.9187C39.2742 69.435 31.5757 73.6826 20.9649 91.4924L11.2845 90.1865L8.56491 85.5928C16.7728 62.52 23.0315 59.0136 28.1476 55.9642Z" fill="white"/>
<path d="M10.0074 85.4571L12.0871 88.9799L20.5758 89.5382C26.5276 79.6815 31.2976 74.5655 35.6758 70.8729C28.7771 68.5157 24.2128 65.7993 21.6369 62.7695C18.2675 66.6188 14.4378 73.1289 10.0074 85.4571Z" fill="#37474F"/>
<path d="M10.7206 85.3994L12.4836 88.3867L20.2246 88.8438C22.8615 84.4298 25.8788 80.2545 29.2422 76.3655C24.7726 74.5502 20.8156 72.3824 17.6552 69.6758C15.3404 73.7667 13.0452 78.9774 10.7206 85.3994Z" fill="#455A64"/>
<path d="M45.3867 65.918V66.6852C39.2749 70.2015 30.6001 76.7443 22.2943 90.9595L20.9655 91.4917C31.5763 73.6818 39.2749 69.4342 45.3867 65.918Z" fill="#BA68C8"/>
<path opacity="0.15" d="M45.3867 65.918V66.6852C39.2749 70.2015 30.6001 76.7443 22.2943 90.9595L20.9655 91.4917C31.5763 73.6818 39.2749 69.4342 45.3867 65.918Z" fill="white"/>
<path d="M45.3861 65.9173V66.6845L69.3828 52.8219V52.0547L45.3861 65.9173Z" fill="#BA68C8"/>
<path opacity="0.15" d="M45.3861 65.9173V66.6845L69.3828 52.8219V52.0547L45.3861 65.9173Z" fill="white"/>
<path d="M39.0332 88.7222L68.9688 71.4185C68.701 64.941 68.1427 57.9933 67.9044 55.1855L44.7239 68.5715C39.9767 71.314 35.6639 74.6376 32.19 78.8819C29.3076 82.3994 26.6762 86.1153 24.3152 90.0021L32.1509 92.7054L39.0332 88.7222Z" fill="#37474F"/>
<path d="M33.7109 78.4766C33.7109 78.4766 33.3453 81.0885 31.961 91.4903L25.8557 89.4139C25.8557 89.4139 30.2534 82.6001 33.7109 78.4766Z" fill="#455A64"/>
<path opacity="0.1" d="M33.7109 78.4766C33.7109 78.4766 33.3453 81.0885 31.961 91.4903L25.8557 89.4139C25.8557 89.4139 30.2534 82.6001 33.7109 78.4766Z" fill="white"/>
<path d="M33.7145 78.4781C34.8181 77.3746 37.9589 74.6484 37.9589 74.6484C37.9589 74.6484 38.7816 84.2667 38.8828 87.2769L31.958 91.4919L33.7145 78.4781Z" fill="#455A64"/>
<path d="M67.5625 70.792C67.3405 65.8197 66.9618 60.671 66.7071 57.4551L39.2822 73.2929C39.514 76.0419 39.9352 81.2755 40.1833 86.6038L67.5625 70.792Z" fill="#455A64"/>
<path d="M49.0938 82.9048L47.4319 83.8647C47.1675 77.41 46.6092 70.4787 46.3676 67.6317L48.0294 66.6719C48.2677 69.5156 48.8293 76.4469 49.0938 82.9048Z" fill="#37474F"/>
<path d="M59.207 77.0695L57.5419 78.0294C57.2775 71.578 56.7192 64.6435 56.4776 61.7998L58.1394 60.8203C58.3875 63.6803 58.9393 70.6116 59.207 77.0695Z" fill="#37474F"/>
<path d="M67.1719 60.2148V60.8678L47.2791 72.3536V71.7006L67.1719 60.2148Z" fill="#37474F"/>
<path d="M46.6339 68.8067L46.6535 69.0614C46.8755 71.8169 47.2804 77.2236 47.5122 82.4049C47.7374 86.6198 47.7309 87.6287 47.7244 88.7093C47.7244 88.8954 47.7244 89.0881 47.7244 89.297V89.3754L40.3948 93.6197V93.3389C40.3948 93.3063 40.349 90.1198 40.1499 86.4827C39.9214 81.6115 39.5459 76.551 39.2716 73.1621V73.0609L46.6339 68.8067ZM47.3979 88.7061C47.3979 87.6352 47.3979 86.6264 47.1857 82.4212C46.9604 77.3868 46.5719 72.1663 46.3499 69.3454L43.2842 71.115C43.5094 73.8967 43.9077 79.2216 44.1363 84.354C44.3616 88.569 44.355 89.5778 44.3485 90.6585C44.3485 90.7597 44.3485 90.8609 44.3485 90.985L47.3979 89.2187C47.3979 89.0195 47.3979 88.8563 47.4012 88.6963L47.3979 88.7061ZM40.4698 86.4697C40.6363 89.5027 40.6951 92.2191 40.7082 93.0745L44.022 91.1482C44.022 90.9719 44.022 90.8054 44.022 90.6454C44.022 89.5778 44.022 88.5657 43.8098 84.3606C43.5845 79.3229 43.196 74.1056 42.974 71.2848L39.5981 73.2437C39.8756 76.6228 40.2478 81.6344 40.4731 86.4599L40.4698 86.4697Z" fill="#263238"/>
<path d="M33.0343 56.049L47.625 47.6289L51.6016 49.9241V50.2114L37.0142 58.6348L33.0343 56.3363V56.049Z" fill="#BA68C8"/>
<path d="M51.6016 49.9241L37.0142 58.3475L33.0343 56.049L47.625 47.6289L51.6016 49.9241Z" fill="#BA68C8"/>
<path opacity="0.3" d="M51.6016 49.9231L37.0142 58.3465L33.0343 56.048L47.625 47.7324L51.6016 49.9231Z" fill="white"/>
<path opacity="0.15" d="M51.6016 49.9238L37.0141 58.3472V58.6345L51.6016 50.2111V49.9238Z" fill="black"/>
<path d="M37.0156 58.3453L33.0358 56.0469V56.3342L37.0156 58.6326V58.3453Z" fill="#BA68C8"/>
<path d="M37.0108 58.3491L51.5983 49.9258L55.5781 52.2242V52.9915L40.9907 60.9316L37.0108 58.6364V58.3491Z" fill="#EBEBEB"/>
<path d="M55.5781 52.2242L40.9907 60.6476L37.0108 58.3491L51.5983 49.9258L55.5781 52.2242Z" fill="#BA68C8"/>
<path opacity="0.6" d="M55.5781 52.2242L40.9907 60.6476L37.0108 58.3491L51.5983 49.9258L55.5781 52.2242Z" fill="white"/>
<path d="M40.9883 60.6481L37.0084 58.3496V58.6369L40.9883 60.9321V60.6481Z" fill="#BA68C8"/>
<path opacity="0.3" d="M40.9883 60.6481L37.0084 58.3496V58.6369L40.9883 60.9321V60.6481Z" fill="white"/>
<path d="M40.9913 60.646L55.582 52.2227L59.5586 54.5179V54.8052L44.9712 63.2285L40.9913 60.93V60.646Z" fill="#BA68C8"/>
<path d="M59.5586 54.5179L44.9712 62.9412L40.9913 60.646L55.582 52.2227L59.5586 54.5179Z" fill="#BA68C8"/>
<path opacity="0.3" d="M59.3516 54.5179L44.9666 62.9412L40.9867 60.646L55.5774 52.2227L59.3516 54.5179Z" fill="white"/>
<path opacity="0.15" d="M59.5586 54.5156L44.9712 62.939V63.2263L59.5586 54.8029V54.5156Z" fill="white"/>
<path d="M44.9688 62.9397L40.9889 60.6445V60.9286L44.9688 63.227V62.9397Z" fill="#BA68C8"/>
<path d="M41.2614 59.6853L38.6658 58.1867C38.5091 58.0953 38.4275 57.9973 38.4863 57.9647C38.6234 57.9539 38.7599 57.9921 38.8715 58.0724L41.4638 59.5677C41.6205 59.6592 41.7022 59.7571 41.6467 59.7897C41.5099 59.8024 41.3731 59.7653 41.2614 59.6853Z" fill="#455A64"/>
<path d="M42.3864 59.0283L39.7908 57.533C39.6341 57.4416 39.5525 57.3436 39.6112 57.311C39.67 57.2783 39.8398 57.311 39.9965 57.4154L42.5921 58.914C42.7455 59.0022 42.8271 59.1001 42.7716 59.1328C42.6347 59.1469 42.4974 59.1097 42.3864 59.0283Z" fill="#455A64"/>
<path d="M43.5266 58.3597L40.9311 56.8644C40.7744 56.773 40.696 56.6751 40.7515 56.6424C40.8886 56.6316 41.0251 56.6698 41.1368 56.7502L43.7323 58.2455C43.889 58.3369 43.9674 58.4348 43.9119 58.4675C43.7748 58.4783 43.6383 58.4401 43.5266 58.3597Z" fill="#455A64"/>
<path d="M44.6738 57.706L42.0782 56.2074C41.9215 56.1193 41.8431 56.0213 41.8986 55.9887C41.9541 55.956 42.1272 56.005 42.2839 56.0932L44.8795 57.5917C45.0362 57.6799 45.1178 57.7778 45.059 57.8105C45.0003 57.8431 44.8174 57.8072 44.6738 57.706Z" fill="#455A64"/>
<path d="M45.7949 57.0531L43.1993 55.5578C43.0459 55.4664 42.9642 55.3684 43.0197 55.3358C43.1569 55.325 43.2934 55.3632 43.405 55.4435L46.0006 56.9388C46.1573 57.0302 46.2389 57.1282 46.1801 57.1608C46.043 57.1717 45.9065 57.1335 45.7949 57.0531Z" fill="#455A64"/>
<path d="M46.934 56.4001L44.3221 54.9015C44.1654 54.8133 44.0838 54.7121 44.1393 54.6827C44.2762 54.6683 44.4136 54.7055 44.5245 54.7872L47.1201 56.2825C47.2768 56.374 47.3584 56.4719 47.3029 56.5045C47.1715 56.5135 47.0411 56.4766 46.934 56.4001Z" fill="#455A64"/>
<path d="M48.0661 55.747L45.4705 54.2517C45.3138 54.1603 45.2322 54.0623 45.291 54.0297C45.3497 53.997 45.5195 54.046 45.6729 54.1342L48.2685 55.6393C48.4252 55.7274 48.5069 55.8286 48.4513 55.8613C48.3134 55.8705 48.1767 55.83 48.0661 55.747Z" fill="#455A64"/>
<path d="M49.1989 55.0953L46.587 53.5967C46.4303 53.5085 46.3486 53.4073 46.4074 53.3779C46.5443 53.3638 46.6817 53.401 46.7927 53.4824L49.4046 54.9777C49.558 55.0691 49.6396 55.1671 49.5841 55.1997C49.5286 55.2324 49.3556 55.1899 49.1989 55.0953Z" fill="#455A64"/>
<path d="M50.3313 54.4404L47.7358 52.9451C47.579 52.8536 47.5007 52.7557 47.5562 52.7231C47.6117 52.6904 47.7847 52.7394 47.9414 52.8275L50.537 54.3261C50.6937 54.4143 50.7721 54.5155 50.7166 54.5448C50.5797 54.559 50.4424 54.5218 50.3313 54.4404Z" fill="#455A64"/>
<path d="M51.4635 53.7886L48.8516 52.29C48.6949 52.2019 48.6166 52.1007 48.6721 52.0713C48.809 52.0571 48.9463 52.0944 49.0573 52.1758L51.6529 53.6711C51.8096 53.7625 51.8912 53.8604 51.8325 53.8931C51.7737 53.9257 51.6202 53.88 51.4635 53.7886Z" fill="#455A64"/>
<path d="M52.5957 53.1357L50.0001 51.6404C49.8466 51.549 49.765 51.451 49.8205 51.4184C49.876 51.3857 50.0491 51.4184 50.2058 51.5229L52.8013 53.0214C52.9581 53.1096 53.0397 53.2108 52.9809 53.2402C52.844 53.2543 52.7067 53.2171 52.5957 53.1357Z" fill="#455A64"/>
<path d="M53.7301 52.4822L51.1346 50.9837C50.9779 50.8955 50.8963 50.7943 50.9518 50.7616C51.0889 50.7506 51.2255 50.7888 51.337 50.8694L53.9326 52.3647C54.0893 52.4561 54.1709 52.5541 54.1154 52.5867C53.9786 52.5996 53.8417 52.5625 53.7301 52.4822Z" fill="#455A64"/>
</g>
</svg>
