<svg width="85" height="105" viewBox="0 0 85 105" fill="none" xmlns="http://www.w3.org/2000/svg">
<g opacity="0.1">
<path d="M11.2667 38.7297L1.7875 46.5243C0.800291 47.3361 0.658068 48.7944 1.46984 49.7816L23.5982 76.6924C24.41 77.6796 25.8683 77.8218 26.8555 77.0101L36.3347 69.2155C37.3219 68.4037 37.4641 66.9454 36.6523 65.9582L14.524 39.0474C13.7122 38.0602 12.2539 37.918 11.2667 38.7297Z" fill="white"/>
<path d="M14.5224 39.0524C14.5043 39.036 14.4869 39.0186 14.4705 39.0005C14.4367 38.9693 14.3926 38.9148 14.325 38.8524C13.9582 38.506 13.4875 38.29 12.9856 38.2379C12.4837 38.1858 11.9787 38.3004 11.5485 38.5641C11.2836 38.7485 11.0295 38.948 10.7875 39.1615L1.81117 46.5794C1.45132 46.8827 1.19473 47.2904 1.07699 47.746C0.959245 48.2016 0.986178 48.6826 1.15405 49.1222C1.27513 49.4263 1.45123 49.7054 1.67351 49.9456L4.33576 53.1766L10.1979 60.3063L23.6442 76.6512C23.791 76.8246 23.9605 76.9774 24.1481 77.1057C24.3402 77.2273 24.5482 77.3217 24.7663 77.3862C25.2035 77.5103 25.6682 77.4985 26.0987 77.3524C26.5219 77.1839 26.9069 76.9322 27.2311 76.6122L28.2934 75.7395L32.4595 72.3136L34.4932 70.6436C34.8283 70.3657 35.1633 70.0929 35.4958 69.8202L35.9919 69.4098C36.1589 69.2804 36.3193 69.1426 36.4724 68.9969C36.7588 68.7009 36.9586 68.3321 37.0502 67.9305C37.1418 67.5289 37.1216 67.1099 36.9918 66.719C36.929 66.5276 36.8417 66.3452 36.7321 66.1762C36.6178 66.0152 36.4724 65.8541 36.3503 65.6957L35.5711 64.7477L24.6052 51.3845L17.2211 42.3692L15.2185 39.9147L14.6991 39.2732C14.5822 39.1277 14.5276 39.0524 14.5276 39.0524C14.5276 39.0524 14.59 39.1225 14.7094 39.2654L15.2289 39.8965C15.6912 40.4576 16.3743 41.2783 17.2496 42.3354L24.6676 51.3247L35.6568 64.6671L36.436 65.6152C36.5659 65.7762 36.6957 65.9294 36.823 66.1061C36.9419 66.2833 37.0371 66.4754 37.1061 66.6775C37.2432 67.0908 37.2649 67.5338 37.1687 67.9585C37.0726 68.3833 36.8624 68.7737 36.5607 69.0878C36.4054 69.2373 36.2424 69.3786 36.0724 69.5111L35.5763 69.9163L34.5737 70.7423L32.5426 72.4123L28.3713 75.8434L27.309 76.7187C27.1272 76.8615 26.961 77.0122 26.7662 77.1524C26.5745 77.2943 26.3615 77.4048 26.135 77.4797C25.6788 77.6357 25.1858 77.6484 24.7221 77.5161C24.4909 77.4491 24.2705 77.3494 24.0676 77.22C23.8676 77.0837 23.6868 76.9212 23.5299 76.7369L10.094 60.3738L4.23187 53.2338L1.58261 50.0105C1.35252 49.762 1.17026 49.4732 1.04496 49.1586C0.927106 48.8471 0.875789 48.5145 0.89432 48.182C0.912304 47.86 0.996285 47.5451 1.14105 47.2569C1.28581 46.9687 1.48827 46.7134 1.73585 46.5067L10.7537 39.1199C11.0017 38.9059 11.2619 38.7065 11.5329 38.5226C11.8507 38.3326 12.209 38.2209 12.5783 38.1965C12.9477 38.1721 13.3176 38.2358 13.6575 38.3823C13.9113 38.4928 14.1427 38.6486 14.3406 38.842C14.4049 38.9089 14.4656 38.9791 14.5224 39.0524Z" fill="#263238"/>
<path d="M1.84736 46.4082L10.6627 57.0884L26.9738 76.8462L26.1946 77.4669C25.8366 77.752 25.3808 77.8845 24.9258 77.8359C24.4708 77.7873 24.0532 77.5614 23.7635 77.2072L0.935703 49.4341C0.780383 49.2445 0.665336 49.0253 0.597594 48.7898C0.529851 48.5544 0.510834 48.3075 0.541707 48.0644C0.572579 47.8213 0.652692 47.5871 0.77715 47.376C0.901607 47.1649 1.0678 46.9814 1.26556 46.8368L1.84736 46.4082Z" fill="#0536B3"/>
<path d="M21.6299 47.7718C21.6533 47.8003 19.1988 49.9094 16.1444 52.4807C13.0899 55.0521 10.5965 57.1169 10.5705 57.0883C10.5445 57.0598 13.0042 54.9508 16.0586 52.3768C19.1131 49.8029 21.6065 47.7432 21.6299 47.7718Z" fill="#263238"/>
<path d="M15.3123 50.9198C17.1676 48.9134 17.0451 45.783 15.0388 43.9277C13.0325 42.0725 9.90203 42.1949 8.04676 44.2012C6.19149 46.2075 6.31394 49.338 8.32026 51.1932C10.3266 53.0485 13.457 52.9261 15.3123 50.9198Z" fill="white"/>
<path d="M12.7424 42.7203C12.7156 42.7232 12.6886 42.7232 12.6619 42.7203L12.4281 42.6866C12.3027 42.6656 12.176 42.6535 12.0489 42.6502C11.876 42.637 11.7024 42.637 11.5295 42.6502C11.055 42.6662 10.5856 42.7538 10.1373 42.9099C9.54154 43.1122 8.98974 43.426 8.51137 43.8346C7.89002 44.3663 7.41168 45.0451 7.11996 45.8091C6.82825 46.5731 6.73245 47.3979 6.8413 48.2085C6.90026 48.6759 7.03078 49.1314 7.2283 49.5591C7.41736 50.0093 7.68077 50.4246 8.00749 50.7876C8.69151 51.5689 9.6077 52.1107 10.6219 52.3336C11.6361 52.5566 12.6951 52.4489 13.6437 52.0265C13.8695 51.9264 14.0882 51.811 14.2982 51.6811C14.5014 51.5477 14.695 51.4002 14.8774 51.2395C15.2355 50.9343 15.5447 50.5761 15.7942 50.1772C16.4016 49.2146 16.6559 48.071 16.5138 46.9417C16.3717 45.8124 15.8419 44.7674 15.0151 43.9852C14.673 43.6561 14.2834 43.3802 13.8592 43.1671C13.7057 43.0857 13.5469 43.0146 13.3839 42.9541C13.2674 42.9046 13.1476 42.863 13.0255 42.8294L12.7995 42.7619C12.7733 42.7556 12.748 42.746 12.7242 42.7333C12.7508 42.7349 12.777 42.7401 12.8021 42.7489L13.0333 42.8034C13.1583 42.8315 13.2808 42.8698 13.3995 42.9177C13.5654 42.973 13.7269 43.0407 13.8826 43.1203C14.3169 43.3277 14.7164 43.601 15.067 43.9307C15.5866 44.4129 15.9976 45.0002 16.2726 45.6536C16.5476 46.307 16.6802 47.0115 16.6618 47.7202C16.6324 48.6154 16.3633 49.4864 15.8826 50.2422C15.6294 50.6536 15.314 51.0234 14.9475 51.3382C14.7599 51.5024 14.5611 51.6534 14.3527 51.7902C14.1375 51.9251 13.9127 52.044 13.68 52.146C12.7062 52.5822 11.6181 52.6943 10.5759 52.4656C9.53364 52.237 8.59235 51.6797 7.89061 50.8759C7.55408 50.5007 7.28042 50.0736 7.08025 49.611C6.88017 49.1714 6.74877 48.7036 6.69065 48.224C6.57476 47.3367 6.69852 46.4345 7.04908 45.6111C7.32886 44.9602 7.74412 44.3764 8.26722 43.8985C8.79032 43.4206 9.40924 43.0597 10.0827 42.8398C10.5399 42.6857 11.0185 42.6051 11.5009 42.6009C11.6742 42.5932 11.8479 42.5993 12.0203 42.619C12.1488 42.6244 12.2766 42.6409 12.4022 42.6684L12.6333 42.7125L12.7424 42.7203Z" fill="#263238"/>
<path d="M7.73704 47.1052C7.73704 47.1052 7.56561 47.7519 8.60974 47.8844L9.69282 48.0273L11.1006 51.4038L11.62 51.4323L11.6512 48.2974L14.5082 48.3389L15.2173 48.835L15.4173 47.087L14.6641 47.4662L11.807 46.9182L12.3395 43.9105L11.8408 43.7988L9.76294 46.7831L8.81752 46.6143C8.81752 46.6143 7.91106 46.3104 7.73704 47.1052Z" fill="#0536B3"/>
<path d="M27.049 17.2277L45.2043 59.1821C45.3251 59.4609 45.3897 59.7608 45.3945 60.0646C45.3993 60.3685 45.3442 60.6702 45.2322 60.9527C45.1203 61.2352 44.9538 61.4929 44.7422 61.7109C44.5306 61.929 44.2781 62.1032 43.9991 62.2236L28.462 68.948C28.1832 69.0689 27.8833 69.1335 27.5795 69.1383C27.2756 69.1431 26.9739 69.088 26.6914 68.976C26.4089 68.8641 26.1512 68.6976 25.9332 68.486C25.7151 68.2744 25.5409 68.0219 25.4205 67.7429L7.26785 25.791C7.02459 25.2279 7.01489 24.5912 7.24087 24.0209C7.46685 23.4505 7.91003 22.9933 8.47301 22.7496L24.0102 16.0251C24.5727 15.7825 25.2085 15.7729 25.7781 15.9983C26.3478 16.2237 26.8048 16.6658 27.049 17.2277Z" fill="#455A64"/>
<path d="M20.1962 35.0049C18.5662 34.9957 17.0001 34.3697 15.8127 33.2529C14.6253 32.1361 13.9047 30.6112 13.7957 28.9847C13.6867 27.3583 14.1974 25.7509 15.2251 24.4856C16.2528 23.2204 17.7214 22.391 19.3357 22.1643C20.9499 21.9376 22.5901 22.3303 23.9266 23.2635C25.2631 24.1967 26.1968 25.6013 26.5401 27.1948C26.8833 28.7883 26.6106 30.4527 25.7768 31.8534C24.943 33.2541 23.61 34.2873 22.0455 34.7452C21.445 34.9214 20.822 35.0089 20.1962 35.0049ZM20.217 22.382C18.7101 22.3801 17.2545 22.929 16.1239 23.9254C14.9934 24.9217 14.266 26.2968 14.0784 27.792C13.8909 29.2872 14.2562 30.7994 15.1057 32.0441C15.9551 33.2888 17.2301 34.1801 18.6908 34.5505C20.1515 34.9208 21.6972 34.7447 23.037 34.0551C24.3769 33.3655 25.4186 32.21 25.9661 30.8061C26.5136 29.4022 26.5293 27.8466 26.01 26.4319C25.4908 25.0173 24.4725 23.8412 23.1468 23.1248C22.2461 22.6408 21.2395 22.3874 20.217 22.3872V22.382Z" fill="#E0E0E0"/>
<path d="M15.5596 26.5426C15.5596 26.5426 15.1233 27.2751 16.3518 27.8179L17.6297 28.3737L18.1777 33.0048L18.8089 33.2229L19.9387 29.3997L23.4217 30.4386L24.1152 31.2957L24.9775 29.2179L23.9204 29.4205L20.6244 27.7478L22.3334 24.2544L21.762 23.9453L18.1777 26.8751L17.0791 26.3348C17.0791 26.3348 16.0531 25.6284 15.5596 26.5426Z" fill="#E0E0E0"/>
<path d="M34.3436 34.0936L14.6719 42.918L14.7782 43.1549L34.45 34.3306L34.3436 34.0936Z" fill="#E0E0E0"/>
<path d="M82.161 63.3608L58.47 55.7453C56.9009 55.2409 55.22 56.104 54.7156 57.6732L43.4685 92.6619C42.9641 94.231 43.8272 95.912 45.3963 96.4164L69.0873 104.032C70.6564 104.536 72.3373 103.673 72.8417 102.104L84.0889 67.1152C84.5933 65.5461 83.7301 63.8652 82.161 63.3608Z" fill="#263238"/>
<path d="M64.1754 89.0526C63.5652 89.0508 62.9565 88.9916 62.3573 88.876C57.3107 87.8968 53.981 83.1125 54.9316 78.214C55.1579 77.0396 55.6198 75.9232 56.2894 74.9322C56.9589 73.9412 57.8224 73.0961 58.8275 72.4479C60.8908 71.1153 63.3896 70.6322 65.8009 71.0998C68.2122 71.5675 70.3493 72.9496 71.7648 74.957C72.4546 75.9341 72.9398 77.0406 73.1911 78.2101C73.4424 79.3795 73.4546 80.5877 73.2271 81.7619C72.3881 86.0657 68.5233 89.0526 64.1754 89.0526ZM63.952 71.1831C62.1808 71.181 60.4475 71.6965 58.9652 72.6661C57.9888 73.2951 57.1499 74.1153 56.4991 75.0773C55.8483 76.0393 55.399 77.1231 55.1783 78.2633C54.2537 83.0216 57.4925 87.6682 62.3989 88.6188C62.984 88.734 63.579 88.7923 64.1754 88.7929C68.4012 88.7929 72.157 85.8943 72.9673 81.7126C73.1875 80.5735 73.1751 79.4017 72.931 78.2676C72.6869 77.1334 72.216 76.0604 71.5466 75.1128C70.178 73.1529 68.0959 71.8074 65.7468 71.3649C65.1558 71.2467 64.5547 71.1859 63.952 71.1831Z" fill="#0536B3"/>
<path d="M64.8264 87.1322C63.7574 87.1284 62.6971 86.9413 61.6914 86.579C54.915 84.1999 55.1592 77.0702 55.1618 77.0001V76.9585L55.1877 76.9274C55.2293 76.8728 59.4162 71.4315 66.0523 73.8106C72.6885 76.1897 72.956 82.6934 72.9586 82.7584V82.8025L72.9326 82.8389C72.8988 82.9038 69.8002 87.1322 64.8264 87.1322ZM55.4189 77.0521C55.4189 77.6261 55.4501 84.1142 61.7771 86.3349C68.1042 88.5556 72.3248 83.2181 72.6859 82.7272C72.6521 82.1584 72.13 76.2755 65.9536 74.0573C59.7772 71.8392 55.7721 76.6105 55.4189 77.0521Z" fill="#0536B3"/>
<path d="M67.2184 84.5525C65.7297 84.5309 64.2567 84.2451 62.8679 83.7083C55.624 81.0435 55.2552 77.4566 55.2422 77.3059V77.2306L55.3045 77.1891C55.3409 77.1631 59.1096 74.6125 65.1198 76.7371C71.13 78.8617 72.5325 82.285 72.5897 82.4304L72.6182 82.5032L72.5663 82.5629C72.5403 82.5889 70.8131 84.5525 67.2184 84.5525ZM55.5123 77.3605C55.611 77.88 56.4577 81.0747 62.9562 83.4642C68.8833 85.6433 71.878 82.898 72.3066 82.4538C72.065 81.9344 70.4261 78.8955 65.0341 76.9813C59.5771 75.0541 56.0344 77.0358 55.5123 77.3605Z" fill="#0536B3"/>
<path d="M55.4084 77.1729L55.3281 77.4199L72.4234 82.9778L72.5037 82.7308L55.4084 77.1729Z" fill="#0536B3"/>
<path d="M61.9405 88.6447C61.7331 88.648 61.5257 88.6376 61.3197 88.6135L61.2704 88.5979C61.2106 88.5615 55.3251 84.9617 57.777 78.3411C59.1951 74.5075 61.569 72.8114 63.3118 72.066C64.4084 71.5764 65.5993 71.3343 66.8 71.3569H66.839L66.8702 71.3803C66.9299 71.4244 72.7037 75.9594 70.0856 82.6475C68.7194 86.1382 66.4104 87.5824 64.7144 88.1667C63.8223 88.4773 62.8851 88.6387 61.9405 88.6447ZM61.382 88.3589C61.8158 88.4031 67.3896 88.8265 69.8441 82.5539C72.2986 76.2814 67.1948 71.9803 66.7429 71.614C66.2234 71.5933 60.5561 71.5751 58.0185 78.432C55.7199 84.6474 60.9846 88.0992 61.382 88.3589Z" fill="#0536B3"/>
<path d="M61.2917 88.6185L61.2528 88.5769C61.2216 88.5458 58.1879 85.2524 60.3723 79.25C62.8943 72.3151 66.6058 71.3983 66.7721 71.3619L66.85 71.3438L66.9019 71.4061C66.9279 71.4399 69.6629 74.9073 67.4214 81.2162C64.8241 88.4886 61.4969 88.6159 61.354 88.6185H61.2917ZM66.7461 71.6372C66.1954 71.8139 62.8813 73.1021 60.6138 79.3383C59.4996 82.4005 59.7853 84.7069 60.2242 86.0913C60.4657 86.911 60.8645 87.6759 61.3982 88.3432C61.8423 88.2886 64.8215 87.6913 67.1642 81.1175C68.3149 77.8968 68.1253 75.4683 67.7642 74.0008C67.5729 73.1563 67.2278 72.3542 66.7461 71.6346V71.6372Z" fill="#0536B3"/>
<path d="M66.6588 71.4325L61.2188 88.4375L61.4661 88.5166L66.9062 71.5117L66.6588 71.4325Z" fill="#0536B3"/>
<path d="M63.0007 93.5573L57.7734 91.877L57.5382 92.6089L62.7655 94.2892L63.0007 93.5573Z" fill="white"/>
<path d="M46.4222 96.7493C46.3858 96.7363 49.3935 87.6587 53.1389 76.4721C56.8842 65.2854 59.9516 56.213 59.988 56.2364C60.0244 56.2597 57.0141 65.327 53.2687 76.5136C49.5234 87.7003 46.456 96.7597 46.4222 96.7493Z" fill="#263238"/>
<path d="M76.3287 68.2582L60.3477 63.1211L59.9216 64.4465L75.9027 69.5836L76.3287 68.2582Z" fill="white"/>
<path d="M41.8705 35.5508C41.8705 35.5508 42.2731 38.078 42.4471 38.6312C42.6212 39.1844 43.4653 41.4493 43.203 42.8129C42.9406 44.1765 42.2316 44.9219 40.8862 44.7816L40.855 44.0025C40.855 44.0025 42.2731 44.0025 42.3303 42.87C42.3874 41.7376 42.0705 39.9065 41.403 39.2675C41.21 39.0726 40.95 38.9584 40.6758 38.9481V35.5508H41.8705Z" fill="#455A64"/>
<path d="M60.3954 4.26493C60.3954 4.26493 53.219 3.91949 51.5645 3.96105C49.7318 3.95997 47.9039 4.14886 46.1101 4.52466C44.0323 4.99218 42.6064 5.57917 41.8635 6.29863L42.383 4.59739C42.383 4.59739 46.0556 0.155978 48.0322 0.052085C50.0087 -0.0518077 53.5982 0.727387 55.7825 1.76891C57.9669 2.81044 60.3954 4.26493 60.3954 4.26493Z" fill="#0536B3"/>
<path opacity="0.3" d="M60.3954 4.26493C60.3954 4.26493 53.219 3.91949 51.5645 3.96105C49.7318 3.95997 47.9039 4.14886 46.1101 4.52466C44.0323 4.99218 42.6064 5.57917 41.8635 6.29863L42.383 4.59739C42.383 4.59739 46.0556 0.155978 48.0322 0.052085C50.0087 -0.0518077 53.5982 0.727387 55.7825 1.76891C57.9669 2.81044 60.3954 4.26493 60.3954 4.26493Z" fill="black"/>
<path d="M75.834 56.2019L70.3589 48.6697L62.7955 39.4856L55.9152 30.4677L47.8116 20.5434C47.8116 20.5434 44.2818 16.8682 42.0144 18.0941C41.6169 18.5345 41.4104 19.1146 41.4403 19.707L41.7572 22.8628C41.7364 22.642 44.3182 25.8367 44.3182 25.8367L53.1075 37.5064L62.3643 49.0333C62.3643 49.0333 70.577 58.7239 71.3329 59.6226C72.0887 60.5212 73.2783 61.8926 74.5042 61.2095C74.9623 60.9578 75.3155 60.5508 75.5003 60.0618C75.685 59.5728 75.6892 59.0339 75.5119 58.5421C75.26 57.859 75.834 56.2019 75.834 56.2019Z" fill="#0536B3"/>
<path opacity="0.3" d="M75.834 56.2019L70.3589 48.6697L62.7955 39.4856L55.9152 30.4677L47.8116 20.5434C47.8116 20.5434 44.2818 16.8682 42.0144 18.0941C41.6169 18.5345 41.4104 19.1146 41.4403 19.707L41.7572 22.8628C41.7364 22.642 44.3182 25.8367 44.3182 25.8367L53.1075 37.5064L62.3643 49.0333C62.3643 49.0333 70.577 58.7239 71.3329 59.6226C72.0887 60.5212 73.2783 61.8926 74.5042 61.2095C74.9623 60.9578 75.3155 60.5508 75.5003 60.0618C75.685 59.5728 75.6892 59.0339 75.5119 58.5421C75.26 57.859 75.834 56.2019 75.834 56.2019Z" fill="black"/>
<path d="M79.902 52.1442C79.8578 51.8247 79.8293 51.6247 79.8293 51.6247L77.8527 42.7081L74.4268 26.9424C74.4268 26.9424 72.2737 17.4492 71.5984 15.735C70.9231 14.0207 65.8271 7.91965 63.8895 6.43398C63.2714 5.96387 61.7415 4.93793 60.9649 4.49379C60.9649 4.49379 55.7184 1.30948 51.9964 0.519895C48.2745 -0.269689 46.8719 -0.661884 43.6512 3.16656L43.2305 4.08341C43.2305 4.08341 46.9083 0.873129 47.4693 0.636774C48.0303 0.400418 50.9731 0.577036 53.1522 1.25494C55.3314 1.93283 60.1026 4.50678 60.1208 4.51716C61.2688 5.22623 64.1207 7.04955 64.4531 7.79498C64.9325 8.7414 65.2494 9.76162 65.3908 10.8131C65.7388 12.9429 66.5466 15.748 67.0401 17.8258C67.0401 17.8258 69.0634 27.1216 69.2764 27.8748C70.3724 31.7085 72.6762 45.6535 72.6762 45.6535C72.6762 45.6535 74.8242 57.3076 74.897 57.957C74.9697 58.6063 75.4684 60.5543 73.8321 61.3776L80.0474 59.9361C80.0474 59.9361 80.5877 59.7933 80.624 58.6037C80.6526 57.6479 80.102 53.5857 79.902 52.1442Z" fill="#0536B3"/>
<path d="M18.8516 41.248V98.3604H62.1229V41.248H18.8516ZM31.942 45.6323H27.724C27.6087 45.6387 27.4933 45.6215 27.3848 45.5818C27.2764 45.542 27.1772 45.4806 27.0933 45.4012C27.0094 45.3219 26.9426 45.2262 26.8969 45.1201C26.8513 45.0141 26.8277 44.8998 26.8277 44.7843C26.8277 44.6688 26.8513 44.5545 26.8969 44.4485C26.9426 44.3424 27.0094 44.2467 27.0933 44.1674C27.1772 44.088 27.2764 44.0266 27.3848 43.9868C27.4933 43.9471 27.6087 43.9299 27.724 43.9363H31.942C32.1588 43.9483 32.3628 44.0428 32.512 44.2006C32.6613 44.3583 32.7444 44.5672 32.7444 44.7843C32.7444 45.0014 32.6613 45.2103 32.512 45.368C32.3628 45.5257 32.1588 45.6203 31.942 45.6323ZM40.8326 45.6323C40.6076 45.6323 40.3877 45.5656 40.2006 45.4406C40.0135 45.3156 39.8677 45.1379 39.7816 44.93C39.6955 44.7222 39.673 44.4934 39.7169 44.2728C39.7608 44.0521 39.8691 43.8494 40.0282 43.6903C40.1873 43.5312 40.39 43.4228 40.6107 43.3789C40.8314 43.335 41.0601 43.3576 41.268 43.4437C41.4759 43.5298 41.6535 43.6756 41.7786 43.8627C41.9036 44.0497 41.9703 44.2697 41.9703 44.4947C41.9703 44.6445 41.9407 44.7929 41.8832 44.9312C41.8257 45.0696 41.7414 45.1952 41.6352 45.301C41.5291 45.4067 41.403 45.4904 41.2644 45.5472C41.1258 45.6041 40.9773 45.633 40.8275 45.6323H40.8326ZM53.9101 45.6323H49.6895C49.4727 45.6203 49.2687 45.5257 49.1195 45.368C48.9703 45.2103 48.8871 45.0014 48.8871 44.7843C48.8871 44.5672 48.9703 44.3583 49.1195 44.2006C49.2687 44.0428 49.4727 43.9483 49.6895 43.9363H53.9049C54.1217 43.9483 54.3257 44.0428 54.4749 44.2006C54.6242 44.3583 54.7073 44.5672 54.7073 44.7843C54.7073 45.0014 54.6242 45.2103 54.4749 45.368C54.3257 45.5257 54.1217 45.6203 53.9049 45.6323H53.9101Z" fill="white"/>
<path d="M53.9052 45.6321C54.0814 45.6111 54.2493 45.5459 54.3935 45.4425C54.5186 45.348 54.6135 45.2192 54.6666 45.0718C54.7197 44.9243 54.7288 44.7646 54.6928 44.612C54.6567 44.4595 54.577 44.3208 54.4635 44.2127C54.3499 44.1047 54.2074 44.032 54.0533 44.0036C53.8803 43.9929 53.7068 43.9929 53.5338 44.0036H52.3676H49.6898C49.5829 44.0033 49.4772 44.0251 49.3791 44.0674C49.281 44.1098 49.1927 44.1719 49.1196 44.2498C49.0465 44.3278 48.9902 44.4199 48.9543 44.5206C48.9183 44.6212 48.9035 44.7281 48.9106 44.8347C48.922 45.0363 49.0112 45.2257 49.1595 45.3628C49.3077 45.4999 49.5035 45.5741 49.7054 45.5698L51.8897 45.5853L53.365 45.6061H53.765C53.8121 45.6033 53.8594 45.6077 53.9052 45.6191C53.8591 45.6289 53.8121 45.6332 53.765 45.6321H53.365L51.8897 45.6529L49.7054 45.6685C49.4769 45.6712 49.2556 45.5888 49.0846 45.4373C48.994 45.357 48.9202 45.2595 48.8677 45.1505C48.8152 45.0414 48.7849 44.923 48.7786 44.8021C48.7723 44.6812 48.7901 44.5603 48.8311 44.4464C48.872 44.3325 48.9353 44.2279 49.0171 44.1386C49.1025 44.0451 49.2064 43.9702 49.3221 43.9188C49.4379 43.8674 49.5631 43.8406 49.6898 43.8399H52.3676H53.5338C53.7132 43.8343 53.8928 43.8403 54.0715 43.8581C54.2419 43.8928 54.3988 43.9757 54.5234 44.0971C54.631 44.1991 54.7112 44.3265 54.7566 44.4677C54.802 44.6089 54.8111 44.7592 54.7831 44.9048C54.7416 45.1232 54.6168 45.317 54.4351 45.4451C54.323 45.5248 54.1925 45.5748 54.0559 45.5905C54.0091 45.6146 53.9578 45.6288 53.9052 45.6321Z" fill="#263238"/>
<path d="M40.8279 45.6332C40.8279 45.6203 40.9292 45.6203 41.0876 45.5709C41.3272 45.5022 41.5373 45.3561 41.685 45.1553C41.7909 45.0091 41.8594 44.839 41.8843 44.6602C41.9092 44.4813 41.8898 44.2991 41.8279 44.1294C41.7512 43.9232 41.6134 43.7454 41.4328 43.6199C41.2522 43.4943 41.0375 43.427 40.8175 43.427C40.5976 43.427 40.3829 43.4943 40.2023 43.6199C40.0217 43.7454 39.8838 43.9232 39.8072 44.1294C39.7446 44.2989 39.7248 44.4813 39.7498 44.6603C39.7747 44.8393 39.8435 45.0094 39.95 45.1553C40.0973 45.3554 40.3063 45.5014 40.5448 45.5709C40.7162 45.6203 40.8175 45.6203 40.8175 45.6332C40.8175 45.6462 40.7916 45.6332 40.7448 45.6332C40.6732 45.6348 40.6017 45.6279 40.5318 45.6125C40.2712 45.5576 40.0384 45.4122 39.8747 45.2021C39.7508 45.0453 39.6688 44.8596 39.6365 44.6624C39.6043 44.4651 39.6228 44.2629 39.6903 44.0749C39.7735 43.8425 39.9265 43.6416 40.1282 43.4996C40.33 43.3575 40.5708 43.2812 40.8175 43.2812C41.0643 43.2812 41.305 43.3575 41.5068 43.4996C41.7086 43.6416 41.8615 43.8425 41.9448 44.0749C42.0115 44.2631 42.0297 44.4651 41.9974 44.6622C41.9652 44.8593 41.8836 45.045 41.7604 45.2021C41.5962 45.4129 41.3623 45.5584 41.1006 45.6125C41.0316 45.6278 40.961 45.6348 40.8902 45.6332C40.8539 45.641 40.8279 45.6384 40.8279 45.6332Z" fill="#263238"/>
<path d="M31.9404 45.6321C32.1165 45.6111 32.2845 45.5459 32.4287 45.4425C32.5218 45.371 32.5983 45.2801 32.6529 45.1762C32.7075 45.0723 32.739 44.9578 32.7452 44.8406C32.7514 44.7233 32.7321 44.6062 32.6886 44.4971C32.6452 44.388 32.5787 44.2897 32.4936 44.2088C32.382 44.103 32.2422 44.0317 32.091 44.0036C31.918 43.9929 31.7446 43.9929 31.5716 44.0036H30.4028H27.7275C27.6207 44.0033 27.5149 44.0251 27.4168 44.0674C27.3188 44.1098 27.2304 44.1719 27.1574 44.2498C27.0843 44.3278 27.028 44.4199 26.992 44.5206C26.9561 44.6212 26.9412 44.7281 26.9483 44.8347C26.9597 45.0359 27.0486 45.2248 27.1963 45.3619C27.344 45.4989 27.5391 45.5734 27.7405 45.5698L29.9275 45.5853L31.4001 45.6061H31.8001C31.8473 45.603 31.8946 45.6074 31.9404 45.6191C31.8943 45.6291 31.8472 45.6335 31.8001 45.6321H31.4001L29.9275 45.6529L27.7405 45.6685C27.5121 45.671 27.2909 45.5886 27.1198 45.4373C27.0291 45.357 26.9554 45.2595 26.9029 45.1505C26.8503 45.0414 26.82 44.923 26.8137 44.8021C26.8074 44.6812 26.8253 44.5603 26.8662 44.4464C26.9072 44.3325 26.9704 44.2279 27.0522 44.1386C27.1383 44.0452 27.2427 43.9705 27.3589 43.9192C27.475 43.8678 27.6005 43.8408 27.7275 43.8399H30.4028H31.5716C31.751 43.8343 31.9306 43.8403 32.1092 43.8581C32.2795 43.8933 32.4362 43.9762 32.5611 44.0971C32.668 44.1996 32.7477 44.3272 32.793 44.4682C32.8383 44.6092 32.8479 44.7592 32.8209 44.9048C32.7784 45.1236 32.6527 45.3172 32.4702 45.4451C32.3583 45.5252 32.2278 45.5752 32.091 45.5905C32.0441 45.6144 31.9929 45.6286 31.9404 45.6321Z" fill="#263238"/>
<path d="M18.8514 41.2485L62.1227 41.1914H62.1798V41.2485C62.1798 57.4012 62.1798 77.1071 62.1928 98.3557V98.4284H62.1227H18.8514H18.7891V98.3687C18.8228 64.5205 18.8488 41.7913 18.8488 41.2563C18.8488 41.7913 18.8748 64.5205 18.9085 98.3687L18.8488 98.3064H62.1201L62.0526 98.3739C62.0526 77.1252 62.0526 57.4194 62.0656 41.2667L62.1201 41.3212L18.8514 41.2485Z" fill="#263238"/>
<path d="M55.7806 67.595C55.5354 67.5955 55.2956 67.5233 55.0916 67.3875C54.8875 67.2517 54.7283 67.0584 54.6341 66.832C54.54 66.6057 54.515 66.3565 54.5626 66.116C54.6101 65.8755 54.7279 65.6545 54.901 65.481C55.0742 65.3075 55.2949 65.1892 55.5353 65.1412C55.7757 65.0932 56.025 65.1176 56.2515 65.2112C56.478 65.3049 56.6717 65.4637 56.8079 65.6675C56.9442 65.8713 57.0169 66.111 57.0169 66.3561C57.0162 66.684 56.8858 66.9984 56.6542 67.2305C56.4226 67.4626 56.1085 67.5937 55.7806 67.595ZM55.7806 65.3769C55.5868 65.3764 55.3972 65.4334 55.2359 65.5407C55.0745 65.648 54.9486 65.8007 54.8741 65.9796C54.7996 66.1585 54.7798 66.3554 54.8173 66.5455C54.8548 66.7357 54.9478 66.9104 55.0847 67.0476C55.2215 67.1848 55.396 67.2783 55.586 67.3163C55.776 67.3543 55.973 67.335 56.1521 67.261C56.3312 67.187 56.4843 67.0615 56.592 66.9004C56.6997 66.7393 56.7572 66.5499 56.7572 66.3561C56.7572 66.0969 56.6544 65.8482 56.4713 65.6646C56.2882 65.4811 56.0398 65.3776 55.7806 65.3769Z" fill="#0536B3"/>
<path d="M56.7915 71.9326C57.0971 71.9326 57.3447 71.6849 57.3447 71.3794C57.3447 71.0739 57.0971 70.8262 56.7915 70.8262C56.486 70.8262 56.2383 71.0739 56.2383 71.3794C56.2383 71.6849 56.486 71.9326 56.7915 71.9326Z" fill="#0536B3"/>
<path d="M28.5655 54.3492L27.7422 53.5284L28.5655 52.7051L29.3889 53.5284L28.5655 54.3492ZM28.111 53.5284L28.5655 53.983L29.0227 53.5284L28.5655 53.0713L28.111 53.5284Z" fill="#0536B3"/>
<path d="M25.8711 84.3477L26.8763 84.8983L27.8788 85.4515L26.897 86.0437L25.9178 86.6359L25.8945 85.4931L25.8711 84.3477Z" fill="#0536B3"/>
<path d="M47.5604 77.1424L47.524 77.1632L46.6539 75.371L46.5136 75.3398L46.2539 79.7345L46.4357 81.363C47.8746 80.8098 49.3213 80.1553 49.2097 79.7864C49.1499 79.5916 48.4746 78.4281 47.6928 77.119C47.6387 77.1498 47.5799 77.1718 47.5188 77.1839L47.5604 77.1424Z" fill="#EBEBEB"/>
<path d="M44.8162 63.3965C44.8009 63.6893 44.6733 63.965 44.46 64.1662C44.2467 64.3674 43.964 64.4787 43.6708 64.477C43.3727 64.4559 43.0857 64.3551 42.8398 64.1852C42.594 64.0152 42.3984 63.7823 42.2734 63.5108V65.4639C42.3202 65.4639 42.3488 65.451 42.3514 65.4639C45.2084 65.6484 47.3148 66.8847 48.8992 69.0482C48.8992 69.0482 51.3407 72.4248 52.5354 74.4091L52.203 74.5935C52.2089 74.607 52.2158 74.62 52.2238 74.6325C52.3627 74.5527 52.5099 74.4883 52.6627 74.4403C52.5372 74.541 52.4014 74.628 52.2575 74.7C52.4237 75.0039 52.5874 75.313 52.7458 75.6298C52.7666 75.3545 52.7796 75.0792 52.7796 74.7987C52.7794 72.4978 52.1239 70.2445 50.8898 68.3025C49.6557 66.3605 47.8941 64.8101 45.811 63.8328C45.4863 63.8024 45.1789 63.6727 44.9305 63.4614L44.8162 63.3965Z" fill="#EBEBEB"/>
<path d="M37.5235 65.453C37.5235 65.453 37.5495 65.453 37.5936 65.453C37.5729 64.7673 37.5365 63.8296 37.5209 63.4245L37.5079 63.2219C37.4101 63.2095 37.3131 63.1922 37.217 63.1699C35.5607 63.666 34.0294 64.51 32.7255 65.6454C31.4216 66.7809 30.3752 68.1817 29.6562 69.7541L32.1003 67.9022C34.0769 66.4529 35.3859 65.5439 37.5235 65.453Z" fill="#EBEBEB"/>
<path d="M34.0612 78.1664C34.321 78.6261 34.5339 78.8806 34.5209 78.8936C34.508 78.9066 34.4456 78.8391 34.3417 78.7144C34.1968 78.5365 34.0641 78.3491 33.9443 78.1534C33.7911 77.8937 33.6119 77.6183 33.4249 77.2677C33.2684 76.8717 33.2018 76.4459 33.2301 76.021C33.2288 76.0063 33.2288 75.9915 33.2301 75.9768C33.217 75.5076 33.291 75.04 33.4483 74.5977L32.0717 75.5742C31.8549 75.3672 31.6494 75.1488 31.4561 74.9197L31.3418 74.7951C30.4658 75.3064 29.5642 75.7728 28.6406 76.1924C28.8531 78.0175 29.478 79.7704 30.4679 81.3184C31.4579 82.8663 32.787 84.1688 34.3547 85.1272L34.5573 78.8339C34.3859 78.6079 34.2145 78.3845 34.0612 78.1664Z" fill="#EBEBEB"/>
<path d="M53.0734 76.255C52.9695 76.0394 52.863 75.8238 52.754 75.6134C52.5955 75.2965 52.4319 74.9875 52.2657 74.6836C51.8163 74.9433 51.0319 75.3797 50.1333 75.8576C49.0268 76.4498 48.0788 76.9354 47.7022 77.1069C48.4814 78.4055 49.1593 79.5795 49.219 79.7743C49.3307 80.1431 47.884 80.7977 46.4451 81.3509L46.8736 85.1793C46.9489 85.1326 47.0269 85.091 47.1048 85.0443C48.6719 84.0931 50.016 82.8159 51.0458 81.2993C52.0757 79.7827 52.7672 78.0624 53.0734 76.255Z" fill="#FFBE9D"/>
<path d="M29.9907 73.3404C29.4089 72.7275 28.8946 72.1586 28.5414 71.7301C28.3725 71.5301 28.2401 71.3639 28.1492 71.2418C27.4609 71.7249 26.97 71.995 26.9258 71.8184C26.0583 68.2601 26.3025 63.72 26.4427 61.9798C26.5388 61.8291 26.6505 61.6655 26.783 61.4837C26.936 61.2748 27.123 61.093 27.3362 60.946C27.5925 60.7503 27.8749 60.5912 28.1751 60.4733C28.4608 60.3928 28.5076 60.0136 28.2582 59.9227C28.0089 59.8318 27.2193 60.0344 26.4869 60.6473C25.7544 61.2603 26.0531 59.8032 26.1518 59.2734C26.2505 58.7435 26.4817 57.0812 26.3414 56.9358C26.1336 56.7072 25.8453 56.889 25.757 57.4215C25.6687 57.9539 25.2973 59.5409 25.0194 59.4811C24.7415 59.4214 25.2791 56.7202 25.2791 56.7202C25.2791 56.7202 25.4895 56.1592 25.17 56.0813C24.5908 55.9384 24.2272 58.85 24.1986 59.1279C24.1805 59.3201 23.874 59.2682 23.9051 59.063C23.9363 58.8578 24.5103 56.3748 23.9233 56.2267C23.4714 56.1098 23.6013 58.6188 23.1961 59.0838C22.7909 59.5487 23.2948 57.1669 22.8584 57.076C22.6974 57.0423 22.5701 57.0371 22.4792 58.437C22.4584 59.5639 22.4992 60.6911 22.6013 61.8135C22.2169 65.6524 21.8065 78.9091 26.7752 77C27.4401 76.7403 28.0609 76.4806 28.6453 76.2208C29.5688 75.8013 30.4704 75.3349 31.3465 74.8235C30.9906 74.4001 30.5179 73.8988 29.9907 73.3404Z" fill="#FFBE9D"/>
<path d="M44.1215 86.1297C44.0851 85.9479 44.3267 85.9427 44.3267 85.9427C44.3267 85.9427 44.0669 85.683 44.215 85.5116C44.363 85.3402 44.6825 85.6259 44.6825 85.6259C44.6825 85.6259 44.7474 85.4259 44.8721 85.4337C44.9968 85.4414 45.1007 85.7713 45.1007 85.7713C45.1007 85.7713 45.1812 85.6336 45.2877 85.6726C45.3266 85.6726 45.3786 85.7765 45.4201 85.9038C45.92 85.6937 46.4058 85.4516 46.8746 85.1791L46.4461 81.3455L46.2643 79.717L46.524 75.3223L46.6643 75.3535L47.5266 77.1638L47.5629 77.143C47.7473 77.008 48.7941 76.4236 50.0719 75.7379L50.9862 75.2548L52.2017 74.5925L52.5264 74.4132C51.342 72.4393 48.8902 69.0524 48.8902 69.0524C47.3058 66.8888 45.202 65.6525 42.3423 65.4681C42.1247 65.5744 41.8942 65.6521 41.6566 65.6992C41.0887 65.8376 40.5062 65.9074 39.9216 65.907C39.337 65.9054 38.7547 65.8348 38.1866 65.6966C37.9481 65.6516 37.7172 65.5729 37.5009 65.4629C35.3633 65.5538 34.0543 66.4629 32.0777 67.9173L29.6337 69.7692L27.9766 71.0263C28.1946 71.2311 28.4002 71.4488 28.5921 71.6783C28.9635 72.0886 29.4856 72.6445 30.0674 73.2574C30.6492 73.8704 31.1609 74.4392 31.5167 74.8678C31.6933 75.0808 31.8336 75.2574 31.9245 75.3872C31.9785 75.4483 32.0239 75.5165 32.0595 75.5898L33.4361 74.6132C33.2788 75.0555 33.2049 75.5232 33.2179 75.9924C33.2198 75.7898 33.2363 75.5875 33.2673 75.3872C33.3043 75.1865 33.3582 74.9893 33.4283 74.7976C33.5531 74.4782 33.7172 74.1754 33.9166 73.8964C34.0496 73.7089 34.1945 73.5302 34.3504 73.3613C34.4041 73.2964 34.4661 73.2388 34.5348 73.1899C34.553 73.2055 34.3114 73.4704 33.9971 73.9509C33.8123 74.2289 33.6615 74.528 33.5478 74.8418C33.4123 75.2263 33.3455 75.6316 33.3504 76.0392C33.3247 76.4452 33.384 76.8521 33.5244 77.2339C33.6855 77.5638 33.8647 77.8703 34.0023 78.1196L34.0387 78.1819C34.1919 78.4001 34.3634 78.6235 34.5582 78.8495L34.3556 85.1428V85.3505C34.8583 85.6265 35.3789 85.8686 35.914 86.0752C35.9503 85.9713 36.114 85.9661 36.114 85.9661C36.114 85.9661 35.8542 85.7064 36.0023 85.5324C36.1503 85.3583 36.4698 85.6466 36.4698 85.6466C36.4698 85.6466 36.5347 85.4492 36.6594 85.4544C36.7841 85.4596 36.888 85.7947 36.888 85.7947C36.888 85.7947 36.9685 85.657 37.075 85.6934C37.1815 85.7297 37.3347 86.1401 37.2464 86.5012C38.2959 86.7719 39.3754 86.909 40.4593 86.9089H40.5554C41.8087 86.903 43.0542 86.7113 44.2513 86.3401C44.2169 86.3153 44.1877 86.284 44.1654 86.2479C44.1431 86.2118 44.1282 86.1716 44.1215 86.1297ZM44.9007 82.2338C44.8724 82.2338 44.8454 82.2225 44.8254 82.2026C44.8054 82.1826 44.7942 82.1555 44.7942 82.1273C44.7942 82.099 44.8054 82.0719 44.8254 82.052C44.8454 82.032 44.8724 82.0208 44.9007 82.0208C44.9243 82.0258 44.9456 82.0387 44.9609 82.0574C44.9763 82.0761 44.9848 82.0994 44.9851 82.1236C44.9854 82.1478 44.9775 82.1714 44.9626 82.1905C44.9477 82.2095 44.9268 82.223 44.9033 82.2286L44.9007 82.2338ZM47.2772 72.6964H47.2357C47.2191 72.6932 47.2041 72.6844 47.1933 72.6713C47.1825 72.6583 47.1766 72.6419 47.1766 72.625C47.1766 72.6081 47.1825 72.5917 47.1933 72.5787C47.2041 72.5656 47.2191 72.5567 47.2357 72.5536H47.2772C47.3759 72.5354 47.3759 72.699 47.2798 72.6912L47.2772 72.6964ZM48.9447 75.421C48.9447 75.421 48.8668 75.4833 48.7551 75.3405C48.7551 75.3405 48.7941 75.634 48.6434 75.7431C48.4928 75.8522 48.3837 75.634 48.3837 75.634C48.3837 75.634 48.2694 75.982 48.0382 75.9197C47.8071 75.8573 47.9447 75.4496 47.9447 75.4496C47.9447 75.4496 47.7369 75.4729 47.685 75.3587C47.633 75.2444 47.8928 75.008 47.8928 75.008C47.8928 75.008 47.7369 74.9924 47.724 74.8808C47.711 74.7691 48.1655 74.3223 48.6122 74.3613C48.6706 74.2042 48.7482 74.055 48.8434 73.9172C48.8153 74.0756 48.7655 74.2294 48.6954 74.3743C48.7811 74.4418 49.2148 74.9924 48.9473 75.4158L48.9447 75.421ZM50.8641 73.8626C50.8404 73.8588 50.8188 73.8466 50.8032 73.8283C50.7876 73.81 50.779 73.7867 50.779 73.7626C50.779 73.7385 50.7876 73.7153 50.8032 73.6969C50.8188 73.6786 50.8404 73.6665 50.8641 73.6626C50.8879 73.6661 50.9097 73.678 50.9256 73.6961C50.9414 73.7143 50.9503 73.7374 50.9506 73.7615C50.9509 73.7856 50.9426 73.809 50.9273 73.8275C50.9119 73.846 50.8904 73.8585 50.8667 73.8626H50.8641ZM47.911 70.177C48.0668 69.9952 48.3759 70.2913 48.3759 70.2913C48.3759 70.2913 48.4434 70.0939 48.5655 70.0991C48.6876 70.1043 48.7967 70.4393 48.7967 70.4393C48.7967 70.4393 48.8746 70.3017 48.9837 70.3381C49.0927 70.3744 49.3057 70.9796 49.0694 71.364C49.1869 71.4817 49.2882 71.6144 49.3707 71.7588C49.2393 71.6653 49.1214 71.5543 49.02 71.4289C48.9317 71.4679 48.2408 71.6289 47.9811 71.203C47.9811 71.203 47.9577 71.1069 48.1343 71.0653C48.1343 71.0653 47.8538 70.977 47.8175 70.8056C47.7811 70.6341 48.0253 70.6212 48.0253 70.6212C48.0253 70.6212 47.7551 70.3562 47.911 70.177ZM45.7682 67.468C45.7888 67.468 45.8087 67.4762 45.8233 67.4908C45.8379 67.5055 45.8461 67.5253 45.8461 67.5459C45.8461 67.5666 45.8379 67.5864 45.8233 67.601C45.8087 67.6156 45.7888 67.6239 45.7682 67.6239C45.7468 67.6239 45.7263 67.6154 45.7112 67.6003C45.6961 67.5852 45.6877 67.5647 45.6877 67.5433C45.6877 67.522 45.6961 67.5015 45.7112 67.4864C45.7263 67.4713 45.7468 67.4628 45.7682 67.4628V67.468ZM45.3786 69.8238C45.3993 69.8238 45.4191 69.832 45.4337 69.8466C45.4483 69.8612 45.4565 69.881 45.4565 69.9017C45.4565 69.9224 45.4483 69.9422 45.4337 69.9568C45.4191 69.9714 45.3993 69.9796 45.3786 69.9796C45.3572 69.9796 45.3368 69.9711 45.3216 69.956C45.3065 69.9409 45.2981 69.9205 45.2981 69.8991C45.2981 69.8777 45.3065 69.8573 45.3216 69.8422C45.3368 69.8271 45.3572 69.8186 45.3786 69.8186V69.8238ZM45.0643 76.1794C45.1214 76.2366 45.0851 76.3664 44.9916 76.356H44.9682C44.9475 76.3547 44.9281 76.3458 44.9136 76.3309C44.8992 76.316 44.8909 76.2962 44.8903 76.2755V76.2547C44.8747 76.1508 45.0072 76.1145 45.0643 76.1742V76.1794ZM43.8903 73.1483C43.9128 73.1521 43.9332 73.1637 43.9479 73.181C43.9626 73.1984 43.9707 73.2204 43.9707 73.2431C43.9707 73.2659 43.9626 73.2879 43.9479 73.3053C43.9332 73.3227 43.9128 73.3342 43.8903 73.338C43.8679 73.3342 43.8475 73.3227 43.8328 73.3053C43.818 73.2879 43.81 73.2659 43.81 73.2431C43.81 73.2204 43.818 73.1984 43.8328 73.181C43.8475 73.1637 43.8679 73.1521 43.8903 73.1483ZM42.4904 67.0602C42.4904 67.0602 42.5683 67.0005 42.6774 67.1459C42.6774 67.1459 42.6462 66.8525 42.7994 66.7486C42.9527 66.6447 43.0592 66.868 43.0592 66.868C43.0592 66.868 43.1838 66.5226 43.415 66.5953C43.6462 66.668 43.4903 67.068 43.4903 67.068C43.4903 67.068 43.7007 67.0524 43.7501 67.1667C43.7994 67.281 43.5293 67.5096 43.5293 67.5096C43.5293 67.5096 43.6877 67.5304 43.6955 67.6446C43.7033 67.7589 43.2332 68.1875 42.7865 68.1199C42.7244 68.2754 42.6423 68.4221 42.5423 68.5563C42.5746 68.3985 42.6297 68.2462 42.7059 68.1044C42.6202 68.0316 42.2047 67.468 42.4904 67.0602ZM40.4774 78.7014H40.5164C40.5324 78.7057 40.5465 78.7152 40.5566 78.7283C40.5667 78.7415 40.5721 78.7576 40.5721 78.7741C40.5721 78.7907 40.5667 78.8068 40.5566 78.8199C40.5465 78.8331 40.5324 78.8425 40.5164 78.8469H40.4774C40.4648 78.8522 40.4511 78.8543 40.4374 78.853C40.4238 78.8517 40.4107 78.847 40.3992 78.8395C40.3878 78.8319 40.3785 78.8216 40.372 78.8095C40.3655 78.7974 40.3621 78.7839 40.3621 78.7702C40.3621 78.7565 40.3655 78.743 40.372 78.731C40.3785 78.7189 40.3878 78.7086 40.3992 78.701C40.4107 78.6934 40.4238 78.6888 40.4374 78.6875C40.4511 78.6862 40.4648 78.6883 40.4774 78.6936V78.7014ZM40.3138 71.977V71.9328C40.3175 71.9104 40.3291 71.89 40.3465 71.8752C40.3638 71.8605 40.3859 71.8524 40.4086 71.8524C40.4314 71.8524 40.4534 71.8605 40.4708 71.8752C40.4881 71.89 40.4997 71.9104 40.5034 71.9328V71.977C40.5138 72.0964 40.3008 72.0964 40.3138 71.9692V71.977ZM39.9372 85.5973C39.954 85.5979 39.9703 85.6028 39.9846 85.6115C39.9989 85.6202 40.0108 85.6324 40.0191 85.6469C40.0274 85.6615 40.0319 85.6779 40.0321 85.6947C40.0323 85.7114 40.0283 85.728 40.0203 85.7427V85.7583C40.013 85.7707 40.0025 85.781 39.99 85.7881C39.9775 85.7952 39.9633 85.7989 39.9489 85.7989C39.9345 85.7989 39.9203 85.7952 39.9078 85.7881C39.8953 85.781 39.8848 85.7707 39.8775 85.7583L39.8645 85.7427C39.855 85.7285 39.8493 85.7121 39.848 85.695C39.8468 85.678 39.8499 85.6609 39.8573 85.6454C39.8646 85.63 39.8758 85.6167 39.8898 85.6069C39.9039 85.5971 39.9202 85.5911 39.9372 85.5895V85.5973ZM39.9372 75.8288C39.9641 75.8288 39.9898 75.8395 40.0088 75.8584C40.0278 75.8774 40.0385 75.9032 40.0385 75.9301C40.0385 75.9569 40.0278 75.9827 40.0088 76.0017C39.9898 76.0207 39.9641 76.0314 39.9372 76.0314C39.9093 76.0314 39.8826 76.0203 39.8628 76.0006C39.8431 75.9808 39.832 75.9541 39.832 75.9262C39.832 75.8983 39.8431 75.8715 39.8628 75.8518C39.8826 75.8321 39.9093 75.821 39.9372 75.821V75.8288ZM39.7658 81.9792C39.7658 82.0935 39.5814 82.0935 39.5866 81.9792V81.9584C39.5866 81.935 39.5959 81.9126 39.6124 81.896C39.629 81.8794 39.6515 81.8701 39.6749 81.8701C39.6983 81.8701 39.7208 81.8794 39.7373 81.896C39.7539 81.9126 39.7632 81.935 39.7632 81.9584L39.7658 81.9792ZM39.4203 68.5433C39.4236 68.5567 39.4238 68.5706 39.4209 68.5841C39.418 68.5976 39.412 68.6102 39.4035 68.621C39.395 68.6318 39.3842 68.6406 39.3718 68.6466C39.3594 68.6527 39.3458 68.6558 39.332 68.6558C39.3183 68.6558 39.3047 68.6527 39.2923 68.6466C39.2799 68.6406 39.269 68.6318 39.2605 68.621C39.252 68.6102 39.2461 68.5976 39.2432 68.5841C39.2403 68.5706 39.2405 68.5567 39.2437 68.5433V68.5225C39.2493 68.5045 39.2605 68.4887 39.2757 68.4774C39.2909 68.4662 39.3092 68.4602 39.3281 68.4602C39.347 68.4602 39.3654 68.4662 39.3806 68.4774C39.3958 68.4887 39.407 68.5045 39.4125 68.5225L39.4203 68.5433ZM35.3789 80.7351C35.3917 80.7379 35.4031 80.7449 35.4113 80.7551C35.4195 80.7652 35.4239 80.7779 35.4239 80.7909C35.4239 80.804 35.4195 80.8167 35.4113 80.8268C35.4031 80.837 35.3917 80.844 35.3789 80.8468C35.3631 80.8468 35.3479 80.8405 35.3367 80.8293C35.3255 80.8181 35.3192 80.8029 35.3192 80.7871C35.3192 80.7712 35.3255 80.756 35.3367 80.7448C35.3479 80.7336 35.3631 80.7273 35.3789 80.7273V80.7351ZM34.7114 76.7716L34.7244 76.7326C34.7286 76.7173 34.7378 76.7037 34.7504 76.6941C34.7631 76.6844 34.7786 76.6792 34.7945 76.6792C34.8104 76.6792 34.8259 76.6844 34.8386 76.6941C34.8513 76.7037 34.8604 76.7173 34.8646 76.7326L34.8776 76.7716C34.927 76.9041 34.6621 76.9015 34.7114 76.7638V76.7716ZM34.1504 71.1095V71.0913C34.1583 71.0784 34.1693 71.0677 34.1825 71.0603C34.1957 71.0529 34.2106 71.0491 34.2257 71.0491C34.2408 71.0491 34.2557 71.0529 34.2689 71.0603C34.2821 71.0677 34.2931 71.0784 34.301 71.0913V71.1095C34.3997 71.2809 34.0673 71.2809 34.1504 71.1017V71.1095ZM34.0595 68.5121C34.0822 68.5121 34.104 68.5212 34.1201 68.5372C34.1362 68.5533 34.1452 68.5751 34.1452 68.5979C34.1452 68.6206 34.1362 68.6424 34.1201 68.6585C34.104 68.6745 34.0822 68.6836 34.0595 68.6836C34.0396 68.6801 34.0216 68.6697 34.0087 68.6542C33.9957 68.6388 33.9886 68.6193 33.9886 68.5991C33.9886 68.579 33.9957 68.5595 34.0087 68.544C34.0216 68.5286 34.0396 68.5182 34.0595 68.5147V68.5121ZM30.5609 72.4081C30.5404 72.4046 30.5218 72.3939 30.5084 72.378C30.495 72.362 30.4877 72.3419 30.4877 72.3211C30.4877 72.3003 30.495 72.2802 30.5084 72.2642C30.5218 72.2483 30.5404 72.2377 30.5609 72.2341C30.586 72.2341 30.6101 72.2441 30.6279 72.2619C30.6457 72.2796 30.6557 72.3038 30.6557 72.3289C30.6557 72.354 30.6457 72.3781 30.6279 72.3959C30.6101 72.4137 30.586 72.4237 30.5609 72.4237V72.4081ZM31.0804 70.7874C31.0804 70.7874 31.0596 70.6913 31.2336 70.6497C31.2336 70.6497 30.9531 70.5614 30.9167 70.39C30.8804 70.2186 31.1245 70.203 31.1245 70.203C31.1245 70.203 30.8648 69.9433 31.0128 69.7718C31.1609 69.6004 31.4777 69.8861 31.4777 69.8861C31.4777 69.8861 31.5453 69.6861 31.6674 69.6939C31.7894 69.7017 31.8985 70.0316 31.8985 70.0316C31.8985 70.0316 31.9764 69.8939 32.0855 69.9329C32.1946 69.9718 32.4076 70.5744 32.1712 70.9588C32.2883 71.0759 32.3896 71.2077 32.4725 71.351C32.3404 71.2584 32.2223 71.1474 32.1219 71.0211C32.0414 71.0653 31.3583 71.2159 31.0882 70.803L31.0804 70.7874ZM32.9478 74.5951C32.9478 74.5951 32.8699 74.6574 32.7582 74.5145C32.7582 74.5145 32.7972 74.808 32.6491 74.9171C32.5011 75.0262 32.3894 74.808 32.3894 74.808C32.3894 74.808 32.2777 75.1561 32.044 75.0937C31.8102 75.0314 31.9505 74.621 31.9505 74.621C31.9505 74.621 31.7427 74.647 31.6907 74.5327C31.6388 74.4184 31.9011 74.1795 31.9011 74.1795C31.9011 74.1795 31.7427 74.1665 31.7297 74.0548C31.7167 73.9431 32.1712 73.4938 32.6206 73.5353C32.6764 73.3772 32.7542 73.2277 32.8517 73.0912C32.822 73.2496 32.7713 73.4033 32.7011 73.5483C32.7894 73.6366 33.2257 74.1847 32.9556 74.6106L32.9478 74.5951ZM36.0984 68.3044C36.036 68.4602 35.9531 68.607 35.8516 68.7407C35.8871 68.5835 35.943 68.4315 36.0179 68.2888C35.9477 68.2238 35.5322 67.6602 35.8153 67.2498C35.8153 67.2498 35.8958 67.1901 36.0023 67.3356C36.0023 67.3356 35.9737 67.0421 36.1269 66.9382C36.2802 66.8343 36.3867 67.055 36.3867 67.055C36.3867 67.055 36.5113 66.7122 36.7399 66.7953C36.9685 66.8784 36.8178 67.2706 36.8178 67.2706C36.8178 67.2706 37.0282 67.2524 37.0776 67.3693C37.1269 67.4862 36.8568 67.7122 36.8568 67.7122C36.8568 67.7122 37.0126 67.7329 37.0204 67.8472C37.0282 67.9615 36.5399 68.3589 36.0984 68.3044ZM36.4958 70.9017C36.4958 70.9017 36.236 70.6419 36.3841 70.4679C36.5321 70.2939 36.8516 70.5822 36.8516 70.5822C36.8516 70.5822 36.9191 70.3848 37.0412 70.39C37.1633 70.3952 37.2698 70.7276 37.2698 70.7276C37.2698 70.7276 37.3503 70.59 37.4568 70.6289C37.5633 70.6679 37.7814 71.2705 37.5451 71.6549C37.6629 71.7706 37.7635 71.9027 37.8438 72.0471C37.7134 71.9535 37.5955 71.8435 37.4931 71.7198C37.4074 71.7588 36.7139 71.9172 36.4542 71.4939C36.4542 71.4939 36.4308 71.3978 36.6074 71.3562C36.6074 71.3562 36.3243 71.2679 36.2906 71.0965C36.2568 70.925 36.4906 70.9069 36.4906 70.9069L36.4958 70.9017ZM37.449 73.3042L37.4256 73.2626C37.3659 73.1613 37.5321 73.073 37.5762 73.1717L37.5944 73.2185C37.6308 73.3198 37.5009 73.4055 37.4438 73.3094L37.449 73.3042ZM36.4282 76.4989C36.4637 76.3416 36.5196 76.1897 36.5945 76.047C36.5243 75.982 36.1088 75.4184 36.3919 75.008C36.3919 75.008 36.4724 74.9483 36.5789 75.0963C36.5789 75.0963 36.5503 74.8002 36.7035 74.6963C36.8568 74.5925 36.9633 74.8158 36.9633 74.8158C36.9633 74.8158 37.0879 74.4704 37.3165 74.5431C37.5451 74.6158 37.3944 75.0158 37.3944 75.0158C37.3944 75.0158 37.6048 75.0002 37.6542 75.1145C37.7035 75.2288 37.4334 75.46 37.4334 75.46C37.4334 75.46 37.5892 75.4781 37.5996 75.5924C37.61 75.7067 37.1373 76.1353 36.6906 76.0703C36.6227 76.227 36.5326 76.3731 36.423 76.5041L36.4282 76.4989ZM37.1789 83.8883L37.1347 83.9038C37.0438 83.9402 36.997 83.8025 37.0724 83.7558L37.1113 83.7298C37.21 83.6675 37.2931 83.8467 37.1737 83.8934L37.1789 83.8883ZM36.9191 80.239C36.9191 80.239 36.8957 80.1429 37.0724 80.1014C37.0724 80.1014 36.7919 80.0131 36.7555 79.8416C36.7191 79.6702 36.9607 79.6546 36.9607 79.6546C36.9607 79.6546 36.7009 79.3949 36.849 79.2209C36.997 79.0469 37.3165 79.3377 37.3165 79.3377C37.3165 79.3377 37.384 79.1378 37.5061 79.1456C37.6282 79.1533 37.7347 79.4832 37.7347 79.4832C37.7347 79.4832 37.8152 79.3455 37.9217 79.3819C38.0282 79.4183 38.2464 80.0234 38.01 80.4079C38.1282 80.5242 38.2289 80.6572 38.3087 80.8026C38.1787 80.7075 38.0609 80.5968 37.9581 80.4728C37.8775 80.5091 37.1944 80.6702 36.9243 80.2442L36.9191 80.239ZM41.9943 83.0961C41.9943 83.2052 41.532 83.6389 41.0852 83.574C41.0253 83.7302 40.9421 83.8764 40.8385 84.0077C40.8738 83.8513 40.9297 83.7002 41.0047 83.5584C40.9346 83.4909 40.519 82.9272 40.8021 82.5195C40.8021 82.5195 40.8826 82.4623 40.9891 82.6078C40.9891 82.6078 40.9605 82.3143 41.1138 82.2104C41.267 82.1065 41.3735 82.3273 41.3735 82.3273C41.3735 82.3273 41.4982 81.9818 41.7268 82.0545C41.9553 82.1273 41.8047 82.5273 41.8047 82.5273C41.8047 82.5273 42.0151 82.5117 42.0644 82.626C42.1138 82.7402 41.8436 82.9714 41.8436 82.9714C41.8436 82.9714 41.9891 82.9948 41.9995 83.1091L41.9943 83.0961ZM42.6592 75.6314C42.6592 75.7379 42.1969 76.1742 41.7527 76.1093C41.6848 76.2643 41.5975 76.41 41.493 76.543C41.5253 76.3852 41.5804 76.233 41.6566 76.0911C41.5865 76.0262 41.1709 75.4626 41.4566 75.0522C41.4566 75.0522 41.5372 74.9924 41.6436 75.1405C41.6436 75.1405 41.6125 74.8444 41.7683 74.7431C41.9242 74.6418 42.028 74.86 42.028 74.86C42.028 74.86 42.1553 74.5145 42.3839 74.6002C42.6124 74.686 42.4618 75.073 42.4618 75.073C42.4618 75.073 42.6696 75.0574 42.7215 75.1717C42.7735 75.2859 42.5008 75.5171 42.5008 75.5171C42.5008 75.5171 42.6514 75.5223 42.6592 75.6314ZM42.2125 71.4939C42.2125 71.4939 42.1891 71.3978 42.3657 71.3562C42.3657 71.3562 42.0852 71.2679 42.0488 71.0965C42.0125 70.925 42.2566 70.9121 42.2566 70.9121C42.2566 70.9121 41.9969 70.6523 42.1449 70.4783C42.293 70.3043 42.6098 70.5926 42.6098 70.5926C42.6098 70.5926 42.6774 70.3952 42.7994 70.4004C42.9215 70.4056 43.028 70.738 43.028 70.738C43.028 70.738 43.1085 70.6004 43.215 70.6393C43.3215 70.6783 43.5397 71.2809 43.3033 71.6653C43.4212 71.781 43.5217 71.9131 43.602 72.0575C43.4721 71.9642 43.3551 71.8541 43.254 71.7302C43.1657 71.764 42.4826 71.9224 42.2125 71.4991V71.4939ZM43.1553 85.1557C43.1284 85.1557 43.1026 85.1451 43.0837 85.1261C43.0647 85.1071 43.054 85.0813 43.054 85.0544C43.054 85.0276 43.0647 85.0018 43.0837 84.9828C43.1026 84.9638 43.1284 84.9532 43.1553 84.9532C43.1828 84.9532 43.2093 84.9641 43.2287 84.9836C43.2482 85.0031 43.2592 85.0295 43.2592 85.057C43.2592 85.0846 43.2482 85.111 43.2287 85.1305C43.2093 85.15 43.1828 85.1609 43.1553 85.1609V85.1557ZM43.5657 79.9923C43.5657 79.9923 43.5423 79.8962 43.7189 79.8546C43.7189 79.8546 43.4358 79.7663 43.402 79.5949C43.3683 79.4235 43.6072 79.4105 43.6072 79.4105C43.6072 79.4105 43.3475 79.1507 43.4955 78.9767C43.6436 78.8027 43.9604 79.091 43.9604 79.091C43.9604 79.091 44.028 78.891 44.1526 78.8988C44.2773 78.9066 44.3812 79.2365 44.3812 79.2365C44.3812 79.2365 44.4591 79.0988 44.5682 79.1378C44.6773 79.1767 44.8903 79.7793 44.6539 80.1637C44.771 80.2808 44.8723 80.4126 44.9552 80.5559C44.8231 80.4633 44.705 80.3522 44.6046 80.226C44.5163 80.2624 43.8358 80.4208 43.5657 79.9975V79.9923Z" fill="#0536B3"/>
<path d="M32.1292 71.0266L31.9708 70.8578C31.8014 70.6913 31.6531 70.5047 31.5293 70.302C31.722 70.4465 31.8964 70.614 32.0487 70.8006L32.1916 70.9643C32.4279 70.5799 32.2072 69.9721 32.1059 69.9383C32.0046 69.9046 31.9189 70.037 31.9189 70.037C31.9189 70.037 31.8124 69.7046 31.6877 69.6994C31.563 69.6942 31.4981 69.8916 31.4981 69.8916C31.4981 69.8916 31.189 69.5929 31.0332 69.7773C30.8773 69.9617 31.1449 70.2085 31.1449 70.2085C31.1449 70.2085 30.9033 70.2085 30.9371 70.3955C30.9708 70.5825 31.2539 70.6552 31.2539 70.6552C31.0799 70.6967 31.1007 70.7928 31.1007 70.7928C31.3578 71.2162 32.0409 71.0656 32.1292 71.0266Z" fill="#E0E0E0"/>
<path d="M31.5312 70.3027C31.6551 70.5054 31.8034 70.6921 31.9728 70.8586L32.1312 71.0274C32.2317 71.1536 32.3498 71.2647 32.4819 71.3572C32.3989 71.214 32.2977 71.0821 32.1806 70.965L32.0377 70.8014C31.8895 70.6155 31.7194 70.4481 31.5312 70.3027Z" fill="#263238"/>
<path d="M36.6045 71.361C36.4279 71.4025 36.4512 71.4986 36.4512 71.4986C36.711 71.922 37.4045 71.7583 37.4902 71.7246L37.3343 71.5532C37.1646 71.3863 37.0155 71.1997 36.8902 70.9973C37.0828 71.142 37.2572 71.3094 37.4097 71.496L37.5551 71.6596C37.7915 71.2752 37.5707 70.6675 37.4668 70.6337C37.3629 70.5999 37.2798 70.7324 37.2798 70.7324C37.2798 70.7324 37.1733 70.4025 37.0512 70.3948C36.9292 70.387 36.8616 70.587 36.8616 70.587C36.8616 70.587 36.5499 70.2909 36.3941 70.4727C36.2383 70.6545 36.5058 70.9064 36.5058 70.9064C36.5058 70.9064 36.2642 70.9064 36.3006 71.0908C36.337 71.2752 36.6045 71.361 36.6045 71.361Z" fill="#E0E0E0"/>
<path d="M36.875 70.998C37.0003 71.2004 37.1494 71.387 37.3191 71.5539L37.475 71.7253C37.5774 71.8489 37.6952 71.9589 37.8256 72.0526C37.7454 71.9082 37.6448 71.7761 37.5269 71.6604L37.3815 71.4967C37.2331 71.3109 37.0631 71.1435 36.875 70.998Z" fill="#263238"/>
<path d="M43.0947 71.5532C42.9259 71.3854 42.7769 71.199 42.6506 70.9973C42.8428 71.1425 43.0172 71.3099 43.17 71.496L43.3129 71.6596C43.5492 71.2752 43.3285 70.6675 43.2246 70.6337C43.1207 70.5999 43.0376 70.7324 43.0376 70.7324C43.0376 70.7324 42.9337 70.4025 42.809 70.3948C42.6843 70.387 42.6194 70.587 42.6194 70.587C42.6194 70.587 42.3103 70.2909 42.1545 70.4727C41.9986 70.6545 42.2662 70.9064 42.2662 70.9064C42.2662 70.9064 42.022 70.9064 42.0584 71.0908C42.0947 71.2752 42.3753 71.3506 42.3753 71.3506C42.1986 71.3921 42.222 71.4882 42.222 71.4882C42.4817 71.9116 43.1752 71.748 43.2609 71.7142L43.0947 71.5532Z" fill="#E0E0E0"/>
<path d="M42.6484 70.998C42.7748 71.1997 42.9238 71.3862 43.0926 71.5539L43.251 71.7253C43.3521 71.8492 43.4692 71.9593 43.5991 72.0526C43.5188 71.9082 43.4182 71.7761 43.3004 71.6604L43.1575 71.4967C43.0079 71.3112 42.837 71.1438 42.6484 70.998Z" fill="#263238"/>
<path d="M44.6047 80.222L44.4489 80.0532C44.2791 79.8863 44.13 79.6997 44.0047 79.4973C44.1921 79.6436 44.3621 79.8109 44.5112 79.996L44.6541 80.1596C44.8904 79.7752 44.6723 79.1675 44.5684 79.1337C44.4645 79.0999 44.3814 79.2324 44.3814 79.2324C44.3814 79.2324 44.2749 78.9025 44.1528 78.8948C44.0307 78.887 43.9606 79.087 43.9606 79.087C43.9606 79.087 43.6515 78.7883 43.4957 78.9727C43.3398 79.1571 43.6074 79.4064 43.6074 79.4064C43.6074 79.4064 43.3658 79.4064 43.4022 79.5908C43.4385 79.7752 43.719 79.8506 43.719 79.8506C43.5424 79.8921 43.5658 79.9882 43.5658 79.9882C43.8359 80.422 44.5164 80.2635 44.6047 80.222Z" fill="#E0E0E0"/>
<path d="M44.0039 79.4961C44.1292 79.6985 44.2783 79.8851 44.448 80.0519L44.6039 80.2207C44.7043 80.347 44.8224 80.458 44.9545 80.5506C44.8716 80.4073 44.7703 80.2755 44.6532 80.1584L44.5104 79.9948C44.3612 79.8097 44.1913 79.6423 44.0039 79.4961Z" fill="#263238"/>
<path d="M37.0985 85.6767C36.992 85.6403 36.9115 85.778 36.9115 85.778C36.9115 85.778 36.805 85.4455 36.6829 85.4377C36.5609 85.4299 36.4933 85.6299 36.4933 85.6299C36.4933 85.6299 36.1816 85.3338 36.0258 85.5156C35.87 85.6975 36.1375 85.9494 36.1375 85.9494C36.1375 85.9494 35.9739 85.9494 35.9375 86.0585C36.1972 86.1598 36.4777 86.2533 36.7531 86.339C36.6649 86.2517 36.5913 86.1508 36.5349 86.0403C36.6693 86.1369 36.7899 86.2513 36.8933 86.3805L37.2699 86.4844C37.3478 86.1234 37.1842 85.7052 37.0985 85.6767Z" fill="#E0E0E0"/>
<path d="M36.5312 86.043C36.5876 86.1535 36.6613 86.2543 36.7494 86.3417L36.8897 86.3832C36.7862 86.254 36.6657 86.1395 36.5312 86.043Z" fill="#263238"/>
<path d="M48.7047 74.38C48.6787 74.4476 48.6476 74.5177 48.6164 74.593C48.5369 74.8175 48.4315 75.032 48.3021 75.232C48.3525 74.9987 48.4319 74.7727 48.5385 74.5592L48.6216 74.3671C48.1749 74.3177 47.7203 74.767 47.7333 74.8865C47.7463 75.006 47.9022 75.0138 47.9022 75.0138C47.9022 75.0138 47.6424 75.2501 47.6944 75.3644C47.7463 75.4787 47.9541 75.4553 47.9541 75.4553C47.9541 75.4553 47.8164 75.8605 48.0476 75.9254C48.2788 75.9904 48.393 75.6397 48.393 75.6397C48.393 75.6397 48.4995 75.8579 48.6528 75.7488C48.806 75.6397 48.7645 75.3462 48.7645 75.3462C48.8761 75.4891 48.9541 75.4268 48.9541 75.4268C49.2112 74.993 48.7774 74.4424 48.7047 74.38Z" fill="#E0E0E0"/>
<path d="M48.3047 75.2309C48.434 75.0309 48.5395 74.8165 48.619 74.592C48.6501 74.5167 48.6813 74.4465 48.7073 74.379C48.7774 74.2342 48.8272 74.0803 48.8553 73.9219C48.7601 74.0598 48.6825 74.2089 48.6242 74.366L48.541 74.5582C48.4345 74.7717 48.3551 74.9977 48.3047 75.2309Z" fill="#263238"/>
<path d="M32.7197 73.5757C32.6937 73.6432 32.6652 73.7134 32.6314 73.7887C32.5532 74.0137 32.4476 74.2283 32.3171 74.4276C32.3704 74.1952 32.4496 73.9696 32.5535 73.7549C32.5821 73.6874 32.6106 73.6225 32.6392 73.5627C32.1899 73.5108 31.7379 73.9627 31.7483 74.0822C31.7587 74.2017 31.9197 74.2069 31.9197 74.2069C31.9197 74.2069 31.66 74.4458 31.7094 74.5601C31.7587 74.6744 31.9691 74.6484 31.9691 74.6484C31.9691 74.6484 31.8314 75.0562 32.0626 75.1211C32.2938 75.1861 32.408 74.8354 32.408 74.8354C32.408 74.8354 32.5145 75.0536 32.6678 74.9445C32.821 74.8354 32.7769 74.5419 32.7769 74.5419C32.8885 74.6848 32.9665 74.6224 32.9665 74.6224C33.2236 74.1861 32.7872 73.6381 32.7197 73.5757Z" fill="#E0E0E0"/>
<path d="M32.3125 74.4262C32.443 74.2269 32.5485 74.0123 32.6268 73.7873C32.6605 73.712 32.6891 73.6418 32.7151 73.5743C32.7853 73.4293 32.836 73.2756 32.8657 73.1172C32.7682 73.2536 32.6904 73.4032 32.6346 73.5613C32.606 73.6211 32.5774 73.686 32.5489 73.7535C32.445 73.9682 32.3657 74.1938 32.3125 74.4262Z" fill="#263238"/>
<path d="M47.8148 70.7907C47.8512 70.9725 48.1317 71.0504 48.1317 71.0504C47.9551 71.092 47.9785 71.1881 47.9785 71.1881C48.2382 71.614 48.9317 71.4478 49.0174 71.414C48.9654 71.3595 48.9135 71.3049 48.859 71.2426C48.6902 71.0749 48.5412 70.8884 48.4148 70.6868C48.6077 70.8311 48.7822 70.9986 48.9343 71.1855L49.0771 71.3491C49.3135 70.9647 49.0927 70.3595 48.9914 70.3232C48.8901 70.2868 48.8044 70.4245 48.8044 70.4245C48.8044 70.4245 48.6979 70.092 48.5732 70.0842C48.4486 70.0764 48.3836 70.2764 48.3836 70.2764C48.3836 70.2764 48.0746 69.9803 47.9187 70.1621C47.7629 70.3439 48.0304 70.5959 48.0304 70.5959C48.0304 70.5959 47.7863 70.6089 47.8148 70.7907Z" fill="#E0E0E0"/>
<path d="M48.4141 70.6973C48.5404 70.8989 48.6894 71.0854 48.8582 71.2531C48.9128 71.3154 48.9647 71.37 49.0166 71.4245C49.118 71.5499 49.236 71.6609 49.3673 71.7544C49.2848 71.61 49.1835 71.4772 49.066 71.3596L48.9231 71.196C48.7743 71.0097 48.6033 70.8423 48.4141 70.6973Z" fill="#263238"/>
<path d="M37.9641 80.4699L37.8083 80.2985C37.6395 80.1308 37.4905 79.9443 37.3641 79.7427C37.5526 79.8886 37.7227 80.057 37.8706 80.2439C37.9225 80.2985 37.9693 80.353 38.016 80.405C38.2524 80.0206 38.0316 79.4154 37.9277 79.379C37.8238 79.3427 37.7407 79.4803 37.7407 79.4803C37.7407 79.4803 37.6368 79.1479 37.5122 79.1427C37.3875 79.1375 37.3226 79.3349 37.3226 79.3349C37.3226 79.3349 37.0135 79.0362 36.855 79.218C36.6966 79.3998 36.9667 79.6518 36.9667 79.6518C36.9667 79.6518 36.7252 79.6518 36.7615 79.8388C36.7979 80.0258 37.0784 80.0985 37.0784 80.0985C36.9018 80.1401 36.9252 80.2362 36.9252 80.2362C37.1953 80.6699 37.8784 80.5089 37.9641 80.4699Z" fill="#E0E0E0"/>
<path d="M37.3633 79.7422C37.4896 79.9438 37.6386 80.1303 37.8074 80.298L37.9633 80.4694C38.0661 80.5934 38.1839 80.7042 38.3139 80.7993C38.2341 80.6539 38.1335 80.5209 38.0152 80.4045C37.9685 80.3526 37.9217 80.298 37.8698 80.2435C37.7218 80.0565 37.5518 79.8882 37.3633 79.7422Z" fill="#263238"/>
<path d="M45.2871 85.6727C45.1806 85.6337 45.1001 85.7714 45.1001 85.7714C45.1001 85.7714 44.9936 85.4389 44.8715 85.4337C44.7495 85.4285 44.6819 85.6259 44.6819 85.6259C44.6819 85.6259 44.3703 85.3272 44.2144 85.5116C44.0586 85.696 44.3261 85.9428 44.3261 85.9428C44.3261 85.9428 44.0846 85.9428 44.1209 86.1298C44.1446 86.2116 44.1997 86.2807 44.2742 86.322C44.4482 86.2674 44.6196 86.2077 44.7936 86.148C44.7443 86.083 44.7183 86.0415 44.7261 86.0363C44.7339 86.0311 44.778 86.0648 44.8456 86.1298C45.0412 86.0588 45.2334 85.9835 45.4222 85.9038C45.378 85.7765 45.3261 85.6856 45.2871 85.6727Z" fill="#E0E0E0"/>
<path d="M44.7916 86.1479L44.8435 86.1297C44.776 86.0648 44.7318 86.0284 44.724 86.0362C44.7162 86.044 44.7422 86.0829 44.7916 86.1479Z" fill="#263238"/>
<path d="M37.5788 75.592C37.5788 75.4777 37.4126 75.4595 37.4126 75.4595C37.4126 75.4595 37.6723 75.231 37.6334 75.1141C37.5944 74.9972 37.3736 75.0154 37.3736 75.0154C37.3736 75.0154 37.5269 74.6128 37.2957 74.5427C37.0646 74.4725 36.9425 74.8154 36.9425 74.8154C36.9425 74.8154 36.8438 74.5946 36.6828 74.6959C36.5217 74.7972 36.5581 75.0959 36.5581 75.0959C36.4516 74.9478 36.3711 75.0076 36.3711 75.0076C36.088 75.4232 36.5035 75.9868 36.5737 76.0465C36.6022 75.9816 36.6334 75.9115 36.6698 75.8361C36.7562 75.6149 36.8687 75.4048 37.0048 75.2102C36.9468 75.4411 36.8596 75.6637 36.7451 75.8725L36.6542 76.0647C37.1165 76.1348 37.5866 75.6985 37.5788 75.592Z" fill="#E0E0E0"/>
<path d="M37.0193 75.2168C36.8831 75.4114 36.7706 75.6215 36.6842 75.8428C36.6478 75.9181 36.6167 75.9882 36.5881 76.0531C36.5132 76.1959 36.4574 76.3478 36.4219 76.5051C36.5241 76.3728 36.6072 76.2268 36.6686 76.0713L36.7595 75.8791C36.874 75.6703 36.9613 75.4477 37.0193 75.2168Z" fill="#263238"/>
<path d="M42.0552 82.6434C42.0137 82.5291 41.7955 82.5447 41.7955 82.5447C41.7955 82.5447 41.9488 82.1421 41.7176 82.072C41.4864 82.0018 41.3644 82.3447 41.3644 82.3447C41.3644 82.3447 41.2657 82.1239 41.1046 82.2278C40.9436 82.3317 40.98 82.6252 40.98 82.6252C40.8735 82.4797 40.793 82.5369 40.793 82.5369C40.5098 82.9525 40.9254 83.5161 40.9955 83.5758C41.0241 83.5083 41.0553 83.4381 41.0916 83.3628C41.1771 83.1406 41.2905 82.9303 41.4293 82.7369C41.3691 82.9671 41.2819 83.1894 41.1696 83.3992C41.1384 83.4667 41.1098 83.5291 41.0787 83.5914C41.5254 83.6563 41.9955 83.2226 41.9877 83.1135C41.9799 83.0044 41.8215 82.981 41.8215 82.981C41.8215 82.981 42.0968 82.7473 42.0552 82.6434Z" fill="#E0E0E0"/>
<path d="M41.4437 82.7324C41.305 82.9258 41.1915 83.1362 41.1061 83.3584C41.0697 83.4337 41.0385 83.5038 41.01 83.5714C40.935 83.7131 40.8791 83.8642 40.8438 84.0207C40.9474 83.8894 41.0306 83.7432 41.0905 83.5869C41.1217 83.5246 41.1502 83.4623 41.1814 83.3947C41.2946 83.1851 41.3827 82.9628 41.4437 82.7324Z" fill="#263238"/>
<path d="M36.9981 67.8396C36.9981 67.7254 36.8345 67.7046 36.8345 67.7046C36.8345 67.7046 37.0942 67.4786 37.0553 67.3617C37.0163 67.2449 36.7955 67.263 36.7955 67.263C36.7955 67.263 36.9488 66.8605 36.7176 66.7877C36.4864 66.715 36.3644 67.0475 36.3644 67.0475C36.3644 67.0475 36.2657 66.8267 36.1046 66.9306C35.9436 67.0345 35.98 67.328 35.98 67.328C35.8735 67.1825 35.793 67.2423 35.793 67.2423C35.5098 67.6578 35.9254 68.2215 35.9955 68.2812C36.025 68.2137 36.0562 68.1435 36.0891 68.0708C36.1769 67.8498 36.2902 67.6397 36.4267 67.4449C36.3682 67.6756 36.281 67.8982 36.167 68.1072L36.0761 68.2968C36.5384 68.3591 37.0059 67.9357 36.9981 67.8396Z" fill="#E0E0E0"/>
<path d="M36.445 67.4531C36.3086 67.648 36.1952 67.858 36.1074 68.0791C36.0745 68.1518 36.0433 68.2219 36.0139 68.2895C35.939 68.4322 35.8831 68.5841 35.8477 68.7414C35.9491 68.6077 36.0321 68.4609 36.0944 68.305L36.1853 68.1154C36.2993 67.9064 36.3866 67.6839 36.445 67.4531Z" fill="#263238"/>
<path d="M42.7156 75.1593C42.674 75.045 42.4559 75.0606 42.4559 75.0606C42.4559 75.0606 42.6065 74.658 42.3779 74.5879C42.1494 74.5178 42.0221 74.8476 42.0221 74.8476C42.0221 74.8476 41.926 74.6269 41.7624 74.7308C41.5988 74.8347 41.6377 75.1281 41.6377 75.1281C41.5312 74.9801 41.4507 75.0398 41.4507 75.0398C41.165 75.4554 41.5806 76.019 41.6507 76.0788C41.6819 76.0138 41.713 75.9437 41.7468 75.8684C41.8347 75.6473 41.948 75.4373 42.0844 75.2424C42.0236 75.4725 41.9365 75.6947 41.8247 75.9047L41.7338 76.0969C42.178 76.1619 42.6481 75.7255 42.6403 75.619C42.6325 75.5126 42.474 75.4866 42.474 75.4866C42.474 75.4866 42.7598 75.2762 42.7156 75.1593Z" fill="#E0E0E0"/>
<path d="M42.1013 75.2598C41.9648 75.4546 41.8515 75.6647 41.7636 75.8857C41.7299 75.961 41.6987 76.0312 41.6675 76.0961C41.5913 76.238 41.5362 76.3902 41.5039 76.548C41.6084 76.415 41.6957 76.2692 41.7636 76.1143L41.8545 75.9221C41.9618 75.7115 42.0446 75.4892 42.1013 75.2598Z" fill="#263238"/>
<path d="M42.6875 68.1005L42.7836 67.8901C42.8703 67.6685 42.9836 67.4583 43.1213 67.2642C43.061 67.4944 42.9739 67.7167 42.8615 67.9265C42.8304 67.994 42.8018 68.0564 42.7706 68.1161C43.2174 68.1836 43.6875 67.7473 43.6797 67.6408C43.6719 67.5343 43.5135 67.5057 43.5135 67.5057C43.5135 67.5057 43.7732 67.2798 43.7342 67.1629C43.6953 67.046 43.4745 67.0642 43.4745 67.0642C43.4745 67.0642 43.6277 66.6616 43.3992 66.5915C43.1706 66.5214 43.0433 66.8642 43.0433 66.8642C43.0433 66.8642 42.9446 66.6408 42.7836 66.7447C42.6226 66.8486 42.6615 67.1421 42.6615 67.1421C42.5524 66.9967 42.4745 67.0564 42.4745 67.0564C42.2018 67.4694 42.6174 68.033 42.6875 68.1005Z" fill="#E0E0E0"/>
<path d="M43.1208 67.2598C42.9832 67.4539 42.8698 67.6641 42.7832 67.8857L42.6871 68.0961C42.6109 68.238 42.5557 68.3902 42.5234 68.548C42.6234 68.4138 42.7055 68.2671 42.7676 68.1117C42.7988 68.0519 42.8273 67.9896 42.8585 67.9221C42.9717 67.7124 43.0598 67.4901 43.1208 67.2598Z" fill="#263238"/>
<path d="M42.283 65.463C42.1739 65.4838 41.9557 65.5357 41.6545 65.5955C40.5226 65.8188 39.3579 65.8188 38.226 65.5955C37.9169 65.5357 37.7065 65.4812 37.5897 65.4604C37.5455 65.4604 37.5221 65.4604 37.5195 65.4604C37.7359 65.5705 37.9667 65.6492 38.2052 65.6942C38.7733 65.8323 39.3556 65.9029 39.9402 65.9046C40.5248 65.9049 41.1073 65.8351 41.6752 65.6968C41.9128 65.6497 42.1433 65.572 42.3609 65.4656C42.3609 65.4656 42.3298 65.4526 42.283 65.463Z" fill="#263238"/>
<path d="M52.6739 74.4258C52.5211 74.4738 52.3739 74.5382 52.235 74.618C51.9337 74.766 51.4973 74.9868 50.9857 75.2543L50.0714 75.7374C48.7935 76.4231 47.7338 77.0075 47.5624 77.1426L47.5312 77.1711C47.5924 77.159 47.6511 77.137 47.7053 77.1062C48.0819 76.9348 49.0299 76.4491 50.1364 75.8569C51.035 75.379 51.8194 74.9452 52.2688 74.6829C52.4125 74.6118 52.5483 74.5256 52.6739 74.4258Z" fill="#263238"/>
<path d="M29.9869 73.3415C30.5064 73.8999 30.9869 74.4012 31.3479 74.796L31.4622 74.9207C31.6555 75.1497 31.861 75.3682 32.0778 75.5752C32.0413 75.5017 31.995 75.4335 31.9401 75.3726C31.8492 75.2479 31.7089 75.0713 31.5323 74.8532C31.1765 74.4246 30.6622 73.8584 30.083 73.2428C29.5038 72.6272 28.9792 72.074 28.6078 71.6636C28.4158 71.4342 28.2102 71.2165 27.9922 71.0117C28.0268 71.085 28.0714 71.1532 28.1246 71.2143L28.1428 71.2377C28.2337 71.3598 28.3662 71.526 28.535 71.726C28.8909 72.1597 29.4051 72.7285 29.9869 73.3415Z" fill="#263238"/>
<path d="M33.4306 77.2672C33.6098 77.6178 33.789 77.9009 33.9501 78.1529C34.0698 78.3486 34.2026 78.536 34.3475 78.7139C34.4514 78.8386 34.5189 78.8983 34.5267 78.8931C34.5345 78.8879 34.3319 78.6334 34.067 78.1659L34.0306 78.1035C33.8929 77.8438 33.7137 77.5477 33.5527 77.2178C33.4122 76.836 33.3529 76.4291 33.3787 76.0231C33.3737 75.6155 33.4406 75.2102 33.5761 74.8257C33.6898 74.5119 33.8406 74.2128 34.0254 73.9348C34.3397 73.4543 34.5812 73.1894 34.563 73.1738C34.4944 73.2227 34.4324 73.2803 34.3786 73.3453C34.2228 73.5142 34.0779 73.6929 33.9449 73.8803C33.7454 74.1593 33.5814 74.4621 33.4566 74.7816C33.3865 74.9732 33.3326 75.1705 33.2956 75.3712C33.2645 75.5714 33.248 75.7737 33.2462 75.9763C33.245 75.991 33.245 76.0058 33.2462 76.0205C33.2146 76.4446 33.2776 76.8704 33.4306 77.2672Z" fill="#263238"/>
<path d="M39.2448 68.5141V68.5349C39.2415 68.5482 39.2413 68.5622 39.2442 68.5757C39.2472 68.5891 39.2531 68.6017 39.2616 68.6126C39.2701 68.6234 39.281 68.6322 39.2933 68.6382C39.3057 68.6442 39.3193 68.6473 39.3331 68.6473C39.3469 68.6473 39.3605 68.6442 39.3728 68.6382C39.3852 68.6322 39.3961 68.6234 39.4046 68.6126C39.4131 68.6017 39.419 68.5891 39.4219 68.5757C39.4249 68.5622 39.4247 68.5482 39.4214 68.5349V68.5141C39.4214 68.4907 39.4121 68.4682 39.3955 68.4516C39.379 68.4351 39.3565 68.4258 39.3331 68.4258C39.3097 68.4258 39.2872 68.4351 39.2707 68.4516C39.2541 68.4682 39.2448 68.4907 39.2448 68.5141Z" fill="#263238"/>
<path d="M34.0584 68.687C34.0811 68.687 34.1029 68.678 34.119 68.6619C34.135 68.6459 34.1441 68.6241 34.1441 68.6013C34.1441 68.5786 34.135 68.5568 34.119 68.5407C34.1029 68.5247 34.0811 68.5156 34.0584 68.5156C34.0356 68.5156 34.0138 68.5247 33.9978 68.5407C33.9817 68.5568 33.9727 68.5786 33.9727 68.6013C33.9727 68.6241 33.9817 68.6459 33.9978 68.6619C34.0138 68.678 34.0356 68.687 34.0584 68.687Z" fill="#263238"/>
<path d="M34.3137 71.1014V71.0832C34.3058 71.0703 34.2947 71.0597 34.2815 71.0523C34.2683 71.0449 34.2535 71.041 34.2384 71.041C34.2232 71.041 34.2084 71.0449 34.1952 71.0523C34.182 71.0597 34.1709 71.0703 34.163 71.0832V71.1014C34.0643 71.2806 34.3968 71.2806 34.3137 71.1014Z" fill="#263238"/>
<path d="M30.5576 72.2559C30.5371 72.2594 30.5185 72.2701 30.5051 72.286C30.4917 72.3019 30.4844 72.3221 30.4844 72.3429C30.4844 72.3637 30.4917 72.3838 30.5051 72.3997C30.5185 72.4156 30.5371 72.4263 30.5576 72.4299C30.5781 72.4263 30.5967 72.4156 30.6101 72.3997C30.6235 72.3838 30.6308 72.3637 30.6308 72.3429C30.6308 72.3221 30.6235 72.3019 30.6101 72.286C30.5967 72.2701 30.5781 72.2594 30.5576 72.2559Z" fill="#263238"/>
<path d="M40.5117 71.9702V71.9261C40.508 71.9036 40.4964 71.8832 40.479 71.8685C40.4617 71.8538 40.4397 71.8457 40.4169 71.8457C40.3941 71.8457 40.3721 71.8538 40.3548 71.8685C40.3374 71.8832 40.3258 71.9036 40.3221 71.9261V71.9702C40.2987 72.0975 40.5117 72.0975 40.5117 71.9702Z" fill="#263238"/>
<path d="M34.7223 76.7253L34.7093 76.7643C34.6599 76.902 34.9249 76.9046 34.8755 76.7643L34.8625 76.7253C34.8583 76.71 34.8492 76.6964 34.8365 76.6868C34.8238 76.6771 34.8083 76.6719 34.7924 76.6719C34.7765 76.6719 34.761 76.6771 34.7483 76.6868C34.7356 76.6964 34.7265 76.71 34.7223 76.7253Z" fill="#263238"/>
<path d="M37.4191 73.2687L37.4424 73.3103C37.4996 73.4064 37.6294 73.3103 37.5879 73.2246L37.5697 73.1778C37.5255 73.0791 37.3593 73.1674 37.4191 73.2687Z" fill="#263238"/>
<path d="M39.9372 76.0229C39.9641 76.0229 39.9899 76.0122 40.0089 75.9932C40.0279 75.9742 40.0385 75.9485 40.0385 75.9216C40.0385 75.8947 40.0279 75.869 40.0089 75.85C39.9899 75.831 39.9641 75.8203 39.9372 75.8203C39.9104 75.8203 39.8846 75.831 39.8656 75.85C39.8466 75.869 39.8359 75.8947 39.8359 75.9216C39.8359 75.9485 39.8466 75.9742 39.8656 75.9932C39.8846 76.0122 39.9104 76.0229 39.9372 76.0229Z" fill="#263238"/>
<path d="M43.8889 73.338C43.9114 73.3343 43.9318 73.3227 43.9465 73.3054C43.9612 73.288 43.9693 73.266 43.9693 73.2432C43.9693 73.2205 43.9612 73.1985 43.9465 73.1811C43.9318 73.1637 43.9114 73.1522 43.8889 73.1484C43.8665 73.1522 43.8461 73.1637 43.8314 73.1811C43.8167 73.1985 43.8086 73.2205 43.8086 73.2432C43.8086 73.266 43.8167 73.288 43.8314 73.3054C43.8461 73.3227 43.8665 73.3343 43.8889 73.338Z" fill="#263238"/>
<path d="M44.9681 76.3485H44.9915C45.085 76.3485 45.1214 76.229 45.0642 76.1719C45.0071 76.1147 44.8746 76.1511 44.8876 76.2446V76.2654C44.8876 76.287 44.896 76.3077 44.911 76.3232C44.9261 76.3388 44.9465 76.3478 44.9681 76.3485Z" fill="#263238"/>
<path d="M47.2348 72.5465C47.2182 72.5497 47.2032 72.5585 47.1925 72.5716C47.1817 72.5846 47.1758 72.601 47.1758 72.6179C47.1758 72.6348 47.1817 72.6512 47.1925 72.6643C47.2032 72.6773 47.2182 72.6862 47.2348 72.6893H47.2764C47.3725 72.6893 47.3725 72.5335 47.2764 72.5413L47.2348 72.5465Z" fill="#263238"/>
<path d="M45.3787 69.9742C45.3994 69.9742 45.4192 69.966 45.4338 69.9514C45.4484 69.9368 45.4566 69.9169 45.4566 69.8963C45.4566 69.8756 45.4484 69.8558 45.4338 69.8412C45.4192 69.8266 45.3994 69.8184 45.3787 69.8184C45.358 69.8184 45.3382 69.8266 45.3236 69.8412C45.309 69.8558 45.3008 69.8756 45.3008 69.8963C45.3008 69.9169 45.309 69.9368 45.3236 69.9514C45.3382 69.966 45.358 69.9742 45.3787 69.9742Z" fill="#263238"/>
<path d="M45.7654 67.6187C45.7861 67.6187 45.8059 67.6105 45.8205 67.5959C45.8351 67.5813 45.8433 67.5615 45.8433 67.5408C45.8433 67.5201 45.8351 67.5003 45.8205 67.4857C45.8059 67.4711 45.7861 67.4629 45.7654 67.4629C45.7448 67.4629 45.7249 67.4711 45.7103 67.4857C45.6957 67.5003 45.6875 67.5201 45.6875 67.5408C45.6875 67.5615 45.6957 67.5813 45.7103 67.5959C45.7249 67.6105 45.7448 67.6187 45.7654 67.6187Z" fill="#263238"/>
<path d="M50.8664 73.6641C50.8426 73.6679 50.821 73.6801 50.8054 73.6984C50.7898 73.7167 50.7812 73.74 50.7812 73.7641C50.7812 73.7881 50.7898 73.8114 50.8054 73.8297C50.821 73.848 50.8426 73.8602 50.8664 73.8641C50.8901 73.8602 50.9117 73.848 50.9273 73.8297C50.9429 73.8114 50.9515 73.7881 50.9515 73.7641C50.9515 73.74 50.9429 73.7167 50.9273 73.6984C50.9117 73.6801 50.8901 73.6679 50.8664 73.6641Z" fill="#263238"/>
<path d="M40.4749 78.8551H40.5139C40.5299 78.8507 40.544 78.8413 40.5541 78.8281C40.5641 78.815 40.5696 78.7989 40.5696 78.7823C40.5696 78.7658 40.5641 78.7497 40.5541 78.7365C40.544 78.7234 40.5299 78.7139 40.5139 78.7096H40.4749C40.4623 78.7026 40.448 78.699 40.4335 78.6992C40.4191 78.6994 40.4049 78.7034 40.3925 78.7107C40.38 78.7181 40.3697 78.7285 40.3625 78.7411C40.3553 78.7537 40.3516 78.7679 40.3516 78.7823C40.3516 78.7968 40.3553 78.811 40.3625 78.8236C40.3697 78.8361 40.38 78.8466 40.3925 78.8539C40.4049 78.8613 40.4191 78.8652 40.4335 78.8654C40.448 78.8656 40.4623 78.8621 40.4749 78.8551Z" fill="#263238"/>
<path d="M35.381 80.8382C35.3937 80.8355 35.4051 80.8284 35.4133 80.8183C35.4215 80.8081 35.426 80.7955 35.426 80.7824C35.426 80.7694 35.4215 80.7567 35.4133 80.7465C35.4051 80.7364 35.3937 80.7293 35.381 80.7266C35.3682 80.7293 35.3568 80.7364 35.3486 80.7465C35.3404 80.7567 35.3359 80.7694 35.3359 80.7824C35.3359 80.7955 35.3404 80.8081 35.3486 80.8183C35.3568 80.8284 35.3682 80.8355 35.381 80.8382Z" fill="#263238"/>
<path d="M37.1078 83.7357L37.0688 83.7617C36.9935 83.8085 37.0403 83.9461 37.1312 83.9097L37.1753 83.8942C37.2948 83.8474 37.2117 83.6682 37.1078 83.7357Z" fill="#263238"/>
<path d="M39.5859 81.9509V81.9717C39.5859 82.086 39.7729 82.086 39.7652 81.9717V81.9509C39.7652 81.9272 39.7557 81.9044 39.7389 81.8876C39.7221 81.8708 39.6993 81.8613 39.6755 81.8613C39.6518 81.8613 39.629 81.8708 39.6122 81.8876C39.5954 81.9044 39.5859 81.9272 39.5859 81.9509Z" fill="#263238"/>
<path d="M39.8528 85.7358L39.8658 85.7514C39.8732 85.7637 39.8836 85.774 39.8961 85.7811C39.9086 85.7882 39.9228 85.792 39.9372 85.792C39.9516 85.792 39.9658 85.7882 39.9783 85.7811C39.9908 85.774 40.0013 85.7637 40.0086 85.7514V85.7358C40.0166 85.7211 40.0206 85.7047 40.0203 85.688C40.02 85.6714 40.0153 85.6551 40.0068 85.6408C39.9983 85.6264 39.9862 85.6146 39.9717 85.6063C39.9573 85.5981 39.9409 85.5938 39.9242 85.5938C39.9076 85.5938 39.8912 85.5981 39.8767 85.6063C39.8622 85.6146 39.8501 85.6264 39.8416 85.6408C39.8331 85.6551 39.8285 85.6714 39.8281 85.688C39.8278 85.7047 39.8318 85.7211 39.8398 85.7358H39.8528Z" fill="#263238"/>
<path d="M43.156 84.959C43.1291 84.959 43.1034 84.9697 43.0844 84.9887C43.0654 85.0076 43.0547 85.0334 43.0547 85.0603C43.0547 85.0871 43.0654 85.1129 43.0844 85.1319C43.1034 85.1509 43.1291 85.1616 43.156 85.1616C43.1828 85.1616 43.2086 85.1509 43.2276 85.1319C43.2466 85.1129 43.2573 85.0871 43.2573 85.0603C43.2573 85.0334 43.2466 85.0076 43.2276 84.9887C43.2086 84.9697 43.1828 84.959 43.156 84.959Z" fill="#263238"/>
<path d="M44.9034 82.0156C44.8751 82.0156 44.848 82.0268 44.8281 82.0468C44.8081 82.0668 44.7969 82.0939 44.7969 82.1221C44.7969 82.1504 44.8081 82.1774 44.8281 82.1974C44.848 82.2174 44.8751 82.2286 44.9034 82.2286C44.9316 82.2286 44.9587 82.2174 44.9787 82.1974C44.9986 82.1774 45.0099 82.1504 45.0099 82.1221C45.0099 82.0939 44.9986 82.0668 44.9787 82.0468C44.9587 82.0268 44.9316 82.0156 44.9034 82.0156Z" fill="#263238"/>
<path d="M42.1691 53.1034C42.1821 53.0826 42.3873 53.2385 42.5457 53.5424C43.5509 54.7787 43.647 56.4332 43.2652 57.6799C43.3658 57.8857 43.4266 58.1086 43.4444 58.337C43.5327 59.2591 42.9925 59.4954 42.5457 59.5292C42.5399 59.5461 42.5356 59.5635 42.5328 59.5811C42.5184 59.6956 42.5471 59.8113 42.6133 59.9058C42.6541 59.9595 42.7073 60.0024 42.7684 60.0309C42.8295 60.0594 42.8966 60.0726 42.9639 60.0694C43.0317 60.0706 43.0987 60.0554 43.1593 60.0251C43.2199 59.9948 43.2722 59.9503 43.312 59.8954C43.3738 59.7982 43.3987 59.6821 43.3821 59.5681C43.3575 59.4594 43.3126 59.3563 43.2496 59.2642C43.2496 59.2487 43.4107 59.311 43.4756 59.5499C43.4935 59.6193 43.4975 59.6915 43.4872 59.7624C43.4769 59.8333 43.4527 59.9015 43.4158 59.9629C43.3655 60.036 43.2984 60.096 43.2201 60.1379C43.1419 60.1798 43.0547 60.2023 42.966 60.2035C42.8772 60.2048 42.7895 60.1848 42.71 60.1452C42.6306 60.1056 42.5618 60.0476 42.5094 59.9759C42.471 59.9156 42.445 59.8482 42.433 59.7778C42.4209 59.7073 42.4231 59.6352 42.4393 59.5655V59.5344C42.3727 59.5398 42.3058 59.5398 42.2393 59.5344L42.2626 63.5186C42.3876 63.7901 42.5832 64.0231 42.829 64.193C43.0749 64.363 43.3619 64.4638 43.66 64.4848C43.9532 64.4866 44.2359 64.3753 44.4492 64.1741C44.6625 63.9729 44.7901 63.6972 44.8054 63.4044C44.8054 63.381 44.8054 63.3576 44.8054 63.3316C44.8455 63.3756 44.8889 63.4164 44.9353 63.4537C45.1836 63.665 45.4911 63.7947 45.8158 63.8251C46.0129 63.847 46.2125 63.8293 46.4028 63.7732C46.6818 63.6849 46.9311 63.5213 47.1231 63.3004C47.3152 63.0795 47.4425 62.8099 47.491 62.5213C47.9793 62.5213 48.5871 62.4667 48.7559 62.0018C48.8962 61.62 48.6079 61.2044 48.265 60.9837C48.0982 60.8851 47.9246 60.7983 47.7456 60.7239C47.4635 60.6828 47.2041 60.5462 47.0105 60.3369C46.7462 60.0585 46.5841 59.6987 46.5508 59.3162C46.5409 59.1842 46.5479 59.0516 46.5716 58.9214C46.5682 58.4351 46.6064 57.9493 46.6859 57.4695C46.844 56.5016 46.7962 55.5113 46.5456 54.5631C46.4999 54.417 46.4453 54.2739 46.382 54.1345C46.1586 53.8748 45.9534 53.6956 45.7976 53.5501C45.6799 53.4529 45.5688 53.3479 45.4651 53.2359C45.5002 53.2541 45.5332 53.2758 45.5638 53.3008C45.6288 53.3476 45.7197 53.4177 45.8236 53.5112C45.9275 53.6047 46.0989 53.7449 46.2651 53.906C45.937 53.2348 45.377 52.7052 44.6885 52.4151C43.7925 52.0697 42.647 52.3294 42.1172 53.1268C42.1331 53.1393 42.1479 53.1532 42.1613 53.1683C42.1717 53.1294 42.1613 53.1086 42.1691 53.1034Z" fill="#263238"/>
<path d="M35.7626 53.1235C36.5875 52.6537 37.5173 52.3992 38.4664 52.3833C39.0132 52.3846 39.5584 52.4446 40.0923 52.5625C41.5312 52.8664 42.2637 53.6715 42.2637 55.9546V57.1675C42.464 57.1362 42.669 57.1697 42.8489 57.2631C43.0288 57.3566 43.1742 57.5051 43.2637 57.687C43.6455 56.4403 43.5494 54.7858 42.5442 53.5495C42.6043 53.6612 42.6505 53.7798 42.6819 53.9027C42.7869 54.2121 42.7673 54.5503 42.6273 54.8455C42.6325 54.5408 42.6073 54.2362 42.552 53.9365C42.4724 53.6584 42.3478 53.3951 42.1832 53.1573C42.1697 53.1421 42.155 53.1282 42.139 53.1157L42.1182 53.0949C42.0767 53.1521 42.0481 53.1859 42.0377 53.1807C42.0273 53.1755 42.0377 53.1287 42.0715 53.056C41.3858 52.456 40.4144 52.0171 39.0872 51.8638C37.947 51.7366 37.1288 51.8768 36.5392 52.1495C36.6616 52.1105 36.7909 52.0981 36.9184 52.1132C36.9184 52.1365 36.6873 52.1625 36.3418 52.3028C36.238 52.3458 36.1366 52.3944 36.0379 52.4482C35.5738 52.8054 35.2472 53.3118 35.1133 53.8819C35.235 53.5613 35.4646 53.2932 35.7626 53.1235Z" fill="#263238"/>
<path d="M37.5078 63.2223C38.4769 63.1966 39.4174 62.8888 40.2142 62.3366C40.2142 62.3366 39.5779 63.8561 37.5416 63.734L37.5208 63.4301C37.5364 63.8353 37.5728 64.7729 37.5935 65.4586C37.6974 65.4794 37.9208 65.5339 38.2299 65.5937C39.3618 65.817 40.5264 65.817 41.6583 65.5937C41.9596 65.5339 42.1778 65.482 42.2869 65.4612V63.508L42.2505 59.5289C42.161 59.5272 42.0728 59.5078 41.9908 59.4718C41.9908 59.4484 41.9908 58.8381 41.9908 58.2563C40.8298 57.7368 39.2662 55.6018 39.2662 55.6018L39.6169 56.5654C39.1511 56.6485 38.6722 56.6187 38.2203 56.4786C37.7684 56.3385 37.3567 56.0922 37.0195 55.7602L37.3442 56.2277C35.9598 56.0771 35.3728 55.5161 35.1443 54.9473C35.0897 56.4511 34.9962 59.3913 35.0612 60.9029C35.1313 62.5314 36.5806 63.0353 37.2143 63.1782C37.3104 63.2004 37.4075 63.2178 37.5052 63.2301L37.5078 63.2223ZM38.7545 57.5082C38.7545 57.4569 38.7698 57.4066 38.7983 57.3639C38.8269 57.3212 38.8674 57.2879 38.9149 57.2683C38.9623 57.2486 39.0146 57.2435 39.065 57.2535C39.1153 57.2635 39.1616 57.2882 39.1979 57.3246C39.2343 57.3609 39.259 57.4072 39.269 57.4576C39.279 57.5079 39.2739 57.5602 39.2542 57.6076C39.2346 57.6551 39.2013 57.6956 39.1586 57.7242C39.1159 57.7527 39.0657 57.768 39.0143 57.768C38.9476 57.768 38.8834 57.7425 38.8351 57.6965C38.7867 57.6506 38.7579 57.5878 38.7545 57.5212V57.5082ZM38.4818 57.1108C38.5956 57.0164 38.7371 56.9617 38.8848 56.9551C39.0325 56.9486 39.1783 56.9905 39.3 57.0745C39.3909 57.1394 39.4247 57.2043 39.4091 57.2199C39.3935 57.2355 39.1727 57.1134 38.8896 57.1264C38.6065 57.1394 38.4143 57.303 38.3831 57.2667C38.352 57.2303 38.3961 57.1913 38.4818 57.1238V57.1108ZM37.7909 60.4873C37.8084 60.399 37.847 60.3161 37.9036 60.246C37.9602 60.1759 38.0329 60.1205 38.1156 60.0848C38.2054 60.0481 38.3045 60.0409 38.3987 60.064C38.4481 59.9263 38.4611 59.8198 38.487 59.8224C38.513 59.825 38.5416 59.8978 38.5312 60.0354C38.5303 60.0653 38.526 60.0949 38.5182 60.1237C38.562 60.154 38.5967 60.1956 38.6187 60.2441C38.6407 60.2926 38.649 60.3462 38.6429 60.399C38.6248 60.4654 38.588 60.5252 38.5369 60.5713C38.4858 60.6174 38.4225 60.6477 38.3546 60.6588C38.2549 60.6769 38.1529 60.6769 38.0533 60.6588C37.9777 60.6876 37.8978 60.7034 37.8169 60.7055C37.6793 60.7055 37.6013 60.6666 37.6065 60.6458C37.6117 60.625 37.6974 60.6172 37.8195 60.5834C37.8068 60.5729 37.7969 60.5592 37.791 60.5437C37.7851 60.5283 37.7833 60.5115 37.7858 60.4951L37.7909 60.4873ZM35.9728 57.7056C35.9039 57.7056 35.8379 57.6783 35.7892 57.6295C35.7405 57.5808 35.7131 57.5148 35.7131 57.4459C35.7131 57.3945 35.7283 57.3443 35.7569 57.3016C35.7854 57.2589 35.826 57.2256 35.8734 57.2059C35.9209 57.1863 35.9731 57.1811 36.0235 57.1911C36.0739 57.2012 36.1202 57.2259 36.1565 57.2622C36.1928 57.2986 36.2175 57.3448 36.2276 57.3952C36.2376 57.4456 36.2324 57.4978 36.2128 57.5453C36.1931 57.5927 36.1598 57.6333 36.1171 57.6618C36.0744 57.6904 36.0242 57.7056 35.9728 57.7056ZM36.3079 57.1914C36.2793 57.2277 36.0715 57.0823 35.7884 57.0979C35.5053 57.1134 35.3131 57.2719 35.2819 57.2381C35.2508 57.2043 35.2819 57.155 35.378 57.0797C35.4918 56.9852 35.6333 56.9305 35.781 56.924C35.9287 56.9174 36.0745 56.9593 36.1962 57.0433C36.2897 57.0978 36.3235 57.1628 36.3079 57.1914ZM37.0455 59.7237C37.018 59.7186 36.992 59.7073 36.9695 59.6907C36.947 59.674 36.9286 59.6525 36.9156 59.6276C36.8816 59.5292 36.8816 59.4222 36.9156 59.3237C36.9572 59.1289 37.004 58.9264 37.0507 58.7134C37.1507 58.1839 37.2914 57.6629 37.4715 57.155C37.4088 57.6881 37.3072 58.2159 37.1676 58.7342C37.1182 58.9471 37.0689 59.1497 37.0221 59.3419C36.9935 59.4164 36.9863 59.4974 37.0014 59.5757C37.0195 59.625 37.0871 59.6302 37.1598 59.6302C37.3135 59.6173 37.4683 59.626 37.6195 59.6562C37.4704 59.6958 37.3167 59.7159 37.1624 59.7159C37.1235 59.7199 37.0842 59.719 37.0455 59.7133V59.7237Z" fill="#FFBE9D"/>
<path d="M35.9707 57.1914C35.9018 57.1914 35.8357 57.2188 35.787 57.2675C35.7383 57.3162 35.7109 57.3823 35.7109 57.4511C35.7109 57.52 35.7383 57.5861 35.787 57.6348C35.8357 57.6835 35.9018 57.7109 35.9707 57.7109C36.0396 57.7109 36.1056 57.6835 36.1543 57.6348C36.203 57.5861 36.2304 57.52 36.2304 57.4511C36.2304 57.3823 36.203 57.3162 36.1543 57.2675C36.1056 57.2188 36.0396 57.1914 35.9707 57.1914Z" fill="#263238"/>
<path d="M36.1968 57.0321C36.0751 56.9481 35.9293 56.9062 35.7816 56.9128C35.6339 56.9193 35.4924 56.974 35.3787 57.0685C35.293 57.1438 35.2644 57.2087 35.2826 57.2269C35.3008 57.2451 35.5085 57.097 35.789 57.0867C36.0696 57.0763 36.2773 57.2165 36.3085 57.1802C36.3397 57.1438 36.2877 57.097 36.1968 57.0321Z" fill="#263238"/>
<path d="M39.2734 57.5312C39.2734 57.4623 39.246 57.3963 39.1973 57.3476C39.1486 57.2989 39.0825 57.2715 39.0136 57.2715C38.9448 57.2715 38.8787 57.2989 38.83 57.3476C38.7813 57.3963 38.7539 57.4623 38.7539 57.5312C38.7539 57.6001 38.7813 57.6662 38.83 57.7149C38.8787 57.7636 38.9448 57.7909 39.0136 57.7909C39.0825 57.7909 39.1486 57.7636 39.1973 57.7149C39.246 57.6662 39.2734 57.6001 39.2734 57.5312Z" fill="#263238"/>
<path d="M38.8919 57.1387C39.1724 57.1258 39.3802 57.2712 39.4114 57.2322C39.4426 57.1933 39.3932 57.1517 39.3023 57.0868C39.1806 57.0028 39.0348 56.9609 38.8871 56.9675C38.7394 56.974 38.5979 57.0287 38.4841 57.1232C38.3984 57.1959 38.3699 57.2634 38.388 57.279C38.4062 57.2946 38.6114 57.1491 38.8919 57.1387Z" fill="#263238"/>
<path d="M37.1603 59.6276C37.0876 59.6276 37.02 59.6276 37.0019 59.573C36.9868 59.4947 36.994 59.4137 37.0226 59.3393C37.0694 59.1471 37.1187 58.9445 37.1681 58.7315C37.3077 58.2132 37.4093 57.6854 37.472 57.1523C37.2919 57.6602 37.1512 58.1812 37.0512 58.7107C37.0045 58.9237 36.9577 59.1263 36.9162 59.3211C36.8821 59.4195 36.8821 59.5266 36.9162 59.625C36.9291 59.6498 36.9475 59.6714 36.97 59.688C36.9925 59.7047 37.0185 59.716 37.046 59.7211C37.0865 59.7263 37.1276 59.7263 37.1681 59.7211C37.3224 59.721 37.4761 59.7009 37.6252 59.6614C37.4726 59.6281 37.3161 59.6167 37.1603 59.6276Z" fill="#263238"/>
<path d="M40.2142 62.3359C39.4174 62.8881 38.4769 63.1959 37.5078 63.2216L37.5208 63.4242L37.5416 63.7281C39.5779 63.8554 40.2142 62.3359 40.2142 62.3359Z" fill="#EB996E"/>
<path d="M38.1758 60.3985C38.2693 60.3073 38.3411 60.1963 38.3862 60.0738C38.292 60.0507 38.1929 60.0579 38.1031 60.0946C38.0204 60.1303 37.9476 60.1857 37.8911 60.2558C37.8345 60.3259 37.7958 60.4088 37.7784 60.4972C37.7759 60.5135 37.7778 60.5303 37.7837 60.5457C37.7896 60.5612 37.7994 60.5749 37.8122 60.5855C37.9466 60.553 38.0712 60.4889 38.1758 60.3985Z" fill="#EB996E"/>
<path d="M38.0508 60.6737C38.1504 60.6918 38.2525 60.6918 38.3521 60.6737C38.42 60.6627 38.4833 60.6323 38.5344 60.5862C38.5855 60.5402 38.6223 60.4804 38.6404 60.414C38.6465 60.3611 38.6382 60.3075 38.6162 60.259C38.5942 60.2106 38.5595 60.1689 38.5157 60.1387C38.4844 60.2857 38.4092 60.4197 38.3001 60.5231C38.2272 60.5885 38.1426 60.6396 38.0508 60.6737Z" fill="#EB996E"/>
<path d="M37.8145 60.5983C37.6925 60.6321 37.6016 60.6373 37.6016 60.6606C37.6016 60.684 37.6743 60.723 37.8119 60.7204C37.8928 60.7182 37.9727 60.7024 38.0483 60.6736C38.1442 60.6392 38.2325 60.5862 38.308 60.5178C38.4171 60.4144 38.4923 60.2804 38.5236 60.1334C38.5314 60.1045 38.5357 60.0749 38.5366 60.0451C38.5366 59.9074 38.5132 59.8295 38.4924 59.8321C38.4717 59.8347 38.4535 59.936 38.4041 60.0736C38.3585 60.2016 38.2816 60.3162 38.1805 60.4069C38.0793 60.4976 37.9571 60.5616 37.8249 60.5931L37.8145 60.5983Z" fill="#263238"/>
<path d="M42.4473 59.5286C42.5097 59.3156 42.6551 59.2533 42.6551 59.2689C42.6551 59.2845 42.5798 59.3624 42.546 59.5286C42.9928 59.4949 43.533 59.2689 43.4447 58.3365C43.4269 58.1081 43.3661 57.8851 43.2655 57.6793C43.176 57.4974 43.0307 57.3489 42.8508 57.2555C42.6709 57.162 42.4658 57.1285 42.2655 57.1599V58.3391C42.1759 58.3171 42.0888 58.2857 42.0058 58.2456C42.0058 58.8274 41.9928 59.4377 42.0058 59.4611C42.0877 59.4971 42.176 59.5165 42.2655 59.5182C42.3258 59.5262 42.3865 59.5297 42.4473 59.5286ZM42.4473 57.6923C42.4869 57.656 42.5391 57.6365 42.5928 57.6378C42.6568 57.6442 42.7181 57.6669 42.7708 57.7037C42.8236 57.7406 42.866 57.7903 42.8941 57.8482C42.9724 57.9745 43.0188 58.118 43.0291 58.2663C43.0503 58.4022 43.0308 58.5413 42.973 58.6662C42.9153 58.791 42.8218 58.8959 42.7045 58.9676C42.6629 58.9858 42.6176 58.9936 42.5723 58.9905C42.5271 58.9873 42.4833 58.9732 42.4447 58.9494C42.3954 58.9183 42.3824 58.8845 42.3876 58.8793C42.3928 58.8741 42.4161 58.8975 42.4629 58.9131C42.5292 58.9332 42.6006 58.9276 42.6629 58.8975C42.7577 58.8261 42.8317 58.7306 42.8774 58.6211C42.9231 58.5115 42.9387 58.3917 42.9226 58.2741C42.914 58.1423 42.8748 58.0143 42.8083 57.9001C42.79 57.8532 42.7606 57.8115 42.7226 57.7785C42.6846 57.7455 42.6391 57.7221 42.5902 57.7105C42.5584 57.7057 42.5259 57.7122 42.4984 57.7288C42.4709 57.7454 42.4501 57.7711 42.4395 57.8014C42.4239 57.8456 42.4395 57.8741 42.4395 57.8793C42.4395 57.8845 42.4032 57.856 42.411 57.791C42.4183 57.7608 42.4335 57.733 42.4551 57.7105L42.4473 57.6923Z" fill="#FFBE9D"/>
<path d="M42.4373 57.8868C42.4373 57.8868 42.4373 57.853 42.4373 57.8089C42.4465 57.776 42.4675 57.7478 42.4963 57.7295C42.525 57.7113 42.5596 57.7044 42.5932 57.7102C42.6423 57.7212 42.6881 57.7439 42.7266 57.7765C42.765 57.8091 42.795 57.8505 42.8139 57.8972C42.8804 58.0113 42.9195 58.1393 42.9282 58.2712C42.9442 58.3888 42.9286 58.5085 42.883 58.6181C42.8373 58.7277 42.7633 58.8231 42.6685 58.8945C42.6061 58.9247 42.5347 58.9303 42.4685 58.9101C42.4217 58.8945 42.401 58.8711 42.3932 58.8763C42.3854 58.8815 42.3932 58.9153 42.4503 58.9465C42.4889 58.9703 42.5327 58.9844 42.5779 58.9875C42.6232 58.9907 42.6685 58.9828 42.71 58.9647C42.8274 58.8929 42.9208 58.788 42.9786 58.6632C43.0364 58.5384 43.0559 58.3993 43.0347 58.2634C43.0243 58.1151 42.978 57.9715 42.8996 57.8452C42.8716 57.7873 42.8291 57.7376 42.7764 57.7008C42.7237 57.664 42.6624 57.6412 42.5984 57.6348C42.5446 57.6335 42.4925 57.6531 42.4529 57.6894C42.4258 57.7168 42.4085 57.7524 42.4036 57.7907C42.401 57.8634 42.4347 57.8894 42.4373 57.8868Z" fill="#EB996E"/>
<path d="M37.3441 56.2242L37.0194 55.7567C37.3565 56.0887 37.7683 56.335 38.2202 56.4751C38.6721 56.6152 39.1509 56.6449 39.6167 56.5619L39.2661 55.5983C39.2661 55.5983 40.8245 57.7411 41.9907 58.2527C42.0737 58.2929 42.1608 58.3243 42.2504 58.3463V55.9541C42.2504 53.6711 41.518 52.8659 40.079 52.562C39.5451 52.4442 39 52.3841 38.4531 52.3828C37.504 52.3987 36.5742 52.6533 35.7493 53.123C35.4518 53.2921 35.2222 53.5592 35.1 53.8789C35.0109 54.1076 34.9858 54.3563 35.0273 54.5983C35.049 54.7167 35.0829 54.8324 35.1286 54.9438C35.3727 55.5126 35.9597 56.0736 37.3441 56.2242Z" fill="#263238"/>
<path d="M42.0415 53.1784C42.0415 53.1784 42.0805 53.1498 42.122 53.0927C42.3127 52.805 42.5397 52.5431 42.7973 52.3135C43.0996 52.0832 43.4191 51.8765 43.7531 51.6953C43.3615 51.757 42.9985 51.9385 42.7142 52.2148C42.4436 52.4421 42.2271 52.7269 42.0805 53.0485C42.0441 53.1264 42.0337 53.1758 42.0415 53.1784Z" fill="#263238"/>
<path d="M45.8467 53.498C45.7324 53.4045 45.6415 53.3343 45.587 53.2876C45.5564 53.2626 45.5233 53.2409 45.4883 53.2227C45.592 53.3347 45.7031 53.4397 45.8207 53.5369C45.9766 53.6824 46.1818 53.8746 46.4051 54.1213C46.4934 54.22 46.5843 54.3239 46.6649 54.4382C47.0559 54.9098 47.3236 55.4712 47.4441 56.0719C47.5101 56.4235 47.5048 56.7847 47.4285 57.1342C47.3847 57.315 47.3184 57.4895 47.2311 57.6537C47.1428 57.8225 47.0311 57.9861 46.9246 58.1576C46.8106 58.3267 46.7173 58.509 46.6467 58.7004C46.6225 58.7662 46.6042 58.834 46.5921 58.903C46.5685 59.0332 46.5615 59.1658 46.5714 59.2978C46.6047 59.6802 46.7667 60.0401 47.0311 60.3185C47.2247 60.5278 47.4841 60.6643 47.7661 60.7055C47.83 60.712 47.8944 60.712 47.9583 60.7055C48.1121 60.7029 48.2624 60.6594 48.3939 60.5795C48.5253 60.4996 48.6332 60.3863 48.7064 60.251C48.7675 60.14 48.7996 60.0154 48.7996 59.8887C48.7996 59.762 48.7675 59.6373 48.7064 59.5263C48.6542 59.4473 48.5853 59.3807 48.5045 59.3313C48.4237 59.2819 48.333 59.251 48.2388 59.2406C48.1217 59.2247 48.0025 59.2465 47.8986 59.303C47.8623 59.3221 47.8304 59.3486 47.8051 59.3809C47.9314 59.3001 48.083 59.2687 48.231 59.2926C48.3152 59.3052 48.3956 59.3362 48.4665 59.3834C48.5374 59.4305 48.5971 59.4926 48.6414 59.5653C48.6931 59.6648 48.719 59.7756 48.7167 59.8877C48.7144 59.9998 48.6841 60.1095 48.6284 60.2068C48.5603 60.3237 48.463 60.4209 48.3459 60.4888C48.2289 60.5566 48.0962 60.5928 47.9609 60.5938C47.8034 60.597 47.6472 60.5656 47.5031 60.5019C47.3591 60.4382 47.2308 60.3437 47.1272 60.225C46.8873 59.9659 46.741 59.634 46.7116 59.2822C46.6936 58.9052 46.8065 58.5336 47.0311 58.2303C47.1376 58.0615 47.2493 57.8952 47.3428 57.7108C47.4358 57.5347 47.5049 57.3469 47.548 57.1524C47.6244 56.7858 47.6244 56.4074 47.548 56.0407C47.4221 55.4226 47.1405 54.8469 46.7298 54.3681C46.5881 54.1981 46.4372 54.036 46.2779 53.8824C46.122 53.7317 45.9662 53.5993 45.8467 53.498Z" fill="#263238"/>
<path d="M42.168 53.1034C42.168 53.1034 42.168 53.1294 42.1836 53.1554C42.3482 53.3932 42.4728 53.6564 42.5524 53.9345C42.6077 54.2343 42.6329 54.5388 42.6277 54.8436C42.7677 54.5484 42.7873 54.2102 42.6822 53.9008C42.6509 53.7779 42.6047 53.6592 42.5446 53.5475C42.3861 53.2385 42.181 53.0826 42.168 53.1034Z" fill="#0536B3"/>
<path d="M42.4475 59.5282V59.5594C42.4314 59.629 42.4292 59.7012 42.4413 59.7716C42.4533 59.8421 42.4793 59.9095 42.5177 59.9698C42.5701 60.0414 42.6389 60.0995 42.7183 60.1391C42.7977 60.1787 42.8855 60.1987 42.9743 60.1974C43.063 60.1961 43.1502 60.1736 43.2284 60.1318C43.3067 60.0899 43.3738 60.0299 43.4241 59.9568C43.461 59.8953 43.4852 59.8272 43.4955 59.7563C43.5057 59.6854 43.5018 59.6132 43.4839 59.5438C43.4189 59.3049 43.2579 59.2425 43.2579 59.2581C43.3209 59.3501 43.3658 59.4532 43.3904 59.562C43.407 59.676 43.3821 59.7921 43.3202 59.8893C43.2805 59.9441 43.2281 59.9886 43.1676 60.0189C43.107 60.0492 43.0399 60.0644 42.9722 60.0633C42.9049 60.0665 42.8378 60.0533 42.7767 60.0248C42.7156 59.9963 42.6624 59.9533 42.6216 59.8996C42.5554 59.8052 42.5267 59.6894 42.541 59.575C42.5438 59.5573 42.5482 59.5399 42.554 59.523C42.5878 59.3594 42.6787 59.2815 42.6631 59.2633C42.6475 59.2451 42.5099 59.3204 42.4475 59.5282Z" fill="#0536B3"/>
<path d="M36.9232 52.1117C36.7957 52.0966 36.6664 52.109 36.544 52.148C36.4659 52.1657 36.3887 52.1873 36.3129 52.213C35.8323 52.3763 35.4102 52.6769 35.0986 53.0776C34.787 53.4783 34.5997 53.9614 34.5597 54.4674C34.5314 54.6741 34.5501 54.8845 34.6142 55.083C34.6376 55.083 34.6142 54.8466 34.6558 54.4778C34.7093 54.0535 34.863 53.6481 35.1042 53.2949C35.3453 52.9417 35.667 52.651 36.0427 52.4467C36.1414 52.3929 36.2428 52.3443 36.3466 52.3013C36.6921 52.161 36.9258 52.135 36.9232 52.1117Z" fill="#263238"/>
<path d="M19.236 95.9975C19.6152 93.4002 22.4125 91.7145 25.0462 91.5976C27.6798 91.4807 30.2122 92.4989 32.716 93.3222C35.2198 94.1456 37.9678 94.7793 40.456 93.9066C43.6014 92.8002 45.4585 89.6314 47.9883 87.4575C49.9145 85.8417 52.2397 84.7735 54.7204 84.3645C57.2011 83.9556 59.7461 84.2209 62.0891 85.1329V98.361H18.8516L19.236 95.9975Z" fill="#0536B3"/>
<path d="M48.5635 89.2969H34.1172V90.0631H48.5635V89.2969Z" fill="#263238"/>
<path d="M53.3533 91.0996H29.3281V91.8658H53.3533V91.0996Z" fill="#263238"/>
<path d="M18.8516 41.2489C21.1216 44.1059 25.7189 46.1137 29.3603 46.363C31.7888 46.5318 34.2069 46.0254 36.6328 45.802C39.0587 45.5786 41.6326 45.6747 43.7261 46.9136C46.3 48.4383 47.6714 51.3914 49.9596 53.3316C53.3128 56.1887 58.658 56.3731 62.1982 53.7524V40.8281L18.8516 41.2489ZM31.942 45.6332H27.724C27.6087 45.6395 27.4933 45.6223 27.3848 45.5826C27.2764 45.5429 27.1772 45.4814 27.0933 45.4021C27.0094 45.3227 26.9426 45.2271 26.8969 45.121C26.8513 45.0149 26.8277 44.9006 26.8277 44.7851C26.8277 44.6696 26.8513 44.5554 26.8969 44.4493C26.9426 44.3432 27.0094 44.2476 27.0933 44.1682C27.1772 44.0888 27.2764 44.0274 27.3848 43.9877C27.4933 43.9479 27.6087 43.9307 27.724 43.9371H31.942C32.1588 43.9491 32.3628 44.0437 32.512 44.2014C32.6613 44.3591 32.7444 44.568 32.7444 44.7851C32.7444 45.0023 32.6613 45.2111 32.512 45.3689C32.3628 45.5266 32.1588 45.6212 31.942 45.6332ZM40.8326 45.6332C40.6076 45.6332 40.3877 45.5664 40.2006 45.4414C40.0135 45.3164 39.8677 45.1388 39.7816 44.9309C39.6955 44.723 39.673 44.4943 39.7169 44.2736C39.7608 44.0529 39.8691 43.8502 40.0282 43.6911C40.1873 43.532 40.39 43.4237 40.6107 43.3798C40.8314 43.3359 41.0601 43.3584 41.268 43.4445C41.4759 43.5306 41.6535 43.6764 41.7786 43.8635C41.9036 44.0506 41.9703 44.2705 41.9703 44.4955C41.9703 44.6454 41.9407 44.7937 41.8832 44.9321C41.8257 45.0705 41.7414 45.1961 41.6352 45.3018C41.5291 45.4075 41.403 45.4912 41.2644 45.5481C41.1258 45.6049 40.9773 45.6338 40.8275 45.6332H40.8326ZM53.9101 45.6332H49.6895C49.4727 45.6212 49.2687 45.5266 49.1195 45.3689C48.9703 45.2111 48.8871 45.0023 48.8871 44.7851C48.8871 44.568 48.9703 44.3591 49.1195 44.2014C49.2687 44.0437 49.4727 43.9491 49.6895 43.9371H53.9049C54.1217 43.9491 54.3257 44.0437 54.4749 44.2014C54.6242 44.3591 54.7073 44.568 54.7073 44.7851C54.7073 45.0023 54.6242 45.2111 54.4749 45.3689C54.3257 45.5266 54.1217 45.6212 53.9049 45.6332H53.9101Z" fill="#0536B3"/>
<path opacity="0.5" d="M18.8516 41.2489C21.1216 44.1059 25.7189 46.1137 29.3603 46.363C31.7888 46.5318 34.2069 46.0254 36.6328 45.802C39.0587 45.5786 41.6326 45.6747 43.7261 46.9136C46.3 48.4383 47.6714 51.3914 49.9596 53.3316C53.3128 56.1887 58.658 56.3731 62.1982 53.7524V40.8281L18.8516 41.2489ZM31.942 45.6332H27.724C27.6087 45.6395 27.4933 45.6223 27.3848 45.5826C27.2764 45.5429 27.1772 45.4814 27.0933 45.4021C27.0094 45.3227 26.9426 45.2271 26.8969 45.121C26.8513 45.0149 26.8277 44.9006 26.8277 44.7851C26.8277 44.6696 26.8513 44.5554 26.8969 44.4493C26.9426 44.3432 27.0094 44.2476 27.0933 44.1682C27.1772 44.0888 27.2764 44.0274 27.3848 43.9877C27.4933 43.9479 27.6087 43.9307 27.724 43.9371H31.942C32.1588 43.9491 32.3628 44.0437 32.512 44.2014C32.6613 44.3591 32.7444 44.568 32.7444 44.7851C32.7444 45.0023 32.6613 45.2111 32.512 45.3689C32.3628 45.5266 32.1588 45.6212 31.942 45.6332ZM40.8326 45.6332C40.6076 45.6332 40.3877 45.5664 40.2006 45.4414C40.0135 45.3164 39.8677 45.1388 39.7816 44.9309C39.6955 44.723 39.673 44.4943 39.7169 44.2736C39.7608 44.0529 39.8691 43.8502 40.0282 43.6911C40.1873 43.532 40.39 43.4237 40.6107 43.3798C40.8314 43.3359 41.0601 43.3584 41.268 43.4445C41.4759 43.5306 41.6535 43.6764 41.7786 43.8635C41.9036 44.0506 41.9703 44.2705 41.9703 44.4955C41.9703 44.6454 41.9407 44.7937 41.8832 44.9321C41.8257 45.0705 41.7414 45.1961 41.6352 45.3018C41.5291 45.4075 41.403 45.4912 41.2644 45.5481C41.1258 45.6049 40.9773 45.6338 40.8275 45.6332H40.8326ZM53.9101 45.6332H49.6895C49.4727 45.6212 49.2687 45.5266 49.1195 45.3689C48.9703 45.2111 48.8871 45.0023 48.8871 44.7851C48.8871 44.568 48.9703 44.3591 49.1195 44.2014C49.2687 44.0437 49.4727 43.9491 49.6895 43.9371H53.9049C54.1217 43.9491 54.3257 44.0437 54.4749 44.2014C54.6242 44.3591 54.7073 44.568 54.7073 44.7851C54.7073 45.0023 54.6242 45.2111 54.4749 45.3689C54.3257 45.5266 54.1217 45.6212 53.9049 45.6332H53.9101Z" fill="white"/>
<path d="M42.5463 35H39.1074C38.3869 35 37.6959 34.7138 37.1864 34.2043C36.6769 33.6948 36.3906 33.0037 36.3906 32.2832C36.3906 31.5627 36.6769 30.8716 37.1864 30.3621C37.6959 29.8526 38.3869 29.5664 39.1074 29.5664H42.5463C43.2668 29.5664 43.9578 29.8526 44.4673 30.3621C44.9768 30.8716 45.2631 31.5627 45.2631 32.2832C45.2631 33.0037 44.9768 33.6948 44.4673 34.2043C43.9578 34.7138 43.2668 35 42.5463 35ZM39.1074 30.6053C38.6624 30.6053 38.2356 30.7821 37.921 31.0968C37.6063 31.4114 37.4296 31.8382 37.4296 32.2832C37.4296 32.7282 37.6063 33.155 37.921 33.4696C38.2356 33.7843 38.6624 33.9611 39.1074 33.9611H42.5463C42.9913 33.9611 43.418 33.7843 43.7327 33.4696C44.0474 33.155 44.2241 32.7282 44.2241 32.2832C44.2241 31.8382 44.0474 31.4114 43.7327 31.0968C43.418 30.7821 42.9913 30.6053 42.5463 30.6053H39.1074Z" fill="#263238"/>
<path d="M39.9216 35.5508C39.9216 35.5508 39.519 38.078 39.345 38.6312C39.171 39.1844 38.3269 41.4493 38.5892 42.8129C38.8515 44.1765 39.5606 44.9219 40.906 44.7816L40.9372 44.0025C40.9372 44.0025 39.519 44.0025 39.4593 42.87C39.3996 41.7376 39.719 39.9065 40.3891 39.2675C40.5822 39.0726 40.8422 38.9584 41.1164 38.9481V35.5508H39.9216Z" fill="#455A64"/>
<path d="M40.0735 37.6719H38.7567C38.6364 37.6715 38.5173 37.6949 38.406 37.7407C38.2948 37.7865 38.1937 37.8538 38.1085 37.9387C38.0234 38.0237 37.9558 38.1246 37.9097 38.2357C37.8636 38.3468 37.8398 38.4659 37.8398 38.5861C37.8398 38.7064 37.8636 38.8255 37.9097 38.9366C37.9558 39.0477 38.0234 39.1486 38.1085 39.2335C38.1937 39.3185 38.2948 39.3858 38.406 39.4315C38.5173 39.4773 38.6364 39.5007 38.7567 39.5004H39.7593L40.0735 37.6719Z" fill="#455A64"/>
<path d="M39.4766 33.7188V35.2564H39.7856V35.8304H41.8531V35.3369H42.1726V33.7188H39.4766Z" fill="#263238"/>
<path d="M41.6996 33.1582H39.8867V34.0777H41.6996V33.1582Z" fill="#263238"/>
<path d="M38.4332 31.379L38.0748 18.943C38.0748 18.943 37.9657 15.3068 38.0929 12.3874C38.1735 10.5225 38.3968 9.18232 39.3241 7.9408C40.363 6.54345 45.3421 1.54102 45.3421 1.54102C45.3421 1.54102 43.5655 5.37206 43.5239 7.56159C43.4772 10.2342 43.5577 11.9251 43.6408 15.1795C43.6928 17.1743 43.8876 19.4911 43.9473 20.9326C44.0278 22.8286 44.1914 27.1947 44.1914 27.1947V31.379H38.4332Z" fill="#0536B3"/>
</g>
</svg>
